<svg width="170" height="170" viewBox="0 0 170 170" fill="none" xmlns="http://www.w3.org/2000/svg">
<mask id="mask0_721_4760" style="mask-type:luminance" maskUnits="userSpaceOnUse" x="11" y="3" width="148" height="164">
<path d="M158.083 3.86365H11.7143V166.136H158.083V3.86365Z" fill="white"/>
</mask>
<g mask="url(#mask0_721_4760)">
<path fill-rule="evenodd" clip-rule="evenodd" d="M125.137 116.258V100.179C125.137 87.3187 109.421 82.6528 98.5583 81.7124C97.6368 83.6075 96.6975 85.5025 95.7118 87.3187C104.23 102.752 96.9393 135.808 87.528 149.77C108.852 137.381 125.134 120.971 125.137 116.258ZM43.382 96.6756L42.8624 96.1301C43.0333 96.3131 43.2183 96.489 43.382 96.6756ZM62.1228 119.793C67.2501 131.659 64.7665 144.558 76.4053 155.656C57.2588 164.612 35.9098 168.875 19.0192 159.048C13.7994 156.007 13.191 154.741 13.1946 149.899C13.198 145.058 13.0806 140.123 13.2515 135.327C14.1482 126.95 18.3966 121.272 23.7801 115.156C29.8041 108.538 37.3331 103.201 42.8091 96.0797C48.8722 103.003 58.7141 111.897 62.1228 119.793Z" fill="#EDBE5C"/>
<path fill-rule="evenodd" clip-rule="evenodd" d="M123.694 116.258V100.179C123.694 95.2722 121.106 91.6687 117.377 89.0774C112.357 85.5887 105.28 83.8767 99.4088 83.2594L98.448 85.201L97.3592 87.3223C101.102 94.7159 101.629 105.516 100.206 116.416C98.8181 127.015 95.5802 137.783 91.6306 145.592C98.7087 141.139 105.42 136.119 111.699 130.578C119.132 123.95 123.708 118.412 123.708 116.258H123.694ZM126.589 100.179V116.258C126.589 119.198 121.647 125.59 113.606 132.768C105.778 139.677 97.2999 145.8 88.293 151.048C88.0568 151.183 87.7878 151.25 87.5164 151.24C87.2449 151.229 86.9816 151.143 86.7559 150.99C86.4398 150.773 86.2218 150.438 86.1498 150.06C86.0777 149.681 86.1576 149.29 86.3716 148.969C91.353 141.597 95.7046 128.73 97.3663 116.046C98.7612 105.376 98.2345 94.899 94.5198 88.0904C94.3871 87.8723 94.3134 87.6231 94.3059 87.3675C94.2984 87.1118 94.3575 86.8586 94.4772 86.6331C94.9716 85.7107 95.4449 84.7955 95.9004 83.8946L97.2346 81.1956C97.3479 80.9008 97.5523 80.6507 97.8178 80.4826C98.0832 80.3144 98.3954 80.2371 98.7078 80.2624C105.144 80.8187 113.264 82.6635 119.053 86.687C123.522 89.788 126.617 94.1596 126.615 100.186L126.589 100.179ZM43.8943 95.1179L44.4138 95.6671L44.3924 95.685C45.8157 97.2822 47.4525 99.0085 49.1462 100.796C54.6649 106.618 60.8205 113.114 63.4499 119.194C65.3038 123.501 66.1827 127.858 67.0615 132.229C68.6094 139.936 70.1642 147.663 77.3801 154.551C77.561 154.71 77.6991 154.914 77.7819 155.143C77.8647 155.371 77.8896 155.616 77.8543 155.857C77.8188 156.096 77.7243 156.324 77.5794 156.517C77.4344 156.712 77.2436 156.866 77.0244 156.967C66.5598 161.872 55.4049 165.393 44.6451 166.032C35.3547 166.585 26.3526 164.995 18.3148 160.311C15.4896 158.66 13.8883 157.439 12.9419 155.918C11.9349 154.321 11.7499 152.591 11.7499 149.899V145.7C11.7143 142.232 11.6859 138.733 11.8069 135.334V135.173C12.2348 131.11 13.5196 127.187 15.5749 123.666C17.4963 120.31 19.9551 117.295 22.6912 114.187L22.7091 114.169C25.2567 111.37 28.0997 108.785 30.9355 106.183C34.7463 102.705 38.5643 99.2203 41.6598 95.1897C41.7396 95.0864 41.8329 94.9947 41.9373 94.9169C42.2282 94.6978 42.59 94.5968 42.9511 94.6341C43.3123 94.6713 43.6463 94.844 43.8873 95.1179H43.8943ZM60.8169 120.36C58.3938 114.751 52.4196 108.452 47.0717 102.806C45.6129 101.266 44.1967 99.7695 42.8874 98.3302C39.8771 101.973 36.3867 105.15 32.8997 108.344C30.1421 110.856 27.3881 113.369 24.8795 116.125C22.2358 119.129 19.8768 122.015 18.1012 125.12C16.2552 128.281 15.1002 131.804 14.7139 135.453C14.5929 138.823 14.6142 142.272 14.6392 145.689V149.899C14.6392 152.052 14.7566 153.366 15.3828 154.374C16.0375 155.451 17.3505 156.395 19.7415 157.788C27.2492 162.145 35.707 163.642 44.4494 163.122C54.1775 162.543 64.2897 159.496 73.9074 155.182C67.2964 148.079 65.7557 140.43 64.2221 132.801C63.3824 128.594 62.5391 124.387 60.8169 120.36Z" fill="#3C3C3C"/>
<path fill-rule="evenodd" clip-rule="evenodd" d="M42.8091 96.0798C43.6346 95.003 46.0364 92.523 46.6946 91.4139C47.9969 89.1923 47.9471 88.338 48.2174 85.7286C59.3119 98.6784 85.4003 106.28 95.42 87.9037C98.2666 94.7231 90.1789 107.867 79.8175 111.772C72.1959 114.643 60.6035 112.848 54.7076 107.465L44.7447 98.3086L42.8091 96.0798Z" fill="white"/>
<path fill-rule="evenodd" clip-rule="evenodd" d="M41.6954 95.1537C42.0511 94.6764 42.5777 94.1058 43.1186 93.4811C43.9519 92.5917 44.728 91.6495 45.4421 90.6602C46.442 88.9553 46.5096 88.1478 46.691 86.3531L46.7729 85.5599C46.8005 85.2763 46.91 85.0072 47.0878 84.7857C47.2655 84.5643 47.5037 84.4002 47.7729 84.3139C48.0422 84.2275 48.3305 84.2227 48.6025 84.3C48.8744 84.3774 49.1178 84.5334 49.3027 84.7488C52.0963 87.9134 55.4175 90.5604 59.1161 92.5696C64.1189 95.3439 69.8225 97.1421 75.2915 97.3359C80.6537 97.5261 85.788 96.1767 89.7874 92.6915C91.5539 91.1296 93.0289 89.2614 94.1426 87.175C94.3281 86.8357 94.6393 86.5844 95.0081 86.4761C95.3769 86.3678 95.7733 86.4113 96.1103 86.5972C96.4085 86.7598 96.6395 87.0246 96.7615 87.3438L96.9073 87.7386C98.2416 91.5323 96.9073 96.7437 93.89 101.521C90.9296 106.219 86.3289 110.591 81.0984 112.802L80.3156 113.11C76.2167 114.654 71.0644 114.937 66.1932 114.101C61.4075 113.279 56.8389 111.373 53.7397 108.509L43.7769 99.3567L41.731 97.0273C41.5034 96.7674 41.3751 96.4343 41.3693 96.0876C41.3634 95.7409 41.4803 95.4034 41.699 95.1358L41.6954 95.1537ZM45.2891 95.4229L44.7233 96.0654L45.7587 97.2499L55.6789 106.37C58.376 108.846 62.4074 110.508 66.6737 111.24C71.0822 111.998 75.6971 111.761 79.3123 110.4L79.9918 110.124C84.6494 108.157 88.7769 104.22 91.449 99.974C93.1855 97.2175 94.2956 94.3713 94.5162 91.9164C93.6648 93.005 92.7116 94.0087 91.6697 94.9133C87.069 98.9259 81.2336 100.48 75.1847 100.265C69.2427 100.053 63.0871 98.1112 57.7142 95.1466C54.6449 93.455 51.8036 91.373 49.26 88.9517C49.0021 90.0864 48.5505 91.1672 47.9257 92.146C47.4524 92.9787 46.2996 94.2816 45.2891 95.4229Z" fill="#3C3C3C"/>
<path fill-rule="evenodd" clip-rule="evenodd" d="M89.2822 96.6684C93.4773 92.5983 96.8966 85.1832 100.167 78.4284C104.621 69.1863 104.394 58.6593 104.447 50.1638L102.917 45.1389C102.369 43.0573 102.326 40.832 102.287 38.7324C102.237 35.9759 102.188 33.424 100.779 32.1283C98.5227 30.0431 94.9539 33.2051 90.7659 36.9594C87.9194 39.5005 84.8131 42.2605 81.4364 44.2238C78.0598 46.187 74.9712 47.0304 72.1176 47.813C69.3636 48.563 66.8801 49.2486 64.8589 50.9534C61.71 53.6273 61.8488 55.7987 61.9057 59.6177C61.9555 63.232 62.1442 66.7959 59.9593 74.4731C59.7075 72.511 59.215 70.5882 58.4935 68.7485C54.5403 59.0828 45.0721 62.4639 45.2749 71.6556C45.3026 72.5865 45.4218 73.5122 45.6307 74.4192C46.2071 76.9855 47.6374 79.9681 48.8081 82.1719C49.1853 82.8896 48.6978 84.8135 48.3598 85.8758C56.3763 95.0354 68.0151 101.309 77.2805 101.309C81.3901 101.284 86.2542 99.5935 89.2822 96.6684Z" fill="white"/>
<path fill-rule="evenodd" clip-rule="evenodd" d="M88.2646 95.6203C91.99 92.0024 95.178 85.3984 98.1989 79.1354L98.8465 77.7894C102.917 69.3872 102.96 59.718 102.995 51.6675V50.3898L101.519 45.4978C101.232 44.3647 101.048 43.2079 100.967 42.0415C100.889 40.9862 100.864 39.8485 100.846 38.7394C100.855 37.5271 100.778 36.3156 100.615 35.1144C100.473 34.271 100.231 33.5854 99.8036 33.1942L99.7503 33.1403C99.2023 32.7025 98.327 32.9573 97.2276 33.6033C95.6513 34.5329 93.7619 36.2163 91.723 38.0359H91.6982C88.8018 40.6202 85.6493 43.4197 82.1551 45.4548C78.6611 47.4897 75.4338 48.3835 72.5019 49.1838H72.4805C71.2096 49.5067 69.9556 49.8936 68.7232 50.3432C67.6534 50.737 66.6565 51.3084 65.7735 52.0336C63.2578 54.1871 63.2827 56.032 63.3289 59.1904L63.3468 60.1236C63.4036 63.6661 63.4678 67.3629 61.3399 74.8391C61.2542 75.1745 61.053 75.4683 60.7723 75.6679C60.4918 75.8675 60.1499 75.96 59.8079 75.9289C59.4659 75.8979 59.146 75.7453 58.9052 75.4983C58.6645 75.2514 58.5186 74.9262 58.4935 74.5807C58.3675 73.6727 58.1953 72.7718 57.9775 71.8816C57.761 70.9912 57.4804 70.1179 57.1378 69.2688C56.0917 66.7097 54.647 65.2381 53.1953 64.653C52.45 64.35 51.6307 64.2836 50.847 64.4628C50.0359 64.6615 49.2963 65.0856 48.712 65.6868C47.4667 66.9286 46.6413 68.9709 46.6981 71.5946C46.7065 71.999 46.7362 72.4027 46.7871 72.804C46.8404 73.2132 46.9187 73.6368 47.0113 74.0638C47.3258 75.3515 47.7544 76.608 48.2923 77.8181C48.865 79.1424 49.4913 80.3952 50.05 81.4467C50.3574 82.145 50.4492 82.9204 50.3133 83.6721V83.7187C50.2347 84.3112 50.1158 84.8977 49.9574 85.4738C53.7176 89.6201 58.1474 93.0934 63.0586 95.7459C67.9155 98.3336 72.8934 99.8304 77.2627 99.8268C79.341 99.7962 81.3975 99.394 83.3365 98.6387C85.1611 97.9684 86.836 96.94 88.2646 95.6131V95.6203ZM100.804 80.4167C97.6759 86.8951 94.3775 93.7324 90.2677 97.72C88.5604 99.3198 86.5552 100.562 84.3684 101.374C82.0966 102.257 79.6863 102.721 77.2521 102.745C72.3952 102.745 66.9512 101.133 61.6993 98.3336C56.2651 95.4044 51.3885 91.5268 47.296 86.8807C47.1115 86.6922 46.9811 86.457 46.9185 86.1998C46.8557 85.9426 46.8633 85.6732 46.9401 85.42C47.1576 84.7567 47.3183 84.0758 47.4204 83.3849L47.488 82.8537C46.8796 81.698 46.2036 80.3413 45.6236 78.999C45.0161 77.6217 44.5327 76.1923 44.179 74.7279C44.0646 74.2219 43.9755 73.7103 43.9121 73.1953C43.8475 72.6904 43.8095 72.1824 43.7983 71.6735C43.72 68.192 44.8977 65.4032 46.6733 63.6338C47.6466 62.6519 48.873 61.9643 50.2136 61.6489C51.5629 61.3366 52.9746 61.4482 54.2593 61.9685C56.4119 62.8226 58.4436 64.8218 59.8206 68.1884L59.8989 68.3858C60.3825 65.6907 60.5711 62.9501 60.4612 60.2133V59.2801C60.4006 55.2531 60.365 52.8807 63.9339 49.8478C65.0526 48.9099 66.319 48.1676 67.6806 47.6512C68.9858 47.1661 70.3162 46.7527 71.6658 46.4131L71.7547 46.3844C74.5229 45.6306 77.5295 44.8086 80.7177 42.9531C83.9058 41.0975 87.0014 38.3553 89.8017 35.861C91.9366 33.9407 93.9469 32.1677 95.7652 31.0945C97.9819 29.7845 99.9638 29.4722 101.654 30.9545L101.754 31.0371C102.729 31.9344 103.223 33.1906 103.469 34.6263C103.656 35.9757 103.744 37.3374 103.732 38.7C103.75 39.6977 103.771 40.7243 103.856 41.826C103.919 42.8158 104.073 43.7974 104.315 44.7584L105.828 49.7438C105.871 49.8844 105.893 50.0309 105.892 50.1781V51.6783C105.856 60.0446 105.81 70.0871 101.462 79.0671L100.804 80.4167Z" fill="#3C3C3C"/>
<path fill-rule="evenodd" clip-rule="evenodd" d="M38.1265 27.2255C30.7326 40.9001 35.3831 78.3171 48.1463 86.4464C48.406 85.7645 49.2564 83.0511 48.7903 82.1718C47.6197 79.968 46.1893 76.9854 45.6129 74.4192C42.8374 62.0869 57.3939 56.3048 59.9486 74.473C62.1334 66.7923 61.9448 63.2318 61.8949 59.6176C61.8381 55.7987 61.6993 53.6273 64.8482 50.9534C66.8692 49.2377 69.3529 48.563 72.1069 47.8128C74.9534 47.034 78.0561 46.1906 81.4257 44.2237C84.7953 42.2569 87.9016 39.5003 90.7552 36.9592C94.9432 33.2229 98.512 30.0429 100.768 32.1282C102.191 33.424 102.227 35.9758 102.277 38.7323C102.316 40.8427 102.358 43.0393 102.906 45.1389L104.436 50.1817C104.867 43.5274 104.721 35.8251 103.807 29.5046C102.027 17.3015 96.619 16.8241 81.689 8.86336C79.3193 7.58204 76.2237 5.47162 71.6052 5.32805C60.3543 4.97631 43.6737 18.1916 38.1265 27.2255Z" fill="white"/>
<path fill-rule="evenodd" clip-rule="evenodd" d="M39.379 27.9505C35.7034 34.7698 35.1697 47.9098 37.2441 60.1021C38.9557 70.227 42.4354 79.6091 47.3493 84.0023L47.4347 83.5285L47.5237 82.8466C46.9153 81.6981 46.2391 80.3557 45.6591 78.999L45.62 78.8949C45.0232 77.5516 44.5468 76.1569 44.1967 74.7279C43.0831 69.7928 44.4957 65.7299 46.9046 63.4616C47.9166 62.4883 49.1831 61.8271 50.5552 61.5558C51.9617 61.2938 53.4143 61.4885 54.704 62.112C56.7002 63.0631 58.5753 65.0767 59.8882 68.3895C60.3764 65.6936 60.5685 62.9517 60.4612 60.2134V59.2802C60.4006 55.2495 60.365 52.8807 63.9339 49.8479C65.0526 48.9099 66.319 48.1676 67.6806 47.6513C69.0087 47.1601 70.3615 46.7396 71.7334 46.3915H71.7547C74.523 45.6342 77.5296 44.8123 80.7177 42.9567C83.9058 41.1011 87.0014 38.359 89.8017 35.8645L89.823 35.8466C91.9579 33.9372 93.954 32.1678 95.7652 31.0982C98.0246 29.763 100.035 29.4652 101.75 31.0444C102.137 31.3983 102.462 31.8157 102.711 32.279C102.613 31.4033 102.506 30.5466 102.387 29.7092C101.024 20.2804 97.2062 18.3567 87.7522 13.6047C85.7917 12.6176 83.5891 11.5122 81.0273 10.1447L79.9064 9.52736C77.8142 8.35729 75.1563 6.89652 71.5661 6.78166C66.7448 6.6345 60.7529 9.20793 55.1452 12.8832C48.406 17.2835 42.3145 23.22 39.379 27.9505ZM34.3975 60.6117C32.2378 47.8379 32.8782 33.9372 36.8884 26.5471L36.9274 26.479C40.0088 21.3895 46.4776 15.069 53.569 10.4318C59.6179 6.48377 66.1862 3.69857 71.6444 3.87085C75.9427 4.00366 78.9635 5.65826 81.3084 6.97548L82.3758 7.56051C84.7847 8.84543 87.037 9.9796 89.0473 10.9881C99.4656 16.2283 103.671 18.3423 105.255 29.2928C105.713 32.6162 105.986 35.963 106.073 39.3173C106.187 43.0429 106.119 46.8079 105.895 50.2714C105.876 50.6133 105.737 50.9372 105.505 51.1865C105.272 51.4357 104.96 51.5944 104.623 51.6347C104.286 51.675 103.945 51.5943 103.662 51.4066C103.378 51.219 103.168 50.9366 103.07 50.6088L101.519 45.4978C101.232 44.3648 101.048 43.208 100.967 42.0414C100.889 40.9863 100.864 39.8486 100.846 38.7394C100.855 37.527 100.778 36.3156 100.615 35.1144C100.473 34.271 100.231 33.5855 99.8036 33.1942C99.2628 32.6846 98.359 32.9359 97.2276 33.6034C95.6513 34.533 93.7619 36.2164 91.723 38.036C88.816 40.6273 85.6743 43.4197 82.1551 45.4727C78.6361 47.5257 75.4837 48.3907 72.5695 49.1839L72.4805 49.209C71.2093 49.529 69.9551 49.9147 68.7231 50.3647C67.6534 50.7587 66.6565 51.33 65.7735 52.0552C63.2578 54.1908 63.2828 56.0535 63.3289 59.2049L63.3468 60.1451C63.4038 63.6877 63.4678 67.3844 61.3399 74.8607C61.248 75.1819 61.0495 75.4615 60.7778 75.6529C60.506 75.8444 60.1774 75.936 59.8468 75.9124C59.5162 75.8888 59.2036 75.7517 58.9611 75.5237C58.7188 75.2957 58.5611 74.9908 58.5148 74.6597C57.6999 68.8525 55.6683 65.7873 53.4764 64.7501C52.7368 64.3869 51.9018 64.2711 51.0924 64.4199C50.2607 64.5923 49.4944 64.9993 48.8829 65.5935C47.15 67.2265 46.1644 70.2594 47.022 74.0854C47.3268 75.3367 47.7412 76.5583 48.2602 77.7356L48.31 77.8397C48.8757 79.1641 49.5056 80.4203 50.0642 81.4719C50.42 82.1287 50.42 83.0404 50.2883 83.9592C50.121 84.9624 49.8613 85.9477 49.5127 86.9022C49.4778 87.0107 49.43 87.1142 49.3703 87.2109C49.1647 87.5374 48.8395 87.7686 48.4654 87.8541C48.0914 87.9395 47.6992 87.8721 47.3743 87.6667C40.8698 83.5428 36.3937 72.4883 34.3798 60.5938L34.3975 60.6117Z" fill="#3C3C3C"/>
<path fill-rule="evenodd" clip-rule="evenodd" d="M81.166 108.635C62.6388 106.959 52.466 106.481 42.8091 96.0726C48.858 102.993 58.714 111.865 62.1228 119.761C67.2501 131.626 64.7629 144.526 76.4052 155.624L87.5564 149.76C96.2242 137.276 104.817 103.771 95.7403 87.308L95.4272 87.8822C96.3523 96.7295 89.2787 100.954 82.4754 107.867L81.1731 108.624L81.166 108.635Z" fill="white"/>
<path fill-rule="evenodd" clip-rule="evenodd" d="M81.0414 110.103L78.5898 109.884C67.9972 108.943 60.1836 108.243 53.5156 105.483C57.6323 109.991 61.5036 114.715 63.4499 119.212C65.3038 123.519 66.1826 127.876 67.0615 132.247C68.5595 139.699 70.0609 147.171 76.6685 153.88L86.5708 148.671C91.1964 141.82 95.7829 128.845 97.4802 115.874C98.5476 107.691 98.4729 99.5505 96.5195 93.0289C95.299 97.8205 91.6127 101.255 87.4106 105.167C86.1225 106.366 84.7811 107.615 83.4967 108.922C83.3856 109.037 83.2556 109.132 83.1123 109.202L81.8884 109.92C81.6324 110.066 81.3383 110.131 81.045 110.106L81.0414 110.103ZM78.839 106.98L80.8387 107.159L81.5717 106.736C82.8988 105.394 84.2011 104.184 85.45 103.018C90.4634 98.3517 94.6514 94.4502 93.9896 88.0616C93.96 87.7683 94.0196 87.4729 94.1604 87.2145L94.47 86.6367C94.6023 86.3961 94.7981 86.1974 95.0357 86.0624C95.3707 85.8749 95.7658 85.8293 96.1342 85.9357C96.5025 86.0421 96.8139 86.2916 96.9999 86.6296C101.206 94.2529 101.789 105.264 100.352 116.251C98.5725 129.854 93.6729 143.529 88.7484 150.632C88.6142 150.822 88.4375 150.978 88.2324 151.088L77.1418 156.919C76.8725 157.077 76.5597 157.144 76.2499 157.108C75.9401 157.074 75.6501 156.937 75.4231 156.722C67.5276 149.185 65.8802 140.994 64.2363 132.818C63.3895 128.612 62.5462 124.402 60.8062 120.378C58.383 114.768 52.4126 108.47 47.0611 102.824C45.1858 100.846 43.3855 98.9439 41.795 97.1313L41.7594 97.0919C41.498 96.8063 41.3598 96.4278 41.3751 96.0393C41.3904 95.6509 41.5581 95.2846 41.8412 95.021C42.1243 94.7573 42.4997 94.6178 42.8847 94.6334C43.2697 94.6488 43.633 94.8179 43.8943 95.1036C52.7079 104.622 62.201 105.473 78.839 106.962V106.98Z" fill="#3C3C3C"/>
<path fill-rule="evenodd" clip-rule="evenodd" d="M95.7723 99.2382C95.9363 98.8953 96.2265 98.6307 96.5811 98.5006C96.9357 98.3704 97.3267 98.3849 97.6709 98.5412C98.0149 98.6974 98.2849 98.983 98.4235 99.3371C98.562 99.6911 98.558 100.086 98.4123 100.437C97.224 103.071 94.8009 107.001 92.1714 111.265C90.8477 113.419 89.4672 115.651 88.2859 117.647C88.0886 117.978 87.7689 118.217 87.3974 118.31C87.0257 118.404 86.6324 118.345 86.304 118.146C86.0484 117.995 85.8456 117.768 85.724 117.496L82.1124 110.386L78.4014 121.871C78.2823 122.24 78.0234 122.546 77.6812 122.722C77.3391 122.898 76.9417 122.93 76.576 122.812L60.4966 115.82C60.313 115.751 60.1451 115.645 60.0034 115.508C59.8616 115.372 59.7487 115.207 59.6717 115.025C59.5947 114.844 59.5551 114.648 59.5554 114.45C59.5555 114.252 59.5955 114.057 59.673 113.875C59.7504 113.693 59.8635 113.529 60.0056 113.393C60.1477 113.257 60.3157 113.151 60.4996 113.082C60.6834 113.013 60.8791 112.983 61.0749 112.993C61.2708 113.002 61.4626 113.052 61.6389 113.139L76.149 119.459L79.572 108.857C79.63 108.675 79.7233 108.505 79.8465 108.359C79.9697 108.213 80.1202 108.093 80.2896 108.006C80.4589 107.919 80.6436 107.867 80.8332 107.852C81.0227 107.837 81.2132 107.861 81.3937 107.92L81.4898 107.956C81.5997 107.704 81.7783 107.489 82.005 107.335C82.2315 107.181 82.4966 107.096 82.7696 107.088C83.0424 107.081 83.3119 107.152 83.5464 107.293C83.7809 107.434 83.9709 107.639 84.0944 107.884L87.1473 113.907L89.7091 109.722C92.2923 105.544 94.6656 101.693 95.7723 99.2382Z" fill="#3C3C3C"/>
<path fill-rule="evenodd" clip-rule="evenodd" d="M76.4052 155.642L87.5564 149.777C87.3714 148.123 87.3323 147.81 87.1508 146.259C86.215 138.335 85.9374 129.836 85.016 121.383C84.9733 121.003 85.3717 117.794 85.8237 114.449L82.4861 107.877L81.1838 108.635L78.4262 117.173C79.1378 119.574 79.821 122.101 79.7677 122.654C78.7927 132.574 77.7857 142.358 76.8108 151.819C76.6471 153.245 76.5547 154.149 76.4052 155.642Z" fill="#081D32"/>
<path fill-rule="evenodd" clip-rule="evenodd" d="M78.1131 153.101L86.0087 148.948L85.7097 146.436C85.2294 142.351 84.9199 138.108 84.6067 133.798C84.3114 129.742 84.0126 125.622 83.5607 121.548C83.5663 120.747 83.6282 119.947 83.7457 119.154C83.8773 118.027 84.0837 116.423 84.3114 114.711L82.1196 110.404L79.9243 117.223C80.28 118.412 80.6074 119.614 80.8458 120.583C81.0646 121.311 81.1843 122.066 81.2016 122.826C80.2528 132.397 79.3122 141.681 78.38 150.678L78.1274 153.129L78.1131 153.101ZM88.2147 151.07L77.092 156.919C76.8373 157.062 76.5454 157.123 76.2558 157.092C76.0666 157.074 75.883 157.017 75.7154 156.927C75.5477 156.837 75.3993 156.714 75.2787 156.566C75.1581 156.418 75.0676 156.248 75.0123 156.065C74.9572 155.881 74.9384 155.689 74.9571 155.499L75.4801 150.355C76.4194 141.246 77.3873 131.849 78.3017 122.51C78.2316 122.086 78.1389 121.665 78.0241 121.251C77.7787 120.245 77.4015 118.914 77.0172 117.611C76.9245 117.323 76.9245 117.013 77.0172 116.725L79.7748 108.182C79.888 107.84 80.1224 107.551 80.433 107.371L81.7958 106.582C82.1365 106.406 82.5325 106.374 82.8967 106.492C83.261 106.611 83.5638 106.87 83.7386 107.213L87.0406 113.717C87.1995 113.997 87.2631 114.323 87.222 114.643C86.9907 116.355 86.7666 118.103 86.6064 119.481C86.489 120.497 86.4179 121.164 86.4214 121.222C86.884 125.378 87.1829 129.513 87.4889 133.583C87.7949 137.843 88.1044 142.043 88.5813 146.088L88.9869 149.619C89.017 149.91 88.9595 150.205 88.8218 150.464C88.6842 150.723 88.4726 150.933 88.2147 151.07Z" fill="#3C3C3C"/>
<path fill-rule="evenodd" clip-rule="evenodd" d="M83.8026 119.933C83.8998 119.767 84.0289 119.621 84.1824 119.506C84.3359 119.39 84.5107 119.306 84.6966 119.259C84.8825 119.212 85.0757 119.203 85.2653 119.232C85.4546 119.261 85.6364 119.328 85.8001 119.429C85.9637 119.53 86.1057 119.662 86.218 119.819C86.3303 119.975 86.4106 120.153 86.4542 120.341C86.4977 120.53 86.5038 120.725 86.4719 120.915C86.44 121.106 86.3708 121.288 86.2684 121.451C85.9532 122.024 85.5148 122.518 84.9852 122.897C84.4555 123.276 83.8484 123.53 83.2084 123.641C82.0555 123.845 80.7177 123.641 79.0951 123.013C78.736 122.875 78.4461 122.598 78.2888 122.245C78.1317 121.891 78.1203 121.489 78.2572 121.127C78.394 120.764 78.6679 120.472 79.0185 120.313C79.3692 120.155 79.7679 120.143 80.127 120.281C81.2407 120.712 82.0911 120.874 82.7102 120.766C82.9418 120.717 83.1598 120.617 83.3486 120.473C83.5374 120.329 83.6924 120.145 83.8026 119.933Z" fill="#3C3C3C"/>
<path fill-rule="evenodd" clip-rule="evenodd" d="M48.3277 115.002C48.2494 114.825 48.2068 114.634 48.2023 114.441C48.198 114.247 48.2318 114.055 48.3019 113.875C48.3719 113.695 48.477 113.53 48.6107 113.391C48.7444 113.253 48.9042 113.142 49.0807 113.066C49.2573 112.991 49.447 112.951 49.639 112.95C49.8308 112.949 50.021 112.986 50.1983 113.06C50.3757 113.134 50.5367 113.243 50.6718 113.381C50.8071 113.518 50.9137 113.681 50.9857 113.861L56.4296 126.728C56.5605 127.035 56.5806 127.379 56.4866 127.7L55.2235 132.309L70.0681 154.88C70.1833 155.04 70.2652 155.222 70.3089 155.414C70.3526 155.607 70.3574 155.805 70.3227 156C70.2881 156.194 70.2147 156.379 70.1072 156.544C69.9997 156.709 69.8602 156.85 69.697 156.959C69.534 157.067 69.3507 157.142 69.1583 157.178C68.9659 157.213 68.7684 157.209 68.5776 157.165C68.3868 157.123 68.2068 157.04 68.0484 156.924C67.8898 156.808 67.7563 156.661 67.6557 156.493L52.4375 133.368C52.3222 133.195 52.2455 132.998 52.213 132.793C52.1805 132.587 52.1927 132.376 52.2489 132.176L53.5582 127.402L48.3277 115.002Z" fill="#3C3C3C"/>
<path fill-rule="evenodd" clip-rule="evenodd" d="M85.7667 55.2352C92.2995 51.4558 98.7896 47.5221 105.358 43.8252C106.237 43.3263 106.863 42.9961 107.685 43.2223L107.788 43.2546C108.667 43.5382 109.115 44.281 109.279 45.8029C109.421 48.5485 109.279 51.6352 109.279 54.4169C109.271 55.1227 109.164 55.8236 108.959 56.4985C108.759 57.1628 108.488 57.803 108.151 58.408L108.027 58.6341C107.671 59.2417 107.25 59.8074 106.77 60.321C106.292 60.8401 105.742 61.2873 105.137 61.649L94.3632 67.93C93.5897 68.3989 92.7261 68.6962 91.8299 68.8021C90.9547 68.9044 90.0701 68.7233 89.3036 68.2853L89.2075 68.2244C88.6295 67.8617 88.1501 67.3597 87.8126 66.7635C87.7486 67.0901 87.6668 67.4167 87.5707 67.7434L87.5493 67.8044C87.2476 68.7921 86.8358 69.7421 86.3219 70.6362C85.801 71.556 85.174 72.4101 84.4537 73.1809C83.7862 73.9026 83.0192 74.5239 82.1766 75.0258L71.2993 81.3606C70.7522 81.677 70.1468 81.8774 69.5201 81.9493C68.8395 82.0263 68.152 81.8844 67.5561 81.5436L67.5062 81.5149C66.9303 81.1634 66.4766 80.6406 66.2075 80.0183L66.1648 79.9142C65.9249 79.3245 65.8039 78.6924 65.8091 78.055V69.5953C65.8091 68.4863 65.9585 67.7361 66.3534 67.0829L66.4211 66.9789C66.8623 66.3611 67.446 65.861 68.1218 65.5216L85.7703 55.2423L85.7667 55.2352ZM85.1227 64.8254V58.9787L69.5664 68.0376C69.304 68.1672 69.0638 68.338 68.8548 68.5438L68.8334 68.5832C68.7184 68.9072 68.6758 69.2529 68.7089 69.5953V78.055C68.6991 78.2987 68.7341 78.5421 68.8121 78.7729L68.837 78.8303C68.867 78.9023 68.9119 78.9672 68.9687 79.0205H69.0007C69.0771 79.0478 69.1591 79.0553 69.2391 79.042C69.4691 79.01 69.6905 78.9319 69.8902 78.8123L80.7426 72.5026C81.3472 72.1395 81.8972 71.6912 82.3757 71.171C82.9364 70.5684 83.426 69.9025 83.8346 69.1862C84.2363 68.4843 84.5585 67.739 84.7953 66.9646V66.9107C85.0028 66.235 85.113 65.5327 85.1227 64.8254ZM105.514 47.1021L89.9725 56.154V63.6912C89.9589 64.1827 90.0473 64.6718 90.2322 65.1269C90.329 65.3648 90.4907 65.5701 90.6983 65.7191L90.7517 65.7514C90.9962 65.8813 91.2751 65.9303 91.5487 65.8914C92.0371 65.8256 92.5063 65.6567 92.9258 65.3961L103.7 59.1366C104.061 58.9202 104.39 58.6518 104.675 58.3398C105.006 57.9811 105.298 57.5876 105.546 57.1661L105.586 57.0908C105.843 56.6465 106.047 56.173 106.194 55.6802C106.317 55.2753 106.383 54.8548 106.39 54.4312V46.5925L105.514 47.1021Z" fill="#3C3C3C"/>
<path fill-rule="evenodd" clip-rule="evenodd" d="M50.7366 63.6158C50.6555 63.9967 50.4277 64.3292 50.1034 64.5407C49.7792 64.752 49.3848 64.8247 49.0073 64.7429C48.6299 64.661 48.3002 64.4312 48.0906 64.1041C47.8811 63.777 47.8089 63.3793 47.8902 62.9986L48.1 62.0258C48.1512 61.7788 48.2287 61.5381 48.3313 61.308L48.3633 61.2901C48.5337 60.9156 48.7771 60.5794 49.0791 60.3019C49.3811 60.0243 49.7356 59.8112 50.121 59.6749C50.8314 59.429 51.5961 59.3903 52.3272 59.5637L52.4623 59.5996C52.7656 59.6776 53.062 59.7808 53.3483 59.9083L67.2251 66.2431C67.5752 66.4026 67.8482 66.6958 67.984 67.0582C68.1199 67.4206 68.1073 67.8227 67.9493 68.1758C67.7911 68.529 67.5005 68.8043 67.1412 68.9414C66.7818 69.0784 66.3833 69.0658 66.0332 68.9063L52.1563 62.5714L51.7116 62.4207C51.5123 62.3662 51.3024 62.3662 51.1032 62.4207C51.0496 62.4412 51.0052 62.4807 50.9786 62.532L50.7366 63.6158Z" fill="#3C3C3C"/>
<path fill-rule="evenodd" clip-rule="evenodd" d="M101.814 136.457C101.769 136.649 101.686 136.829 101.57 136.988C101.454 137.146 101.308 137.279 101.139 137.379C100.971 137.48 100.785 137.544 100.591 137.569C100.398 137.594 100.201 137.58 100.013 137.526C99.8253 137.473 99.6501 137.382 99.498 137.26C99.3458 137.136 99.22 136.983 99.128 136.809C99.0359 136.636 98.9796 136.446 98.9625 136.249C98.9453 136.053 98.9675 135.856 99.0279 135.668L106.006 110.63L104.098 108.391C103.912 108.172 103.794 107.902 103.76 107.615L101.761 95.1394C101.729 94.772 101.836 94.406 102.061 94.1153C102.286 93.8245 102.612 93.6307 102.973 93.5728C103.334 93.515 103.704 93.5974 104.007 93.8036C104.31 94.0098 104.525 94.3243 104.607 94.6836L106.55 106.801L108.685 109.295C108.849 109.478 108.965 109.7 109.021 109.941C109.077 110.181 109.072 110.432 109.005 110.67L101.814 136.457Z" fill="#3C3C3C"/>
<path fill-rule="evenodd" clip-rule="evenodd" d="M113.478 150.477L105.831 146.026C114.794 151.108 125.949 142.591 131.646 136.023C139.598 126.86 146.618 111.222 143.602 99.0551C142.712 95.466 140.908 92.3076 137.687 90.3873L145.714 95.064C153.766 100.218 152.5 113.279 149.984 121.29C146.298 133.167 136.3 147.537 124.153 151.234C120.544 152.325 116.826 152.379 113.478 150.477Z" fill="url(#paint0_linear_721_4760)"/>
<path fill-rule="evenodd" clip-rule="evenodd" d="M112.823 151.439C111.83 150.861 105.618 147.412 105.258 147.035C105.004 146.876 104.821 146.625 104.747 146.334C104.672 146.042 104.714 145.733 104.861 145.47C105.009 145.208 105.251 145.015 105.538 144.93C105.824 144.844 106.132 144.875 106.397 145.014C109.859 146.97 113.723 146.691 117.427 145.251C122.661 143.224 127.589 138.93 130.774 135.26C135.405 129.816 138.941 123.514 141.182 116.707C143.089 110.802 143.807 104.694 142.477 99.3244C142.079 97.6135 141.381 95.9884 140.417 94.5256C139.552 93.2422 138.418 92.1674 137.093 91.3779C136.84 91.2152 136.66 90.9596 136.591 90.6652C136.52 90.3708 136.567 90.0605 136.719 89.8C136.872 89.5396 137.12 89.3492 137.41 89.2692C137.699 89.1894 138.007 89.2261 138.271 89.3716C140.929 90.9759 143.683 92.4655 146.33 94.0806C150.091 96.4854 151.984 100.426 152.699 104.816C153.628 110.483 152.571 116.918 151.101 121.638C148.756 128.881 145.007 135.579 140.071 141.346C135.652 146.46 130.315 150.574 124.473 152.351C122.498 152.979 120.427 153.241 118.359 153.122C116.446 152.999 114.584 152.442 112.912 151.496L112.823 151.439ZM112.738 148.708L114.043 149.461C115.415 150.239 116.942 150.696 118.512 150.8C120.306 150.896 122.102 150.665 123.814 150.118C129.198 148.481 134.172 144.622 138.324 139.813C143.055 134.294 146.65 127.88 148.899 120.945C150.287 116.491 151.286 110.451 150.426 105.189C149.81 101.413 148.22 98.0501 145.088 96.0475L143.384 95.0496C143.958 96.2351 144.404 97.4793 144.715 98.7608C146.159 104.59 145.408 111.14 143.373 117.424C141.033 124.53 137.341 131.107 132.507 136.788C129.133 140.679 123.889 145.237 118.253 147.43C116.488 148.133 114.629 148.563 112.738 148.708Z" fill="#3C3C3C"/>
<path fill-rule="evenodd" clip-rule="evenodd" d="M126.999 95.3476C114.716 102.501 104.76 119.897 104.76 134.203C104.76 148.511 114.723 154.303 126.999 147.157C139.274 140.01 149.237 122.607 149.237 108.301C149.237 93.9945 139.282 88.2088 126.999 95.3476Z" fill="white"/>
<path fill-rule="evenodd" clip-rule="evenodd" d="M127.519 96.3885C121.58 99.8628 116.189 105.831 112.271 112.676L112.236 112.737C108.322 119.582 105.917 127.273 105.917 134.203C105.917 138.152 106.699 141.4 108.094 143.833C108.967 145.454 110.267 146.8 111.851 147.721C113.434 148.643 115.24 149.106 117.068 149.055C119.861 149.055 123.038 148.119 126.422 146.149L126.482 146.116C132.421 142.638 137.808 136.674 141.726 129.832C145.643 122.991 148.081 115.253 148.081 108.297C148.081 104.349 147.298 101.119 145.903 98.6711C145.033 97.0493 143.734 95.7026 142.15 94.7807C140.566 93.8587 138.761 93.3978 136.933 93.4489C134.144 93.4489 130.966 94.3785 127.579 96.3526L127.519 96.3849V96.3885ZM110.275 111.51C114.378 104.331 120.06 98.0718 126.355 94.3821L126.422 94.3427C130.172 92.1568 133.745 91.1125 136.933 91.1125C139.165 91.0652 141.367 91.6352 143.299 92.7608C145.233 93.8864 146.824 95.5246 147.9 97.4975C149.497 100.286 150.39 103.922 150.39 108.29C150.39 115.644 147.839 123.777 143.719 130.977C139.598 138.177 133.93 144.425 127.639 148.109L127.575 148.151C123.817 150.337 120.245 151.381 117.064 151.381C114.83 151.429 112.626 150.858 110.692 149.73C108.757 148.603 107.166 146.961 106.091 144.986C104.497 142.197 103.6 138.562 103.6 134.2C103.6 126.868 106.134 118.767 110.233 111.589L110.275 111.51Z" fill="#3C3C3C"/>
<path fill-rule="evenodd" clip-rule="evenodd" d="M121.761 86.1449C127.362 82.9649 134.659 80.6391 140.747 83.9376L148.393 88.3882C137.146 82.746 123.814 93.2191 116.876 101.399C107.575 112.364 99.6008 130.284 102.447 144.817C103.372 149.543 105.436 153.661 109.489 156.374C107.667 155.298 102.373 152.369 100.949 151.299C92.1856 144.622 93.6196 129.764 96.3985 120.493C100.423 107.066 109.663 93.3663 121.761 86.1449Z" fill="url(#paint1_linear_721_4760)"/>
<path fill-rule="evenodd" clip-rule="evenodd" d="M121.195 85.1258C124.398 83.2989 128.187 81.7447 132.016 81.2997C135.169 80.9408 138.353 81.3176 141.295 82.9113L148.971 87.3833C149.239 87.5295 149.44 87.7775 149.529 88.073C149.616 88.3685 149.585 88.6871 149.44 88.9589C149.295 89.2308 149.049 89.4333 148.756 89.5222C148.463 89.6109 148.148 89.5789 147.878 89.4327C143.431 87.2039 138.587 87.6992 134.001 89.5978C127.597 92.2394 121.661 97.5658 117.765 102.16C112.411 108.569 108.289 115.929 105.611 123.863C103.294 130.833 102.312 138.08 103.59 144.598C103.977 146.764 104.723 148.851 105.796 150.768C106.868 152.629 108.353 154.216 110.133 155.405C110.259 155.49 110.368 155.598 110.453 155.725C110.538 155.851 110.597 155.993 110.627 156.144C110.657 156.293 110.658 156.448 110.629 156.598C110.6 156.748 110.542 156.891 110.459 157.018C110.375 157.146 110.267 157.255 110.142 157.34C110.016 157.427 109.875 157.486 109.726 157.517C109.578 157.548 109.425 157.548 109.276 157.518C109.127 157.49 108.986 157.43 108.859 157.347L107.222 156.403C104.849 155.053 101.373 153.072 100.252 152.218C96.2206 149.149 94.203 144.512 93.4595 139.448C92.4916 132.88 93.6659 125.572 95.2919 120.145C97.5401 112.786 101.019 105.87 105.579 99.6941C109.909 93.8258 115.186 88.7221 121.17 85.1545H121.195V85.1258ZM132.276 83.6147C128.795 84.0167 125.316 85.4631 122.313 87.1608C116.619 90.5633 111.567 95.4481 107.422 101.065C103.017 107.033 99.6608 113.718 97.4979 120.831C95.9466 126.003 94.8258 132.94 95.7189 139.135C96.3985 143.626 98.1776 147.717 101.643 150.369C102.038 150.67 102.76 151.126 103.632 151.654C102.515 149.587 101.73 147.354 101.305 145.04C99.9495 138.106 100.974 130.449 103.408 123.121C106.183 114.905 110.452 107.283 115.997 100.645C120.074 95.8394 126.315 90.2367 133.119 87.448C135.721 86.3257 138.509 85.7073 141.337 85.6246L140.2 84.9786C137.716 83.6183 134.994 83.2988 132.276 83.6147Z" fill="#3C3C3C"/>
<path fill-rule="evenodd" clip-rule="evenodd" d="M113.093 150.244L105.447 145.793L105.639 145.912L105.831 146.026L113.478 150.481L113.282 150.362L113.093 150.244Z" fill="white"/>
<path fill-rule="evenodd" clip-rule="evenodd" d="M106.027 144.785C108.71 146.335 111.403 147.89 114.065 149.475C114.326 149.632 114.516 149.886 114.593 150.183C114.669 150.481 114.626 150.795 114.473 151.061C114.32 151.326 114.069 151.519 113.776 151.599C113.482 151.679 113.169 151.637 112.905 151.486C110.243 149.993 107.418 148.406 104.838 146.78C104.576 146.621 104.387 146.364 104.313 146.064C104.239 145.765 104.286 145.448 104.444 145.183C104.601 144.919 104.856 144.728 105.153 144.653C105.45 144.579 105.765 144.625 106.027 144.785Z" fill="#3C3C3C"/>
<path fill-rule="evenodd" clip-rule="evenodd" d="M145.331 94.8272L137.687 90.3767L137.492 90.2654L137.293 90.1577L144.935 94.6082L145.134 94.7159L145.331 94.8272Z" fill="white"/>
<path fill-rule="evenodd" clip-rule="evenodd" d="M144.757 95.8357C142.068 94.2959 139.392 92.7238 136.717 91.1698C136.448 91.0204 136.251 90.7699 136.166 90.4733C136.081 90.1768 136.117 89.8587 136.265 89.5888C136.414 89.319 136.663 89.1195 136.956 89.0343C137.25 88.9492 137.565 88.9853 137.834 89.1348C140.542 90.5884 143.238 92.2717 145.903 93.8221C146.158 93.9803 146.34 94.2317 146.415 94.5235C146.489 94.8154 146.448 95.1247 146.3 95.3867C146.152 95.6485 145.911 95.8424 145.624 95.9276C145.337 96.0127 145.029 95.9823 144.765 95.8428L144.757 95.8357Z" fill="#3C3C3C"/>
<path fill-rule="evenodd" clip-rule="evenodd" d="M109.944 111.319C114.926 102.619 121.804 95.0211 129.403 90.5957C137.005 86.1701 143.886 85.7503 148.864 88.6503C153.841 91.5504 156.927 97.7739 156.927 106.625C156.927 115.476 153.845 125.288 148.864 133.985C143.882 142.682 137.005 150.301 129.403 154.712C121.804 159.123 114.922 159.554 109.944 156.654C104.967 153.754 101.882 147.534 101.882 138.683C101.882 129.832 104.963 120.019 109.944 111.319ZM145.331 94.8273C143.105 93.582 140.547 93.0795 138.022 93.3915C135.368 93.6607 132.457 94.6477 129.403 96.428C126.216 98.3338 123.315 100.691 120.79 103.427C117.979 106.448 115.525 109.788 113.478 113.38C111.413 116.962 109.773 120.775 108.589 124.743C107.499 128.317 106.924 132.03 106.881 135.768C106.881 139.329 107.489 142.362 108.589 144.813C109.549 147.198 111.271 149.192 113.48 150.478C115.69 151.765 118.262 152.272 120.79 151.92C123.444 151.654 126.351 150.664 129.403 148.887C132.596 146.981 135.5 144.622 138.029 141.884C143.653 135.808 147.826 128.516 150.229 120.565C151.32 116.99 151.893 113.275 151.934 109.536C151.934 105.982 151.329 102.946 150.229 100.494C149.232 98.1302 147.517 96.1459 145.331 94.8273Z" fill="white"/>
<path fill-rule="evenodd" clip-rule="evenodd" d="M108.945 110.742C111.489 106.268 114.542 102.11 118.043 98.3518C121.203 94.9246 124.835 91.9729 128.827 89.587C132.699 87.333 136.413 86.0768 139.815 85.7358C143.427 85.377 146.692 86.0445 149.422 87.6454C152.152 89.2461 154.396 91.7621 155.894 95.1C157.318 98.2441 158.083 102.117 158.083 106.625C158.031 111.304 157.312 115.952 155.948 120.425C154.472 125.363 152.431 130.111 149.863 134.571L149.824 134.631C147.288 139.079 144.247 143.215 140.765 146.956C137.604 150.383 133.97 153.334 129.977 155.717C126.106 157.975 122.391 159.231 118.993 159.568C115.378 159.928 112.111 159.263 109.364 157.662L109.3 157.62C106.578 156.015 104.397 153.514 102.914 150.208C101.49 147.064 100.725 143.192 100.725 138.683C100.777 134.004 101.496 129.356 102.86 124.883C104.337 119.947 106.379 115.201 108.945 110.742ZM119.715 99.9741C112.962 107.254 107.953 115.998 105.073 125.536C103.775 129.798 103.09 134.225 103.038 138.683C103.038 142.857 103.75 146.404 105.02 149.25C106.29 152.096 108.162 154.274 110.46 155.613L110.521 155.645C112.848 157.001 115.645 157.566 118.765 157.254C121.886 156.941 125.248 155.788 128.831 153.703C132.631 151.429 136.088 148.616 139.096 145.351C142.455 141.745 145.387 137.757 147.835 133.468L147.868 133.404C150.344 129.103 152.315 124.526 153.738 119.765C155.037 115.504 155.722 111.078 155.773 106.621C155.773 102.447 155.062 98.9009 153.792 96.0547C152.522 93.2085 150.618 91.0119 148.291 89.6552C145.963 88.2986 143.167 87.7386 140.047 88.0473C136.926 88.356 133.567 89.5152 129.987 91.6006C126.187 93.8751 122.728 96.6877 119.719 99.9525L119.715 99.9741ZM144.757 95.8537C143.805 95.3022 142.766 94.9153 141.687 94.7087C140.515 94.4864 139.315 94.4369 138.128 94.5617C136.781 94.7073 135.455 95.0133 134.179 95.4732C132.719 95.9967 131.311 96.6564 129.973 97.4437C128.484 98.3198 127.063 99.3098 125.725 100.405C124.273 101.59 122.903 102.872 121.622 104.241C120.266 105.69 118.997 107.219 117.822 108.821C116.611 110.476 115.493 112.198 114.474 113.979L114.435 114.04C113.43 115.8 112.524 117.615 111.72 119.477C110.933 121.305 110.256 123.178 109.692 125.087C109.155 126.891 108.739 128.729 108.446 130.59C108.176 132.309 108.038 134.046 108.034 135.786C108.025 137.351 108.162 138.913 108.443 140.452C108.685 141.797 109.087 143.107 109.638 144.355C110.12 145.453 110.759 146.476 111.535 147.386C112.253 148.223 113.103 148.936 114.05 149.493L114.107 149.525C115.043 150.059 116.059 150.432 117.114 150.636C118.287 150.856 119.486 150.905 120.672 150.778C122.019 150.634 123.343 150.329 124.618 149.871C126.079 149.348 127.486 148.688 128.824 147.9C130.32 147.022 131.747 146.029 133.093 144.932C134.544 143.748 135.913 142.468 137.192 141.099C138.549 139.65 139.816 138.121 140.989 136.519C142.203 134.865 143.32 133.144 144.337 131.361L144.377 131.303C145.381 129.544 146.287 127.728 147.091 125.866C147.878 124.038 148.557 122.165 149.124 120.256C149.659 118.453 150.074 116.617 150.366 114.758C150.636 113.036 150.773 111.296 150.778 109.553C150.786 107.989 150.65 106.427 150.372 104.888C150.127 103.544 149.725 102.235 149.176 100.986C148.692 99.8882 148.05 98.8677 147.274 97.9569C146.564 97.1205 145.723 96.4086 144.782 95.85L144.757 95.8537ZM142.132 92.4225C140.74 92.1564 139.316 92.0972 137.908 92.2466C136.378 92.4095 134.873 92.7553 133.425 93.2767C131.83 93.8475 130.292 94.5686 128.831 95.4302C127.236 96.3629 125.716 97.4201 124.284 98.5922C122.752 99.8411 121.305 101.192 119.954 102.637C118.53 104.148 117.199 105.744 115.968 107.418C114.702 109.144 113.534 110.942 112.471 112.802L112.435 112.87C111.382 114.707 110.431 116.603 109.589 118.548C108.761 120.461 108.048 122.424 107.454 124.423C106.901 126.319 106.473 128.249 106.173 130.202C105.881 132.039 105.731 133.894 105.724 135.754C105.717 137.463 105.868 139.167 106.176 140.848C106.453 142.372 106.909 143.86 107.536 145.277C108.11 146.579 108.871 147.788 109.795 148.866C110.68 149.896 111.728 150.772 112.898 151.457L112.969 151.496C114.122 152.166 115.376 152.641 116.68 152.903C118.072 153.166 119.495 153.224 120.904 153.076C122.431 152.914 123.933 152.569 125.379 152.05C126.977 151.476 128.519 150.757 129.985 149.895C131.578 148.959 133.097 147.9 134.531 146.729C136.062 145.481 137.507 144.129 138.859 142.685C140.278 141.167 141.606 139.564 142.837 137.887C144.1 136.16 145.267 134.362 146.33 132.502L146.366 132.434C147.419 130.599 148.369 128.706 149.212 126.764C150.04 124.849 150.753 122.886 151.347 120.884C151.912 118.983 152.348 117.045 152.653 115.084C152.945 113.246 153.095 111.387 153.102 109.525C153.097 107.819 152.935 106.118 152.617 104.443C152.339 102.919 151.885 101.433 151.262 100.017C150.683 98.7167 149.921 97.5078 148.999 96.4279C147.217 94.3494 144.792 92.9382 142.118 92.4225H142.132Z" fill="#3C3C3C"/>
<path fill-rule="evenodd" clip-rule="evenodd" d="M143.26 105.386L128.749 136.271L113.414 131.857L116.168 125.974L125.8 128.748L137.548 103.743L143.26 105.386Z" fill="url(#paint2_linear_721_4760)"/>
<path fill-rule="evenodd" clip-rule="evenodd" d="M141.78 106.068L138.122 105.01L126.379 130.019L116.744 127.241L114.904 131.189L128.179 135.007C132.718 125.362 137.251 115.72 141.782 106.079L141.78 106.068ZM125.238 127.474L136.606 103.283C136.709 103.05 136.893 102.864 137.123 102.758C137.353 102.653 137.613 102.637 137.854 102.713L143.548 104.349C143.694 104.393 143.83 104.469 143.945 104.571C144.061 104.673 144.153 104.799 144.215 104.94C144.278 105.08 144.31 105.233 144.309 105.388C144.307 105.543 144.274 105.695 144.21 105.835L129.703 136.702C129.594 136.929 129.41 137.11 129.182 137.215C128.955 137.319 128.699 137.339 128.457 137.272L113.122 132.88C112.976 132.834 112.842 132.76 112.728 132.658C112.614 132.558 112.522 132.433 112.46 132.294C112.397 132.153 112.365 132.002 112.365 131.848C112.365 131.695 112.397 131.544 112.46 131.404L115.218 125.536C115.32 125.303 115.503 125.117 115.733 125.013C115.963 124.908 116.223 124.892 116.463 124.969L125.238 127.474Z" fill="#3C3C3C"/>
</g>
<defs>
<linearGradient id="paint0_linear_721_4760" x1="128.863" y1="90.3873" x2="128.863" y2="151.994" gradientUnits="userSpaceOnUse">
<stop stop-color="#4585E7"/>
<stop offset="1" stop-color="#5898F9"/>
</linearGradient>
<linearGradient id="paint1_linear_721_4760" x1="121.328" y1="82.3361" x2="121.328" y2="156.374" gradientUnits="userSpaceOnUse">
<stop stop-color="#4585E7"/>
<stop offset="1" stop-color="#5898F9"/>
</linearGradient>
<linearGradient id="paint2_linear_721_4760" x1="128.337" y1="103.743" x2="128.337" y2="136.271" gradientUnits="userSpaceOnUse">
<stop stop-color="#4585E7"/>
<stop offset="1" stop-color="#5898F9"/>
</linearGradient>
</defs>
</svg>
