<svg width="170" height="170" viewBox="0 0 170 170" fill="none" xmlns="http://www.w3.org/2000/svg">
<path d="M70.6789 125.47C70.6789 133.472 57.9096 139.959 42.1579 139.959C26.4062 139.959 13.6369 133.472 13.6369 125.47C13.6369 120.995 17.6298 116.994 23.9045 114.336C28.8506 112.242 35.2144 110.981 42.1579 110.981C57.9096 110.981 70.6789 117.468 70.6789 125.47Z" fill="#E8E8E8"/>
<path d="M89.6928 105.985C89.6928 110.4 81.6281 113.979 71.6797 113.979C61.7312 113.979 53.6664 110.4 53.6664 105.985C53.6664 103.517 56.1883 101.309 60.1512 99.8426C63.2751 98.6869 67.2944 97.9915 71.6797 97.9915C81.6281 97.9915 89.6928 101.57 89.6928 105.985Z" fill="#E8E8E8"/>
<path fill-rule="evenodd" clip-rule="evenodd" d="M47.5612 109.241L53.5234 112.68C54.1965 103.736 59.7429 94.3293 67.4462 89.6786C70.6143 87.9429 73.923 86.9245 77.3187 88.699C74.8504 87.2766 71.2485 84.7109 68.7266 84.3975C66.1299 84.0746 63.7097 85.0243 61.487 86.2407C53.7807 90.8943 48.2373 100.301 47.5612 109.241Z" fill="#EDBE5C"/>
<path fill-rule="evenodd" clip-rule="evenodd" d="M48.4233 108.796L52.8359 111.341C53.424 106.988 54.9113 102.804 57.2037 99.0552C59.6956 94.9357 63.0851 91.3546 67.025 88.9679L67.0549 88.9496C68.7123 88.0532 70.4204 87.3154 72.1765 87.0495C72.4159 87.0137 72.6552 86.9874 72.8945 86.9662C71.3658 86.091 69.8311 85.3415 68.6285 85.1917C67.4741 85.0617 66.3052 85.169 65.1942 85.5087C64.0404 85.8645 62.929 86.3452 61.8795 86.9421H61.8555C58.1759 89.1856 54.9958 92.5607 52.6444 96.4501C50.3401 100.198 48.8983 104.412 48.4233 108.784V108.796ZM53.1141 113.384L47.1938 109.97C47.0502 109.896 46.9315 109.782 46.8523 109.643C46.773 109.503 46.7368 109.342 46.7481 109.181C47.0981 104.548 48.7165 99.7989 51.2354 95.6202C53.7125 91.5218 57.078 87.9546 60.994 85.5679L61.0837 85.5117C62.2387 84.8586 63.4615 84.334 64.7305 83.9461C66.0526 83.5436 67.4434 83.415 68.817 83.5699C70.9619 83.8358 73.6753 85.5087 75.9756 86.9275C76.574 87.3008 77.1725 87.6558 77.7198 87.9787C77.9093 88.0832 78.049 88.2578 78.109 88.4653C78.169 88.6727 78.1441 88.8948 78.0402 89.084C77.9356 89.2732 77.7607 89.4128 77.553 89.4727C77.3452 89.5326 77.122 89.5077 76.9333 89.4033H76.9004C75.5227 88.683 73.9479 88.428 72.4129 88.6778C70.8752 88.9138 69.3405 89.5742 67.8357 90.3924C64.1411 92.6359 60.9551 96.0139 58.5977 99.9121C56.2044 103.883 54.6637 108.378 54.3317 112.757C54.3235 112.88 54.2867 113 54.224 113.106C54.1118 113.288 53.933 113.419 53.7256 113.471C53.5183 113.523 53.2989 113.491 53.1141 113.384Z" fill="#414141"/>
<path fill-rule="evenodd" clip-rule="evenodd" d="M73.2495 69.0229C71.4365 67.9773 67.3919 65.28 65.7376 65.0769C57.6603 64.0702 48.8381 81.5302 55.6769 85.6644L61.6391 89.1023C54.1422 84.353 65.3996 64.9126 73.2495 69.0229Z" fill="white"/>
<path fill-rule="evenodd" clip-rule="evenodd" d="M72.218 67.4521C72.7654 67.7866 73.259 68.0854 73.6569 68.3153C73.8337 68.4257 73.9614 68.5995 74.014 68.8009C74.0667 69.0023 74.0402 69.2161 73.94 69.3987C73.8397 69.5812 73.6735 69.7186 73.4751 69.7826C73.2767 69.8467 73.0614 69.8326 72.8731 69.7432C70.5726 68.5484 67.8353 69.7791 65.4899 72.0971C63.0826 74.5343 61.3383 77.5451 60.4221 80.8435C59.5845 84.0338 59.8746 87.018 62.0765 88.4126C62.2523 88.5288 62.3764 88.7085 62.4227 88.9138C62.469 89.1191 62.434 89.3346 62.3251 89.5143C62.2162 89.6948 62.0416 89.8255 61.838 89.8803C61.6345 89.9351 61.4177 89.9088 61.2328 89.808C59.2495 88.6698 57.2152 87.5345 55.2497 86.3606C53.5086 85.3093 52.641 83.5436 52.4465 81.444C52.2521 79.3437 52.7457 76.93 53.697 74.5734C54.6525 72.219 56.0099 70.048 57.7088 68.157C60.0721 65.5762 62.965 63.9093 65.8339 64.2738C67.2968 64.456 70.1418 66.1945 72.212 67.461L72.218 67.4521ZM69.6153 67.7807C68.0537 66.8576 66.4472 65.9883 65.6425 65.8868C63.3568 65.5881 60.9487 67.0428 58.9234 69.2563C57.3535 71.0042 56.1002 73.0117 55.2198 75.1891C54.3552 77.3186 53.9094 79.481 54.077 81.3001C54.2206 82.8897 54.8488 84.2098 56.0903 84.9659L58.711 86.4592C58.1695 84.7 58.2742 82.5756 58.8456 80.4132C59.8369 76.8335 61.7275 73.5658 64.3381 70.9201C65.9655 69.328 67.7845 68.1719 69.6153 67.7896V67.7807Z" fill="#414141"/>
<path fill-rule="evenodd" clip-rule="evenodd" d="M77.3188 88.6998C71.8682 85.557 63.0312 90.6562 57.5744 100.081C55.259 104.084 53.7542 108.555 53.5179 112.695L81.3699 96.6394C81.1299 92.7565 79.6344 90.0199 77.3188 88.6998Z" fill="white"/>
<path fill-rule="evenodd" clip-rule="evenodd" d="M76.9113 89.3901C74.4612 87.9773 71.1795 88.4521 67.8589 90.3669L67.8169 90.391C64.3767 92.3832 60.9363 95.9022 58.2858 100.472L58.2588 100.514C57.1303 102.465 56.2109 104.53 55.5156 106.673C55.0358 108.144 54.6904 109.655 54.4835 111.187L80.5314 96.1681C80.426 94.7655 80.0565 93.395 79.442 92.1289C78.8889 90.9864 78.0116 90.0316 76.92 89.3814L76.9113 89.3901ZM67.0391 88.9569C70.8624 86.7521 74.7246 86.2685 77.7219 87.9802C79.0886 88.7831 80.1897 89.968 80.8899 91.3882C81.6742 93.0078 82.1161 94.7706 82.1885 96.5677C82.1966 96.7189 82.1629 96.8687 82.0912 97.0017C82.0195 97.1346 81.9127 97.2449 81.7817 97.3209L53.9599 113.353C53.8142 113.449 53.6409 113.496 53.4664 113.484C53.3594 113.478 53.2547 113.452 53.1581 113.405C53.0616 113.359 52.9751 113.294 52.9037 113.215C52.8323 113.135 52.7773 113.042 52.7419 112.941C52.7066 112.841 52.6914 112.734 52.6975 112.627C52.8406 110.429 53.2618 108.258 53.951 106.166C54.6816 103.914 55.6482 101.745 56.8349 99.6959L56.8588 99.6477C59.644 94.8327 63.3086 91.1076 66.9823 88.9781L67.0391 88.9569Z" fill="#414141"/>
<path fill-rule="evenodd" clip-rule="evenodd" d="M75.6528 74.3282C75.6528 71.7144 74.7344 69.8774 73.2595 69.023C71.7846 68.1687 69.7175 68.2912 67.4528 69.5965C65.1882 70.9019 63.133 73.1453 61.6491 75.7144C60.1653 78.283 59.2409 81.1803 59.2409 83.7796C59.2409 86.3781 60.1623 88.2301 61.6491 89.0877C66.7917 92.072 75.6528 82.7247 75.6528 74.3282Z" fill="white"/>
<path fill-rule="evenodd" clip-rule="evenodd" d="M74.8482 74.3284C74.8747 73.3259 74.6882 72.3292 74.3008 71.404C74.0218 70.6977 73.5116 70.1066 72.8532 69.7269C72.1948 69.3472 71.427 69.2013 70.675 69.313C69.679 69.4402 68.7215 69.7772 67.8659 70.3018C66.7692 70.9514 65.7726 71.7563 64.9071 72.6914C62.9423 74.7828 61.4821 77.2952 60.6382 80.0369V80.0669C60.2704 81.2715 60.076 82.5229 60.0608 83.7824C60.0346 84.7862 60.2212 85.7834 60.6083 86.7104C60.9018 87.4073 61.4086 87.994 62.0562 88.3855C62.5922 88.6887 63.1992 88.8451 63.8153 88.837C65.2392 88.837 66.8398 88.1079 68.3654 86.9069C70.0793 85.5138 71.5188 83.8138 72.6105 81.8947C73.9657 79.5496 74.8452 76.8824 74.8452 74.3165L74.8482 74.3284ZM75.7906 70.7438C76.2719 71.8767 76.5082 73.0981 76.4848 74.3284C76.4848 77.19 75.5154 80.1443 74.0255 82.7224C72.8308 84.819 71.2552 86.6746 69.3796 88.1949C67.5846 89.6194 65.6222 90.4829 63.8183 90.4829C62.9148 90.4902 62.0258 90.2572 61.2425 89.8079C60.2977 89.2469 59.5559 88.4009 59.1244 87.3913C58.6405 86.2589 58.4029 85.0375 58.4274 83.8065C58.4422 82.3885 58.6609 80.98 59.0766 79.6249V79.592C59.9919 76.5997 61.5788 73.8556 63.7165 71.5683C64.6908 70.5252 65.809 69.626 67.0372 68.8977C68.0966 68.2595 69.2792 67.8523 70.5074 67.7029C71.5991 67.5571 72.7083 67.7761 73.6624 68.3256C74.6163 68.8751 75.3615 69.7243 75.7816 70.7408L75.7906 70.7438Z" fill="#414141"/>
<path fill-rule="evenodd" clip-rule="evenodd" d="M31.9415 110.132C35.1065 108.399 38.4183 107.377 41.8137 109.152C39.3457 107.73 35.7438 105.164 33.2218 104.85C30.6251 104.528 28.205 105.477 25.9792 106.697C18.2759 111.365 12.7295 120.769 12.0563 129.697L18.0066 133.147C18.6917 124.207 24.2381 114.8 31.9415 110.132Z" fill="#EDBE5C"/>
<path fill-rule="evenodd" clip-rule="evenodd" d="M31.5506 109.417C33.2079 108.521 34.9131 107.786 36.6722 107.52C36.9085 107.484 37.1478 107.454 37.3901 107.437C35.8585 106.558 34.3238 105.808 33.1241 105.662C31.971 105.525 30.8018 105.626 29.6898 105.961C28.5358 106.317 27.4244 106.797 26.3751 107.395H26.3512C22.6685 109.641 19.4915 113.014 17.1371 116.903C14.8358 120.654 13.3942 124.867 12.916 129.24L17.3316 131.785C17.9164 127.431 19.404 123.246 21.6993 119.499C24.1913 115.379 27.5778 111.798 31.5207 109.411L31.5506 109.39V109.417ZM36.9145 109.133C35.3768 109.366 33.8422 110.029 32.3344 110.848C28.6427 113.088 25.4537 116.47 23.0993 120.368C20.7061 124.335 19.1624 128.833 18.8333 133.212C18.8223 133.334 18.7855 133.451 18.7256 133.556C18.6174 133.743 18.4396 133.879 18.231 133.935C18.0224 133.991 17.8001 133.962 17.6127 133.854L11.7074 130.452C11.5583 130.382 11.434 130.268 11.3512 130.126C11.2684 129.983 11.2309 129.819 11.2437 129.655C11.5907 125.022 13.2091 120.272 15.7311 116.09C18.2171 111.998 21.5976 108.413 25.4866 106.038L25.5764 105.982C26.7303 105.326 27.9534 104.8 29.2231 104.414C30.5452 104.01 31.9363 103.883 33.3097 104.04C35.4516 104.306 38.165 105.978 40.4685 107.398C41.0668 107.768 41.6651 108.126 42.2096 108.446C42.3864 108.557 42.5141 108.73 42.5667 108.931C42.6194 109.133 42.5928 109.347 42.4927 109.53C42.3924 109.712 42.2261 109.85 42.0278 109.913C41.8294 109.977 41.6141 109.964 41.4258 109.874L41.3929 109.856C40.0182 109.137 38.4463 108.882 36.9145 109.133Z" fill="#414141"/>
<path fill-rule="evenodd" clip-rule="evenodd" d="M37.7516 89.4902C35.9417 88.4448 31.8971 85.7498 30.2427 85.5438C22.1654 84.54 13.3432 101.997 20.182 106.134L26.1413 109.569C18.6383 104.829 29.8957 85.3823 37.7516 89.4902Z" fill="white"/>
<path fill-rule="evenodd" clip-rule="evenodd" d="M36.7133 87.9187C37.2608 88.2533 37.7514 88.555 38.1523 88.7851C38.333 88.8939 38.4646 89.0678 38.5194 89.2716C38.5742 89.4747 38.548 89.6917 38.4463 89.8765C38.3445 90.0614 38.1752 90.1994 37.9737 90.2615C37.7722 90.3243 37.5543 90.3068 37.3655 90.2126C35.065 89.0181 32.3307 90.2455 29.9823 92.5635C27.578 95.0035 25.8351 98.0148 24.9175 101.313C24.0799 104.503 24.3701 107.487 26.5719 108.882C26.7444 109 26.8651 109.18 26.9091 109.383C26.9532 109.587 26.9174 109.801 26.8089 109.979C26.7005 110.157 26.5276 110.287 26.3261 110.342C26.1245 110.397 25.9095 110.373 25.7253 110.274C24.0918 109.327 21.1302 107.86 19.7421 106.83C18.001 105.775 17.1334 104.013 16.939 101.913C16.7445 99.8134 17.2381 97.3967 18.1895 95.0429C19.1442 92.6877 20.5005 90.5158 22.1982 88.6236C24.5615 86.0426 27.4574 84.3755 30.3233 84.7401C31.7892 84.9198 34.6342 86.6607 36.7044 87.9245L36.7133 87.9187ZM34.1077 88.2503C32.546 87.3269 30.9396 86.4576 30.1349 86.3531C27.8493 86.0726 25.444 87.5096 23.4157 89.726C21.8453 91.4735 20.5919 93.481 19.7122 95.658C18.8476 97.7883 18.4019 99.9507 18.5694 101.77C18.7159 103.356 19.3412 104.674 20.5797 105.429L23.2063 106.941C22.6648 105.181 22.7695 103.058 23.338 100.897C24.3315 97.3171 26.2229 94.0487 28.8335 91.4019C30.458 89.7947 32.2768 88.6383 34.1077 88.2503Z" fill="#414141"/>
<path fill-rule="evenodd" clip-rule="evenodd" d="M41.8151 109.152C36.3644 106.009 27.5273 111.108 22.0706 120.533C19.7581 124.544 18.2533 129.026 18.008 133.147L45.8597 117.091C45.6353 113.223 44.1306 110.487 41.8151 109.152Z" fill="white"/>
<path fill-rule="evenodd" clip-rule="evenodd" d="M41.4078 109.856C38.9547 108.443 35.6759 108.92 32.3553 110.832L32.3134 110.856C28.873 112.851 25.4327 116.371 22.7792 120.941L22.7553 120.982C21.6255 122.932 20.706 124.996 20.0119 127.139C19.5308 128.61 19.1853 130.122 18.9799 131.656L45.0066 116.645C44.9018 115.243 44.5313 113.872 43.9148 112.607C43.3615 111.464 42.486 110.508 41.3958 109.856H41.4078ZM31.5356 109.422C35.3558 107.221 39.2209 106.719 42.2155 108.446C43.583 109.252 44.6834 110.441 45.3806 111.866C46.165 113.484 46.6079 115.246 46.6819 117.043C46.6896 117.194 46.6554 117.344 46.5831 117.477C46.5108 117.61 46.4032 117.72 46.2721 117.796L18.4503 133.828C18.3243 133.911 18.1774 133.958 18.0261 133.963C17.8748 133.968 17.7252 133.93 17.5941 133.855C17.4629 133.779 17.3554 133.669 17.2837 133.536C17.2119 133.403 17.1788 133.253 17.1879 133.101C17.3359 130.901 17.7621 128.728 18.4563 126.635C19.1893 124.383 20.1569 122.214 21.3432 120.164L21.3671 120.117C24.1523 115.304 27.817 111.579 31.4907 109.446L31.5356 109.422Z" fill="#414141"/>
<path fill-rule="evenodd" clip-rule="evenodd" d="M40.1459 94.799C40.1459 92.1852 39.2274 90.3478 37.7526 89.4909C36.2777 88.6333 34.2135 88.7589 31.9489 90.0644C29.6843 91.3699 27.626 93.6163 26.1422 96.1849C24.6584 98.7542 23.749 101.652 23.749 104.25C23.749 106.849 24.6704 108.701 26.1422 109.555C31.2878 112.542 40.1459 103.205 40.1459 94.799Z" fill="white"/>
<path fill-rule="evenodd" clip-rule="evenodd" d="M39.3311 94.7983C39.3564 93.7953 39.1688 92.7973 38.7806 91.871C38.5031 91.1646 37.9936 90.5728 37.3355 90.193C36.6774 89.8131 35.9096 89.6677 35.1578 89.7802C34.1613 89.9073 33.2029 90.2434 32.3457 90.7657C31.2509 91.4181 30.2547 92.2231 29.387 93.156C27.4242 95.252 25.9689 97.7701 25.133 100.516C24.7556 101.73 24.5542 102.993 24.5347 104.265C24.5085 105.267 24.6951 106.264 25.0822 107.189C25.3757 107.887 25.8825 108.473 26.5301 108.865C27.0644 109.17 27.6707 109.327 28.2861 109.319C29.7131 109.319 31.3106 108.59 32.8394 107.386C34.5531 105.992 35.9925 104.293 37.0844 102.374L37.1084 102.335C38.4486 100.002 39.3191 97.3494 39.3191 94.7983H39.3311ZM40.2705 91.2143C40.7536 92.3466 40.9902 93.5681 40.9645 94.7983C40.9645 97.6394 40.0102 100.575 38.5323 103.145L38.5084 103.192C37.3123 105.288 35.7369 107.144 33.8625 108.665C32.0675 110.09 30.105 110.953 28.3011 110.953C27.3982 110.961 26.5099 110.726 25.7283 110.275C24.7827 109.715 24.0399 108.87 23.6073 107.861C23.1248 106.729 22.8882 105.507 22.9133 104.277C22.9288 102.849 23.1505 101.43 23.5714 100.065C24.4832 97.0732 26.0694 94.3293 28.2084 92.0442C29.1818 90.9944 30.3011 90.0892 31.532 89.3558C32.5916 88.718 33.7742 88.3111 35.0023 88.1613C36.0938 88.0167 37.2026 88.2358 38.1561 88.7859C39.1095 89.336 39.854 90.1857 40.2734 91.2018L40.2705 91.2143Z" fill="#414141"/>
<path fill-rule="evenodd" clip-rule="evenodd" d="M33.2317 39.9017C33.2317 38.8383 33.2137 38.3215 33.5936 37.2999C34.0784 35.9337 35.0018 34.766 36.2202 33.9782L72.2329 13.2356C72.595 13.0294 73.4296 12.5097 73.8484 12.3394C74.2677 12.1533 74.737 12.1112 75.1827 12.2199L69.2503 8.79964C68.9076 8.71405 68.5482 8.72124 68.2093 8.82053C67.949 8.89817 67.699 9.00649 67.4644 9.1432L31.4517 29.8828C31.0238 30.1307 30.255 30.546 29.8362 30.8537C28.4182 31.9231 27.3202 33.9394 27.2993 35.7227V66.4902C27.2971 66.7598 27.3489 67.0271 27.4516 67.2764C27.5544 67.5257 27.706 67.752 27.8976 67.942L27.9485 67.9897L33.8628 71.41C33.6577 71.2195 33.4947 70.9882 33.3844 70.7309C33.2742 70.4737 33.2191 70.1963 33.2227 69.9165L33.2317 39.9017Z" fill="#EDBE5C"/>
<path fill-rule="evenodd" clip-rule="evenodd" d="M32.415 39.9015V39.767C32.415 38.7006 32.415 38.133 32.8308 37.0188C33.1216 36.2342 33.5345 35.5003 34.0544 34.8442C34.5382 34.2181 35.1336 33.6865 35.8105 33.276C47.726 26.9313 60.4042 19.2782 72.0984 12.366C72.3467 12.2167 72.6608 12.0315 72.957 11.8702L68.9303 9.54916H68.8136C68.6844 9.55274 68.5559 9.57079 68.4307 9.60286C68.3378 9.6296 68.2469 9.66254 68.1585 9.70148C56.2489 15.7146 43.3283 24.0397 31.5385 30.7697C31.1269 30.9923 30.7274 31.2366 30.3418 31.5016C29.6822 32.0217 29.1441 32.6792 28.7653 33.4283C28.3793 34.1349 28.1622 34.9211 28.131 35.7255V66.4929C28.1304 66.6638 28.1629 66.8332 28.2267 66.9917L28.2447 67.0396C28.2997 67.1495 28.3714 67.2502 28.4571 67.3383L32.433 69.6294V39.8985L32.415 39.9015ZM34.0484 39.767V69.9102C34.0488 70.0822 34.0823 70.2527 34.1471 70.4121C34.2185 70.5679 34.3202 70.708 34.4463 70.8243C34.5897 70.9617 34.6778 71.1468 34.6938 71.3445C34.71 71.5424 34.6531 71.7392 34.5338 71.898C34.4146 72.0567 34.2413 72.1665 34.0466 72.2064C33.8519 72.2463 33.6493 72.2137 33.477 72.1147L27.5836 68.7183C27.5111 68.6816 27.4446 68.6343 27.3861 68.578L27.3263 68.5241C27.0756 68.2811 26.8727 67.9934 26.728 67.6758L26.6921 67.5982C26.5512 67.2488 26.479 66.8756 26.4797 66.4989V35.7314C26.5121 34.6673 26.7916 33.6252 27.2964 32.6875C27.7887 31.7233 28.486 30.8781 29.3396 30.2112C29.7852 29.9013 30.2487 29.618 30.7277 29.3628C42.6552 22.6537 55.4472 15.5742 67.0546 8.45285C67.2072 8.36921 67.3537 8.29454 67.4913 8.23181C67.6531 8.16379 67.819 8.10595 67.988 8.05856C68.2446 7.989 68.5089 7.95187 68.7748 7.94804C69.0372 7.9352 69.2996 7.97482 69.5466 8.06455L69.6513 8.11531L75.5357 11.5087C75.7187 11.5953 75.8629 11.7471 75.9397 11.9342C76.0165 12.1213 76.0209 12.3303 75.9514 12.5203C75.8826 12.7104 75.7448 12.8678 75.5655 12.9619C75.3863 13.0561 75.1783 13.08 74.9823 13.0292C74.8522 12.9976 74.7178 12.9875 74.5844 12.9993C74.4342 13.0181 74.2872 13.0574 74.1476 13.1157C73.8843 13.2233 73.31 13.5609 72.9181 13.7908C61.1731 20.6075 47.9234 27.4719 36.6301 34.7008C36.1273 35.0094 35.6845 35.4061 35.3228 35.8718C34.9131 36.3965 34.5862 36.9808 34.3536 37.6043C34.1006 38.2957 33.9966 39.0327 34.0484 39.767Z" fill="#414141"/>
<path fill-rule="evenodd" clip-rule="evenodd" d="M59.3871 58.4063C66.5669 54.6904 69.358 57.9194 73.9232 60.4764C73.9651 56.7067 74.0608 53.1968 73.2352 49.9736L73.3818 49.89C75.0271 48.9431 76.3736 46.6191 76.3736 44.7193C76.3736 37.3202 76.3736 21.6914 76.3736 14.2923C76.3736 12.3955 75.0331 11.6039 73.3818 12.5657L36.2053 33.9776C34.56 34.9245 33.2137 37.2634 33.2137 39.1483V39.901V69.9128C33.2122 70.2747 33.3062 70.6306 33.4862 70.9446C33.6663 71.2587 33.9262 71.5197 34.2397 71.7016C34.5531 71.8833 34.909 71.9793 35.2713 71.98C35.6338 71.9806 35.99 71.8857 36.304 71.7051L59.3871 58.4063Z" fill="white"/>
<path fill-rule="evenodd" clip-rule="evenodd" d="M59.0142 57.6833C65.491 54.3288 68.6082 56.2615 72.3417 58.5795L73.1255 59.0634C73.1585 55.8851 73.1435 52.9069 72.4464 50.1766C72.3996 49.9959 72.4167 49.8045 72.4946 49.6348C72.5725 49.465 72.7065 49.3273 72.8742 49.2447L73.0148 49.164C73.7503 48.667 74.3618 48.0081 74.8021 47.238C75.2424 46.468 75.4999 45.6072 75.5547 44.7221V14.2951C75.5681 13.9671 75.497 13.6411 75.3483 13.3482L75.3303 13.3153C75.2698 13.2139 75.1843 13.1296 75.0821 13.0704C74.969 13.0073 74.8406 12.9763 74.711 12.9808C74.3821 12.9981 74.0634 13.1012 73.7867 13.2795L36.6132 34.6913C35.8697 35.1892 35.2504 35.8506 34.8028 36.6248C34.3553 37.3989 34.0914 38.2652 34.0315 39.1571V69.9246C34.0309 70.1431 34.0865 70.358 34.193 70.5489L34.2139 70.5848C34.3246 70.7587 34.4767 70.9024 34.6567 71.0029L34.6897 71.0208C34.8727 71.1223 35.0786 71.1758 35.2879 71.1762C35.5079 71.1737 35.7234 71.114 35.9132 71.0029L59.0202 57.6952L59.0142 57.6833ZM71.4772 59.9625C68.1864 57.9134 65.4132 56.2017 59.7591 59.1291L36.7239 72.4009C36.2981 72.6539 35.8129 72.7899 35.3174 72.7951C34.8219 72.8004 34.3339 72.6747 33.9029 72.4308L33.849 72.4009C33.4285 72.1609 33.0755 71.8188 32.8229 71.4062L32.79 71.3524C32.5371 70.9148 32.405 70.4179 32.407 69.9127V39.1451C32.4487 37.962 32.7904 36.8088 33.4002 35.7936C33.9742 34.7599 34.8045 33.8907 35.8115 33.2695L72.9849 11.8576C73.5082 11.5379 74.1067 11.3617 74.7201 11.3468C75.1389 11.3344 75.553 11.4378 75.917 11.6455C76.2579 11.8453 76.5433 12.1278 76.7452 12.467L76.7752 12.5178C77.0722 13.057 77.22 13.6653 77.2032 14.2802V44.7072C77.1674 45.8904 76.8271 47.0446 76.2155 48.0587C75.7086 48.9548 75.0161 49.7328 74.1846 50.3409C74.8397 53.2982 74.8008 56.4467 74.762 59.8042V60.4195C74.7684 60.5737 74.7321 60.7267 74.6572 60.8616C74.6052 60.9552 74.5351 61.0375 74.4511 61.1039C74.367 61.1704 74.2707 61.2196 74.1676 61.2487C74.0644 61.2779 73.9565 61.2864 73.8501 61.2738C73.7437 61.2612 73.6408 61.2277 73.5474 61.1753C72.8024 60.784 72.1293 60.3658 71.4772 59.9625Z" fill="#414141"/>
<path fill-rule="evenodd" clip-rule="evenodd" d="M9.99942 35.193C10.0203 33.1378 11.3905 30.7691 13.1615 29.7206L51.2713 7.77108C52.3214 7.17365 53.4342 6.27754 54.6249 6.79133C53.7843 6.30442 48.2348 3.03946 47.84 2.92595C46.754 2.62724 45.6172 3.47856 44.7197 3.99533L7.83647 25.2369C6.16717 26.1988 5.25773 26.6647 4.26752 28.4898C3.75878 29.3845 3.47542 30.3891 3.44183 31.4173V63.6156C3.44183 64.3265 3.63329 65.1749 4.26452 65.5902L6.48726 66.8716C5.91887 70.4562 5.98169 73.7181 6.02058 77.3084L12.5721 81.0875C12.5273 76.6721 12.4614 73.5419 13.3081 69.1388L9.99342 67.2301L9.99942 35.193Z" fill="white"/>
<path fill-rule="evenodd" clip-rule="evenodd" d="M9.18182 35.1904C9.24195 33.9534 9.59655 32.7486 10.2162 31.6759C10.8358 30.6031 11.7026 29.6933 12.7448 29.0219L50.8636 7.06645L51.3003 6.80657C51.5995 6.63332 51.8717 6.4571 52.1679 6.30475C50.2802 5.2025 47.7942 3.76268 47.6147 3.70891H47.5639C46.9925 3.58345 46.2207 4.05243 45.5625 4.45271C33.2641 11.8339 20.49 18.9254 8.03007 26.0796C6.62701 26.8861 5.82525 27.3462 4.98761 28.8905C4.76144 29.3074 4.57994 29.7469 4.44613 30.2019C4.33033 30.6042 4.26797 31.02 4.26065 31.4385L4.24569 63.607C4.24231 63.913 4.29609 64.2169 4.40426 64.5031C4.46447 64.661 4.56818 64.7988 4.70342 64.9004L6.88428 66.155C7.02717 66.2376 7.14168 66.3613 7.21271 66.51C7.28373 66.6589 7.30796 66.8256 7.28217 66.9884C6.75266 70.343 6.78555 73.4526 6.82145 76.8247L11.7336 79.657C11.7007 76.0723 11.7336 73.2405 12.3918 69.5335L9.5797 67.9144C9.45505 67.8437 9.35143 67.7411 9.27943 67.6173C9.20743 67.4934 9.16962 67.3527 9.16986 67.2095V35.1784L9.18182 35.1904ZM11.629 32.5019C11.1333 33.3234 10.8525 34.2561 10.8122 35.2143V66.7673L13.6602 68.4103C13.8251 68.4876 13.9593 68.618 14.0411 68.7804C14.1231 68.9429 14.148 69.1281 14.112 69.3064C13.3072 73.4884 13.3401 76.5296 13.385 80.6579V81.0546C13.3963 81.2153 13.3587 81.376 13.2773 81.5148C13.2237 81.6076 13.1523 81.6887 13.0672 81.7544C12.9821 81.8195 12.8849 81.8677 12.7813 81.8954C12.6777 81.9225 12.5696 81.9298 12.4633 81.9159C12.3569 81.902 12.2543 81.8669 12.1614 81.8136L5.60986 78.0352C5.4874 77.9636 5.38572 77.8614 5.31489 77.7386C5.24404 77.6166 5.20652 77.4771 5.206 77.3361V76.8971C5.1701 73.6288 5.13719 70.6028 5.60387 67.32L3.80892 66.2924C3.4039 66.0123 3.09149 65.6182 2.91144 65.1603C2.72424 64.6762 2.62888 64.1617 2.63023 63.6428V31.4385C2.63812 30.8736 2.7206 30.3121 2.87555 29.7687C3.03869 29.198 3.26443 28.647 3.54865 28.1258C4.60468 26.1782 5.55602 25.6315 7.21934 24.6757C19.6763 17.5244 32.4025 10.4329 44.7129 3.06966C45.6493 2.49911 46.7472 1.83001 47.9797 2.14365L48.0605 2.16159C48.4853 2.28108 52.2158 4.4587 54.0915 5.55498L55.0369 6.1046C55.2073 6.20535 55.3355 6.36436 55.3976 6.55216C55.4598 6.73996 55.4517 6.94389 55.3749 7.12622C55.3338 7.22505 55.2734 7.31473 55.1972 7.3901C55.1211 7.46548 55.0308 7.52504 54.9314 7.56532C54.8321 7.6056 54.7258 7.62581 54.6186 7.62479C54.5114 7.62376 54.4055 7.60152 54.3069 7.55933C53.6727 7.29348 52.8919 7.76544 52.15 8.2165L51.6774 8.4973L13.5765 30.4438C12.7672 30.9525 12.0978 31.6548 11.629 32.487V32.5019Z" fill="#414141"/>
<path fill-rule="evenodd" clip-rule="evenodd" d="M13.2993 69.1305L11.0407 69.5009L5.35669 66.2329L6.46655 66.8721L6.4516 66.9708C5.93106 70.4926 5.96097 73.7724 5.99987 77.3092L12.5515 81.0883C12.5095 77.082 12.4886 73.5185 13.2096 69.5426L13.2993 69.1305Z" fill="white"/>
<path fill-rule="evenodd" clip-rule="evenodd" d="M12.2939 70.1233L11.172 70.3055C10.9737 70.3397 10.7697 70.298 10.6006 70.189L7.12742 68.1876C6.96588 69.5348 6.88211 70.8462 6.82827 72.1575C6.78039 73.7019 6.78937 75.2461 6.80732 76.8387L11.7195 79.6702C11.7195 78.1763 11.7195 76.7159 11.7764 75.2731C11.842 73.5481 12.0098 71.8284 12.2789 70.1233H12.2939ZM11.196 68.6536L13.1196 68.337C13.2291 68.3145 13.3421 68.3145 13.4517 68.337C13.5572 68.357 13.6578 68.3977 13.7475 68.4566C13.8373 68.5155 13.9146 68.5916 13.9749 68.6804C14.0352 68.7692 14.0774 68.8689 14.0989 68.9741C14.1206 69.0792 14.1212 69.1875 14.1008 69.2929L14.023 69.7021C13.6927 71.5658 13.4929 73.4503 13.4247 75.3418C13.344 77.209 13.3589 79.0727 13.3798 81.0444C13.3911 81.2051 13.3536 81.3651 13.2721 81.5039C13.2185 81.5974 13.1472 81.6785 13.0621 81.7435C12.977 81.8085 12.8798 81.8568 12.7762 81.8845C12.6725 81.9123 12.5645 81.9196 12.4581 81.905C12.3517 81.8911 12.2492 81.8568 12.1563 81.8027L5.60469 78.0243C5.48223 77.9527 5.38056 77.8512 5.30972 77.7285C5.23888 77.6057 5.20135 77.4669 5.20084 77.3252C5.1799 75.5332 5.16494 73.8303 5.21579 72.1217C5.2573 70.513 5.38413 68.9077 5.59573 67.3124L4.96451 66.948L5.77522 65.538L11.199 68.6626L11.196 68.6536ZM6.90305 66.1803L7.28299 67.0017C7.30877 66.8426 7.28639 66.6794 7.2187 66.533C7.15101 66.3867 7.0411 66.2638 6.90305 66.1803Z" fill="#414141"/>
<path fill-rule="evenodd" clip-rule="evenodd" d="M11.0516 31.8742L4.49704 28.0955L3.444 31.4172L3.62348 64.7566C4.0094 65.7394 5.11929 66.0979 6.47747 66.8715C5.90907 70.4859 5.9719 73.6881 6.01079 77.3083L12.5623 81.0874C12.5175 76.6574 12.4487 73.5627 13.2983 69.1387L9.98357 67.23C9.98357 62.9494 9.70838 35.632 10.19 33.8397L11.0516 31.8742Z" fill="#EDBE5C"/>
<path fill-rule="evenodd" clip-rule="evenodd" d="M10.0109 32.2128L4.97302 29.3093L4.26102 31.5496L4.43753 64.5754C4.67087 64.9877 5.25124 65.2924 5.97221 65.6717L6.01409 65.6956C6.28333 65.836 6.57053 65.9943 6.88465 66.1676C7.02701 66.2498 7.14116 66.3732 7.21216 66.5214C7.28316 66.6695 7.30768 66.8357 7.28253 66.998C6.75302 70.3705 6.78591 73.4114 6.82181 76.7897V76.8379L11.734 79.6695C11.7011 76.0847 11.734 73.271 12.3922 69.546L9.58007 67.927C9.45542 67.8562 9.35179 67.7536 9.27979 67.6298C9.2078 67.5059 9.16998 67.3652 9.17023 67.222L9.14928 62.6517C9.09244 53.4842 8.98473 35.1701 9.40057 33.6197L9.44245 33.5033L10.0109 32.2128ZM4.90422 27.3915L11.3989 31.1345C11.5921 31.2254 11.7421 31.388 11.817 31.5878C11.8918 31.7875 11.8857 32.0086 11.7999 32.2038L10.9681 34.0917C10.6181 35.7675 10.7258 53.6485 10.7767 62.6458L10.8006 66.753L13.6486 68.396C13.8135 68.4733 13.9476 68.6036 14.0296 68.7661C14.1114 68.9286 14.1364 69.1139 14.1003 69.2921C13.2986 73.4741 13.3285 76.4609 13.3734 80.5834V81.0882C13.3729 81.2306 13.3351 81.3709 13.2638 81.4944C13.1924 81.6178 13.09 81.7208 12.9667 81.7924C12.8435 81.864 12.7034 81.9027 12.5607 81.9035C12.4179 81.9049 12.2773 81.8691 12.1528 81.799L5.61622 78.0294C5.48815 77.9615 5.38098 77.8599 5.30617 77.7357C5.23136 77.6115 5.19169 77.4691 5.1914 77.3244V76.8079C5.15549 73.5488 5.12259 70.5975 5.58929 67.3177L5.21234 67.1205C4.1264 66.5499 3.27081 66.1018 2.86395 65.0564C2.8281 64.9609 2.80986 64.8596 2.8101 64.7576L2.6306 31.4809C2.62384 31.38 2.63601 31.2787 2.6665 31.1823L3.71954 27.8635L3.79134 27.7022C3.84394 27.6088 3.91447 27.5267 3.99889 27.4605C4.0833 27.3943 4.17994 27.3454 4.2833 27.3166C4.38665 27.2877 4.49469 27.2795 4.60123 27.2924C4.70777 27.3053 4.81073 27.3389 4.90422 27.3915Z" fill="#414141"/>
<path fill-rule="evenodd" clip-rule="evenodd" d="M68.7452 24.404C68.8381 24.3438 68.9423 24.3029 69.0516 24.2842C69.1607 24.2654 69.2727 24.269 69.3804 24.2947C69.4882 24.3205 69.5896 24.3679 69.6784 24.4341C69.7672 24.5002 69.8417 24.5837 69.8972 24.6795C69.9526 24.7753 69.988 24.8814 70.0011 24.9912C70.0143 25.1011 70.0049 25.2125 69.9735 25.3187C69.9422 25.4248 69.8895 25.5234 69.8188 25.6086C69.7479 25.6937 69.6606 25.7636 69.5619 25.814L56.1984 33.5208C56.0116 33.6219 55.7928 33.6463 55.5882 33.5889C55.3837 33.5314 55.2097 33.3967 55.103 33.2132C54.9963 33.0298 54.9655 32.812 55.017 32.6062C55.0684 32.4004 55.1982 32.2227 55.3788 32.1109L68.7452 24.404Z" fill="#414141"/>
<path fill-rule="evenodd" clip-rule="evenodd" d="M66.5726 33.2598C66.6656 33.1995 66.7698 33.1587 66.879 33.1399C66.9882 33.1211 67.1001 33.1247 67.2078 33.1505C67.3156 33.1763 67.417 33.2236 67.5058 33.2898C67.5947 33.3559 67.6691 33.4395 67.7247 33.5353C67.7801 33.631 67.8155 33.737 67.8286 33.847C67.8417 33.9569 67.8323 34.0683 67.801 34.1743C67.7696 34.2805 67.7169 34.3791 67.6462 34.4643C67.5754 34.5495 67.488 34.6193 67.3893 34.6697L56.1888 41.1279C56.0025 41.223 55.7867 41.243 55.586 41.1838C55.3853 41.1247 55.2149 40.9909 55.1102 40.81C55.0054 40.6291 54.9742 40.415 55.0229 40.2118C55.0716 40.0086 55.1967 39.8318 55.3721 39.718L66.5726 33.2598Z" fill="#414141"/>
<path fill-rule="evenodd" clip-rule="evenodd" d="M40.855 58.0326C40.6677 58.1399 40.4455 58.1686 40.237 58.1123C40.0286 58.056 39.8511 57.9193 39.7436 57.7323C39.6361 57.5454 39.6074 57.3234 39.6638 57.1153C39.7201 56.9072 39.857 56.73 40.0443 56.6226L68.7426 40.0888C68.9296 39.9904 69.1475 39.9682 69.3506 40.0269C69.5536 40.0856 69.726 40.2207 69.8314 40.4037C69.9368 40.5867 69.9669 40.8034 69.9157 41.0081C69.8644 41.2129 69.7355 41.3898 69.5563 41.5018L40.855 58.0326Z" fill="#414141"/>
<path fill-rule="evenodd" clip-rule="evenodd" d="M55.6507 41.4035C55.6507 33.4697 55.6507 16.8254 55.6507 8.89153C55.6507 6.88119 54.2298 6.06271 52.4886 7.0634L13.1493 29.7208C11.4082 30.7275 9.98715 33.1829 9.98715 35.1933L9.97223 67.3946C9.97223 69.399 11.3933 70.2234 13.1343 69.2197L13.2869 69.1301C12.4163 73.5362 12.5121 77.1388 12.551 81.0786C13.8224 78.9067 15.0849 76.7443 16.3353 74.5637C24.3139 60.6527 39.9689 53.6538 52.3839 46.9148C53.35 46.3545 54.1436 45.5403 54.6785 44.5609C55.2806 43.6147 55.6165 42.5241 55.6507 41.4035Z" fill="white"/>
<path fill-rule="evenodd" clip-rule="evenodd" d="M54.8338 41.403V8.89095C54.847 8.53631 54.7709 8.18404 54.6124 7.86639C54.5408 7.73823 54.438 7.63029 54.3132 7.55272C54.1886 7.48429 54.0487 7.44835 53.9064 7.44818C53.5533 7.46111 53.2093 7.56393 52.9072 7.74689L13.5678 30.4073C12.77 30.9373 12.106 31.6446 11.628 32.4739C11.1499 33.3031 10.8708 34.2317 10.8125 35.1867V67.3881C10.7981 67.7428 10.8742 68.0954 11.0339 68.4127C11.102 68.5424 11.2057 68.65 11.3329 68.7231C11.46 68.7961 11.6054 68.8314 11.7519 68.8248C12.1069 68.8076 12.4512 68.6985 12.7511 68.5082L12.9007 68.4187C13.0363 68.3401 13.1917 68.3022 13.3482 68.3094C13.5048 68.3167 13.656 68.3688 13.7837 68.4595C13.9114 68.5502 14.0104 68.6757 14.0687 68.821C14.1269 68.9663 14.1421 69.1252 14.1123 69.2789C13.5636 72.1893 13.313 75.1481 13.3644 78.109L15.6499 74.1599C22.7939 61.7005 35.909 54.7435 47.4804 48.6258C49.072 47.7835 50.6336 46.956 52.0187 46.2033C52.4062 45.9883 52.7591 45.7164 53.0657 45.3968C53.7857 44.6299 54.3235 43.711 54.6393 42.7084C54.7707 42.2782 54.8402 41.8317 54.8457 41.3821L54.8338 41.403ZM56.4791 8.89095L56.4641 41.403C56.4629 42.0106 56.3712 42.6146 56.192 43.1953C55.9997 43.8229 55.7315 44.4248 55.3932 44.9875C55.0685 45.5521 54.6756 46.0748 54.2234 46.5438C53.8034 46.9808 53.3192 47.3515 52.7876 47.6431C51.22 48.4944 49.7361 49.283 48.2283 50.0806C36.8603 56.1057 23.9665 62.9253 17.059 74.9845L13.2686 81.5053C13.1962 81.6266 13.0938 81.7267 12.9712 81.7968C12.8485 81.8669 12.7099 81.9042 12.5686 81.9057C12.4618 81.9064 12.3558 81.8859 12.2568 81.8457C12.1577 81.8056 12.0676 81.7464 11.9915 81.6719C11.9153 81.5966 11.8548 81.5075 11.8131 81.4096C11.7715 81.311 11.7497 81.2058 11.749 81.0991V80.4241C11.71 77.1199 11.6771 74.0165 12.2455 70.426C12.0806 70.4553 11.9134 70.4703 11.746 70.4708C11.3131 70.4749 10.887 70.3629 10.5124 70.1464C10.1377 69.9299 9.82807 69.6169 9.61592 69.2401C9.31009 68.6758 9.15744 68.0414 9.17316 67.4V35.1987C9.23337 33.9579 9.59081 32.7495 10.2155 31.6751C10.8401 30.6008 11.7138 29.6917 12.7631 29.0243L52.0995 6.36684C52.6458 6.03089 53.271 5.8444 53.9124 5.82615C54.3465 5.82221 54.7739 5.93357 55.1509 6.14879C55.5226 6.36493 55.8319 6.6737 56.0484 7.04493C56.3517 7.61187 56.5003 8.24852 56.4791 8.89095Z" fill="#414141"/>
<path fill-rule="evenodd" clip-rule="evenodd" d="M18.0451 38.5355C17.9524 38.5887 17.85 38.6231 17.744 38.6367C17.638 38.6505 17.5303 38.6431 17.4271 38.6152C17.3239 38.5873 17.2272 38.5395 17.1425 38.4743C17.0579 38.4091 16.9869 38.3279 16.9337 38.2353C16.8805 38.1427 16.846 38.0406 16.8323 37.9347C16.8186 37.8288 16.8259 37.7213 16.8538 37.6183C16.8818 37.5152 16.9297 37.4187 16.995 37.3342C17.0603 37.2496 17.1416 37.1787 17.2344 37.1256L43.8236 21.8255C43.9163 21.7723 44.0186 21.738 44.1246 21.7242C44.2307 21.7106 44.3384 21.7179 44.4415 21.7457C44.5448 21.7736 44.6414 21.8215 44.7261 21.8867C44.8108 21.9519 44.8818 22.0331 44.9349 22.1257C44.9882 22.2182 45.0227 22.3203 45.0363 22.4263C45.05 22.5321 45.0427 22.6397 45.0148 22.7427C44.9869 22.8458 44.9389 22.9423 44.8736 23.0269C44.8084 23.1114 44.727 23.1822 44.6343 23.2353L18.0451 38.5355Z" fill="#414141"/>
<path fill-rule="evenodd" clip-rule="evenodd" d="M18.0436 46.5808C17.8563 46.6881 17.6341 46.7167 17.4256 46.6605C17.2172 46.6041 17.0397 46.4675 16.9322 46.2805C16.8247 46.0936 16.796 45.8716 16.8524 45.6635C16.9087 45.4554 17.0456 45.2781 17.2329 45.1708L47.6034 27.6781C47.791 27.5717 48.013 27.5433 48.2213 27.5992C48.4297 27.6552 48.6075 27.7908 48.7163 27.9768C48.7698 28.0692 48.8046 28.1711 48.8185 28.2769C48.8324 28.3826 48.8253 28.49 48.7975 28.593C48.7697 28.696 48.7217 28.7925 48.6565 28.8769C48.5912 28.9614 48.5099 29.0321 48.4172 29.0851L18.0436 46.5808Z" fill="#414141"/>
<path fill-rule="evenodd" clip-rule="evenodd" d="M18.0394 55.1349C17.8521 55.2423 17.6299 55.2709 17.4214 55.2146C17.213 55.1583 17.0355 55.0217 16.928 54.8347C16.8205 54.6477 16.7918 54.4257 16.8482 54.2176C16.9046 54.0096 17.0414 53.8323 17.2287 53.7249L36.7847 42.4605C36.9719 42.3531 37.1942 42.3245 37.4026 42.3808C37.6111 42.437 37.7886 42.5737 37.896 42.7607C38.0036 42.9476 38.0323 43.1696 37.9759 43.3777C37.9195 43.5858 37.7826 43.763 37.5954 43.8704L18.0394 55.1349Z" fill="#414141"/>
<path fill-rule="evenodd" clip-rule="evenodd" d="M11.1993 68.6514C11.3786 68.7632 11.5074 68.9403 11.5588 69.145C11.61 69.3498 11.5798 69.5664 11.4745 69.7494C11.369 69.9324 11.1967 70.0675 10.9936 70.1261C10.7906 70.1849 10.5727 70.1628 10.3857 70.0643L4.04347 66.4081C3.85623 66.3003 3.71951 66.1227 3.6634 65.9143C3.6073 65.7059 3.63641 65.4838 3.74432 65.2968C3.85222 65.1099 4.03008 64.9733 4.23879 64.9173C4.44749 64.8613 4.66992 64.8904 4.85718 64.9981L11.1993 68.6514Z" fill="#414141"/>
<path opacity="0.2" fill-rule="evenodd" clip-rule="evenodd" d="M136.577 146.586C120.885 146.586 108.158 151.205 108.158 156.913C108.158 162.623 120.885 167.242 136.577 167.242C152.268 167.242 165.005 162.623 165.005 156.913C165.005 151.205 152.277 146.586 136.577 146.586Z" fill="#BFBFBF"/>
<path fill-rule="evenodd" clip-rule="evenodd" d="M139.178 115.587L137.823 113.624L134.788 115.646L134.848 116.525L132.491 118.664C133.139 119.219 133.669 119.601 135.672 118.575C137.322 117.667 137.322 117.462 139.178 115.587Z" fill="white"/>
<path fill-rule="evenodd" clip-rule="evenodd" d="M138.177 115.47L137.618 114.649L135.585 115.997L135.615 116.436C135.615 116.671 135.527 116.905 135.35 117.051L133.907 118.37C134.231 118.312 134.643 118.165 135.291 117.843C136.499 117.198 136.764 116.935 137.677 115.997L138.177 115.47ZM138.472 113.155L139.827 115.118C140.063 115.411 140.034 115.85 139.768 116.114C139.385 116.495 139.09 116.818 138.826 117.081C137.795 118.165 137.5 118.487 136.057 119.22C134.908 119.806 134.142 119.981 133.553 119.952C132.876 119.893 132.463 119.6 132.051 119.249C132.021 119.22 131.992 119.19 131.962 119.161C131.668 118.838 131.697 118.341 132.021 118.048L134.112 116.143L134.083 115.675C134.054 115.382 134.172 115.089 134.407 114.942L137.441 112.921C137.735 112.716 138.237 112.804 138.472 113.155Z" fill="#414141"/>
<path fill-rule="evenodd" clip-rule="evenodd" d="M119.914 154.14C119.503 153.905 119.296 153.612 119.296 153.29C119.296 152.997 119.503 152.675 119.914 152.44C120.327 152.206 120.858 152.089 121.387 152.089C121.918 152.089 122.448 152.206 122.86 152.44L126.749 154.667C127.161 154.901 127.367 155.194 127.367 155.516C127.367 155.809 127.161 156.132 126.749 156.365C126.336 156.6 125.806 156.718 125.276 156.718C124.745 156.718 124.215 156.6 123.803 156.365L119.914 154.14Z" fill="white"/>
<path fill-rule="evenodd" clip-rule="evenodd" d="M119.531 154.813C119.236 154.637 119.001 154.432 118.824 154.198L118.794 154.139C118.618 153.876 118.529 153.583 118.529 153.29C118.529 152.967 118.618 152.645 118.824 152.381C119.001 152.147 119.236 151.942 119.531 151.766C119.796 151.62 120.091 151.502 120.415 151.415C120.739 151.327 121.062 151.298 121.386 151.298C121.711 151.298 122.064 151.327 122.359 151.415L122.447 151.444C122.741 151.532 123.007 151.62 123.272 151.766L127.219 154.022C127.484 154.198 127.719 154.373 127.867 154.608C128.073 154.901 128.161 155.194 128.161 155.516C128.161 155.838 128.073 156.131 127.867 156.424C127.69 156.658 127.484 156.864 127.16 157.039C126.895 157.186 126.6 157.303 126.276 157.391C125.953 157.479 125.628 157.508 125.304 157.508C124.98 157.508 124.627 157.479 124.332 157.391L124.244 157.361C123.949 157.274 123.685 157.186 123.419 157.039L119.531 154.813ZM120.091 153.29C120.12 153.348 120.209 153.407 120.297 153.465L124.185 155.692C124.303 155.75 124.45 155.809 124.598 155.867H124.656C124.862 155.926 125.069 155.926 125.275 155.926C125.481 155.926 125.687 155.896 125.893 155.867C126.07 155.838 126.217 155.78 126.364 155.692C126.453 155.634 126.542 155.574 126.571 155.516C126.542 155.457 126.482 155.428 126.394 155.37L122.477 153.114C122.359 153.055 122.212 152.997 122.064 152.938H122.005C121.799 152.879 121.593 152.879 121.386 152.879C121.18 152.879 120.975 152.909 120.768 152.938C120.591 152.967 120.444 153.026 120.297 153.114C120.209 153.172 120.12 153.231 120.091 153.29Z" fill="#414141"/>
<path fill-rule="evenodd" clip-rule="evenodd" d="M111.726 158.738C111.313 158.504 111.108 158.211 111.108 157.889C111.108 157.596 111.313 157.274 111.726 157.039C112.139 156.805 112.668 156.688 113.199 156.688C113.729 156.688 114.259 156.805 114.672 157.039L118.559 159.265C118.972 159.5 119.178 159.793 119.178 160.115C119.178 160.408 118.972 160.73 118.559 160.964C118.148 161.199 117.617 161.316 117.087 161.316C116.557 161.316 116.027 161.199 115.614 160.964L111.726 158.738Z" fill="white"/>
<path fill-rule="evenodd" clip-rule="evenodd" d="M111.342 159.412C111.048 159.236 110.812 159.031 110.635 158.797C110.429 158.504 110.341 158.211 110.341 157.888C110.341 157.566 110.429 157.273 110.635 156.98C110.783 156.746 111.018 156.541 111.342 156.365C111.607 156.219 111.901 156.101 112.226 156.013C112.55 155.926 112.874 155.896 113.198 155.896C113.522 155.896 113.846 155.926 114.17 156.013C114.494 156.101 114.788 156.219 115.053 156.365L118.942 158.591C119.236 158.767 119.472 158.972 119.649 159.207C119.855 159.5 119.943 159.792 119.943 160.115C119.943 160.437 119.855 160.73 119.649 161.023C119.472 161.257 119.265 161.462 118.942 161.638C118.676 161.785 118.382 161.902 118.058 161.989C117.734 162.078 117.41 162.107 117.086 162.107C116.762 162.107 116.438 162.078 116.114 161.989C115.79 161.902 115.495 161.785 115.23 161.638L111.342 159.412ZM111.901 157.888C111.931 157.947 112.02 158.006 112.108 158.064L115.996 160.291C116.143 160.378 116.291 160.437 116.468 160.466C116.644 160.524 116.879 160.524 117.086 160.524C117.292 160.524 117.528 160.495 117.705 160.466C117.881 160.437 118.029 160.378 118.176 160.291C118.264 160.232 118.352 160.173 118.382 160.115C118.352 160.056 118.264 159.998 118.176 159.939L114.288 157.713C114.14 157.625 113.993 157.566 113.816 157.537C113.64 157.478 113.404 157.478 113.198 157.478C112.962 157.478 112.756 157.507 112.579 157.537C112.403 157.566 112.256 157.625 112.108 157.713C112.02 157.771 111.961 157.829 111.901 157.888Z" fill="#414141"/>
<path fill-rule="evenodd" clip-rule="evenodd" d="M122.271 117.638C123.36 118.049 124.156 119.132 124.156 120.363C124.156 120.451 124.156 120.538 124.156 120.597L124.126 136.68C124.126 141.66 123.685 147.138 123.478 152.147C123.478 152.44 123.273 152.763 122.86 152.997C122.447 153.232 121.918 153.348 121.387 153.348C120.857 153.348 120.327 153.232 119.914 152.997C119.502 152.763 119.296 152.47 119.296 152.147C119.296 146.962 119.237 141.807 119.237 136.621L117.97 126.69L116.351 127.598L115.909 141.279C115.732 146.435 115.467 151.591 115.261 156.747C115.261 157.04 115.054 157.362 114.642 157.597C114.23 157.83 113.699 157.948 113.169 157.948C112.639 157.948 112.109 157.83 111.696 157.597C111.284 157.362 111.078 157.069 111.078 156.747C111.078 151.562 111.019 146.405 111.019 141.221L110.105 125.196C110.105 125.109 110.105 125.049 110.105 124.962C110.105 123.233 111.196 122.647 112.462 121.945L116.645 119.601L119.62 117.931C120.503 117.434 121.387 117.287 122.271 117.638Z" fill="#2B7CFF"/>
<path fill-rule="evenodd" clip-rule="evenodd" d="M122.566 116.905C123.273 117.169 123.862 117.667 124.303 118.282C124.716 118.868 124.952 119.601 124.952 120.362V120.655L124.922 136.68C124.922 139.99 124.716 143.563 124.539 147.079C124.45 148.807 124.362 150.536 124.274 152.147C124.274 152.733 123.95 153.29 123.273 153.671L123.213 153.7C122.948 153.846 122.684 153.934 122.389 154.022C122.065 154.11 121.741 154.139 121.416 154.139C121.093 154.139 120.739 154.11 120.445 154.022L120.356 153.993C120.061 153.905 119.797 153.817 119.532 153.671L119.502 153.641C119.208 153.465 119.001 153.26 118.854 153.055C118.648 152.762 118.559 152.47 118.559 152.147C118.559 150.155 118.559 148.163 118.53 146.171C118.501 142.655 118.501 139.169 118.501 136.68L117.411 127.95L117.204 128.066L116.704 141.308C116.586 144.765 116.438 148.163 116.291 151.561L116.056 156.775C116.056 157.098 115.967 157.42 115.761 157.684L115.702 157.743C115.555 157.947 115.32 158.123 115.054 158.299C114.789 158.445 114.494 158.563 114.17 158.651C113.847 158.738 113.523 158.768 113.199 158.768C112.875 158.768 112.55 158.738 112.226 158.651C111.902 158.563 111.608 158.445 111.343 158.299L111.284 158.27C111.019 158.094 110.783 157.918 110.636 157.684C110.429 157.391 110.342 157.098 110.342 156.775C110.342 154.842 110.342 152.909 110.312 150.976C110.282 147.372 110.282 143.769 110.282 141.249C110.282 135.976 109.31 130.235 109.31 124.962C109.31 122.823 110.518 122.149 111.962 121.329C114.318 120.011 116.822 118.488 119.208 117.257C119.738 116.964 120.297 116.759 120.827 116.701C121.416 116.612 122.006 116.671 122.566 116.905ZM123.007 119.132C122.771 118.781 122.418 118.488 122.006 118.341C121.682 118.224 121.358 118.195 121.034 118.224C120.68 118.253 120.327 118.4 119.974 118.604C117.558 119.952 115.172 121.359 112.757 122.677C111.726 123.233 110.901 123.731 110.901 124.962C110.783 129.678 111.549 136.299 111.844 141.22C111.844 145.175 111.844 148.046 111.873 150.946L111.902 156.746V156.775C111.932 156.835 111.991 156.864 112.079 156.922L112.109 156.951C112.256 157.039 112.403 157.098 112.58 157.127C112.757 157.186 112.992 157.186 113.199 157.186C113.405 157.186 113.641 157.157 113.817 157.127C113.994 157.098 114.141 157.039 114.288 156.951C114.377 156.893 114.436 156.864 114.465 156.805L114.494 156.775L114.73 151.502C114.878 148.075 115.025 144.648 115.143 141.249L115.585 127.569C115.585 127.305 115.732 127.042 115.997 126.925L117.558 126.046C117.646 125.987 117.793 125.928 117.911 125.899C118.353 125.841 118.736 126.163 118.795 126.573L120.032 136.474V136.592C120.032 140.459 120.032 143.3 120.061 146.142L120.091 152.147C120.121 152.206 120.179 152.235 120.268 152.293H120.297C120.416 152.352 120.563 152.411 120.71 152.47H120.769C120.975 152.528 121.181 152.528 121.387 152.528C121.593 152.528 121.8 152.499 122.006 152.47C122.153 152.44 122.3 152.381 122.447 152.323L122.477 152.293C122.624 152.206 122.684 152.147 122.684 152.118V152.088C122.742 150.39 122.86 148.69 122.948 146.962C123.125 143.505 123.331 139.99 123.331 136.621C123.331 131.172 123.39 125.723 123.39 120.304C123.39 119.894 123.243 119.483 123.007 119.132Z" fill="#414141"/>
<path fill-rule="evenodd" clip-rule="evenodd" d="M115.85 96.1937C116.645 96.6627 117.912 96.6627 118.707 96.1937C119.502 95.7254 119.502 94.9927 118.707 94.5536C117.912 94.0846 116.645 94.0846 115.85 94.5536C115.055 94.9927 115.055 95.7254 115.85 96.1937Z" fill="white"/>
<path fill-rule="evenodd" clip-rule="evenodd" d="M116.262 95.4908C116.528 95.6377 116.91 95.7253 117.293 95.7253C117.676 95.7253 118.059 95.6377 118.324 95.4908C118.412 95.4324 118.472 95.4032 118.501 95.3447C118.472 95.3155 118.412 95.257 118.324 95.1979C118.059 95.0518 117.676 94.9641 117.293 94.9641C116.91 94.9641 116.528 95.0518 116.262 95.1979C116.174 95.257 116.115 95.2863 116.086 95.3447C116.115 95.4032 116.174 95.4616 116.262 95.4908ZM117.293 97.3077C116.646 97.3077 115.997 97.1608 115.467 96.8679C115.113 96.6626 114.849 96.3996 114.672 96.1359C114.525 95.9014 114.465 95.6377 114.465 95.3739C114.465 95.1102 114.525 94.8465 114.672 94.612C114.849 94.319 115.084 94.056 115.438 93.88C115.968 93.587 116.616 93.4402 117.264 93.4402C117.912 93.4402 118.56 93.587 119.09 93.88C119.443 94.0853 119.709 94.349 119.856 94.612C120.003 94.8465 120.062 95.1102 120.062 95.3739C120.062 95.6084 120.003 95.8429 119.885 96.0767L119.856 96.1359C119.679 96.4288 119.443 96.6626 119.09 96.8679C118.589 97.1608 117.941 97.3077 117.293 97.3077Z" fill="#1A87C7"/>
<path fill-rule="evenodd" clip-rule="evenodd" d="M123.803 120.158C124.363 119.835 124.599 119.396 124.51 118.986V98.3326C124.304 96.458 121.506 94.8472 120.298 95.55L114.348 98.9777L112.139 100.237C111.197 100.765 110.018 101.848 109.989 103.167V124.464C109.959 124.581 109.959 124.727 109.989 124.845V124.932H110.018C110.106 125.196 109.753 125.431 110.431 125.811C111.108 126.192 112.963 126.368 113.936 125.811L123.803 120.158Z" fill="white"/>
<path fill-rule="evenodd" clip-rule="evenodd" d="M123.42 119.483C123.567 119.395 123.684 119.307 123.744 119.22C123.773 119.19 123.773 119.161 123.773 119.131C123.773 119.073 123.744 119.014 123.744 118.956V98.3612C123.714 98.1567 123.626 97.9514 123.508 97.7461C123.243 97.2778 122.771 96.838 122.242 96.5451C121.77 96.2814 121.269 96.106 120.887 96.1645C120.798 96.1645 120.739 96.1937 120.68 96.2229C117.941 97.6877 115.231 99.3577 112.521 100.91C112.079 101.174 111.578 101.584 111.225 102.053C110.989 102.404 110.813 102.785 110.783 103.166V124.463C110.783 124.522 110.783 124.58 110.754 124.639V124.668C110.813 124.873 110.813 125.019 110.813 125.137C111.078 125.283 111.637 125.372 112.256 125.372C112.757 125.372 113.257 125.312 113.552 125.137L123.42 119.483ZM125.069 120.01C124.892 120.332 124.598 120.596 124.186 120.831L114.318 126.484C113.758 126.806 112.963 126.953 112.256 126.953C111.402 126.953 110.518 126.748 110.047 126.484C109.163 125.987 109.192 125.547 109.252 125.137C109.222 125.079 109.222 125.019 109.222 124.932V124.903C109.192 124.815 109.192 124.727 109.192 124.639C109.192 124.551 109.192 124.463 109.222 124.375V103.137C109.252 102.375 109.546 101.701 109.958 101.115C110.46 100.412 111.166 99.8851 111.755 99.533C114.436 97.9806 117.293 96.4574 119.914 94.8459C120.15 94.6997 120.445 94.6121 120.739 94.5829C121.446 94.4945 122.3 94.729 123.037 95.1688C123.773 95.5786 124.45 96.2229 124.863 96.9264C125.069 97.3071 125.246 97.7169 125.305 98.1567C125.305 98.2151 125.305 98.2443 125.305 98.3028V118.868C125.364 119.278 125.275 119.659 125.069 120.01ZM110.813 125.137C110.813 125.137 110.783 125.342 110.783 125.254L110.813 125.137Z" fill="#414141"/>
<path fill-rule="evenodd" clip-rule="evenodd" d="M115.261 95.3441H119.325L119.62 99.1816C119.62 99.2108 119.62 99.2693 119.62 99.2985C119.62 99.6506 119.385 99.9728 118.943 100.236C118.03 100.763 116.557 100.763 115.644 100.236C115.202 99.9728 114.966 99.6214 114.966 99.2985C114.966 99.2693 114.966 99.2108 114.966 99.1816L115.261 95.3441Z" fill="white"/>
<path fill-rule="evenodd" clip-rule="evenodd" d="M115.261 94.5828H120.033C120.151 96.1352 120.239 97.776 120.386 99.3284C120.386 99.6506 120.268 100.002 120.062 100.295C119.885 100.529 119.62 100.764 119.326 100.94C118.736 101.262 118 101.438 117.294 101.438C116.557 101.438 115.821 101.262 115.261 100.94C114.937 100.764 114.672 100.529 114.495 100.295C114.289 100.002 114.171 99.6506 114.171 99.3284C114.171 99.27 114.171 99.2115 114.171 99.1531L114.524 94.5828H115.261ZM118.589 96.1352H115.997L115.762 99.2408V99.2992C115.762 99.2992 115.762 99.3284 115.791 99.3576C115.85 99.4161 115.939 99.5045 116.056 99.5629C116.381 99.7682 116.852 99.8559 117.323 99.8559C117.794 99.8559 118.236 99.7682 118.589 99.5629C118.707 99.5045 118.796 99.4161 118.854 99.3576C118.884 99.3284 118.884 99.2992 118.884 99.2992C118.736 98.2443 118.678 97.1901 118.589 96.1352Z" fill="#414141"/>
<path fill-rule="evenodd" clip-rule="evenodd" d="M117.676 86.4386H116.91C114.995 86.4386 113.316 87.9917 113.404 89.8955L113.581 94.1436C113.669 96.0474 115.142 97.6298 117.086 97.6298H117.469C119.384 97.6298 120.886 96.0474 120.974 94.1436L121.181 89.8955C121.269 87.9917 119.589 86.4386 117.676 86.4386Z" fill="white"/>
<path fill-rule="evenodd" clip-rule="evenodd" d="M117.676 87.2006C117.382 87.2006 117.087 87.2006 116.793 87.2006C116.086 87.2298 115.438 87.5228 114.966 87.991C114.495 88.46 114.2 89.0752 114.2 89.7487L114.377 94.1137C114.407 94.8757 114.731 95.5785 115.231 96.0767L115.261 96.1059C115.732 96.5749 116.38 96.8386 117.087 96.8386H117.47C118.206 96.8386 118.854 96.5457 119.326 96.0767C119.827 95.5785 120.151 94.8757 120.18 94.1137L120.386 89.8663V89.7487C120.386 89.0752 120.092 88.46 119.62 87.991C119.149 87.5228 118.501 87.2298 117.794 87.2006H117.676ZM116.91 85.6475H117.676H117.883C118.972 85.7066 120.003 86.1749 120.74 86.9076C121.506 87.6396 121.977 88.6653 121.977 89.7787L121.771 94.2021C121.711 95.3739 121.24 96.4281 120.445 97.19C119.679 97.9513 118.648 98.4203 117.47 98.4203H117.087C115.938 98.4203 114.907 97.9812 114.171 97.2485L114.112 97.19C113.347 96.4281 112.845 95.3739 112.816 94.2021C112.757 92.7666 112.639 91.2135 112.639 89.7787C112.639 88.6653 113.11 87.6396 113.876 86.9076C114.613 86.1749 115.615 85.7066 116.733 85.6475H116.91Z" fill="#414141"/>
<path fill-rule="evenodd" clip-rule="evenodd" d="M117.676 86.4386H116.91C114.995 86.4386 113.316 87.9917 113.404 89.8955L113.581 94.1436C114.7 93.3525 115.437 92.386 115.495 90.8036C118.412 91.1557 119.384 90.9797 121.062 88.929C120.65 87.4935 119.236 86.4386 117.676 86.4386Z" fill="white"/>
<path fill-rule="evenodd" clip-rule="evenodd" d="M117.676 87.2006C117.382 87.2006 117.087 87.2006 116.793 87.2006C116.086 87.2299 115.438 87.5228 114.966 87.9918C114.495 88.4601 114.201 89.0752 114.201 89.7495L114.319 92.3269C114.584 91.917 114.731 91.3896 114.731 90.7452C114.731 90.3054 115.114 89.9833 115.526 89.9833H115.585C116.94 90.1301 117.824 90.1886 118.501 89.9833C119.061 89.8079 119.562 89.4266 120.151 88.7238C119.974 88.314 119.68 87.9619 119.326 87.6989C118.855 87.4059 118.295 87.2006 117.676 87.2006ZM116.91 85.6482H117.676C118.649 85.6482 119.532 85.9704 120.269 86.4971C121.005 87.0246 121.565 87.8158 121.801 88.6946C121.888 88.9291 121.83 89.1928 121.653 89.4266C120.71 90.5692 119.944 91.2142 118.973 91.5072C118.207 91.741 117.323 91.7702 116.174 91.6533C116.057 92.2392 115.879 92.7374 115.585 93.1765C115.202 93.8208 114.642 94.319 113.995 94.7881C113.877 94.8757 113.729 94.9342 113.582 94.9342C113.14 94.9634 112.787 94.612 112.758 94.1729C112.698 92.7374 112.581 91.1843 112.581 89.7495C112.581 88.6362 113.052 87.6105 113.818 86.8785C114.554 86.1457 115.555 85.6775 116.675 85.6183L116.91 85.6482Z" fill="#414141"/>
<path fill-rule="evenodd" clip-rule="evenodd" d="M119.56 124.874C119.944 124.669 120.415 124.786 120.621 125.167C120.827 125.547 120.71 126.016 120.326 126.221L116.763 128.272C116.379 128.477 115.908 128.36 115.702 127.979C115.496 127.598 115.614 127.129 115.996 126.925L119.56 124.874Z" fill="#414141"/>
<path fill-rule="evenodd" clip-rule="evenodd" d="M129.842 116.701L130.372 114.152L134.29 114.914L134.614 115.822L137.913 116.994L137.029 118.458C132.434 118.019 133.288 118.136 129.842 116.701Z" fill="white"/>
<path fill-rule="evenodd" clip-rule="evenodd" d="M129.076 116.554L129.605 114.006C129.694 113.595 130.107 113.331 130.519 113.39L134.436 114.152C134.731 114.21 134.967 114.445 135.025 114.708L135.202 115.236L138.148 116.29C138.56 116.437 138.766 116.876 138.619 117.287C138.59 117.345 138.56 117.433 138.531 117.491L137.677 118.927C137.529 119.19 137.235 119.337 136.94 119.308L136.38 119.249C134.525 119.073 133.67 118.986 132.904 118.781C132.227 118.604 131.697 118.4 130.725 117.96L129.576 117.462C129.194 117.287 129.017 116.905 129.076 116.554ZM130.96 115.06L130.725 116.232L131.285 116.466C132.198 116.847 132.699 117.081 133.259 117.198C133.906 117.374 134.731 117.433 136.498 117.638H136.587L136.734 117.403L134.348 116.554C134.142 116.466 133.965 116.319 133.877 116.086L133.7 115.587L130.96 115.06Z" fill="#414141"/>
<path fill-rule="evenodd" clip-rule="evenodd" d="M122.3 110.988L114.965 101.584L111.254 104.836L119.943 113.537C120.149 113.771 120.385 113.917 120.68 114.034C120.709 114.034 120.768 114.064 120.798 114.064L129.045 116.495C129.222 116.554 129.399 116.583 129.605 116.554C130.371 116.495 130.96 115.851 130.901 115.089C130.871 114.503 130.459 114.034 129.958 113.888L122.3 110.988Z" fill="white"/>
<path fill-rule="evenodd" clip-rule="evenodd" d="M109.223 104.103C109.193 103.664 109.547 103.313 109.959 103.284C110.401 103.254 110.754 103.606 110.784 104.016C110.784 104.25 110.872 104.514 110.99 104.748C111.108 104.982 111.256 105.158 111.491 105.334L120.475 112.921L120.563 113.009C120.622 113.068 120.681 113.126 120.74 113.155C120.799 113.185 120.857 113.243 120.946 113.243C123.685 114.063 126.69 114.825 129.371 115.733L129.458 115.763C129.488 115.763 129.547 115.763 129.576 115.763C129.724 115.763 129.871 115.675 129.989 115.557C130.077 115.441 130.136 115.294 130.136 115.118C130.136 115.001 130.077 114.884 130.018 114.796L129.989 114.767C129.93 114.679 129.813 114.62 129.724 114.591L122.007 111.72C121.889 111.661 121.771 111.603 121.712 111.515L116.645 106.535C116.351 106.242 116.321 105.744 116.645 105.422C116.94 105.129 117.441 105.1 117.765 105.422L122.743 110.314L130.254 113.155C130.637 113.302 130.961 113.507 131.197 113.829L131.226 113.888C131.491 114.21 131.639 114.62 131.668 115.06C131.697 115.646 131.491 116.202 131.138 116.612C130.784 117.022 130.254 117.315 129.665 117.344H129.636C129.488 117.344 129.341 117.344 129.194 117.315C129.076 117.286 128.958 117.286 128.84 117.227C126.366 116.554 122.714 115.617 120.416 114.738C120.21 114.679 120.004 114.562 119.827 114.445C119.65 114.327 119.503 114.21 119.355 114.063L110.489 106.564C110.107 106.271 109.812 105.89 109.576 105.48C109.37 105.041 109.252 104.572 109.223 104.103Z" fill="#414141"/>
<path fill-rule="evenodd" clip-rule="evenodd" d="M139.148 115.763C139.001 115.851 138.854 115.939 138.677 115.968C137.97 116.115 137.293 115.704 137.116 115.001C136.998 114.474 137.204 113.947 137.617 113.684L143.684 108.966L148.515 99.7974C148.839 99.0362 150.636 98.0105 151.814 98.6841C152.934 99.3291 152.816 100.94 152.492 101.526C152.138 102.112 152.403 101.702 152.345 101.76L146.159 110.461C146.041 110.666 145.805 110.871 145.717 110.959C145.599 111.047 145.658 111.017 145.599 111.017L139.148 115.763Z" fill="#2B7CFF"/>
<path fill-rule="evenodd" clip-rule="evenodd" d="M139.591 116.378C139.473 116.466 139.355 116.525 139.237 116.584C139.12 116.642 138.973 116.671 138.855 116.73C138.295 116.847 137.735 116.759 137.294 116.466C136.852 116.173 136.498 115.734 136.38 115.177V115.148C136.292 114.738 136.322 114.357 136.469 114.006C136.616 113.624 136.881 113.302 137.205 113.068L143.067 108.469L147.78 99.5044C147.809 99.4459 147.839 99.3875 147.869 99.3291C148.163 98.8308 148.782 98.3034 149.518 98.0104C150.254 97.6883 151.167 97.5714 151.933 97.8935L151.992 97.9228C152.081 97.952 152.139 97.9812 152.198 98.0104C152.876 98.391 153.258 99.0361 153.405 99.6805C153.612 100.501 153.436 101.438 153.17 101.906C153.111 101.995 153.082 102.082 153.023 102.141L152.905 102.317L146.808 110.871C146.719 111.018 146.631 111.135 146.514 111.252L146.484 111.281C146.366 111.428 146.219 111.544 146.13 111.604L145.983 111.691L139.591 116.378ZM138.59 115.177C138.619 115.177 138.649 115.148 138.678 115.119L145.129 110.402L145.246 110.314C145.276 110.285 145.306 110.256 145.364 110.197C145.423 110.139 145.453 110.109 145.453 110.08C147.427 107.121 149.753 104.28 151.697 101.321L151.786 101.204C151.786 101.174 151.786 101.174 151.815 101.145C151.933 100.94 151.992 100.472 151.903 100.032C151.845 99.7681 151.697 99.5044 151.432 99.3583L151.344 99.3291C150.99 99.1822 150.548 99.2699 150.137 99.4459C149.695 99.622 149.371 99.8857 149.253 100.09C147.809 103.137 145.983 106.301 144.393 109.319C144.333 109.435 144.275 109.523 144.157 109.582L138.089 114.299C138 114.357 137.942 114.445 137.912 114.533C137.882 114.621 137.882 114.708 137.882 114.796V114.826C137.912 114.972 138 115.06 138.118 115.148C138.236 115.207 138.354 115.236 138.501 115.207H138.531L138.59 115.177Z" fill="#414141"/>
<path fill-rule="evenodd" clip-rule="evenodd" d="M149.605 117.99C148.574 118.371 147.867 119.366 147.867 120.509C147.867 120.597 147.867 120.656 147.867 120.743L147.896 135.713L148.722 150.302L144.804 152.646C144.804 152.939 144.981 153.202 145.363 153.437C145.746 153.641 146.247 153.759 146.748 153.759L151.255 151.649C151.638 151.445 151.814 151.152 151.814 150.859C151.814 150.829 151.814 150.829 151.814 150.8V136.064L152.403 126.133L154.2 126.779L154.966 139.697L156.41 154.491L152.462 156.893C152.462 157.186 152.639 157.45 153.022 157.684C153.405 157.889 153.906 158.006 154.406 158.006L158.883 155.926C159.12 155.78 159.296 155.604 159.384 155.428C159.502 155.194 159.443 154.931 159.443 154.667L158.883 139.638L159.414 124.171C159.414 124.083 159.414 124.024 159.414 123.937C159.414 122.325 158.412 121.798 157.205 121.124L154.318 119.513L152.109 118.283C151.255 117.785 150.43 117.668 149.605 117.99Z" fill="white"/>
<path fill-rule="evenodd" clip-rule="evenodd" d="M149.9 118.693C149.547 118.839 149.223 119.074 148.987 119.396C148.781 119.718 148.663 120.069 148.663 120.48C148.839 125.431 148.692 130.645 148.692 135.625L149.517 150.214C149.547 150.507 149.37 150.77 149.134 150.916L145.982 152.792C146.042 152.821 146.13 152.85 146.189 152.85C146.307 152.879 146.454 152.909 146.601 152.909L150.902 150.887C150.96 150.858 151.02 150.8 151.049 150.77V150.8C151.167 142.07 151.137 134.746 151.638 126.046C151.667 125.606 152.021 125.284 152.462 125.313C152.551 125.313 152.64 125.342 152.728 125.372L154.495 126.017C154.79 126.133 154.996 126.397 154.996 126.719L155.762 139.638L157.205 154.403C157.235 154.696 157.087 154.988 156.822 155.135L153.641 157.098C153.7 157.127 153.788 157.157 153.847 157.157C153.965 157.186 154.112 157.215 154.259 157.215L158.531 155.223C158.59 155.194 158.619 155.165 158.648 155.135L158.678 155.106C157.971 143.681 158.413 135.273 158.619 123.966C158.619 122.853 157.853 122.413 156.911 121.885C155.172 120.948 153.464 119.952 151.726 118.956C151.402 118.781 151.078 118.663 150.754 118.634C150.46 118.546 150.194 118.605 149.9 118.693ZM147.691 118.546C148.074 117.96 148.663 117.521 149.311 117.257C149.841 117.052 150.401 116.994 150.931 117.052C151.462 117.111 151.962 117.287 152.462 117.58C153.935 118.575 156.085 119.601 157.676 120.509C159.031 121.27 160.18 121.915 160.18 123.936C159.561 127.042 159.768 135.918 159.65 139.638C159.826 144.56 159.826 149.921 160.21 154.755C160.239 155.048 160.239 155.37 160.063 155.75C159.974 155.926 159.856 156.073 159.709 156.219C159.591 156.336 159.444 156.453 159.267 156.542L159.179 156.6L154.79 158.651C154.672 158.709 154.525 158.768 154.407 158.768C154.112 158.768 153.788 158.738 153.494 158.651C153.199 158.592 152.904 158.475 152.64 158.328C152.345 158.152 152.139 157.977 151.962 157.743C151.756 157.479 151.667 157.157 151.667 156.864C151.667 156.6 151.815 156.336 152.051 156.189L155.585 154.051C154.701 144.882 153.994 136.504 153.464 127.334L153.14 127.218L152.64 136.094V150.741V150.829C152.64 151.151 152.551 151.444 152.345 151.708C152.198 151.913 151.962 152.118 151.667 152.293L147.161 154.403C147.043 154.462 146.925 154.491 146.778 154.491C146.454 154.491 146.159 154.462 145.865 154.373C145.57 154.286 145.276 154.198 145.04 154.051C144.775 153.905 144.569 153.729 144.421 153.524L144.363 153.465C144.156 153.202 144.068 152.879 144.068 152.586C144.068 152.323 144.215 152.059 144.451 151.913L147.956 149.804C147.367 139.551 147.161 131.055 147.131 120.773C147.131 120.684 147.131 120.567 147.131 120.48C147.102 119.776 147.308 119.103 147.691 118.546Z" fill="#414141"/>
<path fill-rule="evenodd" clip-rule="evenodd" d="M148.722 150.272L144.804 152.616C144.804 152.909 144.981 153.172 145.364 153.407C145.747 153.612 146.248 153.729 146.748 153.729L151.255 151.62C151.579 151.444 151.756 151.21 151.815 150.976C150.284 151.21 149.429 151.181 148.722 150.272Z" fill="white"/>
<path fill-rule="evenodd" clip-rule="evenodd" d="M148.605 151.268L146.012 152.82C146.072 152.85 146.16 152.879 146.219 152.879C146.337 152.909 146.484 152.938 146.631 152.938L149.341 151.678C149.046 151.561 148.811 151.444 148.605 151.268ZM144.422 151.941L148.34 149.598C148.664 149.393 149.106 149.481 149.371 149.803C149.606 150.096 149.842 150.242 150.137 150.301C150.519 150.36 151.05 150.331 151.756 150.213C151.845 150.213 151.963 150.213 152.051 150.242C152.463 150.331 152.729 150.77 152.64 151.18C152.581 151.414 152.463 151.619 152.316 151.825L152.287 151.854C152.139 152.03 151.963 152.176 151.727 152.323L147.22 154.432C147.103 154.49 146.985 154.52 146.838 154.52C146.514 154.52 146.219 154.49 145.925 154.403C145.63 154.314 145.335 154.227 145.099 154.08C144.834 153.934 144.628 153.758 144.481 153.553L144.422 153.495C144.216 153.231 144.128 152.909 144.128 152.616C144.039 152.352 144.186 152.088 144.422 151.941Z" fill="#414141"/>
<path fill-rule="evenodd" clip-rule="evenodd" d="M147.573 127.364C145.982 125.342 148.28 115.47 149.134 113.244L148.31 109.054C147.956 107.267 147.868 105.715 148.045 103.928L148.368 100.5C148.575 98.7425 151.167 97.2778 152.286 97.9221L155.291 99.6506L157.353 100.822C158.206 101.291 159.326 102.316 159.355 103.547L158.855 116.202L160.534 124.024C160.563 124.112 160.298 129.502 160.21 131.172C160.18 131.67 160.239 132.285 159.768 132.578C159.15 132.93 157.411 133.105 156.498 132.578L148.163 127.803C147.897 127.657 147.721 127.568 147.573 127.364Z" fill="#2B7CFF"/>
<path fill-rule="evenodd" clip-rule="evenodd" d="M146.897 127.774C146.16 126.778 146.131 124.61 146.396 122.237C146.779 118.81 147.781 114.767 148.311 113.185L147.515 109.201C147.339 108.293 147.221 107.414 147.162 106.535C147.103 105.656 147.133 104.777 147.221 103.84L147.545 100.413C147.604 100.003 147.751 99.5928 147.957 99.2115C148.341 98.5379 148.988 97.952 149.696 97.5422C150.402 97.1316 151.198 96.9271 151.875 96.9855C152.14 97.0148 152.405 97.1024 152.641 97.22C154.319 98.1865 156.087 99.1238 157.737 100.15C158.297 100.472 158.944 100.969 159.386 101.614C159.799 102.171 160.063 102.815 160.093 103.518L159.592 116.115L161.271 123.848C161.301 123.937 161.301 124.054 161.271 124.141C161.271 124.581 161.242 125.489 161.183 126.485C161.094 128.184 161.006 130.264 160.947 131.202V131.407C160.918 132.051 160.918 132.754 160.123 133.223L160.063 133.253C159.592 133.486 158.826 133.662 158.031 133.662C157.324 133.662 156.617 133.546 156.058 133.223C153.259 131.612 150.373 130.03 147.604 128.36C147.368 128.213 147.162 128.096 146.926 127.833L146.897 127.774ZM147.928 122.384C147.692 124.434 147.692 126.192 148.134 126.837L148.163 126.866C148.193 126.925 148.281 126.954 148.37 127.012C151.168 128.448 154.084 130.293 156.853 131.876C157.118 132.022 157.56 132.11 158.031 132.11C158.561 132.11 159.062 132.022 159.297 131.905L159.327 131.876C159.357 131.876 159.357 131.612 159.357 131.377V131.114C159.415 130.176 159.533 128.067 159.592 126.426C159.652 125.167 159.71 124.23 159.71 124.2L158.031 116.379C158.031 116.32 158.002 116.262 158.002 116.173L158.502 103.518C158.502 103.167 158.326 102.844 158.12 102.522C157.795 102.083 157.354 101.731 156.942 101.497C155.233 100.589 153.524 99.5344 151.846 98.5671C151.816 98.5379 151.757 98.5379 151.669 98.5087C151.345 98.4795 150.873 98.5964 150.432 98.8601C149.96 99.1238 149.548 99.5044 149.283 99.9442C149.165 100.15 149.106 100.325 149.077 100.53L148.752 103.929C148.664 104.777 148.664 105.598 148.694 106.389C148.723 107.18 148.841 107.971 149.018 108.82L149.843 113.009C149.872 113.156 149.872 113.302 149.813 113.42C149.341 114.826 148.311 118.927 147.928 122.384Z" fill="#414141"/>
<path fill-rule="evenodd" clip-rule="evenodd" d="M164.982 122.031L162.566 122.412L163.097 126.045L163.921 126.396L164.864 129.473L166.278 128.711C166.071 124.493 166.16 125.254 164.982 122.031Z" fill="white"/>
<path fill-rule="evenodd" clip-rule="evenodd" d="M164.48 122.881L163.479 123.027L163.832 125.488L164.245 125.664C164.48 125.752 164.627 125.928 164.687 126.162L165.335 128.33L165.482 128.271V128.242C165.393 126.601 165.364 125.84 165.246 125.225C165.158 124.697 164.981 124.257 164.657 123.379L164.48 122.881ZM162.448 121.621L164.863 121.24C165.217 121.182 165.6 121.387 165.717 121.739L166.13 122.823C166.483 123.76 166.66 124.257 166.808 124.903C166.955 125.605 166.984 126.426 167.072 128.154L167.102 128.682C167.102 128.975 166.955 129.238 166.69 129.384L165.335 130.116C165.276 130.146 165.217 130.176 165.128 130.205C164.716 130.322 164.274 130.087 164.156 129.677L163.332 126.953L162.89 126.777C162.625 126.689 162.419 126.455 162.359 126.162L161.83 122.5C161.741 122.09 162.036 121.709 162.448 121.621Z" fill="#414141"/>
<path fill-rule="evenodd" clip-rule="evenodd" d="M165.04 121.944L163.656 114.123C163.656 114.093 163.656 114.034 163.626 114.005C163.597 113.888 163.567 113.771 163.509 113.654L159.267 103.049L155.143 104.982L160.592 114.884L162.536 122.471C162.566 122.647 162.625 122.793 162.743 122.94C163.155 123.526 163.951 123.672 164.54 123.262C164.952 122.97 165.158 122.413 165.04 121.944Z" fill="#2B7CFF"/>
<path fill-rule="evenodd" clip-rule="evenodd" d="M156.527 109.172C156.321 108.791 156.469 108.323 156.851 108.118C157.235 107.912 157.706 108.059 157.912 108.44L161.27 114.533C161.299 114.592 161.329 114.65 161.329 114.709L163.273 122.355L163.302 122.414L163.362 122.53C163.449 122.619 163.538 122.677 163.656 122.706C163.773 122.736 163.921 122.706 164.039 122.619C164.127 122.56 164.186 122.472 164.215 122.384C164.245 122.297 164.245 122.179 164.245 122.091C161.859 110.022 163.951 116.848 158.501 103.314C158.354 102.903 158.531 102.464 158.943 102.317C159.355 102.171 159.797 102.346 159.944 102.757L164.186 113.303C164.215 113.361 164.245 113.449 164.275 113.508C165.04 115.647 165.364 119.426 165.777 121.769C165.865 122.15 165.835 122.56 165.688 122.941C165.541 123.292 165.305 123.644 164.952 123.878C164.48 124.2 163.921 124.317 163.42 124.23C162.92 124.142 162.448 123.878 162.124 123.439L162.065 123.38C161.977 123.263 161.918 123.146 161.859 123.029C161.8 122.912 161.771 122.794 161.741 122.706L159.826 115.178L156.527 109.172Z" fill="#414141"/>
<path fill-rule="evenodd" clip-rule="evenodd" d="M155.378 97.3069H151.902L151.637 100.618C151.637 100.647 151.637 100.676 151.637 100.705C151.637 100.998 151.844 101.291 152.226 101.526C153.021 101.965 154.288 101.965 155.083 101.526C155.467 101.291 155.673 100.998 155.673 100.705C155.673 100.676 155.673 100.647 155.673 100.618L155.378 97.3069Z" fill="white"/>
<path fill-rule="evenodd" clip-rule="evenodd" d="M154.672 98.0982H152.639L152.433 100.705C152.462 100.764 152.522 100.793 152.609 100.852L152.639 100.881C152.904 101.028 153.258 101.086 153.641 101.086C154.024 101.086 154.406 100.998 154.672 100.852C154.76 100.793 154.819 100.735 154.848 100.705C154.878 100.705 154.672 98.3327 154.672 98.0982ZM151.903 96.545H155.408C155.821 96.545 156.174 96.8679 156.203 97.2778C156.292 98.4203 156.41 99.5921 156.469 100.735C156.469 101.028 156.38 101.291 156.203 101.555L156.174 101.614C156.027 101.848 155.791 102.053 155.497 102.199C154.966 102.492 154.319 102.639 153.67 102.639C153.051 102.639 152.433 102.492 151.903 102.229L151.844 102.199C151.549 102.023 151.314 101.818 151.167 101.614C150.96 101.35 150.872 101.028 150.872 100.705C150.872 100.646 150.872 100.588 150.872 100.529L151.137 97.2778C151.107 96.8679 151.461 96.545 151.903 96.545Z" fill="#414141"/>
<path fill-rule="evenodd" clip-rule="evenodd" d="M153.641 88.3431C155.526 88.3431 157.323 89.8371 157.146 91.7117L156.763 95.8429C156.616 97.5706 155.644 99.2114 153.641 99.2114C151.726 99.2114 150.696 97.6882 150.519 95.8429L150.136 91.7117C149.959 89.8663 151.696 88.3431 153.641 88.3431Z" fill="white"/>
<path fill-rule="evenodd" clip-rule="evenodd" d="M153.64 87.5521C153.758 87.5521 153.876 87.5521 154.023 87.5813H154.052C155.054 87.669 156.026 88.1088 156.733 88.7824C157.469 89.4859 157.941 90.4232 157.941 91.4773C157.941 91.5949 157.941 91.6826 157.941 91.7995L157.557 95.9008C157.469 96.9849 157.086 98.069 156.35 98.8595C155.702 99.563 154.818 100.002 153.64 100.002C152.491 100.002 151.578 99.563 150.93 98.8595C150.223 98.0982 149.84 97.0726 149.722 95.9307L149.34 91.7995C149.34 91.6826 149.31 91.5657 149.31 91.4773C149.31 90.4524 149.782 89.5151 150.488 88.8116C151.195 88.138 152.168 87.6982 153.168 87.5813H153.198C153.405 87.5521 153.523 87.5521 153.64 87.5521ZM153.876 89.1337C153.817 89.1337 153.728 89.1337 153.64 89.1337C153.552 89.1337 153.463 89.1337 153.375 89.1337C152.697 89.1929 152.079 89.4859 151.608 89.9249C151.166 90.3348 150.9 90.8914 150.9 91.4773V91.6534L151.284 95.7839C151.372 96.6043 151.637 97.3363 152.079 97.8053C152.432 98.2151 152.963 98.4496 153.64 98.4496C154.318 98.4496 154.848 98.1859 155.201 97.8053C155.673 97.3071 155.908 96.5458 155.996 95.7839C156.114 94.3776 156.32 92.8836 156.38 91.4773C156.38 90.8622 156.085 90.3348 155.673 89.9249C155.172 89.4859 154.553 89.1929 153.876 89.1337Z" fill="#414141"/>
<path fill-rule="evenodd" clip-rule="evenodd" d="M156.41 154.461L152.463 156.863C152.463 157.156 152.64 157.42 153.023 157.654C153.406 157.859 153.907 157.976 154.407 157.976L158.885 155.896C159.12 155.75 159.297 155.574 159.385 155.398C159.414 155.34 159.415 155.281 159.445 155.222C157.912 155.457 157.117 155.34 156.41 154.461Z" fill="white"/>
<path fill-rule="evenodd" clip-rule="evenodd" d="M156.292 155.457L153.641 157.068C153.7 157.097 153.789 157.127 153.847 157.127C153.965 157.156 154.112 157.185 154.26 157.185L157.029 155.896C156.764 155.779 156.528 155.633 156.292 155.457ZM152.08 156.189L156.027 153.787C156.351 153.582 156.822 153.67 157.058 153.963C157.293 154.256 157.53 154.432 157.824 154.49C158.177 154.578 158.678 154.549 159.356 154.461C159.444 154.461 159.532 154.461 159.621 154.461C160.033 154.549 160.327 154.959 160.239 155.369L160.18 155.545C160.151 155.604 160.151 155.662 160.121 155.72C160.033 155.896 159.916 156.043 159.768 156.189C159.65 156.306 159.503 156.424 159.326 156.512L159.238 156.57L154.849 158.621C154.731 158.679 154.584 158.738 154.466 158.738C154.171 158.738 153.847 158.708 153.553 158.621C153.258 158.562 152.964 158.445 152.699 158.299C152.404 158.122 152.198 157.947 152.021 157.713C151.815 157.449 151.726 157.127 151.726 156.834C151.697 156.599 151.844 156.336 152.08 156.189Z" fill="#414141"/>
<path fill-rule="evenodd" clip-rule="evenodd" d="M152.168 101.702C152.227 101.262 152.61 100.969 153.052 101.028C153.494 101.087 153.788 101.467 153.73 101.907C153.552 103.254 153.435 104.133 153.405 104.924C153.376 105.686 153.376 106.389 153.494 107.385C153.523 107.825 153.228 108.205 152.786 108.234C152.345 108.264 151.962 107.971 151.933 107.532C151.815 106.447 151.815 105.686 151.844 104.837C151.873 104.016 151.991 103.108 152.168 101.702Z" fill="#414141"/>
<path fill-rule="evenodd" clip-rule="evenodd" d="M154.378 93.7623L154.408 96.7795C154.408 97.4823 155.527 98.5372 156.028 98.5079L158.207 98.5372L158.119 93.0004C158.089 89.8364 156.528 87.259 153.613 87.259C150.696 87.259 148.899 89.4558 149.135 92.6198C149.135 92.7659 149.164 92.9127 149.164 93.0588C149.282 94.2306 149.4 95.1095 150.519 95.8714L150.137 91.7117V91.3011L150.961 91.7701L154.378 93.7623Z" fill="white"/>
<path fill-rule="evenodd" clip-rule="evenodd" d="M155.173 93.7625C155.173 94.7882 155.202 95.8131 155.202 96.8096C155.232 96.9557 155.409 97.161 155.615 97.3663C155.821 97.5708 155.998 97.7177 156.027 97.7177C156.498 97.7177 156.97 97.7176 157.412 97.7469L157.353 93.0013C157.323 91.5073 156.97 90.1887 156.233 89.2806C155.644 88.5194 154.761 88.0212 153.641 88.0212C153.523 88.0212 153.406 88.0212 153.317 88.0212C152.286 88.0796 151.432 88.5194 150.873 89.1929C150.549 89.5736 150.313 90.0133 150.166 90.5401C150.313 90.5401 150.46 90.57 150.578 90.6577L154.82 93.0889C155.025 93.2358 155.144 93.4695 155.173 93.7625ZM153.612 96.7804L153.583 94.2023L150.99 92.7375L151.285 95.7839C151.315 95.96 151.255 96.136 151.137 96.3114C150.902 96.6627 150.401 96.7511 150.048 96.5166C149.341 96.0476 148.958 95.5202 148.722 94.9051C148.487 94.3484 148.428 93.7924 148.369 93.1474L148.339 92.7083C148.339 92.503 148.31 92.2978 148.31 92.1224C148.31 90.57 148.781 89.2222 149.606 88.2264C150.46 87.23 151.668 86.6149 153.17 86.498C153.317 86.498 153.465 86.4688 153.612 86.4688C155.262 86.4688 156.557 87.1715 157.471 88.3141C158.384 89.4859 158.885 91.1559 158.914 93.0013L159.003 98.5673C159.003 99.0063 158.648 99.3285 158.207 99.3285C158.03 99.3285 156.027 99.2993 156.027 99.2993C155.556 99.2993 154.938 98.9479 154.466 98.4497C154.054 98.0106 153.7 97.4247 153.641 96.8973C153.612 96.868 153.612 96.8388 153.612 96.7804Z" fill="#414141"/>
</svg>
