<svg width="170" height="170" viewBox="0 0 170 170" fill="none" xmlns="http://www.w3.org/2000/svg">
<path d="M152.792 125.446C154.83 137.378 130.902 151.43 99.3473 156.83C67.7926 162.229 40.5602 156.934 38.522 145.003C37.3823 138.33 44.3621 130.995 56.2548 124.881C65.6296 120.061 78.0571 116 91.9665 113.619C123.521 108.219 150.754 113.514 152.792 125.446Z" fill="#E8E8E8"/>
<path fill-rule="evenodd" clip-rule="evenodd" d="M50.4846 150.562L15.9903 130.618L100.339 81.8602L134.824 101.805L50.4846 150.562Z" fill="white"/>
<path fill-rule="evenodd" clip-rule="evenodd" d="M18.164 130.617L50.4842 149.318L132.659 101.805L100.339 83.1039L18.164 130.617ZM50.4842 151.649C50.299 151.649 50.1171 151.593 49.9603 151.502L15.4472 131.547C15.1083 131.365 14.895 131.004 14.895 130.617C14.895 130.231 15.1083 129.87 15.4472 129.678L99.7863 80.9207C100.128 80.726 100.552 80.726 100.891 80.9207L135.376 100.865C135.714 101.06 135.928 101.418 135.928 101.805C135.928 102.191 135.714 102.552 135.376 102.734L51.0269 151.502C50.8794 151.595 50.6692 151.649 50.4842 151.649Z" fill="#414141"/>
<path fill-rule="evenodd" clip-rule="evenodd" d="M50.4846 161.573L15.9903 141.628V130.618L50.4846 150.562V161.573Z" fill="#EDBE5C"/>
<path fill-rule="evenodd" clip-rule="evenodd" d="M17.0566 141L49.4142 159.687V151.187L17.0566 132.49V141ZM50.4841 162.65C50.299 162.65 50.1171 162.603 49.9602 162.502L15.4472 142.557C15.1083 142.363 14.895 142.005 14.895 141.628V130.617C14.895 130.231 15.1083 129.87 15.4472 129.678C15.7797 129.483 16.2126 129.483 16.542 129.678L51.0268 149.623C51.3688 149.818 51.5789 150.176 51.5789 150.562V161.573C51.5789 161.959 51.3688 162.32 51.0268 162.505C50.8794 162.603 50.6692 162.65 50.4841 162.65Z" fill="#414141"/>
<path fill-rule="evenodd" clip-rule="evenodd" d="M50.4838 150.562L134.823 101.805V112.815L50.4838 161.573V150.562Z" fill="#EDBE5C"/>
<path fill-rule="evenodd" clip-rule="evenodd" d="M51.5769 151.19V159.692L133.751 112.187V103.677L51.5769 151.19ZM50.482 162.65C50.297 162.65 50.1151 162.603 49.9581 162.502C49.6257 162.318 49.4154 161.959 49.4154 161.57V150.56C49.4154 150.172 49.6288 149.812 49.9581 149.62L134.307 100.863C134.649 100.668 135.044 100.668 135.377 100.863C135.715 101.057 135.929 101.415 135.929 101.802V112.812C135.929 113.199 135.715 113.551 135.377 113.752L51.028 162.5C50.8774 162.603 50.6672 162.65 50.482 162.65Z" fill="#414141"/>
<path fill-rule="evenodd" clip-rule="evenodd" d="M95.2624 116.107L76.3196 105.16V42.0651L95.2624 53.0097V116.107Z" fill="white"/>
<path fill-rule="evenodd" clip-rule="evenodd" d="M77.3979 104.535L94.1666 114.235V53.6379L77.3979 43.9374V104.535ZM95.2647 117.194C95.0796 117.194 94.907 117.147 94.7219 117.047L75.7791 106.102C75.4371 105.907 75.227 105.549 75.227 105.16V42.0651C75.227 41.6787 75.4371 41.3175 75.7791 41.1258C76.1116 40.931 76.5069 40.931 76.8457 41.1258L95.7887 52.0798C96.1212 52.2745 96.3315 52.6234 96.3315 53.0097V116.104C96.3315 116.491 96.118 116.861 95.7887 117.044C95.6318 117.147 95.4467 117.194 95.2647 117.194Z" fill="#414141"/>
<path fill-rule="evenodd" clip-rule="evenodd" d="M95.2624 53.0096L76.3196 42.0651L98.7134 29.1195L117.656 40.0735L95.2624 53.0096Z" fill="white"/>
<path fill-rule="evenodd" clip-rule="evenodd" d="M78.4959 42.0651L95.2647 51.7658L115.488 40.0736L98.7187 30.3729L78.4959 42.0651ZM95.2647 54.0967C95.0795 54.0967 94.907 54.0495 94.7219 53.949L75.7791 43.0044C75.4371 42.8096 75.227 42.4516 75.227 42.0651C75.227 41.6788 75.4371 41.3176 75.7791 41.1258L98.1729 28.1803C98.5054 27.9855 98.9007 27.9855 99.2427 28.1803L118.211 39.1343C118.543 39.3291 118.725 39.6871 118.725 40.0736C118.725 40.4506 118.54 40.8118 118.211 41.0034L95.7886 53.949C95.6318 54.0527 95.4466 54.0967 95.2647 54.0967Z" fill="#414141"/>
<path fill-rule="evenodd" clip-rule="evenodd" d="M74.0663 128.368L55.1235 117.424V71.8391L74.0663 82.793V128.368Z" fill="#2B7CFF"/>
<path fill-rule="evenodd" clip-rule="evenodd" d="M56.1929 116.799L72.9711 126.499V83.4215L56.1929 73.721V116.799ZM74.066 129.458C73.8527 129.458 73.6707 129.402 73.5139 129.311L54.5803 118.357C54.2383 118.162 54.0282 117.804 54.0282 117.424V71.8393C54.0282 71.4529 54.2383 71.0916 54.5803 70.9094C54.9129 70.7146 55.3081 70.7146 55.6469 70.9094L74.5805 81.854C74.9224 82.0487 75.1326 82.4068 75.1326 82.7933V128.371C75.1326 128.758 74.9224 129.119 74.5805 129.311C74.4331 129.402 74.2511 129.458 74.066 129.458Z" fill="#414141"/>
<path fill-rule="evenodd" clip-rule="evenodd" d="M74.0663 82.7932L55.1235 71.8392L77.5204 58.8936L96.4601 69.8476L74.0663 82.7932Z" fill="#2B7CFF"/>
<path fill-rule="evenodd" clip-rule="evenodd" d="M57.2595 71.8392L74.066 81.5397L94.2857 69.8476L77.517 60.147L57.2595 71.8392ZM74.066 83.8706C73.8526 83.8706 73.6707 83.8235 73.5137 83.7231L54.5803 72.7785C54.2383 72.5837 54.0282 72.2256 54.0282 71.8392C54.0282 71.4529 54.2383 71.0916 54.5803 70.9094L76.9648 57.9543C77.3037 57.7595 77.702 57.7595 78.0315 57.9543L96.9743 68.9083C97.3131 69.103 97.5266 69.4612 97.5266 69.8476C97.5266 70.234 97.3131 70.5952 96.9743 70.79L74.5804 83.7261C74.4329 83.8266 74.2511 83.8706 74.066 83.8706Z" fill="#414141"/>
<path fill-rule="evenodd" clip-rule="evenodd" d="M74.0671 128.368V82.793L96.4607 69.8474V115.422L74.0671 128.368Z" fill="#2B7CFF"/>
<path fill-rule="evenodd" clip-rule="evenodd" d="M75.136 83.4183V126.496L95.3588 114.794V71.726L75.136 83.4183ZM74.0693 129.458C73.856 129.458 73.674 129.402 73.5172 129.311C73.1846 129.119 72.9744 128.758 72.9744 128.371V82.793C72.9744 82.4067 73.1846 82.0455 73.5172 81.8538L95.911 68.9081C96.253 68.7134 96.6483 68.7134 96.9808 68.9081C97.3196 69.1029 97.5329 69.4611 97.5329 69.8474V115.426C97.5329 115.812 97.3196 116.173 96.9808 116.365L74.587 129.311C74.4364 129.402 74.2544 129.458 74.0693 129.458Z" fill="#414141"/>
<path fill-rule="evenodd" clip-rule="evenodd" d="M95.2632 116.107V53.0097L117.657 40.0736V103.162L95.2632 116.107Z" fill="white"/>
<path fill-rule="evenodd" clip-rule="evenodd" d="M96.3322 53.6381V114.235L116.561 102.543V41.9459L96.3322 53.6381ZM95.2654 117.194C95.0804 117.194 94.9079 117.147 94.7227 117.047C94.3808 116.861 94.1705 116.494 94.1705 116.107V53.0129C94.1705 52.6266 94.3808 52.2747 94.7227 52.0831L117.107 39.1375C117.449 38.9428 117.873 38.9428 118.211 39.1375C118.544 39.3323 118.726 39.6905 118.726 40.0768V103.162C118.726 103.548 118.513 103.919 118.183 104.101L95.7895 117.047C95.6325 117.147 95.4475 117.194 95.2654 117.194Z" fill="#414141"/>
<path fill-rule="evenodd" clip-rule="evenodd" d="M74.0692 102.552L55.1262 91.6078L32.7325 104.554L51.6721 115.498L74.0692 102.552Z" fill="white"/>
<path fill-rule="evenodd" clip-rule="evenodd" d="M34.8756 104.553L51.6726 114.254L71.9049 102.552L55.1268 92.8611L34.8756 104.553ZM51.6694 116.585C51.4593 116.585 51.2741 116.538 51.1267 116.437L32.1839 105.493C31.845 105.298 31.6317 104.94 31.6317 104.553C31.6317 104.167 31.845 103.806 32.1839 103.611L54.5777 90.6653C54.9103 90.4706 55.3056 90.4706 55.6444 90.6653L74.5779 101.619C74.9197 101.814 75.13 102.172 75.13 102.549C75.13 102.945 74.9197 103.306 74.5779 103.492L52.1935 116.437C52.0397 116.541 51.8545 116.585 51.6694 116.585Z" fill="#414141"/>
<path fill-rule="evenodd" clip-rule="evenodd" d="M51.6721 115.498L32.7325 104.553V130.36L51.6721 141.313V115.498Z" fill="white"/>
<path fill-rule="evenodd" clip-rule="evenodd" d="M33.7996 129.744L50.5777 139.435V116.136L33.7996 106.426V129.744ZM51.6694 142.401C51.4592 142.401 51.2741 142.348 51.1267 142.254L32.1839 131.299C31.845 131.105 31.6317 130.746 31.6317 130.36V104.55C31.6317 104.164 31.845 103.803 32.1839 103.608C32.5165 103.413 32.9117 103.413 33.2537 103.608L52.1965 114.562C52.5258 114.757 52.7393 115.115 52.7393 115.492V141.31C52.7393 141.697 52.5258 142.058 52.1965 142.25C52.0396 142.348 51.8545 142.401 51.6694 142.401Z" fill="#414141"/>
<path fill-rule="evenodd" clip-rule="evenodd" d="M74.0676 128.368V102.552L51.6706 115.498V141.314L74.0676 128.368Z" fill="white"/>
<path fill-rule="evenodd" clip-rule="evenodd" d="M52.7401 116.132V139.432L72.9724 127.74V104.431L52.7401 116.132ZM51.6702 142.4C51.4601 142.4 51.275 142.347 51.1276 142.252C50.7856 142.058 50.5753 141.701 50.5753 141.313V115.495C50.5753 115.118 50.7888 114.756 51.1276 114.565L73.5152 101.619C73.854 101.424 74.2523 101.424 74.5818 101.619C74.9238 101.814 75.1339 102.163 75.1339 102.549V128.368C75.1339 128.754 74.9238 129.116 74.5818 129.307L52.1973 142.252C52.0404 142.347 51.8554 142.4 51.6702 142.4Z" fill="#414141"/>
<path fill-rule="evenodd" clip-rule="evenodd" d="M96.9775 24.8503L111.672 16.3591L107.032 12.9853L111.672 3.93811L96.9775 12.4324V24.8503Z" fill="#EDBE5C"/>
<path fill-rule="evenodd" clip-rule="evenodd" d="M98.0734 13.0576V22.9781L109.685 16.2555L106.387 13.8587C105.954 13.554 105.835 12.9634 106.083 12.4953L109.038 6.71205L98.0734 13.0576ZM96.9784 25.9404C96.7934 25.9404 96.6113 25.8932 96.4639 25.7927C96.0968 25.598 95.9118 25.2399 95.9118 24.8534V12.4325C95.9118 12.0461 96.0968 11.6849 96.4639 11.4932L111.124 3.00841C111.557 2.76024 112.075 2.82306 112.405 3.15604C112.772 3.48903 112.866 4.01362 112.652 4.43771L108.436 12.6524L112.323 15.4828C112.627 15.7027 112.775 16.0451 112.746 16.422C112.746 16.7801 112.533 17.1131 112.223 17.2985L97.5369 25.7897C97.3455 25.8933 97.1604 25.9404 96.9784 25.9404Z" fill="#414141"/>
<path fill-rule="evenodd" clip-rule="evenodd" d="M96.979 42.1593C96.3986 42.1593 95.9091 41.6693 95.9091 41.0723V24.8535C95.9091 24.2534 96.3986 23.7759 96.979 23.7759C97.5876 23.7759 98.0739 24.2565 98.0739 24.8535V41.0723C98.0739 41.6693 97.5845 42.1593 96.979 42.1593Z" fill="#414141"/>
</svg>
