<svg width="190" height="190" viewBox="0 0 190 190" fill="none" xmlns="http://www.w3.org/2000/svg">
<g clip-path="url(#clip0_637_7833)">
<mask id="mask0_637_7833" style="mask-type:luminance" maskUnits="userSpaceOnUse" x="7" y="92" width="171" height="99">
<path d="M177.176 140.498L92.2994 92.4997C91.6574 92.1712 90.9467 92 90.2257 92C89.5047 92 88.794 92.1712 88.152 92.4997L8.00723 139.27C6.78053 139.972 6.66368 141.083 7.71514 141.667L92.5331 189.607C93.1811 189.95 93.903 190.13 94.6361 190.13C95.3691 190.13 96.091 189.95 96.739 189.607L176.884 142.837C178.11 142.194 178.227 141.083 177.176 140.498Z" fill="white"/>
</mask>
<g mask="url(#mask0_637_7833)">
<path d="M480.463 -100.477L-26.3335 192.131L-25.5453 193.498L481.251 -99.1093L480.463 -100.477Z" fill="#EDBE5C"/>
<path d="M487.08 -97.2743L-19.7675 195.245L-18.9796 196.612L487.868 -95.9069L487.08 -97.2743Z" fill="#EDBE5C"/>
<path d="M492.914 -93.224L-13.984 199.206L-13.1963 200.574L493.702 -91.8564L492.914 -93.224Z" fill="#EDBE5C"/>
<path d="M499.571 -90.2052L-7.27654 202.314L-6.48864 203.681L500.359 -88.8377L499.571 -90.2052Z" fill="#EDBE5C"/>
<path d="M505.005 -86.2966L-1.84254 206.222L-1.05464 207.59L505.793 -84.9291L505.005 -86.2966Z" fill="#EDBE5C"/>
<path d="M511.468 -82.8674L4.6202 209.652L5.40805 211.019L512.256 -81.5L511.468 -82.8674Z" fill="#EDBE5C"/>
<path d="M517.32 -78.9864L10.5236 213.621L11.3117 214.988L518.108 -77.6191L517.32 -78.9864Z" fill="#EDBE5C"/>
<path d="M523.946 -75.5191L17.0472 216.911L17.8348 218.279L524.733 -74.1515L523.946 -75.5191Z" fill="#EDBE5C"/>
<path d="M529.902 -72.1197L23.0038 220.311L23.7915 221.678L530.69 -70.7521L529.902 -72.1197Z" fill="#EDBE5C"/>
<path d="M536.466 -68.3971L29.5671 224.033L30.3547 225.401L537.253 -67.0295L536.466 -68.3971Z" fill="#EDBE5C"/>
<path d="M542.405 -64.9369L35.5579 227.582L36.3458 228.949L543.193 -63.5695L542.405 -64.9369Z" fill="#EDBE5C"/>
<path d="M548.969 -61.667L42.1218 230.852L42.9097 232.219L549.757 -60.2996L548.969 -61.667Z" fill="#EDBE5C"/>
<path d="M554.433 -57.7665L47.5855 234.752L48.3734 236.12L555.221 -56.399L554.433 -57.7665Z" fill="#EDBE5C"/>
<path d="M560.896 -54.3365L54.0482 238.182L54.8361 239.55L561.684 -52.9691L560.896 -54.3365Z" fill="#EDBE5C"/>
<path d="M566.748 -50.4076L59.9513 242.2L60.7395 243.567L567.536 -49.0403L566.748 -50.4076Z" fill="#EDBE5C"/>
<path d="M573.387 -47.2093L66.5392 245.31L67.3271 246.677L574.175 -45.8418L573.387 -47.2093Z" fill="#EDBE5C"/>
<path d="M579.284 -43.5779L72.4369 248.941L73.2248 250.309L580.072 -42.2104L579.284 -43.5779Z" fill="#EDBE5C"/>
<path d="M393.811 -150.529L-113.037 141.99L-112.249 143.358L394.598 -149.162L393.811 -150.529Z" fill="#EDBE5C"/>
<path d="M400.436 -146.702L-106.513 145.64L-105.726 147.008L401.223 -145.334L400.436 -146.702Z" fill="#EDBE5C"/>
<path d="M405.897 -143.3L-100.951 149.219L-100.163 150.586L406.685 -141.933L405.897 -143.3Z" fill="#EDBE5C"/>
<path d="M412.442 -139.505L-94.5074 152.837L-93.72 154.205L413.23 -138.137L412.442 -139.505Z" fill="#EDBE5C"/>
<path d="M418.211 -135.911L-88.5851 156.696L-87.797 158.063L418.999 -134.544L418.211 -135.911Z" fill="#EDBE5C"/>
<path d="M424.9 -132.831L-81.9471 159.688L-81.1593 161.055L425.688 -131.464L424.9 -132.831Z" fill="#EDBE5C"/>
<path d="M430.702 -128.845L-76.0946 163.762L-75.3064 165.13L431.49 -127.478L430.702 -128.845Z" fill="#EDBE5C"/>
<path d="M437.311 -125.623L-69.5364 166.896L-68.7485 168.264L438.099 -124.255L437.311 -125.623Z" fill="#EDBE5C"/>
<path d="M443.238 -121.941L-63.6093 170.578L-62.8214 171.945L444.026 -120.574L443.238 -121.941Z" fill="#EDBE5C"/>
<path d="M449.86 -118.554L-56.9873 173.965L-56.1994 175.332L450.648 -117.187L449.86 -118.554Z" fill="#EDBE5C"/>
<path d="M455.375 -114.741L-51.4726 177.778L-50.6847 179.146L456.163 -113.373L455.375 -114.741Z" fill="#EDBE5C"/>
<path d="M461.838 -111.311L-45.0099 181.208L-44.222 182.575L462.626 -109.944L461.838 -111.311Z" fill="#EDBE5C"/>
<path d="M467.69 -107.362L-39.1068 185.245L-38.3187 186.612L468.478 -105.995L467.69 -107.362Z" fill="#EDBE5C"/>
<path d="M474.328 -104.243L-32.5194 188.276L-31.7315 189.644L475.116 -102.875L474.328 -104.243Z" fill="#EDBE5C"/>
<path d="M480.181 -100.296L-26.616 192.312L-25.8279 193.679L480.969 -98.9284L480.181 -100.296Z" fill="#EDBE5C"/>
</g>
<path opacity="0.2" fill-rule="evenodd" clip-rule="evenodd" d="M35.7528 141.169C27.8641 141.169 21.4655 143.448 21.4655 146.265C21.4655 149.082 27.8641 151.361 35.7528 151.361C43.6416 151.361 50.0448 149.082 50.0448 146.265C50.0448 143.448 43.6462 141.169 35.7528 141.169Z" fill="black"/>
<path fill-rule="evenodd" clip-rule="evenodd" d="M14.1735 112.55L16.311 113.162L15.212 117.123L14.2387 117.383L12.7765 120.677L11.7892 119.778C12.6182 115.131 12.4226 115.979 14.1735 112.55Z" fill="white"/>
<path fill-rule="evenodd" clip-rule="evenodd" d="M14.4114 111.777L16.5349 112.379C16.7415 112.439 16.916 112.578 17.0205 112.765C17.1251 112.953 17.1514 113.173 17.0937 113.38V113.426L16.0087 117.336C15.9711 117.472 15.8985 117.596 15.798 117.695C15.6975 117.794 15.5726 117.865 15.4359 117.901L14.8398 118.064L13.5359 121.001C13.4481 121.198 13.2858 121.352 13.0843 121.43C12.8828 121.508 12.6585 121.504 12.4601 121.418C12.3593 121.374 12.2689 121.309 12.1947 121.228L11.2633 120.376C11.163 120.283 11.0875 120.168 11.0436 120.039C10.9996 119.91 10.9887 119.773 11.0118 119.639L11.1143 119.064C11.2835 117.869 11.5324 116.687 11.8594 115.525C12.1356 114.765 12.4768 114.03 12.8792 113.329C13.0469 113 13.2471 112.624 13.4707 112.184C13.5583 112.015 13.7026 111.882 13.8787 111.807C14.0547 111.733 14.2514 111.722 14.4346 111.777H14.4114ZM15.3148 113.718L14.593 113.514L14.2996 114.075C13.9365 114.699 13.625 115.351 13.3682 116.025C13.1312 116.849 12.9492 117.688 12.8233 118.536L13.48 117.058C13.5269 116.945 13.5997 116.844 13.6926 116.764C13.7856 116.683 13.8962 116.625 14.0155 116.595L14.5371 116.451L15.3148 113.718Z" fill="#3C3C3C"/>
<path fill-rule="evenodd" clip-rule="evenodd" d="M48.624 107.88L46.8637 109.237L49.3691 112.508L50.3703 112.392L52.9595 114.904L53.5416 113.704C51.0316 109.696 51.5392 110.414 48.624 107.88Z" fill="white"/>
<path fill-rule="evenodd" clip-rule="evenodd" d="M48.5965 108.927L48.0004 109.391L49.7328 111.656L50.2776 111.591C50.4052 111.578 50.5342 111.594 50.6545 111.638C50.7749 111.682 50.8834 111.753 50.9715 111.846L52.1078 112.953C51.6726 112.211 51.1888 111.497 50.6595 110.818C50.1723 110.285 49.6429 109.792 49.0762 109.344L48.6105 108.932L48.5965 108.927ZM46.3705 108.598L48.1261 107.241C48.2749 107.127 48.4588 107.068 48.6466 107.074C48.8343 107.079 49.0141 107.15 49.1553 107.273L50.1333 108.112C50.7697 108.615 51.3618 109.172 51.9029 109.775C52.6398 110.733 53.3133 111.737 53.9193 112.782L54.2313 113.278C54.3035 113.394 54.3452 113.526 54.3525 113.662C54.3598 113.798 54.3325 113.933 54.2732 114.056L53.6911 115.256C53.6545 115.335 53.6041 115.408 53.5421 115.469C53.3894 115.621 53.1826 115.706 52.967 115.706C52.7514 115.706 52.5446 115.621 52.3919 115.469L50.0634 113.227L49.4441 113.296C49.3042 113.312 49.1626 113.292 49.033 113.238C48.9033 113.183 48.7898 113.097 48.7036 112.986L46.2028 109.715C46.0865 109.545 46.0391 109.338 46.0702 109.135C46.1013 108.932 46.2086 108.749 46.3705 108.622V108.598Z" fill="#3C3C3C"/>
<path fill-rule="evenodd" clip-rule="evenodd" d="M48.8669 107.231C49.0159 107.37 49.0112 107.231 49.2301 107.741C49.449 108.25 49.1277 109.497 48.4291 109.802C48.1483 109.942 47.8302 109.988 47.521 109.935C47.2119 109.881 46.928 109.731 46.7107 109.506L39.3808 103.126L39.269 103.033C39.0893 102.86 38.9426 102.656 38.8359 102.431L32.293 90.5521L37.4156 88.1985L42.2634 100.569L48.8669 107.231Z" fill="white"/>
<path fill-rule="evenodd" clip-rule="evenodd" d="M48.5131 107.992C48.4417 107.947 48.3747 107.896 48.3128 107.839L41.6814 101.13C41.6041 101.052 41.5438 100.959 41.5045 100.857L36.9733 89.2741L33.4201 90.9049L39.5439 102.024C39.5439 102.024 39.5439 102.061 39.5765 102.084C39.6048 102.149 39.6408 102.209 39.6836 102.265C39.7263 102.325 39.7746 102.381 39.828 102.432H39.8606C42.3473 104.466 44.8434 106.755 47.2743 108.881C47.3786 108.99 47.5132 109.066 47.6608 109.099C47.8205 109.12 47.983 109.093 48.1265 109.02C48.2766 108.904 48.3832 108.74 48.4292 108.557C48.5003 108.395 48.5276 108.218 48.5084 108.042C48.4385 107.885 48.5969 107.987 48.5363 107.95L48.5131 107.992ZM49.4165 106.653C49.6121 106.778 49.7238 106.861 49.9753 107.431C50.1576 107.979 50.1461 108.572 49.9427 109.113C49.8541 109.421 49.7031 109.709 49.4989 109.957C49.2947 110.206 49.0416 110.41 48.7552 110.558C48.3287 110.758 47.8513 110.824 47.3861 110.748C46.9196 110.663 46.4896 110.44 46.152 110.109L38.864 103.762L38.7942 103.706L38.7196 103.636C38.5909 103.515 38.474 103.381 38.3704 103.238C38.2753 103.103 38.1912 102.96 38.1189 102.812L31.5993 90.9327C31.4963 90.7452 31.4723 90.5249 31.5326 90.3199C31.5928 90.1149 31.7324 89.942 31.9206 89.8393H31.9718L37.0944 87.4904C37.191 87.4459 37.2955 87.4208 37.4018 87.4165C37.5082 87.4123 37.6144 87.429 37.7143 87.4655C37.8142 87.5021 37.9058 87.5579 37.9841 87.6297C38.0623 87.7015 38.1255 87.788 38.1701 87.8841C38.183 87.9111 38.1939 87.939 38.2027 87.9676L42.976 100.143L49.4165 106.653Z" fill="#3C3C3C"/>
<path fill-rule="evenodd" clip-rule="evenodd" d="M30.0672 149.392C29.9003 149.32 29.7606 149.197 29.6677 149.041C29.5748 148.885 29.5334 148.704 29.5493 148.523C29.5652 148.343 29.6377 148.172 29.7565 148.034C29.8753 147.897 30.0345 147.8 30.2116 147.757C30.6722 147.574 31.1694 147.502 31.6635 147.544C32.1575 147.587 32.6347 147.744 33.0569 148.003L36.6101 150.467C36.777 150.54 36.9167 150.663 37.0096 150.819C37.1025 150.975 37.1439 151.156 37.128 151.337C37.112 151.517 37.0395 151.688 36.9207 151.826C36.8019 151.963 36.6428 152.06 36.4657 152.103C36.0058 152.285 35.5094 152.358 35.0161 152.316C34.5228 152.273 34.0464 152.116 33.625 151.857L30.0672 149.392Z" fill="white"/>
<path fill-rule="evenodd" clip-rule="evenodd" d="M29.6072 150.041C29.3501 149.869 29.1327 149.644 28.9692 149.383C28.7986 149.105 28.7203 148.781 28.7457 148.456C28.7767 148.126 28.9121 147.815 29.1322 147.567C29.3364 147.334 29.5891 147.149 29.8726 147.025C30.1566 146.895 30.4577 146.806 30.7668 146.76C31.0871 146.71 31.4124 146.699 31.7354 146.728C32.0522 146.758 32.3646 146.823 32.6667 146.923C32.9649 147.018 33.2474 147.157 33.505 147.335L37.0582 149.8C37.3155 149.973 37.5329 150.199 37.6962 150.462C37.8697 150.742 37.9479 151.071 37.9194 151.399C37.8909 151.727 37.7571 152.037 37.5378 152.283C37.3309 152.514 37.077 152.699 36.7928 152.825C36.5084 152.955 36.2076 153.045 35.8986 153.094C35.5779 153.14 35.2529 153.15 34.93 153.122C34.6129 153.093 34.3003 153.028 33.9986 152.927L33.9241 152.899C33.6533 152.806 33.3964 152.677 33.1604 152.515L29.6072 150.05V150.041ZM30.3849 148.581C30.4281 148.633 30.4782 148.678 30.5339 148.716L34.0871 151.185C34.2013 151.258 34.3231 151.319 34.4503 151.366H34.5109C34.6962 151.428 34.8886 151.467 35.0837 151.482C35.2801 151.505 35.4787 151.505 35.6751 151.482C35.8351 151.46 35.9917 151.418 36.1408 151.356C36.2016 151.327 36.2593 151.291 36.3131 151.25C36.2692 151.197 36.2174 151.152 36.1594 151.115L32.6062 148.646C32.4763 148.562 32.3352 148.497 32.1871 148.452C31.9992 148.394 31.8056 148.357 31.6097 148.34C31.4132 148.317 31.2147 148.317 31.0182 148.34C30.858 148.361 30.7013 148.403 30.5525 148.465C30.4905 148.493 30.4325 148.529 30.3802 148.572L30.3849 148.581Z" fill="#3C3C3C"/>
<path fill-rule="evenodd" clip-rule="evenodd" d="M29.5628 121.382L29.8376 120.047L29.2741 120.367C29.3719 120.701 29.465 121.039 29.5628 121.382ZM37.1768 114.099C37.1755 114.362 37.1395 114.623 37.0697 114.877C37.0452 114.973 37.0156 115.067 36.9812 115.16L32.6457 129.059C32.573 129.336 32.4499 129.599 32.2825 129.832L32.2219 129.916L31.9611 130.259C32.18 131.236 32.3523 132.112 32.4268 132.881V133.034L33.6236 147.503C33.6379 147.702 33.5895 147.9 33.4851 148.07C33.3808 148.241 33.2258 148.374 33.0415 148.453C32.6036 148.685 32.1128 148.802 31.6165 148.791C31.1188 148.801 30.6267 148.685 30.1869 148.453C30.0249 148.38 29.8853 148.265 29.7823 148.121C29.6792 147.977 29.6163 147.809 29.6001 147.633L27.7001 133.576V133.479L22.787 120.103C22.7414 120.001 22.7025 119.895 22.6706 119.788C22.5872 119.521 22.5418 119.243 22.5356 118.963C22.5309 118.883 22.5309 118.803 22.5356 118.722L22.5775 116.313L37.2653 107.876L37.1768 114.099Z" fill="url(#paint0_linear_637_7833)"/>
<path fill-rule="evenodd" clip-rule="evenodd" d="M30.6354 120.204L30.3699 121.501C30.3409 121.683 30.2502 121.85 30.113 121.974C29.9758 122.098 29.8002 122.172 29.6151 122.183C29.4301 122.195 29.2467 122.143 29.0952 122.036C28.9438 121.93 28.8332 121.776 28.7819 121.598L28.4932 120.584C28.443 120.41 28.4528 120.224 28.5212 120.056C28.5895 119.888 28.7125 119.747 28.8704 119.657L29.4339 119.337C29.6049 119.237 29.8077 119.204 30.002 119.245C30.2078 119.287 30.3888 119.408 30.507 119.581C30.6251 119.754 30.6712 119.965 30.6354 120.171V120.204ZM36.368 114.088L36.4565 109.251L23.4172 116.748L23.3799 118.726C23.3799 118.772 23.3799 118.819 23.3799 118.865C23.3846 118.9 23.3846 118.936 23.3799 118.971C23.3799 119.05 23.3799 119.138 23.4079 119.226C23.4257 119.328 23.449 119.428 23.4777 119.527L23.5336 119.676L23.5662 119.759L28.4979 133.195C28.5167 133.248 28.5307 133.302 28.5398 133.357C29.2197 138.064 29.8158 142.799 30.4491 147.511C30.4491 147.539 30.4491 147.567 30.4491 147.594C30.4987 147.656 30.5605 147.706 30.6307 147.743C30.7677 147.816 30.9132 147.872 31.0638 147.909C31.4508 147.99 31.8503 147.99 32.2373 147.909C32.388 147.872 32.5334 147.816 32.6704 147.743C32.7389 147.706 32.8004 147.657 32.852 147.599V147.539L31.6552 133.065C31.6552 133.028 31.6552 132.991 31.6552 132.954C31.6087 132.606 31.5435 132.208 31.4643 131.772C31.3851 131.337 31.2873 130.878 31.1802 130.383C31.1531 130.263 31.1537 130.14 31.1819 130.021C31.2102 129.902 31.2653 129.791 31.3432 129.697L31.5854 129.373L31.6459 129.294C31.6963 129.222 31.74 129.146 31.7763 129.067C31.8145 128.981 31.8472 128.893 31.8741 128.803L36.2143 114.904L36.2423 114.829V114.755L36.2748 114.649C36.2989 114.556 36.3176 114.461 36.3308 114.366C36.3371 114.271 36.3371 114.175 36.3308 114.079L36.368 114.088ZM38.105 107.852C38.1069 107.746 38.0877 107.641 38.0487 107.543C38.0097 107.444 37.9516 107.354 37.8776 107.278C37.8037 107.202 37.7154 107.141 37.6177 107.099C37.5201 107.057 37.4151 107.034 37.3087 107.032C37.1603 107.029 37.0139 107.066 36.8849 107.139L22.2017 115.571C22.0741 115.644 21.969 115.75 21.8976 115.878C21.8262 116.007 21.7913 116.152 21.7966 116.298L21.7547 118.615V118.907C21.7523 118.928 21.7523 118.95 21.7547 118.971C21.7584 119.136 21.774 119.3 21.8013 119.463C21.8316 119.635 21.872 119.805 21.9223 119.972C21.9503 120.065 21.9735 120.134 21.9875 120.176V120.218C22.0061 120.27 22.0248 120.317 22.0434 120.357L26.9331 133.64L28.8238 147.631C28.8359 147.947 28.943 148.252 29.1312 148.507C29.3164 148.756 29.553 148.963 29.8251 149.114C30.0994 149.266 30.3942 149.379 30.7006 149.448C31.3307 149.602 31.9891 149.602 32.6192 149.448C32.9255 149.379 33.2204 149.266 33.4947 149.114C33.8046 148.94 34.0668 148.694 34.2584 148.396C34.4496 148.096 34.5272 147.738 34.4773 147.386L33.2805 132.931V132.741C33.2246 132.338 33.1594 131.912 33.0756 131.467C33.0104 131.133 32.9405 130.781 32.8567 130.41L32.8893 130.364L32.9871 130.239C33.0909 130.092 33.1827 129.937 33.2619 129.776C33.3434 129.604 33.4088 129.426 33.4574 129.243L37.779 115.399C37.779 115.358 37.8116 115.311 37.8256 115.26L37.8815 115.08C37.9234 114.927 37.9561 114.773 37.9793 114.616C38.002 114.455 38.0129 114.293 38.0119 114.13L38.105 107.852Z" fill="#3C3C3C"/>
<path fill-rule="evenodd" clip-rule="evenodd" d="M20.6932 140.358C20.5606 140.235 20.4696 140.074 20.4329 139.898C20.3961 139.721 20.4153 139.537 20.4879 139.372C20.5605 139.207 20.6828 139.068 20.838 138.975C20.9932 138.882 21.1737 138.839 21.3544 138.852C21.8498 138.818 22.346 138.907 22.7981 139.112C23.2559 139.303 23.6579 139.605 23.9669 139.992L26.5376 143.467C26.6711 143.589 26.763 143.75 26.8003 143.926C26.8376 144.103 26.8185 144.287 26.7456 144.452C26.6728 144.618 26.5498 144.756 26.394 144.849C26.2381 144.941 26.0571 144.983 25.8763 144.968C25.3808 144.995 24.8859 144.906 24.4314 144.708C23.9768 144.51 23.5753 144.209 23.2591 143.828L20.6932 140.358Z" fill="white"/>
<path fill-rule="evenodd" clip-rule="evenodd" d="M20.037 140.835C19.8506 140.589 19.7175 140.306 19.6458 140.006C19.573 139.684 19.6055 139.348 19.7388 139.046C19.872 138.744 20.0989 138.493 20.3863 138.329C20.6563 138.175 20.9564 138.08 21.2664 138.051C21.5772 138.019 21.8911 138.033 22.1978 138.093C22.5177 138.15 22.8302 138.243 23.1292 138.371C23.4247 138.494 23.7058 138.649 23.9674 138.834C24.2181 139.021 24.4408 139.242 24.6287 139.492L27.1946 142.967C27.3827 143.212 27.5161 143.495 27.5858 143.796C27.6583 144.117 27.6273 144.452 27.4973 144.755C27.3606 145.056 27.1326 145.307 26.8453 145.473C26.576 145.625 26.2779 145.72 25.9699 145.751C25.659 145.78 25.3455 145.766 25.0385 145.709C24.4001 145.591 23.7978 145.328 23.2782 144.94C23.025 144.755 22.8006 144.533 22.6123 144.282L20.0463 140.812L20.037 140.835ZM21.2478 139.705C21.2737 139.767 21.3082 139.824 21.3502 139.876L23.9162 143.351C24.0109 143.474 24.1221 143.583 24.2468 143.675C24.4039 143.792 24.5742 143.89 24.7544 143.967C24.9342 144.049 25.1235 144.108 25.3179 144.143C25.4724 144.164 25.629 144.164 25.7836 144.143C25.8506 144.137 25.9163 144.121 25.9792 144.097C25.9573 144.033 25.9242 143.973 25.8814 143.921L23.3154 140.451C23.2202 140.327 23.1072 140.218 22.9801 140.127C22.8232 140.008 22.6529 139.909 22.4726 139.83C22.294 139.75 22.1063 139.693 21.9137 139.659C21.7595 139.634 21.6023 139.634 21.448 139.659C21.3807 139.663 21.3146 139.679 21.2525 139.705H21.2478Z" fill="#3C3C3C"/>
<path fill-rule="evenodd" clip-rule="evenodd" d="M22.3008 140.246C21.8397 140.059 21.4354 139.755 21.1272 139.366C21.0068 139.235 20.9238 139.075 20.8869 138.901C20.85 138.727 20.8607 138.547 20.9177 138.379C20.9497 138.31 20.9921 138.246 21.0434 138.189L26.4594 130.003L27.7261 133.454V133.551L28.0148 135.46L24.6013 139.991C24.5152 140.146 24.3891 140.276 24.236 140.366C24.083 140.457 23.9085 140.505 23.7305 140.506C23.2394 140.542 22.7472 140.453 22.3008 140.246Z" fill="white"/>
<path fill-rule="evenodd" clip-rule="evenodd" d="M21.9731 140.988C21.6762 140.867 21.3948 140.712 21.1349 140.524C20.8831 140.339 20.6602 140.117 20.4736 139.867C20.2854 139.621 20.1521 139.338 20.0824 139.037C20.0076 138.716 20.0387 138.38 20.1709 138.078C20.2069 138.003 20.2473 137.931 20.292 137.86C20.3259 137.809 20.3632 137.759 20.4038 137.712L25.7778 129.581C25.8606 129.456 25.9768 129.357 26.1133 129.294C26.2498 129.231 26.4012 129.207 26.5505 129.225C26.6999 129.243 26.8413 129.301 26.959 129.395C27.0767 129.488 27.1659 129.612 27.2168 129.753L28.4835 133.204C28.5023 133.257 28.5164 133.311 28.5254 133.366V133.459L28.8141 135.368C28.8301 135.483 28.8214 135.601 28.7885 135.713C28.7556 135.824 28.6992 135.928 28.6232 136.017L25.2935 140.432C25.1552 140.693 24.9453 140.91 24.6881 141.057C24.4197 141.211 24.1211 141.306 23.8126 141.335C23.5017 141.365 23.1882 141.351 22.8812 141.294C22.5604 141.237 22.2477 141.142 21.9498 141.011L21.9731 140.988ZM22.1128 139.213C22.4313 139.444 22.797 139.602 23.1839 139.677C23.3385 139.697 23.495 139.697 23.6496 139.677C23.7293 139.671 23.807 139.649 23.8778 139.612C23.9013 139.564 23.9294 139.519 23.9616 139.477L27.1655 135.22L26.9281 133.64L26.2435 131.787L21.7356 138.583C21.7124 138.622 21.6859 138.66 21.6565 138.694C21.6834 138.764 21.7194 138.829 21.7636 138.889C21.8583 139.012 21.9695 139.121 22.0942 139.213H22.1128ZM23.8685 139.677C23.8685 139.677 23.8638 139.686 23.8685 139.663V139.677Z" fill="#3C3C3C"/>
<path fill-rule="evenodd" clip-rule="evenodd" d="M37.8169 110.35V89.0886C37.598 87.1335 34.7107 85.4795 33.4441 86.2069L24.5448 91.3033C23.5808 91.8407 22.3561 92.9851 22.3235 94.3333V117.137C22.3654 118.963 25.5833 119.028 26.6963 118.384L30.0492 116.461L36.4897 112.754C37.3372 112.286 37.8169 111.865 37.8169 110.35Z" fill="#F9FAFE"/>
<path fill-rule="evenodd" clip-rule="evenodd" d="M37.0009 110.349V89.125C36.9659 88.9003 36.8868 88.6846 36.7681 88.4903C36.4473 87.9723 35.9983 87.5448 35.4641 87.2486C35.0486 86.98 34.5625 86.8398 34.0671 86.8455C33.994 86.8524 33.923 86.8728 33.8575 86.9058H33.8109L24.9629 92.0021C24.4335 92.2959 23.9719 92.6968 23.6077 93.1789C23.338 93.5109 23.1756 93.9163 23.1421 94.3418V116.117V117.141C23.1481 117.214 23.1703 117.286 23.2072 117.349C23.3564 117.55 23.57 117.694 23.8127 117.757C24.2052 117.881 24.6163 117.938 25.0281 117.924C25.4645 117.932 25.8972 117.844 26.2947 117.665L36.0742 112.035C36.3467 111.906 36.5845 111.714 36.7681 111.475C36.9473 111.115 37.023 110.712 36.9869 110.312L37.0009 110.349ZM38.6308 89.0879V110.349C38.6778 111.055 38.5159 111.758 38.1651 112.374C37.8466 112.842 37.4118 113.22 36.9031 113.472L27.1237 119.096C26.4885 119.409 25.788 119.568 25.0793 119.559C24.4781 119.58 23.8779 119.497 23.305 119.314C22.6878 119.13 22.1595 118.728 21.8195 118.183C21.6574 117.899 21.5619 117.583 21.5401 117.257C21.5376 117.221 21.5376 117.186 21.5401 117.15V116.159V94.3325C21.5747 93.5763 21.8412 92.8487 22.3038 92.2477C22.8044 91.5803 23.4387 91.0234 24.1665 90.6122L33.0146 85.5159L33.0565 85.488C33.3187 85.3442 33.6066 85.253 33.9041 85.2193C34.7458 85.1772 35.5806 85.3905 36.2977 85.8309C37.0804 86.2762 37.7347 86.9144 38.1977 87.6842C38.4359 88.0674 38.5943 88.4944 38.6634 88.9397C38.657 88.99 38.6461 89.0396 38.6308 89.0879Z" fill="#3C3C3C"/>
<path fill-rule="evenodd" clip-rule="evenodd" d="M31.7383 118.022C31.8303 117.956 31.935 117.91 32.0458 117.888C32.1566 117.865 32.271 117.865 32.3815 117.889C32.4921 117.913 32.5965 117.959 32.6879 118.026C32.7793 118.092 32.8557 118.177 32.9122 118.274C32.9687 118.372 33.0041 118.48 33.016 118.592C33.028 118.704 33.0162 118.817 32.9815 118.924C32.9468 119.031 32.89 119.13 32.8146 119.214C32.7392 119.298 32.6471 119.365 32.544 119.412L30.2155 120.741L30.6812 122.289C31.7337 125.963 32.9305 130.123 33.2658 132.746C33.2929 132.958 33.2341 133.173 33.1022 133.342C32.9704 133.512 32.7762 133.622 32.5626 133.649C32.3489 133.676 32.1332 133.617 31.9629 133.486C31.7926 133.355 31.6816 133.162 31.6545 132.949C31.3378 130.48 30.1596 126.366 29.1165 122.757C28.9302 122.108 28.7486 121.473 28.5018 120.598C28.4507 120.423 28.4601 120.237 28.5286 120.069C28.597 119.901 28.7205 119.761 28.879 119.671L31.7383 118.022Z" fill="#3C3C3C"/>
<path fill-rule="evenodd" clip-rule="evenodd" d="M28.4759 86.9297C28.9357 87.1639 29.4449 87.286 29.9614 87.286C30.478 87.286 30.9872 87.1639 31.447 86.9297C32.2712 86.4664 32.2712 85.6927 31.447 85.2248C30.9872 84.9906 30.478 84.8684 29.9614 84.8684C29.4449 84.8684 28.9357 84.9906 28.4759 85.2248C27.6563 85.6973 27.6563 86.4572 28.4759 86.9297Z" fill="white"/>
<path fill-rule="evenodd" clip-rule="evenodd" d="M28.8796 86.2302C29.2166 86.3919 29.5859 86.4758 29.96 86.4758C30.3341 86.4758 30.7034 86.3919 31.0404 86.2302C31.0637 86.2359 31.0881 86.2363 31.1116 86.2313C31.1351 86.2263 31.1571 86.2161 31.1761 86.2013C31.195 86.1866 31.2103 86.1678 31.2208 86.1463C31.2314 86.1248 31.2368 86.1012 31.2368 86.0772C31.2368 86.0533 31.2314 86.0297 31.2208 86.0082C31.2103 85.9867 31.195 85.9679 31.1761 85.9532C31.1571 85.9384 31.1351 85.9282 31.1116 85.9232C31.0881 85.9182 31.0637 85.9186 31.0404 85.9244H31.0078C30.674 85.7717 30.311 85.6927 29.9437 85.6927C29.5763 85.6927 29.2134 85.7717 28.8796 85.9244C28.8063 85.9641 28.7401 86.0157 28.684 86.0772C28.7389 86.1401 28.8053 86.192 28.8796 86.2302ZM29.96 88.0834C29.3002 88.0935 28.6489 87.9339 28.0693 87.6201C27.7387 87.4389 27.4611 87.1755 27.2636 86.8556C27.1225 86.6184 27.047 86.3482 27.0448 86.0726C27.0453 85.8191 27.1076 85.5695 27.2264 85.3452C27.2354 85.3242 27.2463 85.3041 27.259 85.285C27.4533 84.9642 27.7297 84.7004 28.06 84.5205C28.64 84.2077 29.291 84.0482 29.9507 84.0572C30.5978 84.0459 31.2377 84.1939 31.8134 84.4881L31.8693 84.5205C32.1996 84.7004 32.476 84.9642 32.6703 85.285C32.8135 85.523 32.8891 85.7952 32.8891 86.0726C32.8891 86.35 32.8135 86.6222 32.6703 86.8603C32.4748 87.1801 32.1987 87.4436 31.8693 87.6247C31.2841 87.942 30.6264 88.1032 29.96 88.0926V88.0834Z" fill="#3C3C3C"/>
<path fill-rule="evenodd" clip-rule="evenodd" d="M27.8596 86.077H32.0507L32.358 90.0523C32.3604 90.094 32.3604 90.1357 32.358 90.1773C32.3384 90.3889 32.2625 90.5914 32.1381 90.7641C32.0137 90.9367 31.8453 91.0732 31.6502 91.1596C31.1198 91.427 30.5335 91.5664 29.9388 91.5664C29.3442 91.5664 28.7579 91.427 28.2274 91.1596C28.0312 91.0743 27.8616 90.9381 27.7363 90.7654C27.6109 90.5926 27.5345 90.3895 27.5149 90.1773C27.5124 90.1372 27.5124 90.097 27.5149 90.0569L27.8596 86.077Z" fill="white"/>
<path fill-rule="evenodd" clip-rule="evenodd" d="M27.8601 85.266H32.815L33.1782 89.9593V90.0566C33.1782 90.103 33.1782 90.1446 33.1782 90.177C33.1763 90.5376 33.0588 90.8882 32.8429 91.1778C32.6351 91.4558 32.3699 91.6865 32.0652 91.8543C31.4124 92.1952 30.6861 92.3733 29.9487 92.3733C29.2114 92.3733 28.4851 92.1952 27.8322 91.8543C27.5275 91.6865 27.2623 91.4558 27.0545 91.1778C26.8386 90.8882 26.7212 90.5376 26.7192 90.177C26.7147 90.1045 26.7147 90.0318 26.7192 89.9593L27.0824 85.266H27.8601ZM31.3108 86.8876H28.6099L28.363 90.1307V90.1956C28.3702 90.2174 28.3813 90.2378 28.3956 90.2558C28.4707 90.3463 28.5624 90.4218 28.6657 90.4782C29.0691 90.6823 29.5173 90.7826 29.9697 90.7701C30.4226 90.7834 30.8714 90.6813 31.2736 90.4736C31.3789 90.4201 31.4711 90.3441 31.5437 90.2512C31.558 90.2332 31.5691 90.2128 31.5763 90.191V90.1261L31.3248 86.8829L31.3108 86.8876Z" fill="#3C3C3C"/>
<path fill-rule="evenodd" clip-rule="evenodd" d="M30.3566 76.8156H29.5649C29.087 76.81 28.6127 76.8995 28.17 77.0789C27.7274 77.2583 27.3252 77.524 26.9872 77.8603C26.6492 78.1965 26.3822 78.5966 26.2019 79.037C26.0216 79.4774 25.9316 79.9493 25.9372 80.4248L26.1235 84.8309C26.1414 85.7825 26.5294 86.6902 27.2058 87.3632C27.8823 88.0362 28.7947 88.4222 29.7512 88.44H30.147C31.1022 88.4165 32.0118 88.0289 32.6878 87.3572C33.3638 86.6855 33.7546 85.7811 33.7794 84.8309L33.9843 80.4248C33.9905 79.9491 33.901 79.477 33.7209 79.0363C33.5408 78.5956 33.2738 78.1952 32.9357 77.8588C32.5976 77.5225 32.1952 77.2569 31.7522 77.0777C31.3093 76.8985 30.8347 76.8094 30.3566 76.8156Z" fill="white"/>
<path fill-rule="evenodd" clip-rule="evenodd" d="M30.3561 77.6263H29.4247C28.7083 77.6574 28.0292 77.9531 27.5201 78.4557C27.2732 78.6934 27.0765 78.9776 26.9414 79.2918C26.8062 79.6061 26.7354 79.9439 26.7331 80.2857V80.3923L26.9147 84.7983C26.9452 85.5608 27.2607 86.2844 27.7995 86.8276C28.0521 87.082 28.3531 87.2839 28.6849 87.4215C29.0166 87.5591 29.3726 87.6297 29.7321 87.6291H30.1279C30.4868 87.6301 30.8422 87.5597 31.1733 87.4221C31.5044 87.2844 31.8044 87.0823 32.0559 86.8276C32.597 86.2837 32.9143 85.5583 32.9453 84.7937L33.1549 80.3877V80.2718C33.1525 79.9321 33.0816 79.5963 32.9465 79.2844C32.8113 78.9724 32.6145 78.6906 32.3679 78.4557C31.8596 77.9574 31.1851 77.6623 30.4725 77.6263H30.3561ZM29.5644 76.0048H30.3561H30.561C31.6761 76.0574 32.7325 76.5177 33.5275 77.2974C33.9274 77.6826 34.2462 78.1432 34.4653 78.6523C34.6844 79.1614 34.7993 79.7088 34.8034 80.2626C34.8034 80.2904 34.8034 80.3552 34.8034 80.4525L34.5985 84.8539C34.5489 86.0235 34.0643 87.1332 33.2387 87.9673C32.8348 88.3717 32.3545 88.6924 31.8254 88.911C31.2962 89.1297 30.7288 89.242 30.1559 89.2414H29.76C29.1867 89.2417 28.619 89.1288 28.0899 88.9093C27.5607 88.6898 27.0805 88.3681 26.6772 87.9627C25.8471 87.1339 25.363 86.0232 25.322 84.8539L25.1357 80.4478V80.2764C25.138 79.7203 25.2521 79.1703 25.4712 78.6586C25.6903 78.147 26.0101 77.6842 26.4117 77.2974C27.2117 76.5133 28.275 76.0512 29.3968 76.0001L29.5644 76.0048Z" fill="#3C3C3C"/>
<path fill-rule="evenodd" clip-rule="evenodd" d="M30.3566 76.8156H29.5649C29.087 76.81 28.6127 76.8995 28.17 77.0789C27.7274 77.2583 27.3252 77.5239 26.9872 77.8602C26.6492 78.1965 26.3822 78.5966 26.2019 79.037C26.0216 79.4774 25.9316 79.9492 25.9372 80.4247L26.1235 84.8308C26.7246 84.4665 27.2226 83.956 27.5705 83.3472C27.9184 82.7385 28.1048 82.0516 28.112 81.3514C31.1436 81.7081 32.1448 81.5413 33.8679 79.4054C33.6411 78.655 33.1768 77.9975 32.5441 77.5309C31.9114 77.0642 31.1442 76.8133 30.3566 76.8156Z" fill="url(#paint1_linear_637_7833)"/>
<path fill-rule="evenodd" clip-rule="evenodd" d="M30.3557 77.6264H29.4243C28.7079 77.6575 28.0288 77.9533 27.5197 78.4558C27.2728 78.6935 27.0761 78.9777 26.941 79.292C26.8058 79.6062 26.735 79.944 26.7326 80.2858V80.3924L26.8398 82.9591C27.1278 82.4634 27.2788 81.9008 27.2775 81.3282C27.2805 81.2224 27.3045 81.1181 27.348 81.0215C27.3915 80.9248 27.4538 80.8376 27.5312 80.7649C27.6086 80.6922 27.6997 80.6353 27.7992 80.5977C27.8987 80.56 28.0047 80.5422 28.1111 80.5453H28.181C29.578 80.7074 30.5094 80.7538 31.2219 80.5453C31.9034 80.2824 32.496 79.8325 32.931 79.248C32.7329 78.831 32.4336 78.4696 32.0601 78.1963C31.5604 77.8312 30.9571 77.6333 30.3371 77.6311L30.3557 77.6264ZM29.564 76.0049H30.3557C31.3253 76.0088 32.2682 76.3205 33.0474 76.8944C33.8153 77.4568 34.3765 78.2543 34.6447 79.1647C34.6845 79.2919 34.6922 79.427 34.667 79.5579C34.6418 79.6888 34.5846 79.8115 34.5004 79.9152C33.5317 81.1105 32.7447 81.7684 31.7062 82.0834C30.7644 82.3299 29.7822 82.3836 28.819 82.241C28.7177 82.7998 28.5141 83.3353 28.2182 83.8208C27.7945 84.4843 27.2362 85.0524 26.579 85.4887C26.451 85.5801 26.2987 85.6317 26.1412 85.637C26.0348 85.6413 25.9285 85.6247 25.8285 85.5882C25.7286 85.5516 25.6368 85.4959 25.5585 85.424C25.4802 85.3521 25.417 85.2656 25.3723 85.1694C25.3277 85.0732 25.3025 84.9692 25.2983 84.8633L25.112 80.4572V80.2858C25.1143 79.7297 25.2284 79.1796 25.4475 78.668C25.6666 78.1564 25.9864 77.6936 26.388 77.3068C27.188 76.5227 28.2513 76.0606 29.3731 76.0095L29.564 76.0049Z" fill="#3C3C3C"/>
<path fill-rule="evenodd" clip-rule="evenodd" d="M24.9967 98.1833V94.3703L22.5798 93.3741C20.7775 96.6173 18.803 99.7353 16.6562 102.932C16.5031 103.129 16.395 103.357 16.3395 103.599L14.0111 112.082C13.9551 112.26 13.935 112.448 13.9517 112.633C13.9685 112.819 14.0218 113 14.1088 113.165C14.1957 113.33 14.3145 113.477 14.4583 113.596C14.6022 113.716 14.7683 113.806 14.9471 113.862C15.126 113.917 15.3142 113.937 15.5008 113.921C15.6875 113.904 15.8691 113.851 16.0351 113.764C16.2012 113.678 16.3485 113.56 16.4686 113.417C16.5888 113.274 16.6794 113.108 16.7354 112.93L19.6087 104.887L24.9967 98.1833Z" fill="#F9FAFE"/>
<path fill-rule="evenodd" clip-rule="evenodd" d="M21.8379 92.9846C21.8797 92.8766 21.9444 92.7788 22.0276 92.6979C22.1108 92.617 22.2105 92.5548 22.32 92.5157C22.4295 92.4765 22.5461 92.4613 22.6621 92.471C22.778 92.4807 22.8904 92.5151 22.9918 92.5719C23.0932 92.6287 23.181 92.7066 23.2495 92.8002C23.3179 92.8938 23.3652 93.0009 23.3883 93.1144C23.4114 93.2278 23.4096 93.3449 23.3832 93.4576C23.3567 93.5703 23.3062 93.676 23.235 93.7675C22.3315 95.3891 21.3722 97.0107 20.385 98.5905C19.3977 100.17 18.3546 101.783 17.2788 103.381L17.2509 103.423C17.2082 103.475 17.1722 103.533 17.1438 103.594C17.1137 103.653 17.0918 103.715 17.0786 103.78C16.2357 106.559 15.5046 109.506 14.7501 112.328C14.7471 112.368 14.7471 112.408 14.7501 112.448C14.7455 112.488 14.7455 112.528 14.7501 112.568C14.7648 112.731 14.8435 112.881 14.969 112.985C15.0335 113.038 15.1078 113.078 15.1878 113.102C15.2678 113.125 15.3517 113.133 15.4347 113.124C15.5539 113.111 15.667 113.065 15.7607 112.99C15.854 112.912 15.9234 112.809 15.9609 112.694V112.661L18.8808 104.488L24.3759 97.6778C24.5106 97.5107 24.7064 97.4037 24.9204 97.3802C25.1343 97.3567 25.3489 97.4188 25.5169 97.5527C25.6848 97.6867 25.7924 97.8815 25.816 98.0944C25.8396 98.3073 25.7772 98.5208 25.6426 98.6879L20.3244 105.285L17.4931 113.199C17.3364 113.686 17.0153 114.105 16.5841 114.385C16.1528 114.664 15.6379 114.787 15.1261 114.733C14.6143 114.678 14.1371 114.45 13.7751 114.086C13.413 113.722 13.1883 113.245 13.1388 112.735C13.1237 112.581 13.1237 112.426 13.1388 112.272C13.1515 112.114 13.1827 111.959 13.232 111.809L15.5604 103.39C15.6027 103.215 15.6619 103.045 15.7374 102.881C15.8144 102.717 15.908 102.562 16.0168 102.417C17.0786 100.833 18.0969 99.2639 19.0717 97.7103C20.0078 96.1721 20.9438 94.5922 21.8379 92.9846Z" fill="#3C3C3C"/>
<path fill-rule="evenodd" clip-rule="evenodd" d="M89.4404 117.053C89.4404 117.229 89.3703 117.397 89.2456 117.521C89.1209 117.645 88.9517 117.715 88.7753 117.715C88.5989 117.715 88.4297 117.645 88.305 117.521C88.1803 117.397 88.1102 117.229 88.1102 117.053C88.1102 111.806 87.3457 105.436 86.2219 98.8416C84.8535 90.9013 82.9079 82.6682 80.9661 75.6975C80.9284 75.5307 80.9567 75.3559 81.0451 75.2092C81.1334 75.0626 81.2751 74.9554 81.4408 74.91C81.6065 74.8645 81.7834 74.8842 81.9348 74.965C82.0863 75.0458 82.2007 75.1814 82.2543 75.3439C84.2075 82.3639 86.1646 90.6465 87.5368 98.621C88.6836 105.265 89.4289 111.71 89.448 117.053H89.4404ZM96.5424 121.13C96.5424 121.307 96.4719 121.476 96.3465 121.601C96.221 121.725 96.0509 121.796 95.8735 121.796C95.6961 121.796 95.5259 121.725 95.4005 121.601C95.275 121.476 95.2046 121.307 95.2046 121.13C95.2463 115.182 95.8581 109.252 97.0317 103.42C98.1343 97.6575 99.7986 92.0154 102.001 86.5737C102.075 86.4215 102.205 86.3033 102.364 86.2431C102.523 86.1829 102.699 86.1853 102.857 86.2498C103.014 86.3142 103.141 86.4359 103.211 86.5901C103.282 86.7442 103.29 86.9192 103.235 87.0794C101.059 92.4387 99.4153 97.9971 98.3275 103.675C97.1821 109.424 96.5895 115.269 96.5577 121.13H96.5424Z" fill="#3C3C3C"/>
<path fill-rule="evenodd" clip-rule="evenodd" d="M99.0866 84.7099C99.2285 85.4784 99.5222 86.2113 99.9505 86.8662C100.286 87.4435 100.76 87.9294 101.33 88.2808C101.463 88.3637 101.617 88.406 101.774 88.4025C101.798 88.3983 101.822 88.3893 101.843 88.3759C101.875 88.3462 101.901 88.3099 101.919 88.2694C102.059 87.9051 102.083 87.5068 101.988 87.1285L101.369 83.3562C101.226 82.5879 100.932 81.8552 100.505 81.2C100.167 80.6234 99.6921 80.1388 99.121 79.7891C98.9897 79.7029 98.8349 79.6591 98.6776 79.6636C98.6537 79.6682 98.6314 79.6787 98.6126 79.6941C98.5766 79.72 98.5487 79.7556 98.5324 79.7967C98.3924 80.161 98.3683 80.5593 98.4635 80.9376L99.0866 84.7138V84.7099ZM98.8267 87.5773C98.3001 86.7688 97.9415 85.8637 97.7717 84.9153L97.1487 81.1353C97.0037 80.4765 97.0747 79.7888 97.3512 79.1731C97.4597 78.9622 97.6137 78.7778 97.8023 78.6331C97.9963 78.487 98.2233 78.3904 98.4635 78.3517C98.9073 78.296 99.3572 78.3868 99.744 78.6102C100.519 79.0699 101.166 79.7142 101.629 80.485C102.15 81.2959 102.509 82.2 102.683 83.147L103.307 86.9194C103.451 87.5811 103.379 88.2714 103.1 88.8892C102.992 89.1001 102.838 89.2846 102.649 89.4292C102.456 89.5768 102.228 89.6736 101.988 89.7106C101.546 89.7681 101.097 89.6785 100.711 89.4558C99.9354 88.9957 99.2875 88.35 98.8267 87.5773Z" fill="#3C3C3C"/>
<path fill-rule="evenodd" clip-rule="evenodd" d="M94.998 83.2729C95.1406 84.0411 95.4342 84.7739 95.8619 85.4291C96.1991 86.0057 96.6745 86.4903 97.2456 86.84C97.3751 86.9264 97.5292 86.9691 97.6851 86.9617C97.71 86.9592 97.7339 86.95 97.7539 86.935C97.787 86.9062 97.8143 86.8714 97.8342 86.8323C97.9729 86.4677 97.9956 86.0694 97.8992 85.6915L96.8977 79.6069C96.7551 78.8375 96.4615 78.1035 96.0339 77.4469C95.6981 76.8727 95.2255 76.3895 94.6578 76.0398C94.5261 75.9549 94.3713 75.9125 94.2144 75.9182C94.1906 75.9207 94.1681 75.9299 94.1494 75.9448C94.1172 75.9744 94.0901 76.0091 94.0692 76.0474C93.9309 76.4121 93.9069 76.8098 94.0004 77.1883L95.0018 83.2729H94.998ZM94.7419 86.1402C94.2166 85.3307 93.8568 84.4262 93.6831 83.4782L92.6816 77.3937C92.5364 76.7336 92.6074 76.0446 92.8842 75.4276C92.9929 75.2168 93.1469 75.0325 93.3352 74.8876C93.5279 74.7391 93.7556 74.6422 93.9966 74.6062C94.4387 74.5485 94.8876 74.638 95.2732 74.861C96.0497 75.3167 96.6979 75.9603 97.1576 76.732C97.6826 77.5417 98.0423 78.4462 98.2164 79.394L99.2179 85.4785C99.3616 86.1403 99.2894 86.8304 99.0115 87.4484C98.903 87.6582 98.7489 87.8414 98.5604 87.9846C98.3676 88.1335 98.1402 88.2315 97.8992 88.2698C97.4567 88.3239 97.0086 88.2331 96.6225 88.0113C95.8486 87.5534 95.2021 86.9102 94.7419 86.1402Z" fill="#3C3C3C"/>
<path fill-rule="evenodd" clip-rule="evenodd" d="M90.9189 81.9037C91.0615 82.672 91.3551 83.4047 91.7828 84.0599C92.1199 84.6354 92.5937 85.1198 93.1627 85.4708C93.2936 85.5573 93.449 85.5999 93.6061 85.5924C93.6298 85.5899 93.6523 85.5807 93.671 85.5658C93.7063 85.5391 93.7339 85.5037 93.7513 85.4632C93.8896 85.0985 93.9136 84.7008 93.8201 84.3223L92.4402 75.9295C92.294 75.1623 92.0007 74.4302 91.5764 73.7733C91.2379 73.1966 90.7629 72.7109 90.1926 72.3587C90.0588 72.2752 89.9033 72.2329 89.7455 72.2369C89.7228 72.2394 89.7014 72.2487 89.6843 72.2636C89.649 72.2903 89.6214 72.3257 89.604 72.3663C89.464 72.7305 89.44 73.1288 89.5352 73.5071L90.9189 81.9075V81.9037ZM90.659 84.7711C90.1332 83.9622 89.7746 83.0573 89.604 82.1091L88.2203 73.7086C88.0751 73.0486 88.1461 72.3596 88.4229 71.7426C88.5326 71.5336 88.6865 71.3507 88.8739 71.2064C89.0662 71.0573 89.294 70.9604 89.5352 70.925C89.9791 70.8675 90.4295 70.9585 90.8157 71.1836C91.5905 71.6433 92.2381 72.2875 92.7002 73.0584C93.2228 73.8688 93.5812 74.7731 93.7551 75.7203L95.135 84.1132C95.2797 84.7745 95.2088 85.4645 94.9324 86.083C94.8218 86.2925 94.6681 86.4765 94.4814 86.623C94.288 86.7696 94.0605 86.8651 93.8201 86.9006C93.3779 86.9581 92.9291 86.8685 92.5434 86.6458C91.767 86.1882 91.1189 85.5435 90.659 84.7711Z" fill="#3C3C3C"/>
<path fill-rule="evenodd" clip-rule="evenodd" d="M86.4237 78.0093C86.5671 78.7762 86.8606 79.5075 87.2875 80.1618C87.6231 80.7359 88.094 81.2201 88.6598 81.5726C88.7941 81.6583 88.9513 81.702 89.1108 81.6981C89.1339 81.6932 89.1559 81.6842 89.1758 81.6715C89.2078 81.6426 89.2338 81.6077 89.2522 81.5688C89.3922 81.2045 89.4162 80.8062 89.321 80.4279L88.3196 74.3434C88.1779 73.5754 87.8857 72.8427 87.4595 72.1871C87.1212 71.6103 86.6462 71.1246 86.0758 70.7725C85.943 70.6868 85.7868 70.6443 85.6286 70.6508C85.605 70.6539 85.5826 70.6631 85.5636 70.6774C85.5299 70.7047 85.5037 70.74 85.4872 70.7801C85.3472 71.1444 85.3232 71.5426 85.4184 71.921L86.4199 78.0055L86.4237 78.0093ZM86.16 80.8767C85.6379 80.0663 85.2807 79.1619 85.1088 78.2147L84.1073 72.1301C83.9621 71.4701 84.0331 70.7811 84.3099 70.164C84.4183 69.9531 84.5724 69.7687 84.761 69.624C84.954 69.4786 85.1796 69.382 85.4184 69.3426C85.8633 69.2888 86.3138 69.3796 86.7027 69.6012C87.4773 70.0616 88.1238 70.7074 88.5833 71.4798C89.1098 72.2883 89.4685 73.1934 89.6383 74.1418L90.6398 80.2264C90.7867 80.8876 90.7156 81.5783 90.4372 82.1963C90.3287 82.4061 90.1746 82.5893 89.9862 82.7325C89.794 82.8794 89.568 82.9761 89.3287 83.0139C88.8824 83.0719 88.4293 82.9809 88.0405 82.7553C87.2665 82.2926 86.6203 81.6457 86.16 80.8729V80.8767Z" fill="#3C3C3C"/>
<path fill-rule="evenodd" clip-rule="evenodd" d="M82.0327 74.6519C82.1771 75.4196 82.4705 76.152 82.8966 76.808C83.2339 77.3846 83.7092 77.8693 84.2803 78.2189C84.4099 78.3054 84.5641 78.348 84.7199 78.3406C84.7435 78.3374 84.7659 78.3283 84.7849 78.314C84.818 78.2852 84.8453 78.2503 84.8652 78.2113C85.005 77.8471 85.0303 77.4493 84.9378 77.0704L84.3147 73.2981C84.1721 72.5298 83.8785 71.7971 83.4508 71.1418C83.1138 70.5654 82.64 70.0797 82.071 69.7272C81.937 69.6438 81.7818 69.6003 81.6238 69.6017L81.5588 69.6283C81.5277 69.6566 81.5018 69.6901 81.4823 69.7272C81.3461 70.0923 81.3222 70.4894 81.4135 70.8681L82.0327 74.6405V74.6519ZM81.7728 77.5192C81.2502 76.7087 80.8918 75.8044 80.7179 74.8572L80.0986 71.081C79.9533 70.4185 80.0243 69.727 80.3012 69.1074C80.4099 68.8977 80.5639 68.7146 80.7522 68.5712C80.9453 68.4258 81.1709 68.3292 81.4097 68.2897C81.8534 68.2357 82.3028 68.3265 82.6902 68.5484C83.4651 69.0096 84.1126 69.6552 84.5747 70.427C85.1004 71.2358 85.4591 72.1407 85.6297 73.0889L86.2374 76.8689C86.3792 77.5282 86.307 78.2153 86.031 78.8311C85.9215 79.0424 85.7677 79.2278 85.58 79.3749C85.3841 79.5203 85.156 79.6168 84.9149 79.6563C84.4736 79.7103 84.0266 79.6196 83.642 79.3978C82.8667 78.937 82.2191 78.2914 81.7575 77.5192H81.7728Z" fill="#3C3C3C"/>
<path fill-rule="evenodd" clip-rule="evenodd" d="M77.667 117.145C69.6094 121.773 69.6094 129.276 77.667 133.904C85.7246 138.532 98.7896 138.536 106.851 133.904C114.912 129.272 114.909 121.773 106.851 117.145C98.7934 112.517 85.7246 112.513 77.667 117.145Z" fill="white"/>
<path fill-rule="evenodd" clip-rule="evenodd" d="M77.9997 117.715C75.7636 119.004 74.1774 120.507 73.26 122.096C72.6266 123.126 72.2914 124.311 72.2914 125.519C72.2914 126.726 72.6266 127.911 73.26 128.941C74.185 130.535 75.7636 132.04 77.9997 133.326C81.9253 135.577 87.0856 136.707 92.2573 136.707C97.429 136.707 102.578 135.566 106.519 133.326C108.755 132.04 110.341 130.535 111.258 128.941C111.88 127.906 112.214 126.725 112.225 125.519C112.211 124.313 111.876 123.132 111.255 122.096C110.333 120.507 108.751 119.004 106.511 117.715L106.48 117.696C102.559 115.456 97.4137 114.338 92.2535 114.338C87.0932 114.338 81.933 115.479 77.9959 117.715H77.9997ZM72.0942 121.438C73.1339 119.647 74.8769 117.974 77.3232 116.571C81.459 114.194 86.8792 113.007 92.2305 113.007C97.5819 113.007 102.987 114.186 107.115 116.548L107.157 116.571C109.603 117.974 111.362 119.647 112.386 121.438C113.125 122.676 113.521 124.087 113.533 125.526C113.52 126.966 113.124 128.376 112.386 129.614C111.346 131.402 109.603 133.071 107.153 134.478C103.021 136.855 97.6201 138.041 92.2458 138.041C86.8715 138.041 81.4552 136.855 77.3385 134.478C74.8883 133.071 73.1339 131.402 72.1095 129.614C71.3593 128.381 70.9627 126.967 70.9627 125.526C70.9627 124.085 71.3593 122.671 72.1095 121.438H72.0942Z" fill="#3C3C3C"/>
<path fill-rule="evenodd" clip-rule="evenodd" d="M84.9666 117.357V123.56L84.9704 123.605L84.9819 123.651L85.001 123.696L85.0277 123.742L85.0622 123.784L85.108 123.826L85.1577 123.868L85.215 123.902L95.719 129.937L95.784 129.971L95.8489 129.998L95.9216 130.024L95.998 130.043L96.0745 130.059L96.1547 130.07L96.235 130.078H96.3153H96.3955L96.4758 130.07L96.5561 130.059L96.6325 130.043L96.709 130.024L96.7816 129.998L96.8504 129.971L96.9154 129.937L96.9804 129.899L97.7448 129.462L99.6904 128.344L99.7478 128.305L99.7975 128.267L99.8395 128.226L99.8739 128.18L99.9007 128.138L99.9198 128.093L99.9312 128.047L99.9351 127.997V121.799L99.9312 121.845L99.9198 121.89L99.9007 121.936L99.8739 121.981L99.8395 122.023L99.7975 122.065L99.7478 122.103L99.6904 122.141L97.7448 123.259L96.9804 123.696L96.9154 123.735L96.8504 123.769L96.7816 123.799L96.709 123.822L96.6325 123.841L96.5561 123.856L96.4758 123.868L96.3955 123.875L96.3153 123.879L96.235 123.875L96.1547 123.868L96.0745 123.856L95.998 123.841L95.9216 123.822L95.8489 123.799L95.784 123.769L95.719 123.735L85.215 117.703L85.1577 117.665L85.108 117.627L85.0622 117.585L85.0277 117.54L85.001 117.498L84.9819 117.452L84.9704 117.407L84.9666 117.357Z" fill="#3C3C3C"/>
<path fill-rule="evenodd" clip-rule="evenodd" d="M85.6372 118.7V123.366L96.0647 129.36H96.1067H96.1526H96.2138H96.3476H96.4469H96.4928C96.5433 129.346 96.5911 129.324 96.6342 129.295L97.3987 128.854H97.437L99.2602 127.808V123.15L97.3108 124.268L97.242 124.309L97.1503 124.355L97.0968 124.382L97.028 124.412H96.9783H96.9133C96.8877 124.423 96.8607 124.431 96.833 124.435L96.6801 124.469H96.6419H96.5616H96.4393H96.1717H96.0915H96.015H95.973H95.9042C95.8507 124.469 95.801 124.446 95.7475 124.435H95.7016L95.6328 124.412H95.5869L95.5181 124.382L95.4264 124.336C92.1812 122.625 88.8327 120.533 85.6295 118.712L85.6372 118.7ZM84.2994 123.549V117.346C84.2995 117.188 84.3565 117.036 84.46 116.916C84.5636 116.796 84.7069 116.717 84.8639 116.693C85.0209 116.669 85.1814 116.702 85.3162 116.785C85.4511 116.869 85.5513 116.998 85.5989 117.149L96.0533 123.153H96.0991H96.1259H96.1756H96.21H96.2826H96.4126H96.4584H96.5043H96.5425H96.5655L96.6381 123.112C97.5096 122.591 98.4117 122.092 99.2908 121.59C99.3386 121.439 99.4393 121.309 99.5749 121.225C99.7104 121.141 99.8717 121.107 100.03 121.131C100.188 121.155 100.332 121.235 100.436 121.355C100.54 121.476 100.598 121.629 100.598 121.788V128.067C100.602 128.111 100.602 128.155 100.598 128.2V128.245C100.59 128.276 100.579 128.307 100.568 128.337L100.548 128.386C100.536 128.415 100.521 128.444 100.503 128.47C100.482 128.509 100.458 128.546 100.43 128.58L100.396 128.622L100.342 128.679C100.318 128.707 100.291 128.733 100.262 128.755L100.212 128.793L100.159 128.831L100.101 128.869L98.1632 129.983H98.1288L97.2993 130.462L97.2344 130.497L97.1541 130.535H97.1197L97.0547 130.561L96.9821 130.584H96.9324H96.8789H96.8101L96.6534 130.615H96.5808H96.5005H96.3897H96.1756H96.0953H96.0571L95.9424 130.596H95.8851H95.8201H95.7436H95.6978L95.6252 130.573L95.522 130.531L95.4646 130.5H95.4302L95.3805 130.474C91.9786 128.519 88.0759 126.492 84.8192 124.389C84.7923 124.375 84.7667 124.358 84.7427 124.34L84.6892 124.298C84.6671 124.282 84.6466 124.264 84.6281 124.245L84.6013 124.218L84.5363 124.15L84.4981 124.104C84.4802 124.081 84.4636 124.057 84.4484 124.032C84.4223 123.995 84.4005 123.956 84.3834 123.914V123.891C84.3834 123.853 84.3567 123.815 84.3452 123.777V123.731C84.3431 123.704 84.3431 123.676 84.3452 123.648C84.3278 123.62 84.3124 123.591 84.2994 123.56V123.549Z" fill="#3C3C3C"/>
<path fill-rule="evenodd" clip-rule="evenodd" d="M87.9906 115.421L85.2155 117.015C85.1499 117.046 85.0943 117.094 85.0554 117.155C85.0165 117.216 84.9959 117.287 84.9959 117.359C84.9959 117.431 85.0165 117.502 85.0554 117.563C85.0943 117.624 85.1499 117.672 85.2155 117.703L95.7195 123.734C95.9048 123.828 96.1098 123.877 96.3177 123.877C96.5256 123.877 96.7306 123.828 96.9159 123.734L96.9809 123.696L97.7454 123.259L99.6948 122.141C99.7605 122.11 99.816 122.062 99.8549 122.001C99.8938 121.94 99.9144 121.869 99.9144 121.797C99.9144 121.725 99.8938 121.654 99.8549 121.593C99.816 121.532 99.7605 121.483 99.6948 121.453L89.1908 115.421C89.005 115.327 88.7994 115.278 88.5907 115.278C88.3821 115.278 88.1764 115.327 87.9906 115.421Z" fill="white"/>
<path fill-rule="evenodd" clip-rule="evenodd" d="M73.7624 152.58C66.6757 148.511 64.4587 142.693 67.1152 137.54L72.1799 127.733H112.697L117.762 137.54C120.438 142.701 118.205 148.511 111.115 152.58C100.791 158.505 84.0752 158.505 73.7624 152.58Z" fill="#EDBE5C"/>
<path fill-rule="evenodd" clip-rule="evenodd" d="M73.4134 153.155C69.8013 151.083 67.4008 148.554 66.2159 145.869C65.5957 144.505 65.2994 143.017 65.3498 141.521C65.4001 140.025 65.7959 138.56 66.5064 137.24L71.5711 127.433C71.6271 127.324 71.712 127.233 71.8165 127.17C71.9209 127.106 72.041 127.072 72.1635 127.072H112.681C112.815 127.071 112.946 127.111 113.057 127.185C113.168 127.26 113.254 127.366 113.304 127.49L118.338 137.24C119.049 138.56 119.446 140.024 119.497 141.521C119.548 143.017 119.252 144.505 118.632 145.869C117.444 148.554 115.047 151.083 111.435 153.155L111.393 153.178C106.137 156.186 99.2796 157.688 92.4299 157.688C85.5801 157.688 78.6922 156.167 73.4288 153.155H73.4134ZM67.439 145.337C68.5131 147.767 70.7263 150.082 74.0824 152.007C79.1318 154.904 85.7713 156.353 92.4299 156.353C99.0885 156.353 105.69 154.912 110.735 152.026L110.766 152.003C114.122 150.079 116.335 147.763 117.409 145.333C117.947 144.148 118.204 142.855 118.159 141.555C118.115 140.256 117.771 138.984 117.153 137.837L112.276 128.395H72.584L67.7066 137.837C67.0891 138.984 66.7452 140.257 66.7014 141.558C66.6577 142.858 66.9153 144.151 67.4543 145.337H67.439Z" fill="#3C3C3C"/>
<path fill-rule="evenodd" clip-rule="evenodd" d="M77.8402 117.093C69.7826 121.721 69.7826 129.224 77.8402 133.852C85.8978 138.48 98.9628 138.484 107.024 133.852C115.086 129.22 115.082 121.721 107.024 117.093C98.9666 112.465 85.8978 112.461 77.8402 117.093Z" fill="white"/>
<path fill-rule="evenodd" clip-rule="evenodd" d="M78.1729 117.663C75.9368 118.952 74.3505 120.454 73.4331 122.044C72.7997 123.074 72.4646 124.259 72.4646 125.467C72.4646 126.674 72.7997 127.859 73.4331 128.889C74.3582 130.482 75.9368 131.988 78.1729 133.274C82.0985 135.525 87.2587 136.654 92.4304 136.654C97.6021 136.654 102.751 135.514 106.692 133.274C108.928 131.988 110.514 130.482 111.432 128.889C112.053 127.854 112.387 126.673 112.399 125.467C112.384 124.26 112.049 123.08 111.428 122.044C110.506 120.454 108.924 118.952 106.684 117.663L106.654 117.644C102.732 115.404 97.5868 114.286 92.4266 114.286C87.2664 114.286 82.1061 115.427 78.1691 117.663H78.1729ZM72.2673 121.386C73.307 119.595 75.05 117.922 77.4964 116.518C81.6322 114.142 87.0523 112.955 92.4037 112.955C97.755 112.955 103.16 114.134 107.288 116.496L107.33 116.518C109.776 117.922 111.535 119.595 112.559 121.386C113.298 122.624 113.694 124.034 113.706 125.474C113.693 126.914 113.297 128.324 112.559 129.562C111.519 131.349 109.776 133.019 107.326 134.426C103.194 136.803 97.7932 137.989 92.4189 137.989C87.0447 137.989 81.6283 136.803 77.5116 134.426C75.0615 133.019 73.307 131.349 72.2826 129.562C71.5324 128.329 71.1358 126.915 71.1358 125.474C71.1358 124.033 71.5324 122.619 72.2826 121.386H72.2673Z" fill="#3C3C3C"/>
<path fill-rule="evenodd" clip-rule="evenodd" d="M71.8188 126.04V133.178C71.9642 134.582 72.4768 135.923 73.3057 137.068C76.1228 141.061 81.91 143.183 86.5542 143.974C93.3389 145.115 101.867 144.294 107.753 140.552C110.184 139.004 112.482 136.688 112.971 133.748L113.043 133.182V126.044C112.972 126.82 112.779 127.581 112.474 128.299C110.666 132.562 105.349 135.102 101.118 136.228C93.6677 138.217 83.6989 137.608 77.109 133.414C74.6742 131.87 72.3807 129.55 71.8876 126.61L71.8188 126.04Z" fill="white"/>
<path fill-rule="evenodd" clip-rule="evenodd" d="M72.4894 129.9V133.178C72.5404 133.763 72.6756 134.338 72.8908 134.886C73.1377 135.523 73.4611 136.128 73.8541 136.688C75.0505 138.384 76.8241 139.73 78.8232 140.769C81.2931 142.012 83.9394 142.872 86.6706 143.32C90.4155 143.939 94.2363 143.951 97.9849 143.355C101.425 142.799 104.697 141.712 107.399 139.989C108.7 139.188 109.85 138.167 110.798 136.973C111.571 136.011 112.096 134.875 112.327 133.665L112.392 133.14V129.911C111.45 131.33 110.237 132.551 108.821 133.505C106.527 135.04 103.987 136.177 101.31 136.867C97.0213 137.961 92.5656 138.255 88.1689 137.734C84.0255 137.247 80.0081 136.03 76.7667 133.969C75.3358 133.083 74.0697 131.957 73.0246 130.642C72.8411 130.402 72.6653 130.155 72.5047 129.881L72.4894 129.9ZM71.1516 133.178V126.04C71.1492 125.869 71.2132 125.703 71.3302 125.578C71.4473 125.452 71.6085 125.377 71.7803 125.366C71.9521 125.356 72.1212 125.412 72.2526 125.523C72.384 125.633 72.4674 125.79 72.4856 125.96L72.5544 126.527C72.7849 127.737 73.3099 128.873 74.0834 129.835C75.0323 131.029 76.1821 132.049 77.4815 132.851C80.5394 134.798 84.3618 135.95 88.3219 136.414C92.5507 136.917 96.8366 136.636 100.963 135.585C103.49 134.938 105.888 133.867 108.053 132.418C109.731 131.246 111.134 129.79 111.875 128.037C112.017 127.711 112.129 127.374 112.212 127.029C112.29 126.683 112.348 126.332 112.388 125.979C112.406 125.811 112.488 125.655 112.617 125.545C112.746 125.434 112.913 125.377 113.083 125.385C113.254 125.393 113.415 125.465 113.533 125.587C113.652 125.708 113.719 125.871 113.722 126.04V133.178C113.724 133.205 113.724 133.231 113.722 133.258L113.653 133.825V133.851C113.395 135.286 112.786 136.635 111.879 137.78C110.833 139.094 109.567 140.22 108.137 141.107C105.267 142.932 101.803 144.081 98.1989 144.663C94.3061 145.283 90.3379 145.272 86.4489 144.628C83.5801 144.158 80.8009 143.252 78.2078 141.944C76.0328 140.803 74.0911 139.331 72.7647 137.452C72.3087 136.8 71.9339 136.095 71.6485 135.353C71.3865 134.686 71.223 133.984 71.1631 133.269C71.1574 133.239 71.1535 133.209 71.1516 133.178Z" fill="#3C3C3C"/>
<path fill-rule="evenodd" clip-rule="evenodd" d="M85.1397 117.306V123.509L85.1435 123.554L85.155 123.6L85.1741 123.645L85.2009 123.691L85.2353 123.733L85.2812 123.775L85.3309 123.817L85.3882 123.851L95.8921 129.886L95.9571 129.92L96.0221 129.947L96.0947 129.973L96.1712 129.992L96.2476 130.008L96.3278 130.019L96.4081 130.027H96.4884H96.5687L96.649 130.019L96.7292 130.008L96.8056 129.992L96.8821 129.973L96.9547 129.947L97.0235 129.92L97.0885 129.886L97.1535 129.848L97.918 129.411L99.8636 128.292L99.9209 128.254L99.9706 128.216L100.013 128.175L100.047 128.129L100.074 128.087L100.093 128.041L100.104 127.996L100.108 127.946V121.748L100.104 121.793L100.093 121.839L100.074 121.885L100.047 121.93L100.013 121.972L99.9706 122.014L99.9209 122.052L99.8636 122.09L97.918 123.208L97.1535 123.645L97.0885 123.683L97.0235 123.718L96.9547 123.748L96.8821 123.771L96.8056 123.79L96.7292 123.805L96.649 123.817L96.5687 123.824L96.4884 123.828L96.4081 123.824L96.3278 123.817L96.2476 123.805L96.1712 123.79L96.0947 123.771L96.0221 123.748L95.9571 123.718L95.8921 123.683L85.3882 117.652L85.3309 117.614L85.2812 117.576L85.2353 117.534L85.2009 117.489L85.1741 117.447L85.155 117.401L85.1435 117.356L85.1397 117.306Z" fill="#3C3C3C"/>
<path fill-rule="evenodd" clip-rule="evenodd" d="M85.8103 118.648V123.314L96.2378 129.307H96.2799H96.3258H96.3869H96.5207H96.6201H96.666C96.7164 129.294 96.7642 129.272 96.8074 129.243L97.5719 128.802H97.6101L99.4334 127.756V123.097L97.484 124.215L97.4152 124.257L97.3234 124.303L97.2699 124.33L97.2011 124.36H97.1514H97.0865C97.0608 124.371 97.0338 124.379 97.0062 124.383L96.8532 124.417H96.815H96.7348H96.6124H96.3449H96.2646H96.1881H96.1461H96.0773C96.0238 124.417 95.9741 124.394 95.9206 124.383H95.8747L95.8059 124.36H95.76L95.6913 124.33L95.5995 124.284C92.3543 122.573 89.0059 120.481 85.8027 118.66L85.8103 118.648ZM84.4725 123.497V117.294C84.4726 117.136 84.5296 116.983 84.6331 116.864C84.7367 116.744 84.88 116.665 85.037 116.641C85.1941 116.617 85.3545 116.65 85.4894 116.733C85.6242 116.817 85.7245 116.946 85.7721 117.097L96.2264 123.101H96.2723H96.299H96.3487H96.3831H96.4557H96.5857H96.6316H96.6774H96.7156H96.7386L96.8112 123.059C97.6827 122.538 98.5848 122.04 99.464 121.538C99.5117 121.387 99.6125 121.257 99.748 121.173C99.8835 121.088 100.045 121.055 100.203 121.079C100.361 121.103 100.505 121.182 100.609 121.303C100.714 121.423 100.771 121.577 100.771 121.736V128.015C100.775 128.059 100.775 128.103 100.771 128.148V128.193C100.763 128.224 100.753 128.255 100.741 128.285L100.722 128.334C100.709 128.363 100.694 128.391 100.676 128.418C100.655 128.457 100.631 128.494 100.603 128.528L100.569 128.57L100.515 128.627C100.491 128.655 100.464 128.68 100.435 128.703L100.385 128.741L100.332 128.779L100.274 128.817L98.3363 129.931H98.302L97.4725 130.41L97.4075 130.445L97.3273 130.483H97.2928L97.2279 130.509L97.1552 130.532H97.1055H97.052H96.9832L96.8265 130.562H96.7539H96.6736H96.5628H96.3487H96.2685H96.2302L96.1155 130.543H96.0582H95.9932H95.9168H95.8709L95.7983 130.521L95.6951 130.479L95.6377 130.448H95.6034L95.5537 130.422C92.1517 128.467 88.249 126.44 84.9923 124.337C84.9655 124.323 84.9398 124.306 84.9159 124.288L84.8623 124.246C84.8402 124.23 84.8198 124.212 84.8012 124.193L84.7744 124.166L84.7095 124.098L84.6712 124.052C84.6534 124.029 84.6368 124.005 84.6215 123.98C84.5954 123.943 84.5736 123.903 84.5566 123.862V123.839C84.5566 123.801 84.5298 123.763 84.5184 123.725V123.679C84.5162 123.651 84.5162 123.623 84.5184 123.596C84.5009 123.568 84.4856 123.538 84.4725 123.508V123.497Z" fill="#3C3C3C"/>
<path opacity="0.72" fill-rule="evenodd" clip-rule="evenodd" d="M50.8605 59.8412C45.1039 77.9161 51.3765 90.2638 57.8784 101.33C61.976 108.312 64.8887 109.316 67.1439 117.241C68.5008 122.018 68.0269 125.714 71.8034 129.612C82.1545 140.29 103.774 140.598 113.028 129.612C116.522 125.463 116.33 122.006 117.687 117.241C119.939 109.305 122.852 108.312 126.949 101.33C133.447 90.2524 139.724 77.9161 133.967 59.8412C128.05 41.2643 110.234 31.974 92.4137 31.974C74.5937 31.974 56.7967 41.2643 50.8605 59.8412Z" fill="white"/>
<path opacity="0.72" fill-rule="evenodd" clip-rule="evenodd" d="M51.5151 60.0388C48.6789 68.9488 48.8012 76.4328 50.4372 83.0497C52.0732 89.6667 55.2458 95.4964 58.4642 100.995C59.6571 103.005 60.9812 104.935 62.4281 106.772C64.5801 109.597 66.3231 111.883 67.7794 117.062C68.1617 118.416 68.4025 119.679 68.6318 120.884C69.1937 123.866 69.6906 126.482 72.2784 129.151C72.814 129.704 73.3792 130.227 73.9717 130.718C79.0172 134.924 86.0543 137.073 92.9767 137.073C99.899 137.073 106.653 134.947 111.183 130.608C111.649 130.161 112.092 129.69 112.509 129.197C114.978 126.265 115.536 123.664 116.182 120.645C116.423 119.527 116.676 118.363 117.039 117.074C118.51 111.894 120.249 109.609 122.39 106.783C123.834 104.945 125.157 103.015 126.35 101.007C129.58 95.5078 132.749 89.7009 134.377 83.0611C136.005 76.4214 136.135 68.9602 133.295 60.0502C130.741 51.9286 125.463 44.9253 118.342 40.2108C110.823 35.172 101.604 32.6507 92.3804 32.6507C83.1569 32.6507 73.9373 35.172 66.4186 40.2108C59.2989 44.9264 54.0207 51.9294 51.4654 60.0502L51.5151 60.0388ZM49.1414 83.3653C47.4519 76.5202 47.3219 68.8081 50.2422 59.6394C52.8852 51.2319 58.3502 43.9825 65.723 39.1041C73.4671 33.9095 82.9505 31.3121 92.43 31.3121C101.91 31.3121 111.393 33.9095 119.137 39.1041C126.51 43.9834 131.976 51.2323 134.622 59.6394C137.542 68.8081 137.408 76.5278 135.719 83.3653C134.029 90.2028 130.818 96.0858 127.543 101.665C126.322 103.719 124.967 105.692 123.487 107.57C121.419 110.286 119.749 112.476 118.346 117.42C117.994 118.656 117.746 119.808 117.513 120.907C116.825 124.101 116.236 126.855 113.556 130.034C113.108 130.565 112.632 131.073 112.131 131.555C107.341 136.149 100.228 138.4 93.0187 138.4C85.8097 138.4 78.4477 136.145 73.1422 131.737C72.513 131.214 71.912 130.658 71.3419 130.072C68.4789 127.117 67.9514 124.318 67.3475 121.128C67.1258 119.956 66.8926 118.728 66.5218 117.42C65.1152 112.476 63.4448 110.286 61.3807 107.574C59.9012 105.693 58.5452 103.719 57.3213 101.665C54.0417 96.0858 50.8233 90.1838 49.1414 83.3653Z" fill="#3C3C3C"/>
<path fill-rule="evenodd" clip-rule="evenodd" d="M51.5151 60.0388C48.6789 68.9488 48.8012 76.4328 50.4372 83.0497C52.0732 89.6667 55.2458 95.4964 58.4642 100.995C59.6571 103.005 60.9812 104.935 62.4281 106.772C64.5801 109.597 66.3231 111.883 67.7794 117.062C68.1617 118.416 68.4025 119.679 68.6318 120.884C69.1937 123.866 69.6906 126.482 72.2784 129.151C72.814 129.704 73.3792 130.227 73.9717 130.718C79.0172 134.924 86.0543 137.073 92.9767 137.073C99.899 137.073 106.653 134.947 111.183 130.608C111.649 130.161 112.092 129.69 112.509 129.197C114.978 126.265 115.536 123.664 116.182 120.645C116.423 119.527 116.676 118.363 117.039 117.074C118.51 111.894 120.249 109.609 122.39 106.783C123.834 104.945 125.157 103.015 126.35 101.007C129.58 95.5078 132.749 89.7009 134.377 83.0611C136.005 76.4214 136.135 68.9602 133.295 60.0502C130.741 51.9286 125.463 44.9253 118.342 40.2108C110.823 35.172 101.604 32.6507 92.3804 32.6507C83.1569 32.6507 73.9373 35.172 66.4186 40.2108C59.2989 44.9264 54.0207 51.9294 51.4654 60.0502L51.5151 60.0388ZM49.1414 83.3653C47.4519 76.5202 47.3219 68.8081 50.2422 59.6394C52.8852 51.2319 58.3502 43.9825 65.723 39.1041C73.4671 33.9095 82.9505 31.3121 92.43 31.3121C101.91 31.3121 111.393 33.9095 119.137 39.1041C126.51 43.9834 131.976 51.2323 134.622 59.6394C137.542 68.8081 137.408 76.5278 135.719 83.3653C134.029 90.2028 130.818 96.0858 127.543 101.665C126.322 103.719 124.967 105.692 123.487 107.57C121.419 110.286 119.749 112.476 118.346 117.42C117.994 118.656 117.746 119.808 117.513 120.907C116.825 124.101 116.236 126.855 113.556 130.034C113.108 130.565 112.632 131.073 112.131 131.555C107.341 136.149 100.228 138.4 93.0187 138.4C85.8097 138.4 78.4477 136.145 73.1422 131.737C72.513 131.214 71.912 130.658 71.3419 130.072C68.4789 127.117 67.9514 124.318 67.3475 121.128C67.1258 119.956 66.8926 118.728 66.5218 117.42C65.1152 112.476 63.4448 110.286 61.3807 107.574C59.9012 105.693 58.5452 103.719 57.3213 101.665C54.0417 96.0858 50.8233 90.1838 49.1414 83.3653Z" fill="#3C3C3C"/>
<path opacity="0.2" d="M155.704 154.178C164.93 154.178 172.409 151.513 172.409 148.225C172.409 144.937 164.93 142.272 155.704 142.272C146.479 142.272 139 144.937 139 148.225C139 151.513 146.479 154.178 155.704 154.178Z" fill="black"/>
<path fill-rule="evenodd" clip-rule="evenodd" d="M166.024 81.2167L171.234 78.0479L178.046 92.0556C178.318 92.6496 178.361 93.3228 178.165 93.9461C178.013 94.2873 178.122 94.0382 178.095 94.0869L172.416 104.661C172.329 104.866 172.454 104.812 172.035 105.202C171.76 105.426 171.416 105.548 171.061 105.548C170.706 105.548 170.362 105.427 170.087 105.204C169.812 104.981 169.622 104.671 169.551 104.325C169.479 103.979 169.529 103.619 169.694 103.306L173.924 93.3557L166.024 81.2167Z" fill="url(#paint2_linear_637_7833)"/>
<path fill-rule="evenodd" clip-rule="evenodd" d="M170.439 78.5788C170.332 78.3518 170.32 78.0919 170.406 77.8562C170.492 77.6205 170.668 77.4285 170.896 77.3221C171.125 77.2158 171.386 77.204 171.623 77.2894C171.86 77.3747 172.053 77.5502 172.16 77.7771L178.802 91.9312C179.029 92.3605 179.147 92.8384 179.145 93.3233C179.17 93.8462 179.072 94.3677 178.857 94.8454C178.844 94.8736 178.83 94.9008 178.813 94.9267L172.279 105.76C172.085 106.207 171.768 106.59 171.365 106.866C170.961 107.141 170.487 107.296 169.998 107.315C169.666 107.332 169.334 107.278 169.023 107.158C168.698 107.028 168.408 106.822 168.18 106.557C167.894 106.193 167.723 105.754 167.688 105.295C167.652 104.835 167.753 104.375 167.978 103.973V103.929L173.091 93.7783L166.557 83.6869C166.49 83.5823 166.444 83.4656 166.422 83.3434C166.4 83.2212 166.403 83.0959 166.43 82.9747C166.456 82.8534 166.507 82.7387 166.578 82.6369C166.65 82.5351 166.741 82.4483 166.846 82.3814C166.951 82.3145 167.068 82.2689 167.191 82.2472C167.314 82.2254 167.44 82.2279 167.561 82.2546C167.683 82.2812 167.799 82.3315 167.901 82.4026C168.003 82.4736 168.091 82.5639 168.158 82.6685L174.991 93.2312C175.079 93.3692 175.13 93.5274 175.138 93.6907C175.147 93.8539 175.113 94.0166 175.04 94.1629L169.688 104.785C169.552 105.099 169.552 105.284 169.617 105.365C169.643 105.388 169.672 105.406 169.704 105.419C169.773 105.441 169.844 105.452 169.916 105.451C170.054 105.442 170.186 105.394 170.297 105.312C170.408 105.231 170.493 105.119 170.542 104.991C170.558 104.952 170.577 104.914 170.597 104.877L177.185 93.9571C177.247 93.7667 177.271 93.5662 177.256 93.3667C177.262 93.1918 177.228 93.0177 177.158 92.8575C177.141 92.8315 177.127 92.8044 177.114 92.7763L170.439 78.5788Z" fill="#3C3C3C"/>
<path fill-rule="evenodd" clip-rule="evenodd" d="M161.182 143.867C160.964 143.796 160.774 143.658 160.64 143.473C160.505 143.289 160.433 143.066 160.433 142.838C160.433 142.61 160.505 142.388 160.64 142.203C160.774 142.018 160.964 141.88 161.182 141.809C161.737 141.531 162.349 141.387 162.97 141.387C163.591 141.387 164.204 141.531 164.759 141.809L169.463 144.517C169.681 144.589 169.87 144.726 170.005 144.911C170.139 145.096 170.212 145.318 170.212 145.547C170.212 145.775 170.139 145.997 170.005 146.182C169.87 146.367 169.681 146.505 169.463 146.576C168.908 146.853 168.295 146.998 167.674 146.998C167.053 146.998 166.441 146.853 165.886 146.576L161.182 143.867Z" fill="white"/>
<path fill-rule="evenodd" clip-rule="evenodd" d="M160.71 144.685C160.377 144.503 160.088 144.251 159.86 143.949L159.806 143.862C159.602 143.559 159.492 143.203 159.49 142.838C159.499 142.448 159.628 142.07 159.86 141.755C160.086 141.454 160.374 141.204 160.704 141.024C161.046 140.836 161.413 140.695 161.793 140.606C162.576 140.426 163.39 140.426 164.173 140.606C164.553 140.695 164.919 140.836 165.262 141.024L165.311 141.056L169.96 143.727C170.293 143.909 170.582 144.16 170.81 144.463C170.83 144.491 170.848 144.52 170.864 144.55C171.068 144.853 171.178 145.209 171.18 145.574C171.171 145.964 171.042 146.342 170.81 146.657C170.583 146.958 170.296 147.209 169.966 147.394L169.9 147.426C169.581 147.596 169.24 147.723 168.888 147.805C168.106 147.993 167.29 147.993 166.508 147.805C166.127 147.721 165.76 147.583 165.419 147.394L160.715 144.685H160.71ZM161.407 142.844C161.475 142.929 161.56 142.999 161.657 143.049L166.361 145.758C166.532 145.854 166.715 145.925 166.906 145.969C167.399 146.077 167.91 146.077 168.403 145.969C168.593 145.931 168.776 145.868 168.948 145.78H168.986C169.082 145.727 169.167 145.658 169.236 145.574C169.171 145.488 169.087 145.418 168.991 145.368L164.336 142.692L164.281 142.665C164.111 142.569 163.927 142.496 163.737 142.448C163.244 142.34 162.733 142.34 162.24 142.448C162.049 142.496 161.866 142.569 161.695 142.665C161.597 142.713 161.511 142.784 161.445 142.871L161.407 142.844Z" fill="#3C3C3C"/>
<path fill-rule="evenodd" clip-rule="evenodd" d="M151.257 149.442C151.041 149.369 150.853 149.231 150.721 149.047C150.588 148.863 150.516 148.642 150.516 148.415C150.516 148.188 150.588 147.967 150.721 147.783C150.853 147.599 151.041 147.461 151.257 147.388C151.812 147.107 152.426 146.961 153.048 146.961C153.671 146.961 154.285 147.107 154.84 147.388L159.544 150.097C159.76 150.169 159.947 150.308 160.08 150.492C160.213 150.676 160.285 150.897 160.285 151.124C160.285 151.35 160.213 151.571 160.08 151.755C159.947 151.94 159.76 152.078 159.544 152.15C158.989 152.431 158.375 152.578 157.753 152.578C157.13 152.578 156.516 152.431 155.961 152.15L151.257 149.442Z" fill="white"/>
<path fill-rule="evenodd" clip-rule="evenodd" d="M150.789 150.259C150.455 150.078 150.165 149.827 149.939 149.523L149.885 149.441C149.667 149.125 149.555 148.749 149.564 148.366C149.574 147.982 149.705 147.612 149.939 147.307C150.164 147.004 150.452 146.753 150.783 146.571C151.124 146.379 151.491 146.239 151.872 146.153C152.261 146.061 152.659 146.014 153.059 146.013C153.46 146.014 153.861 146.062 154.251 146.153C154.633 146.239 154.999 146.38 155.34 146.571L155.389 146.598L160.044 149.274C160.378 149.455 160.668 149.706 160.894 150.01L160.948 150.091C161.152 150.394 161.262 150.751 161.264 151.115C161.255 151.506 161.123 151.885 160.888 152.199C160.661 152.502 160.372 152.753 160.039 152.935L159.979 152.968C159.66 153.139 159.319 153.268 158.966 153.352C158.576 153.444 158.176 153.492 157.774 153.493C157.374 153.492 156.976 153.445 156.587 153.352C156.206 153.267 155.839 153.126 155.498 152.935L150.794 150.227L150.789 150.259ZM151.485 148.423C151.553 148.505 151.636 148.574 151.73 148.624L156.435 151.332C156.605 151.43 156.788 151.503 156.979 151.549C157.226 151.605 157.478 151.632 157.73 151.63C157.983 151.632 158.235 151.605 158.482 151.549C158.671 151.51 158.854 151.446 159.026 151.359H159.064C159.161 151.31 159.246 151.242 159.315 151.159C159.245 151.076 159.16 151.008 159.064 150.958L154.409 148.282H154.355C154.185 148.183 154.002 148.11 153.81 148.066C153.315 147.957 152.803 147.957 152.308 148.066C152.116 148.11 151.933 148.183 151.763 148.282C151.669 148.332 151.586 148.4 151.518 148.483L151.485 148.423Z" fill="#3C3C3C"/>
<path fill-rule="evenodd" clip-rule="evenodd" d="M168.762 102.309C169.431 102.568 170.007 103.022 170.413 103.611C170.819 104.201 171.037 104.899 171.037 105.613C171.037 105.716 171.037 105.814 171.037 105.911L170.215 144.186C170.195 144.408 170.116 144.62 169.985 144.801C169.855 144.982 169.679 145.125 169.475 145.215C168.92 145.493 168.307 145.638 167.686 145.638C167.065 145.638 166.453 145.493 165.898 145.215C165.693 145.125 165.517 144.982 165.387 144.801C165.257 144.62 165.177 144.408 165.157 144.186L163.578 113.311L161.613 114.394C160.954 126.278 160.785 137.919 160.295 149.744C160.275 149.966 160.196 150.178 160.066 150.359C159.936 150.54 159.759 150.683 159.555 150.773C159 151.054 158.386 151.201 157.763 151.201C157.141 151.201 156.527 151.054 155.972 150.773C155.768 150.682 155.592 150.539 155.462 150.358C155.332 150.177 155.252 149.965 155.232 149.744L154.017 111.469C154.017 111.371 154.017 111.274 154.017 111.176C154.017 109.064 155.33 108.387 156.887 107.509L161.939 104.671L165.533 102.645C166.01 102.35 166.549 102.166 167.108 102.108C167.668 102.05 168.233 102.119 168.762 102.309Z" fill="#011020"/>
<path fill-rule="evenodd" clip-rule="evenodd" d="M169.105 101.411C169.954 101.737 170.683 102.311 171.198 103.058C171.713 103.804 171.989 104.687 171.991 105.593C171.991 105.723 171.991 105.858 171.991 105.988L171.18 144.203C171.171 144.594 171.042 144.972 170.809 145.287C170.582 145.588 170.295 145.839 169.965 146.023L169.9 146.056C169.58 146.225 169.24 146.353 168.887 146.435C168.105 146.623 167.29 146.623 166.508 146.435C166.127 146.351 165.76 146.212 165.419 146.023C165.087 145.841 164.797 145.59 164.57 145.287L164.515 145.2C164.311 144.897 164.201 144.541 164.199 144.176L162.702 114.893L162.533 114.991C162.147 122.033 161.934 128.95 161.717 135.867C161.575 140.509 161.434 145.157 161.243 149.777C161.233 150.168 161.102 150.547 160.867 150.861C160.64 151.164 160.351 151.415 160.018 151.597L159.958 151.63C159.639 151.801 159.298 151.93 158.945 152.014C158.555 152.106 158.155 152.154 157.753 152.155C157.353 152.154 156.955 152.107 156.566 152.014C156.185 151.929 155.818 151.788 155.477 151.597C155.143 151.416 154.854 151.165 154.628 150.861C154.608 150.835 154.59 150.808 154.573 150.779C154.369 150.475 154.259 150.117 154.258 149.75V149.701L153.043 111.556V111.183C153.043 108.583 154.513 107.754 156.277 106.768L156.397 106.698C159.277 105.073 162.158 103.41 165.054 101.823C165.665 101.475 166.338 101.249 167.036 101.156C167.737 101.073 168.448 101.164 169.105 101.422V101.411ZM169.65 104.119C169.354 103.685 168.932 103.351 168.441 103.16C168.071 103.016 167.67 102.966 167.276 103.014C166.821 103.079 166.383 103.229 165.985 103.458L157.35 108.334L157.225 108.404C155.989 109.097 154.965 109.671 154.965 111.177V111.394V111.443L156.179 149.636C156.182 149.669 156.182 149.701 156.179 149.734C156.247 149.816 156.33 149.884 156.424 149.934C156.594 150.033 156.778 150.106 156.969 150.151C157.215 150.207 157.468 150.234 157.72 150.232C157.973 150.234 158.225 150.207 158.472 150.151C158.661 150.112 158.844 150.048 159.016 149.961H159.054C159.151 149.913 159.236 149.845 159.305 149.761V149.728C159.501 145.027 159.642 140.412 159.784 135.797C160.007 128.657 160.225 121.523 160.622 114.357C160.63 114.199 160.678 114.045 160.762 113.911C160.846 113.776 160.962 113.665 161.101 113.588L163.013 112.504C163.152 112.413 163.314 112.361 163.481 112.352C163.648 112.344 163.814 112.379 163.963 112.455C164.112 112.531 164.238 112.645 164.328 112.785C164.418 112.925 164.47 113.086 164.477 113.252L166.051 144.057C166.053 144.091 166.053 144.126 166.051 144.16C166.117 144.247 166.203 144.317 166.301 144.366C166.472 144.462 166.655 144.534 166.846 144.583C167.34 144.684 167.849 144.684 168.343 144.583C168.532 144.54 168.715 144.475 168.887 144.388H168.925C169.021 144.335 169.106 144.266 169.176 144.182L169.993 105.961C169.99 105.918 169.99 105.874 169.993 105.831V105.609C170.022 105.098 169.897 104.591 169.633 104.152L169.65 104.119Z" fill="#3C3C3C"/>
<path fill-rule="evenodd" clip-rule="evenodd" d="M160.97 76.3033C161.509 76.5746 162.104 76.7159 162.707 76.7159C163.311 76.7159 163.906 76.5746 164.444 76.3033C165.403 75.7616 165.403 74.857 164.444 74.3045C163.907 74.0307 163.311 73.8879 162.707 73.8879C162.103 73.8879 161.508 74.0307 160.97 74.3045C160.007 74.8678 160.007 75.7508 160.97 76.3033Z" fill="white"/>
<path fill-rule="evenodd" clip-rule="evenodd" d="M161.444 75.4861C161.835 75.6841 162.269 75.781 162.707 75.7678C163.144 75.7818 163.577 75.6848 163.965 75.4861C164.053 75.4406 164.132 75.3801 164.199 75.3074C164.136 75.232 164.058 75.1694 163.971 75.1232H163.933C163.551 74.9412 163.131 74.8521 162.707 74.8632C162.269 74.8493 161.835 74.9462 161.444 75.1449C161.357 75.1883 161.279 75.2491 161.216 75.3236C161.277 75.399 161.353 75.4617 161.439 75.5078L161.444 75.4861ZM162.707 77.6529C161.935 77.6615 161.172 77.4751 160.492 77.1112C160.104 76.9026 159.781 76.5938 159.555 76.2174C159.388 75.9389 159.3 75.6208 159.299 75.2966C159.3 75.0012 159.374 74.7106 159.517 74.4515C159.527 74.4252 159.54 74.3998 159.555 74.3756C159.784 74.0017 160.106 73.6936 160.492 73.4819C161.163 73.1327 161.908 72.9477 162.665 72.942C163.423 72.9364 164.171 73.1103 164.847 73.4494L164.907 73.4819C165.295 73.692 165.62 74.0003 165.849 74.3756C166.017 74.6529 166.105 74.9703 166.105 75.2938C166.105 75.6173 166.017 75.9347 165.849 76.212C165.62 76.5889 165.295 76.8991 164.907 77.1112C164.234 77.48 163.476 77.6703 162.707 77.6637V77.6529Z" fill="#3C3C3C"/>
<path fill-rule="evenodd" clip-rule="evenodd" d="M170.635 105.364C171.315 104.969 171.604 104.443 171.495 103.934V78.9194C171.239 76.639 167.858 74.6998 166.377 75.5556L159.163 79.6995L156.489 81.2324C155.357 81.8608 153.925 83.1987 153.892 84.775V110.586C153.854 110.741 153.854 110.902 153.892 111.057V111.166C154.001 111.491 153.576 111.783 154.388 112.249C155.199 112.715 157.464 112.921 158.64 112.249L170.618 105.375L170.635 105.364Z" fill="url(#paint3_linear_637_7833)" stroke="#F9FAFE" stroke-width="1.28" stroke-miterlimit="22.93"/>
<path fill-rule="evenodd" clip-rule="evenodd" d="M171.179 106.128C171.129 106.167 171.074 106.2 171.016 106.226L159.124 113.056C158.344 113.442 157.48 113.628 156.609 113.598C155.684 113.625 154.766 113.439 153.925 113.056C152.836 112.444 152.879 111.908 152.95 111.431C152.942 111.352 152.942 111.272 152.95 111.193C152.94 111.087 152.94 110.979 152.95 110.873C152.942 110.758 152.942 110.642 152.95 110.527V84.8075C152.991 83.9234 153.302 83.0727 153.843 82.37C154.428 81.5897 155.17 80.9386 156.021 80.4578L165.903 74.7865C166.206 74.6136 166.541 74.5065 166.889 74.4723C167.872 74.4176 168.85 74.6653 169.687 75.1819C170.602 75.7027 171.367 76.4488 171.908 77.3486C172.185 77.7995 172.37 78.3001 172.453 78.822C172.459 78.8797 172.459 78.9377 172.453 78.9953V103.913C172.518 104.374 172.418 104.844 172.17 105.24C171.928 105.625 171.595 105.947 171.201 106.177L171.179 106.128ZM170.21 104.503C170.334 104.432 170.44 104.334 170.52 104.216C170.531 104.184 170.531 104.15 170.52 104.118C170.515 104.055 170.515 103.992 170.52 103.929V78.9574C170.474 78.696 170.382 78.4447 170.248 78.2153C169.87 77.612 169.346 77.1127 168.723 76.7636C168.238 76.4497 167.669 76.2874 167.09 76.2978C167.005 76.3043 166.922 76.3264 166.845 76.3628C163.546 78.2586 160.257 80.1924 156.941 82.0558C156.324 82.3988 155.784 82.8655 155.357 83.4263C155.04 83.8155 154.85 84.2917 154.812 84.7913V110.581C154.821 110.655 154.821 110.729 154.812 110.803V110.841C154.812 110.873 154.812 110.906 154.812 110.938C154.853 111.095 154.866 111.259 154.85 111.42V111.588C154.85 111.534 154.85 111.48 154.85 111.426C155.403 111.648 155.997 111.749 156.593 111.724C157.132 111.75 157.669 111.648 158.161 111.426L170.052 104.595C170.101 104.56 170.154 104.531 170.21 104.508V104.503Z" fill="#3C3C3C"/>
<path fill-rule="evenodd" clip-rule="evenodd" d="M160.245 75.3014H165.145L165.505 79.9544C165.51 80.0012 165.51 80.0484 165.505 80.0952C165.481 80.3437 165.392 80.5815 165.245 80.7842C165.099 80.987 164.901 81.1474 164.672 81.249C164.052 81.5617 163.366 81.7246 162.671 81.7246C161.976 81.7246 161.29 81.5617 160.67 81.249C160.442 81.1467 160.245 80.9859 160.1 80.7832C159.954 80.5806 159.865 80.3432 159.842 80.0952C159.84 80.0483 159.84 80.0013 159.842 79.9544L160.245 75.3014Z" fill="white"/>
<path fill-rule="evenodd" clip-rule="evenodd" d="M160.246 74.3531H166.045L166.469 79.8457C166.472 79.8818 166.472 79.918 166.469 79.9541C166.469 80.0137 166.469 80.057 166.469 80.0949C166.467 80.5182 166.33 80.9297 166.077 81.2703C165.835 81.5971 165.525 81.8686 165.168 82.0666C164.404 82.4617 163.555 82.6679 162.693 82.6679C161.832 82.6679 160.983 82.4617 160.219 82.0666C159.862 81.8686 159.552 81.5971 159.309 81.2703C159.057 80.9297 158.92 80.5182 158.917 80.0949C158.912 80.0101 158.912 79.9251 158.917 79.8404L159.348 74.3531H160.246ZM164.28 76.249H161.128L160.834 80.0408V80.1112C160.839 80.1395 160.853 80.1656 160.872 80.187C160.957 80.2957 161.065 80.3845 161.188 80.447C161.663 80.675 162.184 80.7934 162.712 80.7934C163.24 80.7934 163.761 80.675 164.237 80.447C164.358 80.381 164.465 80.2927 164.553 80.187C164.569 80.1644 164.58 80.1386 164.585 80.1112V80.0408L164.291 76.249H164.28Z" fill="#3C3C3C"/>
<path fill-rule="evenodd" clip-rule="evenodd" d="M163.17 64.4735H162.244C161.685 64.467 161.131 64.5716 160.613 64.7814C160.096 64.9911 159.626 65.3017 159.23 65.6948C158.835 66.0879 158.523 66.5558 158.312 67.0707C158.101 67.5856 157.996 68.1372 158.003 68.6931L158.221 73.8445C158.24 74.9576 158.693 76.0196 159.485 76.8068C160.276 77.594 161.343 78.0448 162.462 78.0643H162.925C164.043 78.0434 165.11 77.5921 165.901 76.8053C166.691 76.0184 167.145 74.9572 167.166 73.8445L167.411 68.6931C167.418 68.137 167.314 67.585 167.103 67.0698C166.893 66.5545 166.58 66.0864 166.185 65.6931C165.79 65.2998 165.319 64.9893 164.801 64.7799C164.284 64.5704 163.729 64.4662 163.17 64.4735Z" fill="white"/>
<path fill-rule="evenodd" clip-rule="evenodd" d="M163.169 65.4215H162.08C161.24 65.4606 160.445 65.8079 159.847 66.3965C159.56 66.6738 159.33 67.0053 159.172 67.3717C159.014 67.7381 158.931 68.1321 158.927 68.5308V68.6607L159.145 73.8121C159.179 74.7025 159.548 75.5477 160.18 76.1792C160.475 76.4767 160.827 76.7127 161.215 76.8736C161.603 77.0345 162.019 77.117 162.439 77.1163H162.902C163.321 77.1167 163.736 77.0346 164.123 76.8747C164.51 76.7148 164.861 76.4803 165.156 76.1847C165.787 75.5479 166.158 74.7003 166.196 73.8067L166.436 68.6553V68.5145C166.432 68.1188 166.349 67.7277 166.192 67.3641C166.035 67.0005 165.807 66.6716 165.521 66.3965C164.927 65.8124 164.139 65.4655 163.305 65.4215H163.169ZM162.243 63.531H163.408C164.711 63.595 165.946 64.1328 166.877 65.0423C167.343 65.4931 167.715 66.0318 167.97 66.627C168.225 67.2222 168.359 67.862 168.363 68.5091C168.363 68.5416 168.363 68.6174 168.363 68.7312L168.118 73.8825C168.064 75.2493 167.497 76.5462 166.528 77.5172C166.058 77.9912 165.498 78.367 164.88 78.6228C164.262 78.8786 163.599 79.0092 162.929 79.0068H162.466C161.796 79.0082 161.131 78.8772 160.512 78.6216C159.892 78.3659 159.329 77.9905 158.857 77.5172C157.892 76.5423 157.329 75.244 157.278 73.8771L157.06 68.7257V68.5253C157.063 67.8747 157.197 67.2314 157.455 66.6332C157.712 66.035 158.087 65.4941 158.557 65.0423C159.49 64.1253 160.732 63.5865 162.042 63.531H162.243Z" fill="#3C3C3C"/>
<path fill-rule="evenodd" clip-rule="evenodd" d="M165.604 111.025C165.818 110.929 166.06 110.915 166.284 110.987C166.508 111.059 166.697 111.21 166.814 111.413C166.932 111.616 166.969 111.854 166.92 112.083C166.87 112.312 166.737 112.514 166.546 112.65L162.076 115.217C161.968 115.294 161.846 115.348 161.716 115.374C161.586 115.401 161.453 115.4 161.323 115.373C161.194 115.345 161.072 115.29 160.965 115.213C160.859 115.135 160.769 115.036 160.703 114.922C160.637 114.808 160.596 114.682 160.582 114.551C160.568 114.42 160.581 114.288 160.622 114.162C160.663 114.037 160.729 113.922 160.817 113.824C160.905 113.725 161.013 113.647 161.134 113.592L165.604 111.025Z" fill="#3C3C3C"/>
<path fill-rule="evenodd" clip-rule="evenodd" d="M163.168 64.4733H162.243C161.421 64.4743 160.618 64.7088 159.926 65.1493C159.234 65.5898 158.684 66.2179 158.339 66.9595C158.769 69.9929 159.972 69.7167 161.421 71.2388C162.94 72.8638 161.965 75.2742 163.925 75.4151C164.687 75.4692 166.359 75.1605 166.925 74.3317L167.143 74.1476C167.143 74.0555 167.143 73.9634 167.143 73.8659L167.388 68.7146C167.398 68.1585 167.296 67.6059 167.088 67.0896C166.88 66.5733 166.571 66.1036 166.177 65.7083C165.784 65.313 165.315 65.0001 164.798 64.788C164.282 64.5758 163.727 64.4688 163.168 64.4733Z" fill="white"/>
<path fill-rule="evenodd" clip-rule="evenodd" d="M163.17 65.4216H162.244C161.598 65.4251 160.967 65.6131 160.425 65.9633C159.973 66.2537 159.6 66.6498 159.337 67.117C159.598 68.6174 160.121 68.9967 160.779 69.4679C161.264 69.8004 161.714 70.1796 162.124 70.6C162.802 71.3849 163.237 72.3481 163.377 73.3734C163.502 73.9693 163.611 74.4568 164.003 74.4568C164.49 74.4689 164.974 74.3861 165.429 74.2131H165.5C165.749 74.1355 165.971 73.9912 166.142 73.796C166.168 73.7558 166.197 73.7178 166.229 73.6822L166.464 68.6608V68.52C166.46 68.1243 166.377 67.7332 166.22 67.3696C166.063 67.006 165.835 66.6771 165.549 66.402C164.955 65.8179 164.167 65.4709 163.333 65.4269L163.17 65.4216ZM162.244 63.5311H163.409C164.712 63.5951 165.946 64.1329 166.877 65.0424C167.344 65.4932 167.716 66.0319 167.971 66.6271C168.226 67.2223 168.36 67.8621 168.364 68.5091C168.364 68.5416 168.364 68.6175 168.364 68.7313L168.113 74.0505V74.2185C168.087 74.4609 167.968 74.6839 167.781 74.8414L167.645 74.9552C167.26 75.4158 166.758 75.7655 166.191 75.9681L166.11 76.0006C165.397 76.2608 164.641 76.3804 163.883 76.3527C162.064 76.2227 161.825 75.1068 161.531 73.7526C161.448 73.0715 161.18 72.4257 160.758 71.8838C160.426 71.5479 160.062 71.2466 159.669 70.9846C158.58 70.2208 157.768 69.6196 157.409 67.0899C157.381 66.9058 157.407 66.7175 157.485 66.5483C157.899 65.638 158.571 64.8679 159.418 64.3328C160.265 63.8047 161.245 63.5267 162.244 63.5311Z" fill="#3C3C3C"/>
<path fill-rule="evenodd" clip-rule="evenodd" d="M141.778 71.9435L144.68 72.2143L145.731 69.7605L145.116 67.22C145.116 66.4508 145.317 63.1411 145.012 63.0057C144.707 62.8703 144.626 65.2321 144.179 66.7L141.517 67.6154L141.778 71.9435Z" fill="white"/>
<path fill-rule="evenodd" clip-rule="evenodd" d="M144.581 73.151L141.734 72.8856C141.497 72.8779 141.272 72.7824 141.103 72.6181C140.934 72.4537 140.832 72.2322 140.819 71.9972L140.558 66.6638C140.547 66.4586 140.603 66.2555 140.718 66.0847C140.833 65.9139 141 65.7845 141.195 65.7159L143.373 64.963C143.99 64.8822 145.393 64.9986 146.068 66.1114L146.639 69.4731C146.705 69.6851 146.693 69.9132 146.607 70.1176L145.55 72.5714C145.473 72.7589 145.337 72.9165 145.162 73.0209C144.988 73.1253 144.784 73.1709 144.581 73.151ZM144.064 71.2064L142.665 71.0764L142.496 67.2759L144.238 66.6747L144.723 69.6735L144.064 71.2064Z" fill="#4A4A4A"/>
<path fill-rule="evenodd" clip-rule="evenodd" d="M153.876 87.495C156.304 87.8633 157.398 82.5494 155.16 82.219L144.914 80.6969L145.044 73.2434C145.044 73.0267 145.142 73.1297 144.946 72.5826C144.75 72.0355 143.563 71.2988 142.801 71.5696C142.484 71.6726 142.208 71.8727 142.013 72.1412C141.817 72.4098 141.712 72.733 141.712 73.0647L140.863 82.2732C140.58 85.3174 141.952 85.6966 144.603 86.1028L153.876 87.495Z" fill="url(#paint4_linear_637_7833)"/>
<path fill-rule="evenodd" clip-rule="evenodd" d="M157.181 81.5634C157.43 81.5993 157.655 81.7322 157.805 81.9328C157.956 82.1334 158.02 82.3854 157.984 82.6332C157.948 82.881 157.815 83.1044 157.613 83.2543C157.411 83.4041 157.158 83.4681 156.909 83.4322L143.951 81.5146C144 78.7467 144.092 75.9517 144.092 73.1891C144.102 73.1372 144.102 73.0839 144.092 73.032C144.024 72.873 143.91 72.7374 143.766 72.642C143.62 72.5326 143.446 72.4651 143.265 72.447C143.223 72.4406 143.181 72.4406 143.139 72.447C142.998 72.4861 142.873 72.5674 142.78 72.6799C142.701 72.8049 142.657 72.9492 142.655 73.097L141.762 82.7605C141.702 83.2718 141.805 83.7891 142.056 84.2393C142.138 84.3842 142.252 84.5084 142.39 84.6023C142.528 84.6962 142.685 84.7574 142.851 84.781L154.051 86.5522C154.299 86.5917 154.521 86.7277 154.669 86.9304C154.816 87.1331 154.877 87.3857 154.837 87.6328C154.798 87.8799 154.661 88.1012 154.457 88.248C154.253 88.3948 153.999 88.4551 153.751 88.4156L142.557 86.6443C142.121 86.5815 141.704 86.4224 141.337 86.1787C140.971 85.935 140.664 85.6129 140.439 85.2359C139.983 84.4333 139.793 83.5087 139.894 82.5926L140.782 73.0103C140.792 72.4886 140.965 71.983 141.278 71.5637C141.59 71.1444 142.025 70.8322 142.524 70.6703C142.803 70.571 143.1 70.5305 143.395 70.5512C143.933 70.5919 144.449 70.7793 144.887 71.0928C145.351 71.4108 145.707 71.8626 145.905 72.3874C146.013 72.6763 146.057 72.9847 146.036 73.292L145.927 79.8734L157.181 81.5634Z" fill="#3C3C3C"/>
</g>
<defs>
<linearGradient id="paint0_linear_637_7833" x1="29.8987" y1="107.876" x2="29.8987" y2="148.792" gradientUnits="userSpaceOnUse">
<stop stop-color="#4585E7"/>
<stop offset="1" stop-color="#5898F9"/>
</linearGradient>
<linearGradient id="paint1_linear_637_7833" x1="29.9024" y1="76.8153" x2="29.9024" y2="84.8308" gradientUnits="userSpaceOnUse">
<stop stop-color="#4585E7"/>
<stop offset="1" stop-color="#5898F9"/>
</linearGradient>
<linearGradient id="paint2_linear_637_7833" x1="172.155" y1="78.0479" x2="172.155" y2="105.548" gradientUnits="userSpaceOnUse">
<stop stop-color="#4585E7"/>
<stop offset="1" stop-color="#5898F9"/>
</linearGradient>
<linearGradient id="paint3_linear_637_7833" x1="162.69" y1="75.3492" x2="162.69" y2="112.679" gradientUnits="userSpaceOnUse">
<stop stop-color="#4585E7"/>
<stop offset="1" stop-color="#5898F9"/>
</linearGradient>
<linearGradient id="paint4_linear_637_7833" x1="148.602" y1="71.5117" x2="148.602" y2="87.5133" gradientUnits="userSpaceOnUse">
<stop stop-color="#4585E7"/>
<stop offset="1" stop-color="#5898F9"/>
</linearGradient>
<clipPath id="clip0_637_7833">
<rect width="190" height="190" fill="white"/>
</clipPath>
</defs>
</svg>
