<svg width="190" height="191" viewBox="0 0 190 191" fill="none" xmlns="http://www.w3.org/2000/svg">
<mask id="mask0_637_7736" style="mask-type:luminance" maskUnits="userSpaceOnUse" x="7" y="92" width="171" height="99">
<path d="M177.176 140.498L92.2994 92.4997C91.6574 92.1712 90.9467 92 90.2257 92C89.5047 92 88.794 92.1712 88.152 92.4997L8.00723 139.27C6.78053 139.972 6.66368 141.083 7.71514 141.667L92.5331 189.607C93.1811 189.95 93.903 190.13 94.6361 190.13C95.3691 190.13 96.091 189.95 96.739 189.607L176.884 142.837C178.11 142.194 178.227 141.083 177.176 140.498Z" fill="white"/>
</mask>
<g mask="url(#mask0_637_7736)">
<path d="M480.463 -100.477L-26.3335 192.131L-25.5453 193.498L481.251 -99.1093L480.463 -100.477Z" fill="#EDBE5C"/>
<path d="M487.08 -97.2743L-19.7675 195.245L-18.9796 196.612L487.868 -95.9069L487.08 -97.2743Z" fill="#EDBE5C"/>
<path d="M492.914 -93.224L-13.984 199.206L-13.1963 200.574L493.702 -91.8564L492.914 -93.224Z" fill="#EDBE5C"/>
<path d="M499.571 -90.2052L-7.27652 202.314L-6.48863 203.681L500.359 -88.8377L499.571 -90.2052Z" fill="#EDBE5C"/>
<path d="M505.005 -86.2966L-1.84253 206.222L-1.05464 207.59L505.793 -84.9291L505.005 -86.2966Z" fill="#EDBE5C"/>
<path d="M511.468 -82.8674L4.62021 209.652L5.40806 211.019L512.256 -81.5L511.468 -82.8674Z" fill="#EDBE5C"/>
<path d="M517.32 -78.9864L10.5236 213.621L11.3117 214.988L518.108 -77.6191L517.32 -78.9864Z" fill="#EDBE5C"/>
<path d="M523.946 -75.5191L17.0472 216.911L17.8348 218.279L524.733 -74.1515L523.946 -75.5191Z" fill="#EDBE5C"/>
<path d="M529.902 -72.1197L23.0038 220.311L23.7915 221.678L530.69 -70.7521L529.902 -72.1197Z" fill="#EDBE5C"/>
<path d="M536.466 -68.3971L29.5671 224.033L30.3547 225.401L537.253 -67.0295L536.466 -68.3971Z" fill="#EDBE5C"/>
<path d="M542.405 -64.9369L35.558 227.582L36.3458 228.949L543.193 -63.5695L542.405 -64.9369Z" fill="#EDBE5C"/>
<path d="M548.969 -61.667L42.1219 230.852L42.9097 232.219L549.757 -60.2996L548.969 -61.667Z" fill="#EDBE5C"/>
<path d="M554.433 -57.7665L47.5855 234.752L48.3734 236.12L555.221 -56.399L554.433 -57.7665Z" fill="#EDBE5C"/>
<path d="M560.896 -54.3365L54.0482 238.182L54.8361 239.55L561.684 -52.9691L560.896 -54.3365Z" fill="#EDBE5C"/>
<path d="M566.748 -50.4076L59.9514 242.2L60.7395 243.567L567.536 -49.0403L566.748 -50.4076Z" fill="#EDBE5C"/>
<path d="M573.387 -47.2093L66.5392 245.31L67.3271 246.677L574.175 -45.8418L573.387 -47.2093Z" fill="#EDBE5C"/>
<path d="M579.284 -43.5779L72.4369 248.941L73.2248 250.309L580.072 -42.2104L579.284 -43.5779Z" fill="#EDBE5C"/>
<path d="M393.811 -150.529L-113.037 141.99L-112.249 143.358L394.598 -149.162L393.811 -150.529Z" fill="#EDBE5C"/>
<path d="M400.436 -146.702L-106.513 145.64L-105.726 147.008L401.223 -145.334L400.436 -146.702Z" fill="#EDBE5C"/>
<path d="M405.897 -143.3L-100.951 149.219L-100.163 150.586L406.685 -141.933L405.897 -143.3Z" fill="#EDBE5C"/>
<path d="M412.442 -139.505L-94.5074 152.837L-93.7199 154.205L413.23 -138.137L412.442 -139.505Z" fill="#EDBE5C"/>
<path d="M418.211 -135.911L-88.5851 156.696L-87.797 158.063L419 -134.544L418.211 -135.911Z" fill="#EDBE5C"/>
<path d="M424.9 -132.831L-81.9471 159.688L-81.1593 161.055L425.688 -131.464L424.9 -132.831Z" fill="#EDBE5C"/>
<path d="M430.702 -128.845L-76.0946 163.762L-75.3064 165.13L431.49 -127.478L430.702 -128.845Z" fill="#EDBE5C"/>
<path d="M437.311 -125.623L-69.5363 166.896L-68.7485 168.264L438.099 -124.255L437.311 -125.623Z" fill="#EDBE5C"/>
<path d="M443.238 -121.941L-63.6093 170.578L-62.8214 171.945L444.026 -120.574L443.238 -121.941Z" fill="#EDBE5C"/>
<path d="M449.86 -118.554L-56.9873 173.965L-56.1994 175.332L450.648 -117.187L449.86 -118.554Z" fill="#EDBE5C"/>
<path d="M455.375 -114.741L-51.4726 177.778L-50.6847 179.146L456.163 -113.373L455.375 -114.741Z" fill="#EDBE5C"/>
<path d="M461.838 -111.311L-45.0099 181.208L-44.222 182.575L462.626 -109.944L461.838 -111.311Z" fill="#EDBE5C"/>
<path d="M467.69 -107.362L-39.1068 185.245L-38.3187 186.612L468.478 -105.995L467.69 -107.362Z" fill="#EDBE5C"/>
<path d="M474.328 -104.243L-32.5193 188.276L-31.7315 189.644L475.116 -102.875L474.328 -104.243Z" fill="#EDBE5C"/>
<path d="M480.181 -100.296L-26.616 192.312L-25.8279 193.679L480.969 -98.9284L480.181 -100.296Z" fill="#EDBE5C"/>
</g>
<path fill-rule="evenodd" clip-rule="evenodd" d="M105.462 6.21287L97.0535 1.34205C95.5604 0.873631 94.3142 1.26592 92.9845 1.9933L46.9022 28.6818C44.4896 30.1556 42.9015 32.334 41.6705 34.836C40.71 36.8089 40.1778 38.9636 40.109 41.1578L40.1394 147.501C40.2077 149.294 40.5193 150.981 41.9174 152.208L50.3292 157.082C48.931 155.852 48.6157 154.165 48.5587 152.371L48.5207 46.0285C48.5886 43.8322 49.1195 41.6752 50.0785 39.6992C51.3132 37.1971 52.9014 35.0264 55.3101 33.5526L101.392 6.86407C102.726 6.13669 103.968 5.74064 105.462 6.21287Z" fill="white"/>
<path fill-rule="evenodd" clip-rule="evenodd" d="M95.846 2.23404C95.2039 2.23404 94.5086 2.45493 93.5208 2.9957L47.4765 29.6537C45.5351 30.8534 43.9849 32.6585 42.6856 35.3243C41.7914 37.1501 41.3015 39.1482 41.2494 41.1815L41.2874 147.498C41.3178 149.402 41.7281 150.544 42.6476 151.355L47.5867 154.2C47.4908 153.601 47.44 152.995 47.4347 152.387L47.3967 46.0256C47.4404 43.6652 48.0048 41.3437 49.0495 39.2278C50.5692 36.1278 52.3777 34.0295 54.7219 32.59L100.819 5.87479C101.138 5.70342 101.461 5.53966 101.807 5.39495L96.4881 2.2988C96.2801 2.24939 96.0673 2.22386 95.8536 2.22266L95.846 2.23404ZM50.3298 158.206C50.1403 158.205 49.9549 158.151 49.7941 158.05L41.3444 153.18C39.3459 151.454 39.0648 149.261 39.0306 147.513L39.0002 41.151C39.0399 38.7934 39.6019 36.4741 40.6453 34.3608C42.165 31.2533 43.9849 29.1511 46.3443 27.7153L92.4266 1.00779C93.7563 0.280402 95.4129 -0.370816 97.4113 0.246128L106.04 5.19691C106.26 5.34794 106.421 5.57186 106.493 5.82951C106.566 6.08717 106.546 6.36218 106.437 6.60661C106.328 6.85103 106.137 7.04932 105.897 7.16683C105.657 7.28435 105.383 7.31364 105.124 7.24958C104.148 6.93349 103.285 7.08582 101.955 7.81701L55.8997 34.4751C53.9696 35.6632 52.4081 37.476 51.1087 40.1418C50.2139 41.9642 49.7276 43.9607 49.6839 45.9913L49.7105 152.315C49.7409 154.219 50.1513 155.362 51.0783 156.173C51.2982 156.354 51.4408 156.613 51.4768 156.896C51.5128 157.179 51.4396 157.465 51.2721 157.696C51.1673 157.851 51.0271 157.978 50.8631 158.067C50.6991 158.155 50.5162 158.203 50.3298 158.206Z" fill="#3C3C3C"/>
<path fill-rule="evenodd" clip-rule="evenodd" d="M55.3783 156.976L101.434 130.28C105.173 128.113 108.254 122.503 108.216 117.804L108.185 11.457C108.185 6.76137 105.146 4.69725 101.392 6.86417L55.3099 33.5527C51.5713 35.7196 48.5205 41.3292 48.5205 46.0286L48.5585 152.371C48.5585 157.063 51.6283 159.135 55.3783 156.976Z" fill="white"/>
<path fill-rule="evenodd" clip-rule="evenodd" d="M104.216 7.12399C103.417 7.16048 102.642 7.40886 101.97 7.84376L55.8844 34.5323C52.4916 36.4859 49.6687 41.768 49.6687 46.0295L49.6953 152.372C49.6953 154.33 50.2994 155.8 51.3138 156.401C52.2333 156.919 53.4757 156.782 54.8054 155.998L100.888 129.302C104.254 127.344 107.107 122.066 107.107 117.804L107.077 11.4578C107.077 9.50418 106.477 8.03034 105.432 7.43244C105.06 7.22466 104.641 7.11831 104.216 7.12399ZM52.5182 158.961C51.7062 158.966 50.9074 158.755 50.2044 158.347C48.4529 157.338 47.4499 155.164 47.4499 152.372L47.4119 46.0295C47.4119 40.9644 50.7097 34.9321 54.737 32.5862L100.819 5.87486C102.917 4.67906 104.953 4.53434 106.572 5.49403C108.312 6.51085 109.334 8.6854 109.334 11.4655L109.364 117.812C109.364 122.873 106.062 128.917 101.997 131.267L55.9148 157.951C54.8946 158.591 53.7211 158.942 52.5182 158.968V158.961Z" fill="#3C3C3C"/>
<path fill-rule="evenodd" clip-rule="evenodd" d="M108.216 116.528L108.185 11.457C108.185 6.76137 105.146 4.69725 101.392 6.86417L55.3099 33.5527C51.5713 35.7196 48.5205 41.3292 48.5205 46.0286L48.5585 151.08L108.216 116.528Z" fill="white"/>
<path fill-rule="evenodd" clip-rule="evenodd" d="M104.216 7.12399C103.417 7.16048 102.642 7.40886 101.97 7.84377L55.8844 34.5323C52.4916 36.4859 49.6687 41.768 49.6687 46.0295L49.6953 149.124L107.107 115.877L107.077 11.4578C107.077 9.50418 106.477 8.03035 105.432 7.44388C105.064 7.2272 104.643 7.11652 104.216 7.12399ZM48.5593 152.22C48.3668 152.218 48.1781 152.166 48.0122 152.068C47.8424 151.968 47.7014 151.825 47.6029 151.654C47.5043 151.484 47.4516 151.29 47.4499 151.093L47.4119 46.0409C47.4119 40.9759 50.7097 34.9436 54.737 32.5977L100.819 5.87486C102.886 4.67906 104.953 4.53434 106.572 5.49403C108.312 6.51085 109.334 8.6854 109.334 11.4655L109.364 116.536C109.362 116.735 109.308 116.93 109.207 117.102C109.106 117.274 108.963 117.416 108.79 117.515L49.1406 152.064C48.965 152.168 48.763 152.218 48.5593 152.208V152.22Z" fill="#3C3C3C"/>
<path fill-rule="evenodd" clip-rule="evenodd" d="M41.7275 34.7231L41.6705 34.8374C40.71 36.8103 40.1778 38.965 40.109 41.1592L40.1394 147.502C40.1773 149.296 40.5193 150.983 41.9174 152.209L50.3292 157.084C48.931 155.854 48.6157 154.166 48.5587 152.373L48.5207 46.0299C48.5886 43.8336 49.1195 41.6766 50.0785 39.7006L50.1354 39.594L41.7275 34.7231Z" fill="#EDBE5C"/>
<path fill-rule="evenodd" clip-rule="evenodd" d="M42.2332 36.341C41.6098 37.8837 41.2762 39.5286 41.2492 41.1928L41.2872 147.509C41.3176 149.413 41.7279 150.556 42.6474 151.367L47.5865 154.211C47.4907 153.612 47.4399 153.006 47.4346 152.399L47.3966 46.0369C47.4204 43.9843 47.8518 41.9569 48.6655 40.0732L42.2066 36.341H42.2332ZM50.3297 158.206C50.1401 158.205 49.9547 158.151 49.794 158.05L41.3442 153.179C39.3458 151.454 39.0646 149.249 39.0304 147.513L39 41.1509C39.0407 38.7898 39.6026 36.467 40.6451 34.3493C40.7882 34.0519 41.0378 33.8194 41.3442 33.6981C41.4936 33.6407 41.6533 33.6154 41.813 33.6239C41.9727 33.6325 42.1288 33.6746 42.2712 33.7475L50.683 38.626C50.9297 38.7626 51.1153 38.9882 51.2021 39.257C51.2889 39.5257 51.2704 39.8176 51.1503 40.0732C50.1359 42.2972 49.6952 44.0528 49.6686 46.0483L49.6952 152.372C49.7256 154.276 50.1359 155.419 51.0629 156.23C51.2828 156.411 51.4254 156.67 51.4614 156.953C51.4974 157.236 51.4242 157.522 51.2567 157.753C51.1474 157.895 51.0068 158.01 50.8461 158.088C50.6853 158.167 50.5085 158.207 50.3297 158.206Z" fill="#3C3C3C"/>
<path fill-rule="evenodd" clip-rule="evenodd" d="M44.4902 81.6333C44.1879 81.6333 43.898 81.5128 43.6842 81.2986C43.4705 81.0843 43.3504 80.7938 43.3504 80.4908V69.8275C43.3504 69.5245 43.4705 69.2339 43.6842 69.0197C43.898 68.8054 44.1879 68.6851 44.4902 68.6851C44.7879 68.692 45.071 68.8154 45.279 69.0289C45.4871 69.2424 45.6035 69.5291 45.6034 69.8275V80.4908C45.6035 80.7892 45.4871 81.0758 45.279 81.2893C45.071 81.5028 44.7879 81.6263 44.4902 81.6333Z" fill="#3C3C3C"/>
<path fill-rule="evenodd" clip-rule="evenodd" d="M44.4902 63.9136C44.1879 63.9136 43.898 63.7932 43.6842 63.579C43.4705 63.3647 43.3504 63.0741 43.3504 62.7711V52.0812C43.3504 51.7782 43.4705 51.4876 43.6842 51.2734C43.898 51.0591 44.1879 50.9387 44.4902 50.9387C44.7879 50.9457 45.071 51.0691 45.279 51.2826C45.4871 51.4961 45.6035 51.7828 45.6034 52.0812V62.7711C45.6035 63.0696 45.4871 63.3562 45.279 63.5697C45.071 63.7832 44.7879 63.9066 44.4902 63.9136Z" fill="#3C3C3C"/>
<path fill-rule="evenodd" clip-rule="evenodd" d="M75.2784 141.72C75.0789 141.718 74.8832 141.665 74.7101 141.566C74.5371 141.467 74.3926 141.324 74.2905 141.152C74.1445 140.896 74.1056 140.591 74.1825 140.306C74.2594 140.021 74.4457 139.777 74.7009 139.629L83.9333 134.297C84.1976 134.152 84.5079 134.115 84.799 134.193C85.0902 134.272 85.3395 134.461 85.4948 134.72C85.635 134.978 85.6705 135.281 85.5941 135.564C85.5177 135.848 85.3352 136.091 85.0845 136.243L75.8483 141.575C75.6734 141.67 75.4774 141.72 75.2784 141.72Z" fill="#3C3C3C"/>
<path fill-rule="evenodd" clip-rule="evenodd" d="M99.3939 12.9849C99.0349 13.2367 98.7392 13.5687 98.5302 13.9547C98.3212 14.3406 98.2045 14.77 98.1895 15.2089C98.1895 16.0506 98.7366 16.4162 99.3939 16.0354C99.7545 15.784 100.052 15.4517 100.261 15.0649C100.471 14.6781 100.588 14.2475 100.602 13.8075C100.602 12.9658 100.066 12.6003 99.3939 12.9849Z" fill="white"/>
<path fill-rule="evenodd" clip-rule="evenodd" d="M99.3938 12.9851L99.941 13.9524C99.9713 13.9524 99.9714 13.9524 99.9714 13.9524L99.3938 12.9965V12.9851ZM98.8885 17.2999C98.5777 17.3001 98.2719 17.2215 97.9995 17.0714C97.6896 16.8728 97.4383 16.5946 97.272 16.2658C97.1056 15.937 97.0301 15.5695 97.0534 15.2015C97.0666 14.5641 97.2344 13.9394 97.5422 13.3814C97.85 12.8234 98.2886 12.3489 98.8201 11.9987C99.1081 11.8125 99.4409 11.7078 99.7834 11.6958C100.126 11.6837 100.465 11.7647 100.765 11.9302C101.075 12.1288 101.327 12.4069 101.493 12.7357C101.659 13.0646 101.735 13.4321 101.711 13.8001C101.698 14.4379 101.529 15.0627 101.221 15.6207C100.913 16.1787 100.473 16.6531 99.941 17.0028C99.6227 17.1937 99.2594 17.2962 98.8885 17.2999Z" fill="#3C3C3C"/>
<path fill-rule="evenodd" clip-rule="evenodd" d="M56.2431 43.276C56.0452 43.2746 55.8511 43.2215 55.6799 43.122C55.5087 43.0225 55.3663 42.88 55.2667 42.7086C55.1268 42.4501 55.0918 42.1475 55.169 41.8637C55.2461 41.58 55.4294 41.337 55.6808 41.1853L58.3403 39.662C58.4683 39.5544 58.6183 39.4764 58.7796 39.4334C58.941 39.3904 59.1099 39.3834 59.2742 39.413C59.4386 39.4426 59.5944 39.5081 59.7307 39.6048C59.8671 39.7014 59.9806 39.8269 60.0632 39.9723C60.1458 40.1178 60.1955 40.2797 60.2088 40.4466C60.2221 40.6134 60.1986 40.7811 60.1401 40.9379C60.0816 41.0947 59.9894 41.2366 59.8701 41.3537C59.7508 41.4708 59.6073 41.5603 59.4497 41.6156L56.8168 43.139C56.6401 43.2322 56.4428 43.2794 56.2431 43.276Z" fill="#3C3C3C"/>
<path fill-rule="evenodd" clip-rule="evenodd" d="M61.5628 40.2066C61.3644 40.205 61.1697 40.1523 60.9974 40.0537C60.8251 39.955 60.6809 39.8136 60.5788 39.643C60.5055 39.5161 60.4579 39.3759 60.4388 39.2305C60.4198 39.0851 60.4296 38.9374 60.4677 38.7958C60.5059 38.6542 60.5716 38.5215 60.6611 38.4055C60.7505 38.2895 60.862 38.1924 60.9891 38.1197L63.6487 36.5964C63.9039 36.4879 64.1898 36.4764 64.4529 36.564C64.716 36.6516 64.9382 36.8323 65.078 37.0723C65.2177 37.3123 65.2654 37.5951 65.2121 37.8678C65.1588 38.1405 65.0082 38.3844 64.7885 38.5539L62.1289 40.0772C61.9566 40.1741 61.76 40.219 61.5628 40.2066Z" fill="#3C3C3C"/>
<path fill-rule="evenodd" clip-rule="evenodd" d="M66.882 37.1482C66.687 37.1472 66.4957 37.0946 66.3276 36.9956C66.1594 36.8966 66.0204 36.7548 65.9246 36.5846C65.7777 36.3239 65.7388 36.0158 65.8163 35.7266C65.8937 35.4375 66.0813 35.1903 66.3387 35.0384L68.9982 33.5151C69.2509 33.4241 69.5275 33.4255 69.7793 33.519C70.031 33.6125 70.2418 33.7921 70.3744 34.0261C70.507 34.26 70.553 34.5334 70.5042 34.798C70.4554 35.0627 70.3149 35.3015 70.1076 35.4725L67.4481 36.9959C67.2793 37.1033 67.0818 37.1565 66.882 37.1482Z" fill="#3C3C3C"/>
<path fill-rule="evenodd" clip-rule="evenodd" d="M75.4768 60.6381C75.2574 60.6393 75.0416 60.5816 74.8519 60.4712C74.6622 60.3607 74.5054 60.2014 74.3978 60.0098C74.2348 59.723 74.1912 59.3834 74.2766 59.0647C74.362 58.7459 74.5693 58.4738 74.8537 58.3075L99.3329 44.1482C99.4736 44.067 99.6288 44.0142 99.7899 43.9931C99.9509 43.972 100.114 43.9829 100.271 44.0252C100.428 44.0674 100.575 44.1402 100.704 44.2394C100.833 44.3386 100.941 44.4623 101.022 44.6033C101.103 44.7443 101.155 44.9 101.176 45.0614C101.197 45.2228 101.187 45.3868 101.144 45.544C101.102 45.7012 101.03 45.8485 100.931 45.9775C100.832 46.1066 100.708 46.2148 100.568 46.2961L76.0885 60.4667C75.9023 60.5749 75.6919 60.6339 75.4768 60.6381Z" fill="#3C3C3C"/>
<path fill-rule="evenodd" clip-rule="evenodd" d="M63.6875 58.1894L58.4064 61.2361C58.25 61.345 58.1188 61.4864 58.0217 61.6506C57.9247 61.8149 57.8641 61.9983 57.8441 62.1881V72.5962L65.8645 67.9501C66.1727 67.712 66.3747 67.3616 66.4268 66.9751V65.071L68.8774 59.8841V66.9714C68.8516 67.5978 68.6759 68.2089 68.3651 68.753C68.0543 69.2972 67.6176 69.7584 67.0917 70.098L58.4064 75.1478C58.0515 75.3492 57.6517 75.4579 57.2438 75.4638C56.9247 75.4669 56.6107 75.3826 56.3358 75.2201C56.0207 75.0337 55.7625 74.7646 55.5891 74.4417C55.4156 74.1188 55.3336 73.7546 55.3518 73.3883V62.1767C55.3754 61.5498 55.5507 60.9381 55.8624 60.3942C56.1741 59.8502 56.613 59.3903 57.1412 59.0539L65.5644 54.2402L63.6875 58.1894Z" fill="#3C3C3C"/>
<path fill-rule="evenodd" clip-rule="evenodd" d="M75.477 85.9665C75.2579 85.9684 75.0423 85.9115 74.8526 85.8017C74.6628 85.6918 74.5059 85.5331 74.398 85.3419C74.2349 85.0546 74.1912 84.7144 74.2765 84.395C74.3619 84.0757 74.5693 83.8029 74.8539 83.6358L99.3331 69.4728C99.4743 69.3867 99.6312 69.3299 99.7946 69.3055C99.958 69.2811 100.125 69.2898 100.285 69.3309C100.445 69.3721 100.595 69.4449 100.726 69.5452C100.858 69.6454 100.968 69.7709 101.05 69.9145C101.133 70.058 101.186 70.2166 101.206 70.3809C101.226 70.5452 101.214 70.712 101.169 70.8714C101.124 71.0307 101.047 71.1794 100.944 71.3088C100.841 71.4381 100.713 71.5454 100.568 71.6245L76.0887 85.7951C75.902 85.9018 75.6919 85.9607 75.477 85.9665Z" fill="#3C3C3C"/>
<path fill-rule="evenodd" clip-rule="evenodd" d="M63.6874 83.5185L58.4063 86.5651C58.2499 86.674 58.1187 86.8154 58.0216 86.9797C57.9246 87.144 57.864 87.3273 57.844 87.5172V97.9214L65.8644 93.2868C66.1726 93.0487 66.3746 92.6983 66.4267 92.3118V90.4077L68.8773 85.2208V92.3233C68.8518 92.9493 68.6762 93.5599 68.3654 94.1035C68.0546 94.6471 67.6176 95.1076 67.0916 95.446L58.4063 100.496C58.0523 100.7 57.6521 100.81 57.2437 100.816C56.9248 100.817 56.6113 100.733 56.3357 100.572C56.0209 100.385 55.7629 100.116 55.5895 99.7933C55.4161 99.4705 55.3339 99.1064 55.3517 98.7402V87.5286C55.3753 86.9018 55.5505 86.29 55.8623 85.7461C56.174 85.2021 56.6128 84.7422 57.1411 84.4058L65.5643 79.5579L63.6874 83.5185Z" fill="#3C3C3C"/>
<path fill-rule="evenodd" clip-rule="evenodd" d="M75.477 111.3C75.2581 111.301 75.0428 111.244 74.8532 111.134C74.6636 111.024 74.5065 110.866 74.398 110.675C74.2349 110.388 74.1912 110.048 74.2765 109.728C74.3619 109.409 74.5693 109.136 74.8539 108.969L99.3331 94.8097C99.4738 94.7285 99.6291 94.6757 99.7901 94.6546C99.9512 94.6335 100.115 94.6444 100.272 94.6867C100.428 94.7289 100.575 94.8017 100.704 94.9009C100.833 95.0001 100.941 95.1238 101.022 95.2648C101.103 95.4058 101.156 95.5615 101.177 95.7229C101.198 95.8843 101.187 96.0482 101.145 96.2054C101.103 96.3626 101.03 96.51 100.931 96.639C100.832 96.7681 100.709 96.8763 100.568 96.9576L76.0887 111.132C75.9016 111.237 75.6916 111.295 75.477 111.3Z" fill="#3C3C3C"/>
<path fill-rule="evenodd" clip-rule="evenodd" d="M63.6875 108.851L58.4064 111.898C58.2498 112.007 58.1186 112.149 58.0216 112.314C57.9246 112.479 57.8641 112.663 57.8441 112.854V123.258L65.8645 118.623C66.1714 118.384 66.3731 118.034 66.4268 117.648V115.744L68.8774 110.561V117.648C68.8516 118.274 68.6759 118.885 68.3651 119.428C68.0543 119.972 67.6175 120.432 67.0917 120.771L58.4064 125.836C58.0524 126.04 57.6522 126.15 57.2438 126.156C56.9248 126.157 56.6113 126.073 56.3357 125.912C56.0207 125.725 55.7625 125.455 55.5891 125.132C55.4157 124.808 55.3337 124.443 55.3517 124.077V112.869C55.3751 112.241 55.5502 111.629 55.8619 111.084C56.1736 110.54 56.6126 110.079 57.1412 109.742L65.5644 104.89L63.6875 108.851Z" fill="#3C3C3C"/>
<path fill-rule="evenodd" clip-rule="evenodd" d="M69.2309 105.831L63.5547 117.839C63.4538 118.053 63.2802 118.223 63.065 118.32C62.8499 118.417 62.6072 118.434 62.3807 118.368L59.687 117.584C58.418 117.203 59.0905 115.055 60.3594 115.421L62.2401 115.969L67.4338 104.982C67.9999 103.775 69.7894 104.647 69.2309 105.831Z" fill="url(#paint0_linear_637_7736)"/>
<path fill-rule="evenodd" clip-rule="evenodd" d="M69.2309 80.5174L63.5547 92.5212C63.4551 92.736 63.2816 92.9078 63.066 93.005C62.8504 93.1022 62.6072 93.1183 62.3807 93.0505L59.687 92.2889C58.418 91.908 59.0905 89.7563 60.3594 90.1257L62.2401 90.6703L67.4338 79.6834C67.9999 78.4457 69.7894 79.314 69.2309 80.5174Z" fill="url(#paint1_linear_637_7736)"/>
<path fill-rule="evenodd" clip-rule="evenodd" d="M69.2311 55.1688L63.5549 67.1878C63.4553 67.4028 63.282 67.5749 63.0666 67.6727C62.8512 67.7705 62.6079 67.7877 62.3809 67.721L59.6872 66.9364C58.4182 66.5556 59.0907 64.4039 60.3597 64.7733L62.2403 65.3217L67.434 54.3348C68.0001 53.0971 69.7896 53.9806 69.2311 55.1688Z" fill="url(#paint2_linear_637_7736)"/>
<path opacity="0.2" d="M125.95 161.281C135.461 161.281 143.171 158.515 143.171 155.102C143.171 151.689 135.461 148.922 125.95 148.922C116.44 148.922 108.73 151.689 108.73 155.102C108.73 158.515 116.44 161.281 125.95 161.281Z" fill="black"/>
<path fill-rule="evenodd" clip-rule="evenodd" d="M115.833 102.743L114.093 100.291L110.354 102.906L108.67 104.458L113.318 104.958L115.833 102.743Z" fill="white"/>
<path fill-rule="evenodd" clip-rule="evenodd" d="M114.524 102.585L113.856 101.645L110.977 103.659L110.921 103.715L112.992 103.934L114.524 102.585ZM114.889 99.7224L116.573 102.123C116.732 102.32 116.809 102.571 116.788 102.824C116.767 103.076 116.65 103.311 116.461 103.479L113.941 105.694C113.839 105.784 113.719 105.852 113.59 105.894C113.46 105.935 113.324 105.95 113.188 105.936L108.558 105.43C108.372 105.409 108.196 105.336 108.05 105.219C107.905 105.101 107.796 104.944 107.737 104.767C107.678 104.589 107.671 104.398 107.717 104.217C107.763 104.035 107.86 103.871 107.996 103.743L109.68 102.197L109.781 102.112L113.48 99.5256H113.514C113.617 99.4466 113.734 99.389 113.859 99.3561C113.984 99.3232 114.115 99.3157 114.243 99.334C114.371 99.3523 114.494 99.3961 114.605 99.4628C114.716 99.5295 114.813 99.6178 114.889 99.7224Z" fill="#3C3C3C"/>
<path fill-rule="evenodd" clip-rule="evenodd" d="M131.476 150.869C131.701 150.795 131.896 150.652 132.035 150.46C132.173 150.268 132.248 150.037 132.248 149.8C132.248 149.564 132.173 149.333 132.035 149.141C131.896 148.949 131.701 148.806 131.476 148.732C130.904 148.44 130.271 148.288 129.629 148.288C128.987 148.288 128.355 148.44 127.783 148.732L122.933 151.544C122.71 151.619 122.517 151.762 122.38 151.953C122.243 152.144 122.169 152.374 122.169 152.609C122.169 152.844 122.243 153.074 122.38 153.265C122.517 153.456 122.71 153.599 122.933 153.675C123.505 153.967 124.138 154.119 124.78 154.119C125.421 154.119 126.054 153.967 126.626 153.675L131.476 150.869Z" fill="white"/>
<path fill-rule="evenodd" clip-rule="evenodd" d="M130.987 150.021C131.085 149.966 131.173 149.893 131.246 149.807C131.174 149.72 131.087 149.647 130.987 149.593C130.813 149.491 130.623 149.415 130.426 149.369C129.916 149.256 129.387 149.256 128.877 149.369C128.68 149.415 128.49 149.491 128.316 149.593L128.259 149.622L123.46 152.399C123.36 152.451 123.272 152.524 123.202 152.613C123.276 152.7 123.365 152.773 123.466 152.827H123.505C123.682 152.918 123.871 152.984 124.066 153.024C124.577 153.136 125.105 153.136 125.616 153.024C125.812 152.976 126.001 152.902 126.177 152.804L131.027 149.993L130.987 150.021ZM132.84 150.949C132.603 151.265 132.303 151.527 131.958 151.719L127.109 154.531C126.759 154.731 126.38 154.877 125.986 154.964C125.585 155.059 125.175 155.108 124.762 155.11C124.349 155.108 123.936 155.059 123.533 154.964C123.17 154.878 122.819 154.746 122.489 154.57L122.428 154.531C122.084 154.341 121.786 154.081 121.552 153.766C121.309 153.441 121.173 153.047 121.165 152.641C121.165 152.262 121.278 151.892 121.49 151.578C121.49 151.545 121.529 151.517 121.546 151.488C121.783 151.177 122.081 150.917 122.422 150.724L127.221 147.952L127.272 147.918C127.623 147.719 128.001 147.573 128.394 147.485C129.199 147.297 130.036 147.297 130.841 147.485C131.235 147.573 131.613 147.719 131.964 147.918C132.306 148.109 132.604 148.369 132.84 148.683C133.083 149.007 133.219 149.401 133.227 149.807C133.222 150.185 133.109 150.554 132.901 150.87L132.84 150.949Z" fill="#3C3C3C"/>
<path fill-rule="evenodd" clip-rule="evenodd" d="M141.703 156.657C141.925 156.581 142.119 156.438 142.256 156.247C142.393 156.056 142.466 155.826 142.466 155.591C142.466 155.356 142.393 155.126 142.256 154.935C142.119 154.744 141.925 154.601 141.703 154.525C141.132 154.233 140.5 154.081 139.859 154.081C139.218 154.081 138.586 154.233 138.015 154.525L133.159 157.337C132.937 157.412 132.743 157.555 132.606 157.747C132.469 157.938 132.396 158.167 132.396 158.403C132.396 158.638 132.469 158.867 132.606 159.058C132.743 159.25 132.937 159.393 133.159 159.468C133.731 159.76 134.364 159.912 135.006 159.912C135.648 159.912 136.281 159.76 136.853 159.468L141.703 156.657Z" fill="white"/>
<path fill-rule="evenodd" clip-rule="evenodd" d="M141.214 155.806C141.315 155.756 141.404 155.683 141.472 155.593C141.401 155.506 141.314 155.435 141.214 155.385C141.038 155.283 140.849 155.208 140.653 155.16C140.399 155.102 140.139 155.073 139.878 155.075C139.619 155.073 139.361 155.101 139.109 155.16C138.912 155.206 138.722 155.282 138.548 155.385H138.492L133.692 158.157C133.596 158.212 133.511 158.284 133.44 158.37C133.509 158.46 133.597 158.533 133.698 158.584H133.737C133.916 158.674 134.104 158.742 134.299 158.786C134.809 158.899 135.338 158.899 135.848 158.786C136.044 158.738 136.233 158.662 136.409 158.562L141.259 155.75L141.214 155.806ZM143.066 156.74C142.833 157.055 142.535 157.316 142.191 157.504L137.341 160.316C136.989 160.512 136.611 160.658 136.218 160.749C135.815 160.844 135.403 160.893 134.989 160.895C134.577 160.894 134.166 160.845 133.765 160.749C133.401 160.663 133.05 160.529 132.721 160.35L132.654 160.316C132.312 160.125 132.014 159.865 131.778 159.551C131.536 159.226 131.401 158.833 131.391 158.427C131.396 158.048 131.511 157.678 131.722 157.364L131.773 157.279C132.009 156.965 132.31 156.704 132.654 156.515L137.448 153.737L137.498 153.709C137.849 153.51 138.227 153.364 138.621 153.276C139.427 153.081 140.268 153.081 141.074 153.276C141.467 153.364 141.845 153.51 142.196 153.709C142.54 153.897 142.839 154.158 143.072 154.474C143.315 154.799 143.45 155.192 143.459 155.598C143.459 155.977 143.345 156.347 143.134 156.661C143.114 156.69 143.091 156.716 143.066 156.74Z" fill="#3C3C3C"/>
<path fill-rule="evenodd" clip-rule="evenodd" d="M128.513 104.923C127.822 105.192 127.229 105.663 126.81 106.275C126.391 106.887 126.167 107.611 126.166 108.353C126.161 108.456 126.161 108.56 126.166 108.663L126.206 128.906C126.206 135.187 126.767 142.058 127.008 148.395C127.029 148.625 127.111 148.846 127.245 149.033C127.379 149.221 127.561 149.37 127.772 149.464C128.345 149.752 128.977 149.902 129.618 149.902C130.26 149.902 130.892 149.752 131.465 149.464C131.675 149.369 131.856 149.22 131.99 149.032C132.124 148.845 132.206 148.625 132.228 148.395C132.228 141.878 132.29 135.361 132.29 128.844L133.89 115.978L135.911 117.103L136.438 134.681C136.668 141.17 136.971 147.676 137.235 154.165C137.257 154.395 137.339 154.616 137.474 154.804C137.61 154.992 137.793 155.14 138.004 155.233C138.575 155.525 139.207 155.678 139.848 155.678C140.489 155.678 141.121 155.525 141.692 155.233C141.903 155.14 142.085 154.991 142.219 154.803C142.353 154.615 142.435 154.395 142.455 154.165C142.455 147.653 142.517 141.136 142.517 134.619L143.707 114.432C143.712 114.331 143.712 114.229 143.707 114.128C143.707 111.935 142.349 111.232 140.749 110.321L135.54 107.369L131.836 105.272C131.344 104.967 130.789 104.777 130.214 104.717C129.639 104.657 129.057 104.727 128.513 104.923Z" fill="white"/>
<path fill-rule="evenodd" clip-rule="evenodd" d="M128.862 105.841C128.357 106.039 127.924 106.385 127.617 106.833C127.311 107.281 127.146 107.811 127.144 108.354V108.472V108.585C127.15 108.637 127.15 108.69 127.144 108.742L127.189 128.907C127.189 133.135 127.431 137.566 127.666 141.93C127.784 144.078 127.902 146.214 127.986 148.357V148.396C128.06 148.483 128.15 148.556 128.25 148.61H128.289C128.467 148.701 128.656 148.767 128.851 148.807C129.361 148.919 129.89 148.919 130.4 148.807C130.596 148.76 130.785 148.686 130.961 148.587C131.058 148.53 131.145 148.458 131.219 148.374C131.219 145.945 131.219 143.538 131.219 141.126C131.219 137.493 131.253 133.877 131.253 128.839C131.25 128.788 131.25 128.738 131.253 128.687L132.847 115.85C132.863 115.719 132.905 115.593 132.97 115.478C133.036 115.364 133.123 115.264 133.228 115.184C133.333 115.105 133.452 115.047 133.58 115.014C133.707 114.982 133.84 114.975 133.97 114.995C134.129 115.015 134.281 115.073 134.413 115.164L136.35 116.288C136.497 116.371 136.621 116.491 136.708 116.635C136.796 116.78 136.845 116.946 136.849 117.115L137.377 134.676C137.528 138.972 137.714 143.33 137.904 147.688L138.18 154.166V154.199C138.25 154.288 138.338 154.361 138.438 154.413H138.477C138.653 154.509 138.842 154.577 139.038 154.615C139.29 154.674 139.549 154.702 139.807 154.7C140.068 154.702 140.328 154.673 140.582 154.615C140.779 154.568 140.968 154.492 141.143 154.39C141.245 154.34 141.333 154.267 141.401 154.177C141.401 151.748 141.401 149.335 141.429 146.917C141.429 143.29 141.429 139.664 141.429 134.648C141.426 134.607 141.426 134.565 141.429 134.524L142.614 114.382V114.27V114.157C142.614 112.594 141.553 111.992 140.284 111.278L140.155 111.205L131.253 106.144C130.842 105.906 130.388 105.749 129.917 105.683C129.512 105.63 129.101 105.683 128.722 105.835L128.862 105.841ZM125.994 105.728C126.53 104.962 127.282 104.375 128.155 104.041C128.832 103.774 129.565 103.679 130.288 103.766C131.008 103.863 131.704 104.098 132.336 104.457C135.328 106.105 138.297 107.831 141.267 109.518L141.39 109.586C143.209 110.615 144.719 111.475 144.719 114.174V114.562L143.534 134.665C143.534 137.83 143.534 142.385 143.495 146.945C143.495 149.369 143.495 151.798 143.467 154.211C143.467 154.589 143.353 154.959 143.141 155.273C143.126 155.305 143.107 155.335 143.085 155.363C142.852 155.679 142.554 155.94 142.21 156.128C141.858 156.326 141.48 156.472 141.087 156.561C140.281 156.756 139.44 156.756 138.634 156.561C138.27 156.476 137.919 156.341 137.59 156.162L137.523 156.128C137.18 155.94 136.883 155.679 136.653 155.363C136.412 155.037 136.279 154.644 136.271 154.239C136.187 152.181 136.091 149.999 135.996 147.811C135.811 143.487 135.626 139.169 135.474 134.788L134.963 117.756L134.694 117.604L133.285 128.963C133.285 132.112 133.285 136.661 133.246 141.193C133.246 143.615 133.246 146.034 133.246 148.452C133.241 148.831 133.128 149.199 132.92 149.515L132.864 149.6C132.626 149.914 132.326 150.177 131.983 150.37C131.631 150.566 131.253 150.71 130.86 150.797C130.056 150.992 129.217 150.992 128.413 150.797C128.047 150.713 127.694 150.581 127.363 150.404L127.302 150.37C126.959 150.177 126.661 149.915 126.426 149.6C126.183 149.274 126.047 148.881 126.039 148.475C125.954 146.439 125.837 144.28 125.719 142.11C125.477 137.673 125.23 133.169 125.23 128.985C125.23 122.237 125.421 115.141 125.174 108.433C125.16 107.468 125.446 106.522 125.994 105.728Z" fill="#3C3C3C"/>
<path fill-rule="evenodd" clip-rule="evenodd" d="M135.99 77.6795C135.483 78.0415 134.898 78.2777 134.282 78.3686C133.666 78.4595 133.037 78.4026 132.448 78.2025C131.387 77.7808 131.252 76.8642 132.145 76.1501C132.654 75.7914 133.241 75.5578 133.857 75.4679C134.473 75.3781 135.102 75.4345 135.692 75.6327C136.753 76.0544 136.888 76.971 135.99 77.6795Z" fill="white"/>
<path fill-rule="evenodd" clip-rule="evenodd" d="M136.595 78.4499C135.956 78.9151 135.213 79.2184 134.431 79.3339C133.649 79.4495 132.851 79.3738 132.105 79.1134C131.669 78.9558 131.282 78.6862 130.982 78.3318C130.774 78.0692 130.637 77.7575 130.584 77.4265C130.539 77.0951 130.581 76.7577 130.707 76.448C130.884 76.0271 131.169 75.6605 131.532 75.3852C132.17 74.9069 132.92 74.601 133.71 74.4968C134.495 74.3677 135.299 74.4451 136.045 74.7217C136.482 74.8743 136.87 75.1425 137.168 75.4977C137.38 75.7581 137.518 76.0714 137.566 76.4042C137.615 76.737 137.572 77.0767 137.443 77.3871C137.267 77.8084 136.982 78.1752 136.618 78.4499H136.595ZM134.125 77.4208C134.575 77.3706 135.004 77.2061 135.372 76.9429C135.456 76.8834 135.527 76.8068 135.579 76.7179C135.504 76.6515 135.416 76.6016 135.321 76.5717C134.89 76.4359 134.434 76.3993 133.987 76.4645C133.54 76.5297 133.113 76.6952 132.739 76.9485C132.657 77.0077 132.586 77.0821 132.531 77.1678C132.609 77.2342 132.699 77.2856 132.795 77.3196C133.223 77.4667 133.681 77.5016 134.125 77.4208Z" fill="#3C3C3C"/>
<path fill-rule="evenodd" clip-rule="evenodd" d="M131.997 81.1992C133.311 78.3876 127.636 75.9022 126.014 79.4448L121.411 93.6544L113.75 99.9411C111.813 101.532 114.03 103.995 115.613 102.888L123.948 97.0452C124.593 96.673 125.096 96.0976 125.38 95.4088L131.997 81.1992Z" fill="url(#paint3_linear_637_7736)"/>
<path fill-rule="evenodd" clip-rule="evenodd" d="M131.112 80.7948C131.205 80.5596 131.218 80.3003 131.15 80.0566C131.083 79.8129 130.937 79.5982 130.736 79.4452C130.505 79.2352 130.241 79.0643 129.955 78.9391C129.649 78.8068 129.323 78.7251 128.99 78.6974C128.572 78.6442 128.148 78.7242 127.779 78.9261C127.409 79.128 127.112 79.4415 126.93 79.822L122.254 94.2621L114.396 100.729C114.261 100.814 114.153 100.937 114.085 101.083C114.017 101.229 113.993 101.391 114.015 101.55C114.043 101.664 114.095 101.771 114.166 101.864C114.243 101.964 114.338 102.048 114.447 102.112C114.539 102.175 114.649 102.208 114.761 102.208C114.873 102.208 114.983 102.175 115.075 102.112C117.882 100.144 120.688 98.1758 123.495 96.2021C123.951 95.9291 124.306 95.5145 124.505 95.0212L131.123 80.8117L131.112 80.7948ZM132.066 77.9832C132.587 78.407 132.951 78.9937 133.099 79.6492C133.248 80.3048 133.173 80.9913 132.885 81.5989L126.268 95.8253C125.935 96.6462 125.344 97.3354 124.584 97.7878L116.164 103.692C115.768 103.976 115.298 104.136 114.811 104.152C114.325 104.168 113.844 104.039 113.431 103.782C113.099 103.588 112.809 103.33 112.578 103.023C112.337 102.709 112.167 102.346 112.078 101.96C111.956 101.44 111.991 100.895 112.178 100.395C112.365 99.8947 112.695 99.461 113.128 99.1486L120.565 93.0475L125.089 79.0741L125.123 79.0122C125.451 78.2422 126.021 77.6002 126.746 77.1833C127.471 76.7664 128.312 76.5971 129.142 76.7012C129.688 76.7492 130.222 76.8859 130.724 77.106C131.218 77.3196 131.672 77.6163 132.066 77.9832Z" fill="#3C3C3C"/>
<path fill-rule="evenodd" clip-rule="evenodd" d="M126.598 108.095C125.896 107.69 125.599 107.133 125.711 106.605V80.6428C125.975 78.2755 129.455 76.2624 130.982 77.1452L138.424 81.4526L141.18 83.0439C142.342 83.6961 143.824 85.0851 143.858 86.7214V113.515C143.897 113.676 143.897 113.844 143.858 114.005V114.117C143.745 114.454 144.178 114.758 143.347 115.242C142.516 115.725 140.176 115.945 138.958 115.242L126.609 108.112L126.598 108.095Z" fill="url(#paint4_linear_637_7736)"/>
<path fill-rule="evenodd" clip-rule="evenodd" d="M126.189 108.99C126.128 108.962 126.069 108.928 126.015 108.889C125.609 108.648 125.267 108.315 125.016 107.916C124.764 107.504 124.663 107.017 124.729 106.538V80.6719C124.724 80.612 124.724 80.5517 124.729 80.4919C124.812 79.9494 125.003 79.4292 125.291 78.9624C125.85 78.0295 126.639 77.2552 127.581 76.7132C128.445 76.1786 129.451 75.9198 130.466 75.971C130.824 76.0118 131.171 76.1225 131.487 76.2971L141.669 82.1901C142.547 82.6891 143.311 83.365 143.915 84.1751C144.476 84.9022 144.798 85.7867 144.835 86.7054V113.41C144.857 113.53 144.869 113.652 144.869 113.775C144.868 113.886 144.858 113.997 144.841 114.107C144.841 114.19 144.83 114.274 144.807 114.354C144.886 114.877 144.897 115.434 143.808 116.041C142.942 116.442 141.994 116.634 141.041 116.604C140.143 116.639 139.251 116.445 138.447 116.041L126.189 108.956V108.99ZM126.694 106.909C126.781 107.03 126.891 107.132 127.019 107.207C127.071 107.23 127.12 107.258 127.165 107.292L139.419 114.377C139.926 114.611 140.482 114.72 141.041 114.692C141.653 114.72 142.265 114.613 142.831 114.377V114.557C142.831 114.5 142.831 114.444 142.831 114.388C142.81 114.218 142.823 114.046 142.87 113.882C142.878 113.85 142.887 113.818 142.899 113.786V113.741C142.878 113.668 142.868 113.592 142.87 113.516V86.7448C142.832 86.2262 142.636 85.7319 142.309 85.3278C141.867 84.7468 141.312 84.2627 140.676 83.9052C137.594 81.8583 133.71 79.8734 130.466 77.9953C130.386 77.9575 130.301 77.9346 130.213 77.9278C129.616 77.9164 129.03 78.0848 128.529 78.4114C127.885 78.7708 127.344 79.2896 126.958 79.9183C126.816 80.1553 126.719 80.4165 126.671 80.6888V106.606C126.68 106.673 126.68 106.741 126.671 106.808C126.668 106.843 126.676 106.879 126.694 106.909Z" fill="#3C3C3C"/>
<path fill-rule="evenodd" clip-rule="evenodd" d="M137.285 76.8862H132.234L131.858 81.7164C131.855 81.7651 131.855 81.8139 131.858 81.8626C131.881 82.1193 131.973 82.3651 132.123 82.5746C132.273 82.7842 132.476 82.9499 132.711 83.0547C133.349 83.3819 134.056 83.5526 134.774 83.5526C135.491 83.5526 136.198 83.3819 136.836 83.0547C137.073 82.9512 137.277 82.7859 137.428 82.5762C137.579 82.3665 137.672 82.1201 137.695 81.8626C137.698 81.8139 137.698 81.7651 137.695 81.7164L137.285 76.8862Z" fill="white"/>
<path fill-rule="evenodd" clip-rule="evenodd" d="M136.371 77.8709H133.116L132.813 81.807V81.8801C132.813 81.8801 132.813 81.9194 132.852 81.9588C132.941 82.0701 133.052 82.162 133.177 82.2288C133.668 82.4654 134.205 82.5883 134.749 82.5883C135.293 82.5883 135.83 82.4654 136.321 82.2288C136.445 82.1603 136.556 82.0686 136.646 81.9588C136.663 81.9354 136.675 81.9085 136.68 81.8801V81.807L136.382 77.8709H136.371ZM132.212 75.9084H138.184L138.622 81.599C138.627 81.687 138.627 81.7752 138.622 81.8633C138.62 82.3026 138.478 82.7298 138.218 83.0834C137.969 83.4223 137.649 83.7025 137.28 83.9044C136.494 84.3182 135.618 84.5343 134.729 84.5343C133.841 84.5343 132.965 84.3182 132.178 83.9044C131.81 83.7025 131.49 83.4223 131.241 83.0834C130.981 82.7298 130.839 82.3026 130.837 81.8633C130.837 81.8239 130.837 81.7789 130.837 81.7171C130.839 81.6796 130.839 81.642 130.837 81.6045L131.28 75.9084H132.212Z" fill="#3C3C3C"/>
<path fill-rule="evenodd" clip-rule="evenodd" d="M131.966 65.8659L132.909 65.7253C133.478 65.6355 134.059 65.6604 134.618 65.7986C135.178 65.9368 135.704 66.1856 136.166 66.5302C136.628 66.8748 137.017 67.3084 137.31 67.8056C137.602 68.3027 137.793 68.8534 137.87 69.4254L138.432 74.7448C138.579 75.8914 138.277 77.0506 137.588 77.978C136.899 78.9054 135.877 79.5283 134.738 79.7157L134.267 79.7888C133.124 79.9267 131.972 79.6197 131.049 78.9311C130.125 78.2426 129.501 77.2251 129.305 76.0888L128.283 70.8368C128.191 70.2672 128.214 69.6849 128.35 69.1242C128.487 68.5636 128.734 68.036 129.077 67.5726C129.42 67.1092 129.853 66.7195 130.349 66.4263C130.845 66.1332 131.395 65.9426 131.966 65.8659Z" fill="white"/>
<path fill-rule="evenodd" clip-rule="evenodd" d="M131.824 64.8928L132.767 64.7522H132.992C134.337 64.6133 135.685 64.9801 136.775 65.7813C137.324 66.1779 137.787 66.6808 138.138 67.2604C138.489 67.84 138.72 68.4843 138.818 69.1551C138.818 69.2001 138.818 69.2732 138.846 69.3632L139.407 74.6882C139.55 76.0872 139.17 77.4896 138.341 78.6244C137.93 79.1818 137.413 79.6522 136.819 80.0084C136.226 80.3645 135.568 80.5993 134.883 80.6992L134.412 80.7723C133.73 80.8728 133.035 80.8365 132.367 80.6657C131.7 80.4948 131.072 80.1927 130.522 79.777C129.389 78.9264 128.613 77.6836 128.344 76.2908L127.323 71.0332C127.323 70.9489 127.323 70.8757 127.284 70.8083C127.191 70.1426 127.232 69.4651 127.403 68.8154C127.575 68.1657 127.874 67.5567 128.283 67.0239C129.092 65.9481 130.269 65.2093 131.589 64.949L131.836 64.904L131.824 64.8928ZM133.048 66.6978L132.111 66.8384H131.953C131.109 67.0073 130.356 67.4816 129.837 68.1711C129.585 68.4963 129.401 68.8689 129.295 69.2668C129.188 69.6647 129.163 70.0799 129.22 70.4878C129.22 70.5384 129.22 70.589 129.22 70.6284L130.242 75.8803C130.416 76.7914 130.92 77.6061 131.656 78.1689C132.002 78.4304 132.397 78.6203 132.817 78.7275C133.237 78.8346 133.674 78.8569 134.103 78.793L134.575 78.72C135.004 78.6589 135.417 78.5125 135.789 78.2895C136.161 78.0664 136.485 77.7711 136.741 77.421C137.288 76.6724 137.535 75.7452 137.432 74.8231L136.87 69.5037V69.3743C136.805 68.9645 136.659 68.5717 136.441 68.2185C136.224 67.8653 135.938 67.5587 135.602 67.3164C134.905 66.8036 134.043 66.5691 133.183 66.6584L133.048 66.6978Z" fill="#3C3C3C"/>
<path fill-rule="evenodd" clip-rule="evenodd" d="M115.934 105.239L124.095 109.962L114.138 108.883L105.976 104.165L115.934 105.239Z" fill="#F9FAFE"/>
<path fill-rule="evenodd" clip-rule="evenodd" d="M116.451 104.412L124.59 109.119C124.786 109.23 124.938 109.407 125.019 109.618C125.1 109.829 125.106 110.061 125.035 110.276C124.964 110.491 124.821 110.674 124.631 110.796C124.44 110.917 124.214 110.968 123.99 110.941L114.038 109.867C113.878 109.851 113.726 109.795 113.594 109.704L105.495 105.019C105.383 104.956 105.285 104.871 105.206 104.769C105.127 104.667 105.069 104.551 105.035 104.426C105.001 104.302 104.992 104.172 105.008 104.044C105.024 103.916 105.066 103.793 105.13 103.681C105.226 103.517 105.367 103.385 105.536 103.299C105.705 103.213 105.895 103.178 106.084 103.197L116.042 104.271C116.187 104.287 116.327 104.335 116.451 104.412ZM119.589 108.495L115.626 106.2L110.479 105.638L114.447 107.932L119.589 108.495Z" fill="#3C3C3C"/>
<path fill-rule="evenodd" clip-rule="evenodd" d="M122.299 103.074L119.964 102.984L118.841 104.603L115.153 106.144C115.361 106.509 115.765 107.212 116.158 107.089C118.6 106.318 117.584 107.848 119.268 107.612C121.608 107.28 121.687 107.016 124.679 105.565L123.915 102.658L122.299 103.074Z" fill="white"/>
<path fill-rule="evenodd" clip-rule="evenodd" d="M122.186 104.052L120.468 103.985L119.677 105.154C119.569 105.311 119.419 105.434 119.244 105.509L118.082 105.992C118.371 106.123 118.627 106.315 118.835 106.555C118.88 106.605 118.924 106.65 119.16 106.616C120.421 106.487 121.637 106.082 122.724 105.43L123.555 105.014L123.246 103.827L122.539 104.002C122.422 104.024 122.302 104.024 122.186 104.002V104.052ZM119.996 102.005L122.186 102.09L123.701 101.702C123.952 101.639 124.217 101.677 124.44 101.808C124.663 101.94 124.825 102.154 124.891 102.405L125.649 105.301C125.705 105.519 125.685 105.75 125.591 105.955C125.497 106.16 125.335 106.326 125.132 106.425C124.509 106.729 124.01 106.988 123.606 107.184C122.33 107.942 120.905 108.412 119.43 108.562C119.065 108.664 118.678 108.655 118.319 108.537C117.959 108.419 117.642 108.197 117.409 107.899C117.336 107.825 117.269 107.752 116.477 108.005C116.184 108.09 115.873 108.081 115.585 107.98C115.298 107.88 115.048 107.692 114.872 107.443C114.658 107.191 114.47 106.917 114.31 106.628L114.26 106.527C114.21 106.408 114.185 106.28 114.184 106.151C114.184 106.022 114.209 105.895 114.258 105.776C114.307 105.657 114.379 105.548 114.47 105.457C114.561 105.366 114.669 105.294 114.788 105.244L118.206 103.816L119.11 102.478C119.202 102.327 119.333 102.204 119.489 102.121C119.645 102.038 119.82 101.998 119.996 102.005Z" fill="#3C3C3C"/>
<path fill-rule="evenodd" clip-rule="evenodd" d="M137.494 86.1985L143.354 88.504L136.568 102.449C136.439 102.766 136.237 103.047 135.978 103.27C135.72 103.493 135.412 103.651 135.08 103.731L134.918 103.765L124.382 105.885C124.154 105.937 123.918 105.946 123.686 105.913C123.29 105.848 122.928 105.648 122.663 105.345C122.397 105.043 122.245 104.658 122.232 104.256C122.218 103.853 122.345 103.459 122.59 103.14C122.835 102.821 123.182 102.596 123.574 102.506L132.908 99.8851L137.494 86.1985Z" fill="url(#paint5_linear_637_7736)"/>
<path fill-rule="evenodd" clip-rule="evenodd" d="M142.686 85.9283C142.633 85.8112 142.603 85.6848 142.598 85.5562C142.594 85.4276 142.614 85.2993 142.659 85.1786C142.704 85.058 142.772 84.9475 142.86 84.8532C142.947 84.759 143.052 84.6828 143.169 84.6293C143.286 84.5758 143.412 84.5458 143.541 84.5412C143.669 84.5365 143.797 84.5572 143.917 84.6021C144.038 84.647 144.148 84.7153 144.242 84.8029C144.336 84.8905 144.412 84.9959 144.466 85.113C144.698 85.6242 144.826 86.1766 144.842 86.738C144.853 87.2942 144.752 87.8471 144.544 88.363C144.499 88.4699 144.449 88.5824 144.387 88.7005C144.325 88.8186 144.292 88.8748 144.247 88.9535L137.494 102.876C137.304 103.308 137.02 103.692 136.664 104.001C136.286 104.326 135.835 104.556 135.35 104.67L135.238 104.704L124.663 106.829C124.479 106.874 124.291 106.901 124.102 106.908C123.914 106.915 123.726 106.904 123.54 106.874C122.922 106.771 122.359 106.458 121.945 105.986C121.531 105.515 121.293 104.914 121.271 104.287C121.248 103.66 121.443 103.044 121.822 102.544C122.201 102.044 122.74 101.691 123.349 101.544L132.156 99.0751L135.098 90.2862C135.138 90.1643 135.203 90.0517 135.287 89.9548C135.372 89.858 135.474 89.7787 135.589 89.7215C135.704 89.6644 135.829 89.6304 135.957 89.6217C136.085 89.6129 136.214 89.6295 136.335 89.6705C136.457 89.7114 136.569 89.776 136.666 89.8605C136.763 89.945 136.842 90.0478 136.899 90.1629C136.956 90.278 136.99 90.4032 136.999 90.5315C137.007 90.6597 136.991 90.7885 136.95 90.9103L133.677 100.683C130.388 101.605 127.099 102.556 123.804 103.455C123.658 103.49 123.526 103.566 123.422 103.675C123.322 103.785 123.256 103.921 123.232 104.068C123.215 104.166 123.217 104.266 123.239 104.362C123.261 104.459 123.302 104.55 123.36 104.631C123.417 104.711 123.49 104.779 123.574 104.832C123.658 104.884 123.751 104.919 123.849 104.934C123.901 104.943 123.954 104.943 124.006 104.934C124.053 104.942 124.1 104.942 124.146 104.934C127.621 104.305 131.314 103.568 134.766 102.798H134.806C134.89 102.798 134.806 102.798 134.851 102.798C135.03 102.754 135.196 102.667 135.333 102.545C135.476 102.425 135.588 102.272 135.659 102.1V102.033L142.462 88.0594L142.501 87.9976C142.539 87.9437 142.572 87.8873 142.602 87.8289L142.681 87.6545C142.79 87.3791 142.843 87.0848 142.838 86.7886C142.849 86.4943 142.797 86.2011 142.686 85.9283Z" fill="#3C3C3C"/>
<path fill-rule="evenodd" clip-rule="evenodd" d="M130.117 114.894C129.993 114.837 129.882 114.756 129.791 114.654C129.7 114.552 129.632 114.432 129.59 114.302C129.548 114.172 129.534 114.035 129.548 113.899C129.563 113.763 129.605 113.632 129.674 113.513C129.742 113.395 129.834 113.292 129.944 113.212C130.054 113.131 130.18 113.075 130.313 113.046C130.447 113.017 130.584 113.016 130.718 113.044C130.851 113.072 130.978 113.127 131.089 113.207L136.41 116.283C136.611 116.423 136.752 116.634 136.805 116.873C136.858 117.113 136.819 117.364 136.696 117.576C136.573 117.789 136.375 117.947 136.141 118.02C135.907 118.093 135.654 118.075 135.433 117.969L130.117 114.894Z" fill="#3C3C3C"/>
<path fill-rule="evenodd" clip-rule="evenodd" d="M131.593 65.1575L132.53 65.0057C133.098 64.9072 133.68 64.9233 134.242 65.0531C134.803 65.1829 135.334 65.4238 135.801 65.7617C136.268 66.0995 136.664 66.5275 136.964 67.0205C137.264 67.5135 137.463 68.0616 137.548 68.6326C137.891 71.5342 139.496 76.7862 136.987 78.9792C136.459 79.406 135.845 79.7146 135.188 79.8843C134.53 80.0541 133.844 80.081 133.176 79.9633C130.487 79.4572 129.73 78.8387 129.101 75.6953C132.087 75.133 134.371 76.505 135.034 76.7244C135.134 76.7462 135.237 76.7427 135.335 76.7143C135.433 76.6858 135.523 76.6332 135.595 76.5613C135.671 76.4904 135.73 76.4026 135.766 76.3049C135.802 76.2073 135.815 76.1024 135.803 75.9989L135.101 70.179C131.627 71.1687 127.046 70.2858 125.991 66.5914C127.832 67.0582 129.926 65.433 131.593 65.1575Z" fill="white"/>
<path fill-rule="evenodd" clip-rule="evenodd" d="M131.438 64.19L132.381 64.0381H132.6C133.943 63.8788 135.297 64.2256 136.4 65.011C136.952 65.3971 137.422 65.89 137.782 66.4607C138.141 67.0314 138.383 67.6684 138.493 68.3342V68.5423C138.561 69.1046 138.667 69.7119 138.785 70.3866C139.346 73.5356 140.048 77.6067 137.629 79.7435C136.997 80.2814 136.25 80.6662 135.445 80.8681C134.644 81.0771 133.808 81.1097 132.993 80.9637C131.449 80.677 130.439 80.3339 129.659 79.5467C128.878 78.7595 128.485 77.6967 128.132 75.9254C128.089 75.6746 128.145 75.4168 128.289 75.2069C128.432 74.9969 128.652 74.8512 128.901 74.8008H128.934C130.923 74.4607 132.968 74.7516 134.783 75.633L134.278 71.4325C132.474 71.7574 130.617 71.5964 128.895 70.9658C127.982 70.6426 127.158 70.1064 126.493 69.4014C125.827 68.6965 125.339 67.8431 125.067 66.9116C124.998 66.6611 125.031 66.3933 125.158 66.1668C125.285 65.9403 125.497 65.7734 125.746 65.7026C125.929 65.6441 126.125 65.6441 126.308 65.7026C127.11 65.8994 128.177 65.444 129.198 65.011C129.914 64.6716 130.668 64.4186 131.443 64.2575L131.438 64.19ZM132.695 65.9782L131.752 66.13C131.139 66.2716 130.542 66.479 129.973 66.7485C129.213 67.1044 128.417 67.3777 127.599 67.5638C128.124 68.2451 128.83 68.7652 129.636 69.0652C131.324 69.6664 133.159 69.7195 134.879 69.2171L135.03 69.1889C135.158 69.1732 135.287 69.1829 135.411 69.2173C135.535 69.2518 135.65 69.3104 135.752 69.3898C135.853 69.4692 135.937 69.5679 136 69.6801C136.063 69.7922 136.104 69.9158 136.119 70.0436L136.821 75.8635C136.85 76.1216 136.821 76.3828 136.736 76.6283C136.645 76.8792 136.496 77.1048 136.301 77.2866C136.106 77.4684 135.87 77.6013 135.614 77.6742C135.332 77.7613 135.031 77.7613 134.749 77.6742C134.598 77.6236 134.418 77.5449 134.188 77.4493C132.98 76.8546 131.65 76.5503 130.304 76.5608C130.423 77.1458 130.688 77.6912 131.073 78.1466C131.5 78.5852 132.196 78.8044 133.363 79.0181C133.901 79.1121 134.453 79.0871 134.98 78.945C135.482 78.8264 135.951 78.5936 136.349 78.2646C137.949 76.8532 137.343 73.3838 136.877 70.7072C136.753 69.9987 136.635 69.3351 136.568 68.7672V68.6379C136.499 68.2287 136.35 67.8373 136.128 67.4868C135.906 67.1362 135.617 66.8336 135.277 66.5967C134.572 66.0951 133.706 65.8728 132.847 65.9725L132.695 65.9782Z" fill="#3C3C3C"/>
<defs>
<linearGradient id="paint0_linear_637_7736" x1="64.1725" y1="104.402" x2="64.1725" y2="118.408" gradientUnits="userSpaceOnUse">
<stop stop-color="#4585E7"/>
<stop offset="1" stop-color="#5898F9"/>
</linearGradient>
<linearGradient id="paint1_linear_637_7736" x1="64.1725" y1="79.0817" x2="64.1725" y2="93.0918" gradientUnits="userSpaceOnUse">
<stop stop-color="#4585E7"/>
<stop offset="1" stop-color="#5898F9"/>
</linearGradient>
<linearGradient id="paint2_linear_637_7736" x1="64.1727" y1="53.7366" x2="64.1727" y2="67.761" gradientUnits="userSpaceOnUse">
<stop stop-color="#4585E7"/>
<stop offset="1" stop-color="#5898F9"/>
</linearGradient>
<linearGradient id="paint3_linear_637_7736" x1="122.594" y1="77.6958" x2="122.594" y2="103.165" gradientUnits="userSpaceOnUse">
<stop stop-color="#4585E7"/>
<stop offset="1" stop-color="#5898F9"/>
</linearGradient>
<linearGradient id="paint4_linear_637_7736" x1="134.788" y1="76.9333" x2="134.788" y2="115.69" gradientUnits="userSpaceOnUse">
<stop stop-color="#4585E7"/>
<stop offset="1" stop-color="#5898F9"/>
</linearGradient>
<linearGradient id="paint5_linear_637_7736" x1="132.792" y1="86.1985" x2="132.792" y2="105.933" gradientUnits="userSpaceOnUse">
<stop stop-color="#4585E7"/>
<stop offset="1" stop-color="#5898F9"/>
</linearGradient>
</defs>
</svg>
