<svg width="190" height="191" viewBox="0 0 190 191" fill="none" xmlns="http://www.w3.org/2000/svg">
<mask id="mask0_637_7615" style="mask-type:luminance" maskUnits="userSpaceOnUse" x="4" y="92" width="171" height="99">
<path d="M174.176 140.498L89.2994 92.4997C88.6574 92.1712 87.9467 92 87.2257 92C86.5047 92 85.794 92.1712 85.152 92.4997L5.00723 139.27C3.78053 139.972 3.66368 141.083 4.71514 141.667L89.5331 189.607C90.1811 189.95 90.903 190.13 91.6361 190.13C92.3691 190.13 93.091 189.95 93.739 189.607L173.884 142.837C175.11 142.194 175.227 141.083 174.176 140.498Z" fill="white"/>
</mask>
<g mask="url(#mask0_637_7615)">
<path d="M477.463 -100.477L-29.3334 192.131L-28.5453 193.498L478.251 -99.1093L477.463 -100.477Z" fill="#EDBE5C"/>
<path d="M484.08 -97.2743L-22.7675 195.245L-21.9796 196.612L484.868 -95.9069L484.08 -97.2743Z" fill="#EDBE5C"/>
<path d="M489.914 -93.224L-16.984 199.206L-16.1964 200.574L490.702 -91.8564L489.914 -93.224Z" fill="#EDBE5C"/>
<path d="M496.571 -90.2052L-10.2765 202.314L-9.4886 203.681L497.359 -88.8377L496.571 -90.2052Z" fill="#EDBE5C"/>
<path d="M502.005 -86.2966L-4.84253 206.222L-4.05464 207.59L502.793 -84.9291L502.005 -86.2966Z" fill="#EDBE5C"/>
<path d="M508.468 -82.8674L1.62024 209.652L2.40809 211.019L509.256 -81.5L508.468 -82.8674Z" fill="#EDBE5C"/>
<path d="M514.32 -78.9864L7.52356 213.621L8.31169 214.988L515.108 -77.6191L514.32 -78.9864Z" fill="#EDBE5C"/>
<path d="M520.946 -75.5191L14.0472 216.911L14.8348 218.279L521.733 -74.1515L520.946 -75.5191Z" fill="#EDBE5C"/>
<path d="M526.902 -72.1197L20.0038 220.311L20.7915 221.678L527.69 -70.7521L526.902 -72.1197Z" fill="#EDBE5C"/>
<path d="M533.466 -68.3971L26.5671 224.033L27.3547 225.401L534.253 -67.0295L533.466 -68.3971Z" fill="#EDBE5C"/>
<path d="M539.405 -64.9369L32.558 227.582L33.3459 228.949L540.193 -63.5695L539.405 -64.9369Z" fill="#EDBE5C"/>
<path d="M545.969 -61.667L39.1218 230.852L39.9097 232.219L546.757 -60.2996L545.969 -61.667Z" fill="#EDBE5C"/>
<path d="M551.433 -57.7665L44.5854 234.752L45.3733 236.12L552.221 -56.399L551.433 -57.7665Z" fill="#EDBE5C"/>
<path d="M557.896 -54.3365L51.0482 238.182L51.8361 239.55L558.684 -52.9691L557.896 -54.3365Z" fill="#EDBE5C"/>
<path d="M563.748 -50.4076L56.9514 242.2L57.7395 243.567L564.536 -49.0403L563.748 -50.4076Z" fill="#EDBE5C"/>
<path d="M570.387 -47.2093L63.5392 245.31L64.3271 246.677L571.175 -45.8418L570.387 -47.2093Z" fill="#EDBE5C"/>
<path d="M576.284 -43.5779L69.4369 248.941L70.2248 250.309L577.072 -42.2104L576.284 -43.5779Z" fill="#EDBE5C"/>
<path d="M390.811 -150.529L-116.037 141.99L-115.249 143.358L391.598 -149.162L390.811 -150.529Z" fill="#EDBE5C"/>
<path d="M397.436 -146.702L-109.513 145.64L-108.726 147.008L398.223 -145.334L397.436 -146.702Z" fill="#EDBE5C"/>
<path d="M402.897 -143.3L-103.951 149.219L-103.163 150.586L403.685 -141.933L402.897 -143.3Z" fill="#EDBE5C"/>
<path d="M409.442 -139.505L-97.5074 152.837L-96.72 154.205L410.23 -138.137L409.442 -139.505Z" fill="#EDBE5C"/>
<path d="M415.211 -135.911L-91.5851 156.696L-90.797 158.063L416 -134.544L415.211 -135.911Z" fill="#EDBE5C"/>
<path d="M421.9 -132.831L-84.9471 159.688L-84.1593 161.055L422.688 -131.464L421.9 -132.831Z" fill="#EDBE5C"/>
<path d="M427.702 -128.845L-79.0945 163.762L-78.3064 165.13L428.49 -127.478L427.702 -128.845Z" fill="#EDBE5C"/>
<path d="M434.311 -125.623L-72.5364 166.896L-71.7485 168.264L435.099 -124.255L434.311 -125.623Z" fill="#EDBE5C"/>
<path d="M440.238 -121.941L-66.6093 170.578L-65.8214 171.945L441.026 -120.574L440.238 -121.941Z" fill="#EDBE5C"/>
<path d="M446.86 -118.554L-59.9873 173.965L-59.1994 175.332L447.648 -117.187L446.86 -118.554Z" fill="#EDBE5C"/>
<path d="M452.375 -114.741L-54.4726 177.778L-53.6847 179.146L453.163 -113.373L452.375 -114.741Z" fill="#EDBE5C"/>
<path d="M458.838 -111.311L-48.0099 181.208L-47.222 182.575L459.626 -109.944L458.838 -111.311Z" fill="#EDBE5C"/>
<path d="M464.69 -107.362L-42.1068 185.245L-41.3187 186.612L465.478 -105.995L464.69 -107.362Z" fill="#EDBE5C"/>
<path d="M471.328 -104.243L-35.5193 188.276L-34.7315 189.644L472.116 -102.875L471.328 -104.243Z" fill="#EDBE5C"/>
<path d="M477.181 -100.296L-29.616 192.312L-28.8278 193.679L477.969 -98.9284L477.181 -100.296Z" fill="#EDBE5C"/>
</g>
<path fill-rule="evenodd" clip-rule="evenodd" d="M27.5943 153.655L22.3322 150.627C21.2609 149.903 21.0612 148.972 21.014 147.729V56.6474C21.0793 54.9123 21.5078 53.7495 22.3322 52.2246C23.0916 50.8607 24.1831 49.7096 25.5061 48.8776L35.1443 43.3247L40.8712 40.0248L69.6475 23.4565L74.6518 20.5587L85.0235 14.5892C86.1129 14.0205 87.0208 13.7234 88.1974 14.2849L93.4632 17.3095C92.2865 16.7589 91.3932 17.0487 90.2856 17.6247L79.9175 23.6014L74.9132 26.4992L46.1442 43.053L40.4064 46.3601L30.7682 51.913C29.4401 52.7401 28.3463 53.8923 27.5906 55.26C26.7871 56.6008 26.335 58.1219 26.2761 59.6828V150.754C26.3305 151.996 26.5339 152.916 27.5943 153.655Z" fill="white"/>
<path fill-rule="evenodd" clip-rule="evenodd" d="M86.9843 14.9875C86.4509 15.0403 85.9361 15.211 85.4772 15.4874L26.0072 49.7432C24.8264 50.4876 23.8553 51.5199 23.1855 52.7425C22.4681 53.9396 22.0636 55.2972 22.0088 56.6907V147.729C22.0706 148.903 22.2558 149.352 22.9022 149.805L25.2918 151.181C25.2918 151.054 25.2918 150.924 25.2918 150.797V59.6827C25.3551 57.9544 25.8547 56.2699 26.7444 54.7854C27.6813 53.2641 28.5601 52.1339 30.2633 51.069L89.8205 16.7733L90.2055 16.5777L87.7397 15.1578C87.5137 15.0465 87.2653 14.9883 87.0134 14.9875H86.9843ZM27.5941 154.659C27.4187 154.66 27.2464 154.612 27.0966 154.521L21.8309 151.486C20.2439 150.399 20.066 149.004 20.0151 147.769V56.6473C20.0811 54.9193 20.5805 53.2355 21.4678 51.75C22.3157 50.2396 23.526 48.9626 24.9903 48.0335L84.5475 13.7378C85.6915 13.151 86.9952 12.6149 88.6476 13.3756L93.9932 16.4437C94.2108 16.5777 94.3693 16.7891 94.4367 17.0351C94.5041 17.2812 94.4754 17.5437 94.3563 17.7694C94.2387 17.999 94.0358 18.1737 93.7909 18.2563C93.546 18.3388 93.2785 18.3227 93.0453 18.2114C92.319 17.8817 91.8433 17.9397 90.7539 18.5084L31.2765 52.7859C29.9365 53.6263 29.2465 54.4956 28.4548 55.7888C27.7299 56.9812 27.3247 58.3397 27.2782 59.7334V150.761C27.3291 151.946 27.5251 152.402 28.1716 152.848C28.3828 152.994 28.529 153.217 28.5797 153.468C28.6305 153.72 28.5819 153.982 28.4439 154.199C28.3512 154.339 28.2251 154.455 28.0769 154.535C27.9286 154.615 27.7628 154.658 27.5941 154.659Z" fill="#414141"/>
<path fill-rule="evenodd" clip-rule="evenodd" d="M90.2853 119.073L30.7716 153.343C28.2985 154.792 26.2794 153.607 26.2794 150.749V59.6674C26.2794 56.8095 28.2985 53.314 30.7716 51.8977L40.4097 46.3447L46.1475 43.0376L74.9166 26.4766L79.9208 23.5788L90.2853 17.6165C92.7656 16.1893 94.7847 17.3557 94.7847 20.2028V111.285C94.7847 114.161 92.7656 117.649 90.2853 119.073Z" fill="white"/>
<path fill-rule="evenodd" clip-rule="evenodd" d="M92.2844 18.0116C91.7534 18.0412 91.238 18.2018 90.7845 18.4789L31.2745 52.7854C29.0956 54.0279 27.2799 57.1901 27.2799 59.6895V150.761C27.2799 151.757 27.5776 152.496 28.0969 152.793C28.6163 153.09 29.4079 152.988 30.2759 152.488L89.7895 118.218C91.9684 116.965 93.7841 113.803 93.7841 111.314V20.2248C93.7841 19.2287 93.4864 18.4898 92.9671 18.1928C92.7605 18.0793 92.5273 18.023 92.2916 18.0298L92.2844 18.0116ZM28.7651 154.933C28.1793 154.941 27.6024 154.79 27.0946 154.499C25.918 153.829 25.2789 152.485 25.2789 150.732V59.6678C25.2789 56.4367 27.4796 52.6442 30.2722 51.0286L89.7858 16.7584C91.3111 15.8818 92.7964 15.7731 93.973 16.4432C95.1496 17.1133 95.7888 18.4572 95.7888 20.2103V111.292C95.7888 114.523 93.6098 118.312 90.7918 119.928L31.2745 154.209C30.5172 154.671 29.6523 154.928 28.7651 154.955V154.933Z" fill="#414141"/>
<path fill-rule="evenodd" clip-rule="evenodd" d="M34.5228 58.3388V145.06L88.6835 113.865V27.1438L34.5228 58.3388Z" fill="white"/>
<path fill-rule="evenodd" clip-rule="evenodd" d="M35.5085 58.9158V143.315L87.6574 113.279V28.8799L35.5085 58.9158ZM34.5207 146.053C34.3467 146.055 34.1756 146.009 34.0268 145.919C33.8745 145.833 33.7479 145.708 33.6598 145.557C33.5718 145.407 33.5255 145.235 33.5257 145.061V58.3398C33.5242 58.164 33.5698 57.9911 33.658 57.8388C33.7461 57.6866 33.8734 57.5606 34.0268 57.4741L88.1767 26.2863C88.3286 26.1992 88.5008 26.1534 88.676 26.1534C88.8512 26.1534 89.0234 26.1992 89.1753 26.2863C89.3279 26.372 89.4548 26.4968 89.5428 26.6477C89.6309 26.7986 89.677 26.9702 89.6765 27.1448V113.866C89.6779 114.041 89.6323 114.214 89.5442 114.367C89.4561 114.519 89.3287 114.645 89.1753 114.731L35.0218 145.919C34.8707 146.01 34.6971 146.056 34.5207 146.053Z" fill="#414141"/>
<path fill-rule="evenodd" clip-rule="evenodd" d="M53.453 51.3373V42.4518C60.0745 38.6267 66.7057 34.8076 73.3466 30.9946V39.8873C66.7082 43.7051 60.077 47.5218 53.453 51.3373ZM76.2882 41.0754V26.4088L50.5043 41.2601V55.9231L76.2882 41.0718V41.0754Z" fill="white"/>
<path fill-rule="evenodd" clip-rule="evenodd" d="M54.448 43.0349V49.6165L72.3405 39.304V32.7295L54.448 43.0349ZM53.4529 52.3441C53.276 52.3421 53.1026 52.2961 52.9481 52.2101C52.795 52.1223 52.668 51.9956 52.5799 51.8429C52.4919 51.6902 52.446 51.5169 52.447 51.3407V42.4553C52.4459 42.2796 52.4918 42.1068 52.5798 41.9546C52.6679 41.8025 52.795 41.6765 52.9481 41.5896L72.8417 30.1287C72.9945 30.042 73.1674 29.9967 73.3433 29.9974C73.5191 29.9981 73.6916 30.0448 73.8438 30.1327C73.9959 30.2207 74.1222 30.3469 74.2102 30.4987C74.2982 30.6505 74.3447 30.8227 74.3451 30.9981V39.8908C74.3465 40.066 74.3003 40.2383 74.2114 40.3894C74.1226 40.5406 73.9944 40.6649 73.8404 40.7492L53.9541 52.2101C53.8003 52.2944 53.6283 52.3404 53.4529 52.3441ZM51.5101 41.8359L75.2821 28.1473V40.5029L51.5101 54.1987V41.8359ZM50.5114 56.9263C50.3339 56.9291 50.1591 56.8827 50.0066 56.7923C49.8534 56.7045 49.7264 56.5778 49.6384 56.4251C49.5503 56.2723 49.5045 56.0991 49.5054 55.9229V41.26C49.5052 41.084 49.5514 40.911 49.6393 40.7584C49.7273 40.6058 49.8539 40.479 50.0066 40.3906L75.7905 25.5393C75.9427 25.4525 76.1152 25.407 76.2906 25.4075C76.466 25.4079 76.6382 25.4543 76.79 25.5419C76.9418 25.6295 77.068 25.7554 77.1558 25.9068C77.2435 26.0583 77.29 26.2301 77.2903 26.4051V41.0716C77.2913 41.2478 77.2455 41.421 77.1574 41.5738C77.0694 41.7265 76.9423 41.8532 76.7891 41.941L51.0052 56.7923C50.8533 56.8842 50.6781 56.9307 50.5005 56.9263H50.5114Z" fill="#414141"/>
<path fill-rule="evenodd" clip-rule="evenodd" d="M50.5117 41.2604L76.2884 26.4127L72.7512 24.3842L70.6377 23.1671L44.8683 38.0112L50.5117 41.2604Z" fill="white"/>
<path fill-rule="evenodd" clip-rule="evenodd" d="M46.8688 38.0108L50.5003 40.1009L74.2651 26.4123L70.6335 24.3151L46.8688 38.0108ZM50.5003 42.2634C50.3234 42.2591 50.1501 42.2118 49.9956 42.1257L44.3558 38.8657C44.2028 38.7784 44.0755 38.6524 43.9869 38.5004C43.8983 38.3485 43.8513 38.1758 43.851 38C43.8502 37.8239 43.8966 37.6509 43.9854 37.4987C44.0741 37.3465 44.202 37.2207 44.3558 37.1343L70.1397 22.283C70.291 22.1941 70.4634 22.1472 70.639 22.1472C70.8146 22.1472 70.9871 22.1941 71.1384 22.283L76.7818 25.543C76.9341 25.6313 77.0604 25.7578 77.1482 25.9101C77.2361 26.0623 77.2823 26.2349 77.2823 26.4105C77.2823 26.5862 77.2361 26.7588 77.1482 26.911C77.0604 27.0632 76.9341 27.1898 76.7818 27.278L50.9979 42.1294C50.8476 42.2212 50.6764 42.2736 50.5003 42.2815V42.2634Z" fill="#414141"/>
<path fill-rule="evenodd" clip-rule="evenodd" d="M42.8928 97.2575C42.3299 97.6235 41.8613 98.1165 41.525 98.6967C41.1887 99.277 40.9942 99.928 40.9572 100.597C40.9572 101.825 41.8251 102.325 42.8928 101.706C43.453 101.341 43.9191 100.85 44.2536 100.272C44.588 99.6947 44.7812 99.0465 44.8175 98.3804C44.8175 97.1488 43.9641 96.6453 42.8928 97.2575Z" fill="white"/>
<path fill-rule="evenodd" clip-rule="evenodd" d="M43.3929 98.1255C42.9839 98.4038 42.643 98.7704 42.3953 99.198C42.1476 99.6257 41.9996 100.103 41.9621 100.596C41.9493 100.729 41.9758 100.862 42.0383 100.98C42.1648 100.952 42.287 100.906 42.4015 100.846C42.8095 100.567 43.1497 100.201 43.3973 99.7742C43.6449 99.3473 43.7935 98.8706 43.8323 98.379C43.843 98.2418 43.8166 98.1042 43.756 97.9806C43.6276 98.008 43.5048 98.057 43.3929 98.1255ZM42.0202 102.968C41.6709 102.969 41.3277 102.878 41.0251 102.704C40.6701 102.483 40.3814 102.17 40.1897 101.799C39.9979 101.428 39.9101 101.013 39.9357 100.596C39.9772 99.7521 40.22 98.9303 40.6438 98.1989C41.0676 97.4675 41.6602 96.8475 42.3725 96.3904C42.7136 96.147 43.1177 96.007 43.5366 95.9871C43.9555 95.9672 44.3713 96.0683 44.734 96.2782C45.0967 96.4882 45.3909 96.798 45.5814 97.1707C45.7719 97.5433 45.8506 97.9629 45.8079 98.379C45.7685 99.2205 45.5272 100.04 45.1045 100.769C44.6817 101.499 44.0898 102.116 43.3784 102.57C42.9678 102.818 42.4998 102.955 42.0202 102.968Z" fill="#414141"/>
<path fill-rule="evenodd" clip-rule="evenodd" d="M42.8928 111.829C42.3296 112.193 41.8607 112.684 41.5243 113.263C41.1879 113.843 40.9936 114.493 40.9572 115.161C40.9572 116.385 41.8251 116.878 42.8928 116.248C43.4541 115.883 43.921 115.391 44.2555 114.812C44.59 114.233 44.7826 113.583 44.8175 112.915C44.8175 111.705 43.9641 111.198 42.8928 111.829Z" fill="white"/>
<path fill-rule="evenodd" clip-rule="evenodd" d="M43.3944 112.675C42.9862 112.956 42.646 113.323 42.3984 113.751C42.1509 114.179 42.0023 114.657 41.9636 115.149C41.9514 115.282 41.9779 115.415 42.0398 115.533C42.1668 115.501 42.2889 115.453 42.403 115.389C42.8131 115.112 43.1551 114.747 43.403 114.319C43.6508 113.892 43.7981 113.414 43.8338 112.922C43.8438 112.787 43.8175 112.652 43.7575 112.531C43.6321 112.567 43.5104 112.616 43.3944 112.675ZM42.0216 117.522C41.6726 117.521 41.3298 117.43 41.0266 117.258C40.6721 117.036 40.3839 116.723 40.1922 116.352C40.0005 115.982 39.9124 115.566 39.9371 115.149C39.9774 114.306 40.2197 113.485 40.6437 112.755C41.0676 112.024 41.661 111.406 42.374 110.951C42.7145 110.708 43.1179 110.569 43.536 110.549C43.9542 110.528 44.3692 110.629 44.7316 110.838C45.094 111.047 45.3884 111.356 45.5795 111.727C45.7706 112.099 45.8505 112.517 45.8094 112.933C45.7747 113.777 45.5355 114.6 45.1124 115.331C44.6893 116.063 44.0948 116.682 43.3798 117.134C42.9675 117.377 42.5001 117.51 42.0216 117.522Z" fill="#414141"/>
<path fill-rule="evenodd" clip-rule="evenodd" d="M27.5918 153.656L22.3297 150.621C21.9412 150.372 21.6224 150.03 21.4037 149.624C20.9062 148.665 21.0115 147.201 21.0115 146.147V59.0713C21.0115 57.3869 20.9062 55.9489 21.4037 54.3008C21.6325 53.5663 21.947 52.8612 22.3406 52.1998L27.6064 55.2353C27.1045 56.0688 26.7368 56.9758 26.5169 57.923C26.2264 59.1727 26.2773 60.2449 26.2773 61.5018V149.005C26.2773 149.921 26.2082 151.012 26.4043 151.903C26.4734 152.26 26.6143 152.599 26.8184 152.9C27.0224 153.202 27.2855 153.459 27.5918 153.656Z" fill="#EDBE5C"/>
<path fill-rule="evenodd" clip-rule="evenodd" d="M22.7411 53.5861C22.597 53.9118 22.4756 54.247 22.3779 54.5894C21.993 55.8464 22.0148 57.0055 22.0148 58.3385V146.631C22.0148 147.49 21.9894 148.562 22.3053 149.167C22.4478 149.431 22.6552 149.654 22.9081 149.815L25.2977 151.192C25.2614 150.638 25.2723 150.076 25.2723 149.558V149.015V61.0335C25.2253 59.916 25.3143 58.797 25.5373 57.701C25.7055 56.9832 25.949 56.2851 26.2637 55.6182L22.7338 53.5861H22.7411ZM27.5928 154.647C27.4173 154.649 27.2451 154.601 27.0953 154.51L21.8296 151.474C21.2773 151.128 20.8243 150.645 20.5149 150.072C19.9702 149.036 19.9884 147.685 20.0065 146.595V58.3566C20.0065 56.9077 19.9811 55.5675 20.4496 54.0099C20.6943 53.1923 21.0434 52.4095 21.4882 51.6807C21.6252 51.4593 21.8432 51.2999 22.0962 51.2364C22.3491 51.1728 22.617 51.2101 22.8428 51.3403L28.1085 54.3685C28.2247 54.4348 28.3264 54.5236 28.4078 54.6296C28.4892 54.7356 28.5486 54.8568 28.5824 54.986C28.6162 55.1152 28.6239 55.2499 28.6048 55.3821C28.5858 55.5143 28.5406 55.6413 28.4717 55.7558C28.0197 56.4971 27.6887 57.3053 27.4911 58.1502C27.3095 59.0938 27.2388 60.0554 27.2805 61.0153V149.573C27.2349 150.277 27.2715 150.985 27.3895 151.681C27.4311 151.916 27.5217 152.139 27.6556 152.337C27.7895 152.535 27.9636 152.703 28.1666 152.829C28.3805 152.976 28.5291 153.2 28.5812 153.454C28.6334 153.708 28.585 153.972 28.4462 154.191C28.354 154.333 28.2277 154.451 28.0787 154.532C27.9297 154.614 27.7627 154.657 27.5928 154.658V154.647Z" fill="#414141"/>
<path fill-rule="evenodd" clip-rule="evenodd" d="M44.8683 40.894L47.374 42.3465V54.1225L50.5117 55.9228V41.2598L44.8683 38.0106V40.894Z" fill="white"/>
<path fill-rule="evenodd" clip-rule="evenodd" d="M48.3787 53.543L49.5045 54.1986V41.8358L45.8729 39.7385V40.3145L47.8848 41.4809C48.0382 41.5675 48.1655 41.6934 48.2536 41.8456C48.3418 41.9978 48.3874 42.1708 48.3859 42.3466V53.543H48.3787ZM50.5104 56.9262C50.333 56.929 50.1582 56.8826 50.0056 56.7922L46.8789 54.9811C46.725 54.8951 46.5972 54.7693 46.509 54.6169C46.4208 54.4645 46.3754 54.2913 46.3777 54.1153V42.9189L44.3659 41.7525C44.2118 41.6664 44.0837 41.5407 43.9949 41.3884C43.9061 41.2361 43.8599 41.0629 43.861 40.8868V37.989C43.8603 37.8129 43.9067 37.6398 43.9955 37.4877C44.0842 37.3355 44.2121 37.2097 44.3659 37.1233C44.5165 37.0343 44.6883 36.9874 44.8634 36.9874C45.0384 36.9874 45.2103 37.0343 45.3609 37.1233L51.0042 40.3833C51.1578 40.4709 51.2855 40.5974 51.3741 40.7501C51.4628 40.9028 51.5093 41.0762 51.5091 41.2527V55.9156C51.5101 56.0922 51.4638 56.2658 51.3751 56.4187C51.2864 56.5715 51.1583 56.6979 51.0042 56.785C50.8531 56.8794 50.6779 56.9284 50.4995 56.9262H50.5104Z" fill="#414141"/>
<path fill-rule="evenodd" clip-rule="evenodd" d="M65.6694 68.1884C65.4481 68.1909 65.2323 68.1199 65.0558 67.9866C64.8793 67.8534 64.7523 67.6655 64.6945 67.4524C64.6367 67.2393 64.6515 67.0131 64.7366 66.8094C64.8217 66.6056 64.9722 66.4358 65.1646 66.3266L81.3068 57.0318C81.4203 56.966 81.5457 56.923 81.6758 56.9055C81.806 56.8879 81.9383 56.8961 82.0652 56.9296C82.1922 56.9631 82.3113 57.0212 82.4158 57.1006C82.5203 57.1799 82.608 57.279 82.6741 57.3923C82.7401 57.5055 82.7832 57.6306 82.8008 57.7604C82.8183 57.8902 82.8101 58.0222 82.7766 58.1488C82.743 58.2754 82.6848 58.3942 82.6052 58.4984C82.5256 58.6026 82.4263 58.6902 82.3128 58.756L66.1705 68.0544C66.0187 68.1435 65.8455 68.1898 65.6694 68.1884Z" fill="#414141"/>
<path fill-rule="evenodd" clip-rule="evenodd" d="M50.4292 97.5206C50.2094 97.52 49.9959 97.4473 49.8216 97.3138C49.6473 97.1804 49.5217 96.9934 49.4644 96.7818C49.407 96.5702 49.421 96.3456 49.5041 96.1427C49.5872 95.9398 49.7348 95.7697 49.9243 95.6587L81.3081 77.5836C81.4217 77.5177 81.547 77.4748 81.6772 77.4572C81.8073 77.4397 81.9396 77.4479 82.0666 77.4813C82.1935 77.5148 82.3127 77.5729 82.4171 77.6523C82.5216 77.7317 82.6093 77.8308 82.6754 77.944C82.7414 78.0572 82.7845 78.1823 82.8021 78.3121C82.8197 78.4419 82.8114 78.5739 82.7779 78.7005C82.7443 78.8272 82.6861 78.946 82.6065 79.0502C82.5269 79.1543 82.4276 79.2419 82.3141 79.3078L50.9303 97.3829C50.7784 97.4723 50.6055 97.5198 50.4292 97.5206Z" fill="#414141"/>
<path fill-rule="evenodd" clip-rule="evenodd" d="M50.4274 111.325C50.2061 111.328 49.9902 111.257 49.8138 111.124C49.6373 110.99 49.5103 110.802 49.4525 110.589C49.3947 110.376 49.4095 110.15 49.4946 109.946C49.5797 109.742 49.7302 109.573 49.9226 109.464L63.5481 101.618C63.6618 101.552 63.7874 101.51 63.9175 101.493C64.0477 101.476 64.1801 101.485 64.3069 101.519C64.4337 101.552 64.5524 101.611 64.6565 101.691C64.7606 101.771 64.848 101.87 64.9136 101.984C64.9791 102.097 65.0217 102.222 65.0388 102.352C65.0558 102.482 65.047 102.614 65.0129 102.74C64.9789 102.867 64.9202 102.985 64.8402 103.089C64.7603 103.193 64.6605 103.28 64.5468 103.345L50.9285 111.188C50.7766 111.277 50.6037 111.325 50.4274 111.325Z" fill="#414141"/>
<path fill-rule="evenodd" clip-rule="evenodd" d="M70.2083 32.7982V37.7716L73.3459 39.8906V30.9979L70.2083 32.7982Z" fill="white"/>
<path fill-rule="evenodd" clip-rule="evenodd" d="M71.2003 37.2464L72.3261 38.0034V32.7294L71.2003 33.3778V37.2464ZM73.3321 40.8687C73.1318 40.868 72.9361 40.8089 72.7692 40.6984L69.6424 38.5903C69.5048 38.4992 69.3922 38.3753 69.3148 38.2298C69.2375 38.0843 69.1978 37.9218 69.1993 37.7572V32.7838C69.1997 32.6084 69.2462 32.4361 69.3341 32.2842C69.422 32.1323 69.5484 32.0061 69.7005 31.9181L72.8272 30.1069C72.98 30.0202 73.153 29.9749 73.3288 29.9756C73.5046 29.9763 73.6772 30.0229 73.8293 30.1109C73.9814 30.1989 74.1077 30.3251 74.1957 30.4769C74.2837 30.6287 74.3303 30.8009 74.3307 30.9763V39.8689C74.3303 40.0488 74.2806 40.2251 74.1872 40.3789C74.0938 40.5327 73.9601 40.6582 73.8005 40.7419C73.6642 40.8279 73.5076 40.8766 73.3465 40.8832L73.3321 40.8687Z" fill="#414141"/>
<path fill-rule="evenodd" clip-rule="evenodd" d="M53.452 47.429L70.2079 37.7721L73.3455 39.8911L53.452 51.3411V47.429Z" fill="white"/>
<path fill-rule="evenodd" clip-rule="evenodd" d="M54.4488 48.008V49.6162L71.4552 39.8361L70.1769 38.9667L54.4488 48.0224V48.008ZM53.4537 52.3547C53.2769 52.3527 53.1034 52.3066 52.9489 52.2206C52.7958 52.1329 52.6688 52.0062 52.5807 51.8534C52.4927 51.7007 52.4468 51.5275 52.4478 51.3513V47.4429C52.4468 47.2667 52.4927 47.0934 52.5807 46.9407C52.6688 46.788 52.7958 46.6613 52.9489 46.5735L69.7157 36.9238C69.8771 36.8289 70.0623 36.7819 70.2495 36.7883C70.4366 36.7947 70.6181 36.8543 70.7726 36.96L73.9102 39.0682C74.0499 39.1643 74.1631 39.294 74.2393 39.4454C74.3154 39.5967 74.3521 39.7647 74.3459 39.9339C74.3411 40.1035 74.2921 40.2689 74.2035 40.4137C74.115 40.5586 73.9901 40.6779 73.8412 40.7598L53.9476 52.2206C53.7958 52.3019 53.626 52.3443 53.4537 52.3438V52.3547Z" fill="#414141"/>
<path fill-rule="evenodd" clip-rule="evenodd" d="M89.8924 134.898L82.0411 130.374C91.247 135.543 102.712 126.89 108.551 120.207C116.737 110.897 123.945 94.9991 120.844 82.6182C119.932 78.9959 118.084 75.7577 114.765 73.8125L123.019 78.5721C131.292 83.8172 129.999 97.0892 127.424 105.236C123.622 117.309 113.341 131.914 100.838 135.663C97.1628 136.786 93.3533 136.822 89.8924 134.898Z" fill="url(#paint0_linear_637_7615)"/>
<path fill-rule="evenodd" clip-rule="evenodd" d="M90.394 134.041C93.2738 135.649 96.6947 135.877 100.562 134.711C112.546 131.089 122.664 117.002 126.473 104.929C129.262 96.0974 129.891 84.1078 122.479 79.4169L120.176 78.0912C120.9 79.4439 121.449 80.8825 121.81 82.3727C125.079 95.3404 117.609 111.409 109.307 120.87C103.954 126.966 96.0374 132.773 88.4838 132.954L90.3759 134.041H90.394ZM95.9429 137.449C93.6551 137.468 91.4019 136.892 89.4062 135.776C89.4062 135.776 89.4062 135.776 89.3881 135.776L81.5403 131.255C81.3096 131.125 81.1404 130.908 81.07 130.653C80.9995 130.398 81.0335 130.125 81.1645 129.895C81.2954 129.665 81.5127 129.496 81.7684 129.426C82.0242 129.356 82.2974 129.389 82.5281 129.52C91.2801 134.443 102.542 125.565 107.818 119.563C116.033 110.195 122.827 94.5689 119.886 82.869C118.942 79.0764 117.05 76.3235 114.268 74.6826C114.054 74.5405 113.903 74.3223 113.845 74.0726C113.787 73.8228 113.828 73.5606 113.958 73.3396C114.088 73.1186 114.298 72.9556 114.544 72.884C114.791 72.8125 115.056 72.8378 115.285 72.9548L123.535 77.718C131.932 83.0392 131.401 96.0287 128.402 105.544C124.432 118.117 113.799 132.835 101.165 136.634C99.4747 137.163 97.7146 137.438 95.9429 137.449Z" fill="#414141"/>
<path fill-rule="evenodd" clip-rule="evenodd" d="M103.795 78.8656C91.1717 86.1427 80.9344 103.819 80.9344 118.348C80.9344 132.877 91.1717 138.778 103.795 131.508C116.418 124.238 126.655 106.554 126.655 92.0253C126.655 77.4964 116.418 71.5921 103.795 78.8656Z" fill="white"/>
<path fill-rule="evenodd" clip-rule="evenodd" d="M114.005 76.7472C111.049 76.7472 107.741 77.7397 104.298 79.7283C91.9506 86.828 81.9385 104.157 81.9385 118.363C81.9385 125.021 84.1392 129.955 88.1121 132.255C92.085 134.555 97.5069 133.99 103.285 130.665C115.61 123.558 125.64 106.229 125.64 92.0332C125.64 85.3646 123.436 80.4419 119.445 78.1381C117.786 77.1988 115.905 76.7186 113.998 76.7472H114.005ZM93.5812 135.649C91.3204 135.678 89.0929 135.106 87.128 133.99C82.4905 131.309 79.9339 125.76 79.9339 118.363C79.9339 103.512 90.4108 85.4008 103.299 78.0041C109.716 74.2985 115.813 73.7262 120.455 76.4067C125.096 79.0872 127.66 84.6256 127.66 92.0332C127.66 106.884 117.175 124.97 104.298 132.393C100.536 134.551 96.8895 135.649 93.5812 135.649Z" fill="#414141"/>
<path fill-rule="evenodd" clip-rule="evenodd" d="M98.409 69.509C104.169 66.2707 111.671 63.9162 117.929 67.2668L125.784 71.7874C114.228 66.0497 100.523 76.7028 93.3867 85.0159C83.8321 96.1544 75.6248 114.356 78.5555 129.15C79.5033 133.953 81.6241 138.137 85.7931 140.893C83.9156 139.806 78.4538 136.818 77.0193 135.742C68.0095 128.947 69.4875 113.846 72.3419 104.428C76.4745 90.7717 85.9783 76.8477 98.409 69.509Z" fill="url(#paint1_linear_637_7615)"/>
<path fill-rule="evenodd" clip-rule="evenodd" d="M98.9104 70.3795C87.4892 77.1278 77.6768 90.2802 73.3044 104.708C70.2285 114.85 69.5203 128.836 77.6259 134.943C78.1053 135.305 79.1112 135.921 80.277 136.602C78.9507 134.36 78.0334 131.901 77.5678 129.339C74.5428 114.035 83.2512 95.2899 92.6278 84.3651C99.3462 76.5338 109.565 68.8727 119.265 69.195L117.449 68.1337C111.305 64.8447 103.991 67.5396 98.9286 70.3795H98.9104ZM85.7932 141.894C85.6157 141.894 85.4415 141.846 85.2885 141.756L83.5526 140.771C81.0105 139.351 77.5751 137.413 76.4167 136.529C67.5013 129.81 67.9697 115.393 71.387 104.128C75.8973 89.2298 86.0547 75.6354 97.8972 68.6299C103.395 65.5438 111.417 62.6532 118.39 66.3878L126.274 70.9265C126.498 71.057 126.663 71.2693 126.733 71.5186C126.804 71.7679 126.775 72.0347 126.652 72.2628C126.529 72.491 126.322 72.6627 126.075 72.7418C125.828 72.8209 125.559 72.8012 125.326 72.6869C114.947 67.5251 102.041 76.4541 94.1385 85.6619C85.0597 96.2389 76.6236 114.278 79.5216 128.952C80.5348 134.063 82.7609 137.703 86.3307 140.058C86.5068 140.178 86.6399 140.352 86.7109 140.553C86.7818 140.754 86.7871 140.972 86.7257 141.176C86.6643 141.381 86.5395 141.56 86.3694 141.689C86.1992 141.818 85.9924 141.89 85.7787 141.894H85.7932Z" fill="#414141"/>
<path fill-rule="evenodd" clip-rule="evenodd" d="M89.4987 134.66L81.6401 130.139L89.891 134.899L89.4987 134.66Z" fill="#EDBE5C"/>
<path fill-rule="evenodd" clip-rule="evenodd" d="M89.8924 135.903C89.7149 135.903 89.5407 135.855 89.3876 135.765L81.1368 131.006C80.9199 130.866 80.7652 130.648 80.7047 130.398C80.6442 130.148 80.6826 129.884 80.8119 129.661C80.9411 129.438 81.1514 129.273 81.3992 129.2C81.6469 129.128 81.913 129.153 82.1427 129.271L89.9941 133.795C90.0122 133.795 90.0123 133.795 90.0195 133.795L90.4189 134.03C90.6065 134.144 90.7517 134.316 90.832 134.519C90.9123 134.723 90.9234 134.947 90.8637 135.158C90.8039 135.368 90.6765 135.553 90.501 135.685C90.3256 135.816 90.1118 135.887 89.8924 135.885V135.903Z" fill="#414141"/>
<path fill-rule="evenodd" clip-rule="evenodd" d="M122.638 78.3339C120.349 77.0686 117.717 76.5612 115.12 76.885C112.393 77.1566 109.412 78.16 106.267 79.9603C102.99 81.901 100.008 84.2977 97.4093 87.078C94.5228 90.1543 92.0005 93.5513 89.892 97.2023C87.7741 100.847 86.0885 104.724 84.8696 108.757C83.7476 112.39 83.1569 116.164 83.1156 119.965C83.1156 123.587 83.7365 126.662 84.8696 129.154C85.8537 131.581 87.6213 133.612 89.8925 134.924C92.1638 136.236 94.8089 136.755 97.4093 136.399C100.137 136.127 103.129 135.124 106.267 133.313C109.545 131.377 112.527 128.981 115.12 126.199C118.01 123.128 120.533 119.733 122.638 116.082C124.764 112.44 126.452 108.562 127.667 104.526C128.783 100.893 129.371 97.119 129.414 93.3192C129.414 89.6969 128.793 86.618 127.667 84.1295C126.648 81.7231 124.886 79.7032 122.638 78.3628V78.3339ZM86.2605 95.1013C91.3809 86.2594 98.4588 78.5295 106.267 74.0342C114.074 69.539 121.156 69.1116 126.273 72.0601C131.39 75.0086 134.556 81.3295 134.556 90.3308C134.556 99.3322 131.393 109.293 126.273 118.143C121.152 126.992 114.082 134.704 106.267 139.202C98.4516 143.701 91.3773 144.125 86.2605 141.18C81.1436 138.235 77.9733 131.914 77.9733 122.913C77.9733 113.912 81.1364 103.943 86.2605 95.1013Z" fill="white"/>
<path fill-rule="evenodd" clip-rule="evenodd" d="M116.615 77.8008C116.151 77.7976 115.688 77.8194 115.227 77.8659C112.558 78.1304 109.711 79.1265 106.77 80.8181C103.575 82.7094 100.667 85.0451 98.1337 87.7548C92.4625 93.82 88.2533 101.096 85.8265 109.028C84.737 112.57 84.1634 116.249 84.1233 119.953C84.1233 123.344 84.6752 126.296 85.7865 128.734C86.6834 130.968 88.307 132.837 90.3966 134.041C92.4861 135.245 94.9205 135.714 97.3093 135.373C99.9749 135.112 102.822 134.116 105.771 132.425C108.965 130.532 111.871 128.192 114.399 125.477C120.073 119.418 124.283 112.145 126.707 104.214C127.801 100.674 128.378 96.9943 128.421 93.2896C128.421 89.8882 127.858 86.9397 126.758 84.5056C125.668 82.1257 124.125 80.3436 122.138 79.2026C120.454 78.2547 118.548 77.7709 116.615 77.8008ZM95.9149 137.441C93.6253 137.471 91.3691 136.892 89.3781 135.764C87.0249 134.413 85.2019 132.323 83.949 129.559C82.7215 126.857 82.1005 123.633 82.1005 119.953C82.1414 116.054 82.7468 112.182 83.8981 108.456C85.135 104.346 86.8551 100.397 89.0222 96.6909C91.1651 92.9693 93.734 89.5086 96.6774 86.3783C99.339 83.5287 102.396 81.0744 105.756 79.0903C108.938 77.2574 112.057 76.1925 115.006 75.8773C117.812 75.531 120.656 76.0882 123.122 77.4675C125.556 78.9068 127.465 81.0848 128.57 83.6833C129.79 86.3674 130.411 89.6021 130.411 93.2896C130.366 97.1882 129.755 101.06 128.595 104.783C126.083 113.018 121.713 120.569 115.819 126.857C113.16 129.71 110.102 132.166 106.741 134.149C103.545 135.985 100.433 137.065 97.4837 137.365C96.939 137.416 96.3942 137.441 95.8894 137.441H95.9149ZM118.895 71.1539C121.3 71.1218 123.671 71.7255 125.766 72.9035C130.785 75.8013 133.556 81.9772 133.556 90.3157C133.556 98.8461 130.651 108.543 125.399 117.624C120.148 126.705 113.168 134.058 105.767 138.329C98.5332 142.495 91.7822 143.19 86.7598 140.299C81.7374 137.409 78.9773 131.244 78.9773 122.912C78.9773 114.382 81.8826 104.682 87.1266 95.5934C92.3705 86.5051 99.3612 79.17 106.766 74.8993C111.069 72.4253 115.195 71.1684 118.895 71.1684V71.1539ZM93.6343 144.067C90.8794 144.105 88.1642 143.41 85.7684 142.053C80.0887 138.793 76.9727 131.994 76.9727 122.916C76.9727 114.038 79.9724 103.982 85.4016 94.6044C90.8307 85.2264 98.0683 77.6088 105.771 73.1715C113.64 68.6364 121.107 67.9337 126.776 71.1973C132.445 74.461 135.564 81.2528 135.564 90.3338C135.564 99.212 132.572 109.26 127.142 118.645C121.713 128.031 114.476 135.634 106.77 140.071C102.15 142.73 97.6834 144.067 93.6343 144.067Z" fill="#414141"/>
<path fill-rule="evenodd" clip-rule="evenodd" d="M120.477 88.3305L105.537 119.775L89.7473 115.28L92.5835 109.293L102.501 112.118L114.598 86.657L120.477 88.3305Z" fill="url(#paint2_linear_637_7615)"/>
<path fill-rule="evenodd" clip-rule="evenodd" d="M118.952 89.0084L115.189 87.9217L103.093 113.383L93.1715 110.557L91.2795 114.567L104.945 118.454C109.615 108.638 114.284 98.8187 118.952 88.9976V89.0084ZM101.92 110.807L113.617 86.1758C113.723 85.9388 113.912 85.7487 114.149 85.6419C114.386 85.535 114.654 85.5187 114.903 85.5962L120.771 87.2625C120.923 87.3061 121.064 87.3821 121.183 87.4853C121.303 87.5885 121.398 87.7164 121.463 87.8602C121.528 88.0039 121.561 88.16 121.559 88.3176C121.558 88.4752 121.522 88.6306 121.454 88.773L106.514 120.214C106.403 120.447 106.214 120.632 105.979 120.738C105.745 120.844 105.48 120.864 105.232 120.794L89.4492 116.302C89.2982 116.258 89.1586 116.183 89.0398 116.08C88.9211 115.977 88.826 115.85 88.7612 115.707C88.6963 115.564 88.6632 115.409 88.6641 115.253C88.665 115.096 88.7 114.941 88.7665 114.799L91.6026 108.811C91.707 108.574 91.8957 108.384 92.1323 108.277C92.3689 108.17 92.6369 108.154 92.8846 108.232L101.92 110.807Z" fill="#414141"/>
<path fill-rule="evenodd" clip-rule="evenodd" d="M50.0285 74.7983C51.0163 74.2259 51.9896 72.8748 52.7558 71.3317C53.6347 69.5604 54.2084 67.5827 54.2084 66.2605V65.8259V64.8008C54.2302 63.4062 54.2484 62.1529 53.9106 61.5733C53.6274 61.088 52.7885 61.1713 50.7658 62.3413C46.4951 64.808 46.5277 67.1082 46.5713 70.0712V71.0891V71.5273C46.5719 72.1449 46.6801 72.7578 46.8909 73.3385C47.0362 73.7859 47.285 74.1929 47.6172 74.5266C47.9574 74.8171 48.3752 75.0021 48.8193 75.059C49.2317 75.0925 49.644 74.9935 49.9959 74.7765L50.0285 74.7983ZM54.0922 71.991C53.2097 73.7659 52.0368 75.3597 50.7767 76.0841C50.1546 76.4608 49.4278 76.6284 48.7031 76.5623C47.9686 76.4768 47.2755 76.1783 46.7094 75.7038C46.1721 75.2073 45.7676 74.5847 45.5327 73.8927C45.2601 73.1426 45.1211 72.3506 45.1223 71.5527V71.1144C45.1223 71.1144 45.1223 70.2342 45.1223 70.1146C45.0715 66.6626 45.0352 63.9821 50.0576 61.059C53.05 59.3275 54.4954 59.5521 55.2398 60.8344C55.7846 61.7653 55.7627 63.2142 55.7373 64.8189C55.7373 65.0507 55.7373 65.2789 55.7373 65.8259V66.2605C55.7046 67.8036 55.0655 70.0313 54.0922 71.9837V71.991Z" fill="#414141"/>
<path fill-rule="evenodd" clip-rule="evenodd" d="M41.993 90.9141L58.7271 81.134V74.7914L56.7879 74.3929L53.9371 75.2514L52.3393 77.1676L50.4037 78.8447L48.715 79.2287L47.1098 78.7252L45.0726 80.6305L42.752 83.1661L41.993 85.7234V90.9141Z" fill="url(#paint3_linear_637_7615)"/>
<path fill-rule="evenodd" clip-rule="evenodd" d="M52.3167 72.3787C52.3167 72.1808 52.3954 71.991 52.5357 71.8511C52.676 71.7112 52.8664 71.6326 53.0648 71.6326C53.2632 71.6326 53.4534 71.7112 53.5937 71.8511C53.734 71.991 53.8129 72.1808 53.8129 72.3787C53.8129 72.8134 53.8128 73.6646 53.8455 74.15C53.9675 74.1591 54.0888 74.176 54.2087 74.2007C55.1284 73.8804 56.0962 73.7188 57.0704 73.7226C57.5698 73.7251 58.061 73.8495 58.5012 74.0849C58.9497 74.3455 59.2859 74.7621 59.4453 75.2548C59.5563 75.6058 59.6018 75.9741 59.5797 76.3415V80.8874C59.5797 81.0844 59.5013 81.2733 59.3617 81.4125C59.2221 81.5518 59.0327 81.63 58.8352 81.63C58.6378 81.63 58.4485 81.5518 58.3089 81.4125C58.1693 81.2733 58.0908 81.0844 58.0908 80.8874V76.2763C58.105 76.0908 58.0853 75.9042 58.0327 75.7257C57.9864 75.5731 57.8839 75.4437 57.7458 75.3635C57.5203 75.2505 57.2718 75.191 57.0195 75.1896C56.1587 75.1998 55.3062 75.3579 54.4992 75.6569C54.3945 75.7012 54.2807 75.7204 54.1672 75.7128C54.0536 75.7053 53.9434 75.6713 53.8455 75.6134C53.8455 75.6134 53.5732 75.6134 53.3117 75.6134H53.2682C53.1381 75.6143 53.0101 75.5813 52.8968 75.5178C52.7834 75.4543 52.6886 75.3624 52.6217 75.2512C52.3312 74.7477 52.3312 73.0778 52.3312 72.3751L52.3167 72.3787Z" fill="#414141"/>
<path fill-rule="evenodd" clip-rule="evenodd" d="M47.0028 75.7372C47.0028 75.5402 47.0812 75.3513 47.2208 75.2121C47.3605 75.0728 47.5498 74.9946 47.7472 74.9946C47.9447 74.9946 48.1341 75.0728 48.2737 75.2121C48.4133 75.3513 48.4917 75.5402 48.4917 75.7372C48.4917 76.1429 48.4336 76.7297 48.3791 77.2549C48.3392 77.6425 48.3029 77.9793 48.3029 78.1786C48.3039 78.3371 48.2544 78.4919 48.1613 78.6205C48.0305 78.8234 47.8873 79.0182 47.7327 79.2037C47.5656 79.4138 47.3696 79.642 47.1699 79.8666C47.1436 79.8982 47.1144 79.9273 47.0827 79.9535C45.7991 80.9742 44.6573 82.1607 43.6872 83.4816C43.0154 84.456 42.5977 85.4087 42.5977 86.2671V90.545C42.5977 90.7419 42.5193 90.9308 42.3797 91.0701C42.2401 91.2093 42.0507 91.2876 41.8532 91.2876C41.6558 91.2876 41.4665 91.2093 41.3269 91.0701C41.1873 90.9308 41.1088 90.7419 41.1088 90.545V86.2671C41.1088 85.0899 41.6136 83.8583 42.4525 82.6449C43.4863 81.2213 44.7079 79.9431 46.084 78.8451C46.2511 78.6531 46.4144 78.4611 46.5633 78.2764C46.6614 78.1568 46.745 78.0482 46.8103 77.954C46.8103 77.733 46.8539 77.436 46.8866 77.1136C46.9447 76.6102 47.0028 76.0559 47.0028 75.7372Z" fill="#414141"/>
<path fill-rule="evenodd" clip-rule="evenodd" d="M52.5554 75.2661C52.629 75.0831 52.7726 74.9367 52.9544 74.8593C53.1363 74.7818 53.3416 74.7796 53.525 74.8531C53.7085 74.9266 53.8552 75.0698 53.9328 75.2512C54.0104 75.4325 54.0127 75.6372 53.939 75.8202C53.6379 76.5404 53.2126 77.2024 52.6825 77.7763C52.1304 78.3965 51.4877 78.9302 50.7759 79.3592C50.1551 79.7271 49.4583 79.9489 48.7386 80.0076C47.9397 80.0547 47.2606 79.8011 46.9228 79.2071C46.8737 79.1226 46.8418 79.0294 46.8288 78.9327C46.8158 78.8359 46.8221 78.7375 46.8472 78.6432C46.8723 78.5488 46.9158 78.4603 46.9752 78.3828C47.0347 78.3052 47.1088 78.24 47.1934 78.191C47.2781 78.142 47.3716 78.1102 47.4686 78.0972C47.5656 78.0843 47.6642 78.0905 47.7588 78.1155C47.8534 78.1406 47.9421 78.184 48.0198 78.2433C48.0976 78.3025 48.1629 78.3765 48.2121 78.4609C48.2447 78.5152 48.4191 78.537 48.666 78.5225C49.1521 78.4775 49.6216 78.3227 50.0387 78.0697C50.6169 77.7234 51.1386 77.2909 51.5858 76.7874C51.9937 76.3393 52.3216 75.8247 52.5554 75.2661Z" fill="#414141"/>
<path fill-rule="evenodd" clip-rule="evenodd" d="M46.6465 72.4475C46.6226 72.5426 46.5802 72.6322 46.5217 72.7109C46.4632 72.7897 46.3897 72.8562 46.3054 72.9067C46.1351 73.0086 45.9312 73.0389 45.7386 72.9908C45.546 72.9428 45.3804 72.8204 45.2783 72.6506C45.1761 72.4808 45.1457 72.2774 45.1938 72.0853C45.3122 71.4874 45.3911 70.8824 45.43 70.2741C45.5244 69.1875 45.626 68.1008 45.9674 67.4886C46.1752 67.0058 46.5312 66.6012 46.9843 66.3331L47.0314 66.3041C47.4289 66.0785 47.8519 65.901 48.2916 65.7753H48.3243C49.8568 65.3007 50.0602 65.1305 50.8664 64.4713C51.1169 64.2612 51.4147 64.0148 51.7053 63.783L51.7488 63.7541C52.1285 63.4414 52.5385 63.1672 52.9727 62.9354C53.5828 62.6348 54.1456 62.5732 54.5923 62.9644C54.6975 63.0549 54.7754 63.1728 54.8174 63.3049C54.9929 63.8792 55.1144 64.4686 55.1806 65.0653C55.2637 65.676 55.385 66.2809 55.5437 66.8764C55.6087 67.0628 55.5969 67.2673 55.5107 67.4449C55.4246 67.6226 55.2712 67.7588 55.0844 67.8237C54.8975 67.8885 54.6925 67.8767 54.5144 67.7907C54.3363 67.7048 54.1997 67.5518 54.1347 67.3654C53.9472 66.6843 53.8089 65.9907 53.7208 65.2899C53.659 64.8842 53.6191 64.522 53.5936 64.2901C53.2695 64.4716 52.962 64.6813 52.6749 64.9168L52.6385 64.9457C52.2499 65.2536 52.0175 65.4457 51.8214 65.6087C50.8445 66.42 50.594 66.6301 48.7855 67.1916H48.7491C48.4275 67.2763 48.1167 67.3979 47.8231 67.5538L47.7941 67.5755C47.6009 67.686 47.4463 67.8529 47.351 68.0537C47.3363 68.0991 47.3168 68.1428 47.2929 68.1841C47.0968 68.521 47.0096 69.4627 46.9297 70.3937C46.8847 71.0841 46.7901 71.7705 46.6465 72.4475Z" fill="#414141"/>
<path fill-rule="evenodd" clip-rule="evenodd" d="M42.264 91.3057C42.0926 91.4041 41.889 91.4307 41.6979 91.3794C41.5069 91.3281 41.344 91.2032 41.2453 91.0322C41.1466 90.8612 41.12 90.6581 41.1715 90.4675C41.2229 90.277 41.3481 90.1146 41.5195 90.0162L42.442 89.4873L58.3807 80.3157C58.5522 80.2172 58.7558 80.1907 58.9468 80.242C59.1379 80.2933 59.3006 80.4182 59.3994 80.5892C59.4981 80.7602 59.5247 80.9633 59.4733 81.1538C59.4219 81.3444 59.2967 81.5068 59.1252 81.6053L42.264 91.3057Z" fill="#414141"/>
<path opacity="0.2" fill-rule="evenodd" clip-rule="evenodd" d="M144.934 145.935C137.792 145.935 132 148.051 132 150.666C132 153.281 137.792 155.397 144.934 155.397C152.076 155.397 157.872 153.281 157.872 150.666C157.872 148.051 152.08 145.935 144.934 145.935Z" fill="black"/>
<path fill-rule="evenodd" clip-rule="evenodd" d="M139.944 89.1613L134.587 92.1495L136.992 101.204L142.349 98.2187L139.944 89.1613Z" fill="white"/>
<path fill-rule="evenodd" clip-rule="evenodd" d="M139.47 90.2073L135.413 92.4629L137.461 100.154L141.515 97.8985L139.47 90.2073ZM134.12 91.441L139.583 88.4012C139.688 88.3433 139.805 88.3095 139.926 88.3024C140.047 88.2953 140.167 88.3151 140.279 88.3602C140.39 88.4053 140.49 88.4746 140.569 88.5626C140.648 88.6506 140.705 88.755 140.736 88.8677L143.182 98.0673C143.229 98.2292 143.219 98.4017 143.153 98.5574C143.087 98.713 142.968 98.8428 142.816 98.926L137.372 101.954C137.305 101.992 137.233 102.021 137.158 102.04C137.058 102.065 136.954 102.071 136.853 102.057C136.751 102.043 136.653 102.01 136.564 101.959C136.476 101.909 136.399 101.842 136.337 101.762C136.276 101.683 136.231 101.592 136.207 101.496L133.767 92.3369C133.708 92.1719 133.711 91.9925 133.774 91.8292C133.838 91.6659 133.958 91.5288 134.114 91.441H134.12Z" fill="#414141"/>
<path fill-rule="evenodd" clip-rule="evenodd" d="M136.131 103.785L138.899 103.393L138.151 100.097L136.632 99.8482L135.667 96.9031C134.762 97.2336 134.466 97.6576 134.631 99.7078C134.762 101.445 134.993 101.518 136.131 103.785Z" fill="white"/>
<path fill-rule="evenodd" clip-rule="evenodd" d="M136.317 102.983L137.143 102.837L136.776 100.747L136.048 100.607C135.898 100.575 135.761 100.501 135.653 100.396C135.545 100.29 135.469 100.156 135.436 100.01L135.409 99.9055C135.491 100.956 135.638 101.303 136.082 102.356L136.333 102.953L136.317 102.983ZM138.223 104.228L135.975 104.628C135.788 104.666 135.594 104.639 135.426 104.551C135.258 104.463 135.127 104.32 135.057 104.147C134.87 103.685 134.705 103.294 134.568 102.953C134.014 101.637 133.858 101.276 133.76 99.7443C133.687 98.598 133.726 97.8786 133.895 97.3562C133.978 97.0772 134.126 96.8208 134.328 96.607C134.53 96.3931 134.779 96.2276 135.057 96.1234C135.109 96.0996 135.163 96.0806 135.219 96.0666C135.426 96.0159 135.645 96.047 135.828 96.1533C136.012 96.2596 136.145 96.4323 136.198 96.6338L136.859 99.1592L137.587 99.2995C137.756 99.3217 137.914 99.3958 138.037 99.5112C138.16 99.6266 138.242 99.7772 138.272 99.9413L138.884 103.302C138.905 103.406 138.904 103.512 138.882 103.615C138.86 103.718 138.817 103.816 138.755 103.902C138.694 103.989 138.615 104.062 138.523 104.118C138.432 104.174 138.33 104.211 138.223 104.228Z" fill="#414141"/>
<path fill-rule="evenodd" clip-rule="evenodd" d="M150.172 147.106C149.958 146.948 150.345 146.546 150.691 146.333C151.037 146.121 151.535 145.8 151.95 145.996L156.492 148.359C156.643 148.414 156.774 148.519 156.867 148.658C156.96 148.797 157.01 148.964 157.01 149.135C157.01 149.306 156.96 149.473 156.867 149.613C156.774 149.752 156.643 149.856 156.492 149.912C156.102 150.125 155.67 150.236 155.233 150.236C154.795 150.236 154.364 150.125 153.974 149.912L150.172 147.106Z" fill="white"/>
<path fill-rule="evenodd" clip-rule="evenodd" d="M149.68 147.439C149.556 147.366 149.453 147.268 149.378 147.152C149.251 146.956 149.215 146.722 149.279 146.502C149.314 146.369 149.377 146.244 149.464 146.132C149.678 145.876 149.949 145.662 150.26 145.505C150.766 145.241 151.485 144.866 152.291 145.218L156.941 147.247C157.191 147.376 157.408 147.55 157.578 147.76C157.769 147.99 157.872 148.27 157.872 148.558C157.872 148.845 157.769 149.125 157.578 149.356L157.53 149.413C157.362 149.599 157.157 149.754 156.926 149.872C156.674 150.002 156.403 150.099 156.12 150.158H156.041C155.777 150.209 155.508 150.235 155.238 150.236C154.651 150.241 154.071 150.112 153.554 149.86L149.649 147.442L149.68 147.439ZM151.59 146.579L151.399 146.677L154.468 148.579C154.723 148.687 155.002 148.739 155.283 148.731C155.429 148.732 155.575 148.721 155.719 148.697H155.776C155.9 148.673 156.019 148.633 156.13 148.576L151.59 146.579Z" fill="#414141"/>
<path fill-rule="evenodd" clip-rule="evenodd" d="M143.265 151.177C143.078 151.05 143.416 150.728 143.719 150.555C144.022 150.382 144.457 150.128 144.82 150.285L148.793 152.176C148.926 152.22 149.041 152.303 149.123 152.414C149.204 152.526 149.248 152.659 149.248 152.796C149.248 152.934 149.204 153.067 149.123 153.178C149.041 153.29 148.926 153.373 148.793 153.416C148.452 153.587 148.075 153.677 147.692 153.677C147.309 153.677 146.932 153.587 146.591 153.416L143.265 151.177Z" fill="white"/>
<path fill-rule="evenodd" clip-rule="evenodd" d="M142.735 152.596C142.626 152.521 142.534 152.424 142.467 152.31C142.352 152.116 142.32 151.884 142.375 151.665C142.409 151.53 142.467 151.404 142.547 151.29C142.741 151.039 142.985 150.83 143.262 150.676L143.334 150.633C143.787 150.373 144.409 150.044 145.099 150.376L149.215 152.376L149.309 152.431C149.52 152.554 149.703 152.719 149.848 152.916L149.894 152.988C150.043 153.215 150.118 153.482 150.11 153.754C150.102 154.025 150.01 154.288 149.848 154.505C149.697 154.716 149.502 154.893 149.278 155.023L149.227 155.051C149.014 155.163 148.787 155.247 148.553 155.303C148.296 155.365 148.031 155.397 147.766 155.397C147.501 155.396 147.237 155.365 146.979 155.303C146.727 155.242 146.485 155.146 146.26 155.017L142.755 152.605L142.735 152.596ZM144.446 151.739L144.272 151.833L147.025 153.734C147.116 153.779 147.211 153.815 147.31 153.839C147.6 153.9 147.901 153.9 148.191 153.839C148.29 153.815 148.386 153.78 148.476 153.734L148.511 153.714L144.446 151.739Z" fill="#414141"/>
<path fill-rule="evenodd" clip-rule="evenodd" d="M162.888 116.115L160.223 115.828L159.597 118.776L160.366 119.24L160.341 121.849C161.289 121.776 162.015 121.661 162.67 119.892C163.221 118.405 163.049 118.29 162.888 116.115Z" fill="white"/>
<path fill-rule="evenodd" clip-rule="evenodd" d="M162.29 116.603L161.505 116.496L161.174 118.489L161.464 118.714C161.552 118.779 161.624 118.862 161.674 118.957C161.724 119.052 161.752 119.156 161.754 119.262V120.751C161.914 120.43 162.04 120.094 162.131 119.749C162.45 118.623 162.421 118.314 162.351 117.189L162.314 116.592L162.29 116.603ZM160.968 114.976L163.125 115.274C163.301 115.299 163.462 115.38 163.582 115.503C163.702 115.627 163.773 115.786 163.783 115.953C163.801 116.334 163.83 116.775 163.856 117.12C163.943 118.424 163.969 118.782 163.566 120.132C163.276 121.206 162.908 121.803 162.499 122.162C162.101 122.502 161.587 122.696 161.05 122.709H160.948C160.746 122.706 160.554 122.629 160.412 122.493C160.271 122.357 160.191 122.174 160.191 121.984L160.209 119.582L159.919 119.349C159.803 119.272 159.713 119.166 159.658 119.043C159.602 118.921 159.584 118.786 159.606 118.654L160.113 115.559C160.148 115.375 160.258 115.21 160.419 115.101C160.581 114.992 160.781 114.947 160.977 114.976H160.968Z" fill="#414141"/>
<path fill-rule="evenodd" clip-rule="evenodd" d="M160.477 107.821L160.684 115.502C160.684 115.816 160.807 116.118 161.026 116.34C161.245 116.563 161.541 116.688 161.851 116.688C162.16 116.688 162.457 116.563 162.676 116.34C162.895 116.118 163.017 115.816 163.017 115.502L163.047 107.311C163.046 107.05 162.978 106.793 162.848 106.567L157.447 97.2702C157.324 97.006 157.15 96.7702 156.934 96.5771C156.719 96.3841 156.467 96.238 156.193 96.1477C155.92 96.0574 155.632 96.0249 155.346 96.0522C155.06 96.0795 154.782 96.166 154.53 96.3064C153.542 96.8847 153.291 97.6527 153.86 98.655C155.618 101.766 158.517 104.737 160.477 107.821Z" fill="white"/>
<path fill-rule="evenodd" clip-rule="evenodd" d="M161.307 107.462L161.518 115.523C161.518 115.602 161.542 115.679 161.586 115.743C161.628 115.812 161.689 115.866 161.761 115.898C161.811 115.919 161.864 115.93 161.918 115.933C161.997 115.931 162.073 115.905 162.138 115.858C162.202 115.812 162.252 115.747 162.283 115.672V115.638C162.295 115.597 162.301 115.554 162.301 115.511L162.328 106.944C162.33 106.88 162.322 106.816 162.304 106.755C162.289 106.693 162.265 106.633 162.233 106.578L156.737 96.8614C156.716 96.8223 156.697 96.7819 156.681 96.7405L156.622 96.6289C156.446 96.3492 156.182 96.1421 155.877 96.0431C155.571 95.9441 155.241 95.9594 154.945 96.0863L154.835 96.1452C154.582 96.2624 154.379 96.4717 154.263 96.7343C154.243 96.8659 154.249 97.0002 154.28 97.1295C154.31 97.2588 154.365 97.3806 154.441 97.4877C155.405 99.2333 156.725 100.957 158.043 102.678C159.15 104.123 160.256 105.568 161.164 107.019C161.244 107.149 161.289 107.301 161.292 107.456L161.307 107.462ZM159.954 115.523L159.749 107.722C158.889 106.368 157.865 105.028 156.838 103.692C155.482 101.918 154.12 100.142 153.103 98.2938C152.914 97.9981 152.787 97.6639 152.731 97.3134C152.675 96.9628 152.69 96.6038 152.776 96.2599C152.995 95.5852 153.46 95.0281 154.07 94.7097C154.151 94.6587 154.235 94.6132 154.322 94.5732C154.968 94.2821 155.693 94.2432 156.365 94.4634C157.036 94.6836 157.609 95.1483 157.981 95.7731L158.013 95.8227L158.111 96.0243L163.603 105.729C163.704 105.911 163.782 106.106 163.835 106.309C163.885 106.511 163.909 106.72 163.909 106.929L163.879 115.489C163.88 115.734 163.839 115.976 163.758 116.205L163.731 116.289C163.528 116.791 163.143 117.188 162.661 117.395C162.178 117.601 161.637 117.599 161.155 117.39C160.799 117.231 160.495 116.967 160.28 116.63C160.073 116.302 159.959 115.919 159.954 115.526V115.523Z" fill="#414141"/>
<path fill-rule="evenodd" clip-rule="evenodd" d="M149.875 95.5372C150.347 95.8696 150.87 96.0429 151.401 96.0429C151.931 96.0429 152.454 95.8696 152.927 95.5372C153.771 94.867 153.771 93.7779 152.927 93.1078C152.454 92.7754 151.931 92.6021 151.401 92.6021C150.87 92.6021 150.347 92.7754 149.875 93.1078C149.039 93.7779 149.039 94.867 149.875 95.5372Z" fill="white"/>
<path fill-rule="evenodd" clip-rule="evenodd" d="M150.831 94.5916C151.144 94.8104 151.488 94.9241 151.835 94.9241C152.183 94.9241 152.527 94.8104 152.84 94.5916C152.924 94.5314 152.996 94.4428 153.051 94.3332L153.036 94.2963C152.982 94.1998 152.914 94.1206 152.837 94.0637C152.523 93.8475 152.18 93.7353 151.833 93.7353C151.485 93.7353 151.142 93.8475 150.829 94.0637L150.795 94.0895C150.723 94.1457 150.661 94.2253 150.614 94.3221V94.348C150.67 94.4567 150.743 94.5451 150.826 94.6064L150.831 94.5916ZM151.835 96.9027C151.248 96.913 150.668 96.7059 150.15 96.3009C149.859 96.0669 149.614 95.7273 149.439 95.3152C149.317 95.0126 149.251 94.6691 149.248 94.3184C149.251 93.9685 149.318 93.6259 149.442 93.3254C149.605 92.9315 149.835 92.6048 150.11 92.3766L150.15 92.3397C150.671 91.9469 151.25 91.7418 151.837 91.7418C152.424 91.7418 153.002 91.9469 153.523 92.3397C153.796 92.5609 154.028 92.8736 154.201 93.2516L154.232 93.3217C154.357 93.6227 154.423 93.9672 154.423 94.3184C154.423 94.6696 154.357 95.0142 154.232 95.3152C154.059 95.728 153.815 96.0679 153.523 96.3009C153.005 96.7063 152.424 96.9135 151.835 96.9027Z" fill="#3D6680"/>
<path fill-rule="evenodd" clip-rule="evenodd" d="M158.735 117.464L158.263 133.631C158.263 133.701 158.263 133.772 158.263 133.84L157.584 147.101C157.584 147.503 157.418 147.889 157.121 148.173C156.825 148.457 156.422 148.617 156.003 148.617C155.583 148.617 155.181 148.457 154.884 148.173C154.588 147.889 154.421 147.503 154.421 147.101L153.746 133.846C153.746 133.775 153.746 133.704 153.746 133.631L153.052 123.483L151.745 124.207L150.82 137.763C150.82 137.838 150.82 137.909 150.82 137.976L150.141 151.233C150.151 151.438 150.117 151.642 150.042 151.834C149.966 152.025 149.852 152.2 149.704 152.348C149.556 152.496 149.379 152.614 149.182 152.695C148.986 152.775 148.775 152.816 148.561 152.816C148.347 152.816 148.136 152.775 147.94 152.695C147.743 152.614 147.566 152.496 147.418 152.348C147.27 152.2 147.156 152.025 147.08 151.834C147.005 151.642 146.971 151.438 146.981 151.233L146.302 137.982C146.302 137.911 146.302 137.837 146.302 137.766L145.812 122.64C145.344 119.513 156.989 112.711 158.735 117.464Z" fill="url(#paint4_linear_637_7615)"/>
<path fill-rule="evenodd" clip-rule="evenodd" d="M159.59 117.466C159.281 127.671 158.946 137.063 158.429 147.208C158.429 147.821 158.176 148.409 157.725 148.842C157.274 149.275 156.662 149.519 156.024 149.519C155.386 149.519 154.774 149.275 154.323 148.842C153.872 148.409 153.618 147.821 153.618 147.208C153.711 141.194 152.857 132.602 152.42 126.189C151.838 134.713 151.371 142.818 150.934 151.363C150.934 151.666 150.873 151.967 150.752 152.248C150.631 152.529 150.454 152.784 150.231 152.999C150.007 153.214 149.742 153.384 149.45 153.5C149.158 153.617 148.845 153.677 148.529 153.677C147.891 153.674 147.28 153.43 146.829 152.996C146.379 152.563 146.125 151.975 146.123 151.363L145.451 138.086C145.012 133.229 145.104 127.596 144.947 122.644C144.764 120.976 146.99 118.659 149.758 117.029C150.851 116.376 152.017 115.845 153.234 115.444C154.323 115.062 155.484 114.907 156.64 114.989C158.002 115.14 159.061 115.792 159.553 117.127C159.591 117.233 159.604 117.346 159.593 117.457L159.59 117.466ZM157.485 133.64L157.959 117.538C157.826 117.256 157.615 117.016 157.349 116.843C157.083 116.67 156.772 116.572 156.451 116.559C155.532 116.505 154.611 116.637 153.748 116.946C152.649 117.308 151.596 117.788 150.609 118.376C148.309 119.736 146.43 121.469 146.584 122.498V122.576C146.894 132.182 147.148 141.777 147.77 151.369C147.77 151.566 147.852 151.755 147.997 151.894C148.142 152.034 148.339 152.112 148.544 152.112C148.749 152.112 148.946 152.034 149.091 151.894C149.236 151.755 149.318 151.566 149.318 151.369C149.677 147.139 149.937 142.009 150.011 137.768L150.94 124.125C150.949 123.996 150.992 123.871 151.064 123.762C151.136 123.652 151.235 123.562 151.352 123.498L152.615 122.796C152.734 122.72 152.872 122.675 153.014 122.665C153.157 122.656 153.299 122.683 153.428 122.743C153.556 122.803 153.666 122.895 153.746 123.008C153.826 123.122 153.874 123.254 153.884 123.391C154.429 131.379 154.758 139.219 155.275 147.202C155.274 147.3 155.293 147.397 155.332 147.487C155.371 147.577 155.428 147.659 155.501 147.728C155.571 147.797 155.656 147.851 155.749 147.888C155.842 147.925 155.942 147.943 156.042 147.942C156.143 147.943 156.244 147.924 156.337 147.887C156.431 147.85 156.516 147.796 156.587 147.727C156.659 147.659 156.716 147.578 156.754 147.488C156.793 147.398 156.813 147.302 156.813 147.205C157.157 142.958 157.405 137.917 157.485 133.64Z" fill="#414141"/>
<path fill-rule="evenodd" clip-rule="evenodd" d="M158.715 116.178L157.205 109.035L157.941 97.8339C158.032 97.4044 157.428 95.9706 156.845 95.6388C156.344 95.3469 155.773 95.1896 155.19 95.1828C154.607 95.1761 154.032 95.3201 153.524 95.6002L146.992 99.2708C146.545 99.5166 145.884 100.083 146.014 100.625L146.92 112.753L144.963 121.048C144.83 121.602 145.21 122.008 145.694 122.281C146.259 122.562 146.884 122.709 147.518 122.709C148.151 122.709 148.776 122.562 149.341 122.281L157.123 117.875C157.769 117.514 158.899 117.04 158.715 116.178Z" fill="white"/>
<path fill-rule="evenodd" clip-rule="evenodd" d="M157.973 116.356L156.447 109.201C156.437 109.133 156.437 109.064 156.447 108.996L157.189 97.7245L157.207 97.6082C157.151 97.351 157.056 97.1036 156.923 96.8749C156.825 96.6384 156.676 96.425 156.487 96.2489C156.088 96.0269 155.639 95.906 155.181 95.8971C154.754 95.8879 154.332 95.9908 153.96 96.1952C151.766 97.4204 149.539 98.741 147.323 99.9096C147.122 100.02 146.945 100.168 146.802 100.345C146.771 100.386 146.741 100.375 146.744 100.392C146.758 100.445 146.766 100.499 146.768 100.553L147.683 112.722C147.69 112.812 147.68 112.903 147.656 112.99L145.688 121.292C145.681 121.307 145.678 121.322 145.678 121.338C145.678 121.354 145.681 121.37 145.688 121.384C145.777 121.51 145.897 121.612 146.036 121.683L146.069 121.703C146.506 121.912 146.987 122.014 147.473 122.002C147.973 122.015 148.469 121.904 148.913 121.68L156.774 117.247L157.048 117.098C157.457 116.88 158.016 116.582 157.964 116.394V116.365L157.973 116.356ZM158.052 108.984L159.553 116.066C159.837 117.393 158.675 118.013 157.82 118.469L157.585 118.597L149.722 123.03C149.037 123.38 148.278 123.565 147.505 123.569C146.733 123.574 145.971 123.398 145.282 123.057L145.23 123.03C144.855 122.827 144.539 122.532 144.315 122.174C144.2 121.989 144.124 121.784 144.092 121.57C144.059 121.356 144.071 121.138 144.126 120.928L146.075 112.719L145.16 100.691C145.125 100.471 145.136 100.246 145.193 100.031C145.251 99.8155 145.352 99.6139 145.493 99.4385C145.771 99.0745 146.123 98.7701 146.527 98.5442L153.149 94.8389C153.772 94.4882 154.482 94.3099 155.202 94.3232C155.936 94.3305 156.656 94.5224 157.292 94.8806C157.765 95.2106 158.137 95.6599 158.369 96.1803C158.646 96.6903 158.794 97.2576 158.8 97.8348L158.052 108.984Z" fill="#414141"/>
<path fill-rule="evenodd" clip-rule="evenodd" d="M153.258 93.4623H149.524L149.25 97.2001C149.247 97.239 149.247 97.2782 149.25 97.3171C149.269 97.5165 149.337 97.7071 149.449 97.8693C149.561 98.0315 149.711 98.1594 149.886 98.2398C150.356 98.492 150.877 98.6235 151.405 98.6235C151.933 98.6235 152.454 98.492 152.925 98.2398C153.099 98.1596 153.25 98.0318 153.362 97.8696C153.474 97.7073 153.542 97.5166 153.56 97.3171C153.56 97.277 153.56 97.2402 153.56 97.2001L153.258 93.4623Z" fill="white"/>
<path fill-rule="evenodd" clip-rule="evenodd" d="M152.776 94.3624H150.884L150.694 97.304L150.71 97.3339C150.757 97.3908 150.809 97.439 150.867 97.477C151.166 97.6479 151.492 97.7365 151.823 97.7365C152.153 97.7365 152.48 97.6479 152.779 97.477L152.809 97.4537C152.866 97.4167 152.917 97.3657 152.958 97.304C152.999 96.918 152.803 94.9081 152.77 94.3624H152.776ZM150.212 92.6021H153.448C153.631 92.603 153.808 92.6874 153.943 92.8384C154.077 92.9894 154.16 93.196 154.175 93.4173C154.257 94.7117 154.359 96.0195 154.423 97.3173C154.42 97.6768 154.324 98.0262 154.147 98.3156C153.99 98.5731 153.792 98.7893 153.563 98.9511L153.519 98.9844C153 99.3124 152.424 99.4837 151.838 99.4837C151.253 99.4837 150.676 99.3124 150.157 98.9844C149.934 98.8329 149.737 98.632 149.576 98.3921L149.523 98.3156C149.348 98.0256 149.252 97.6766 149.248 97.3173C149.375 96.0794 149.413 94.7117 149.493 93.4539C149.5 93.2253 149.579 93.0086 149.716 92.8496C149.852 92.6907 150.034 92.6019 150.223 92.6021H150.212ZM152.966 97.304C152.966 97.304 152.963 97.3073 152.963 97.304H152.966Z" fill="#414141"/>
<path fill-rule="evenodd" clip-rule="evenodd" d="M152.929 93.9452C152.456 94.1932 151.934 94.3224 151.404 94.3224C150.874 94.3224 150.352 94.1932 149.88 93.9452C149.038 93.4421 149.038 92.6385 149.88 92.119C150.352 91.871 150.874 91.7418 151.404 91.7418C151.934 91.7418 152.456 91.871 152.929 92.119C153.771 92.6254 153.771 93.4421 152.929 93.9452Z" fill="white"/>
<path fill-rule="evenodd" clip-rule="evenodd" d="M153.512 94.6892C152.995 95.0133 152.42 95.1826 151.837 95.1826C151.253 95.1826 150.678 95.0133 150.161 94.6892C149.866 94.4962 149.619 94.2141 149.444 93.8712C149.317 93.6166 149.25 93.3265 149.248 93.0305C149.25 92.7365 149.317 92.4484 149.444 92.1963C149.617 91.8533 149.863 91.5703 150.156 91.3751L150.207 91.3426C150.721 91.0341 151.289 90.8761 151.864 90.8817C152.44 90.8874 153.005 91.0565 153.515 91.3751L153.564 91.4108C153.837 91.6004 154.065 91.8695 154.227 92.1931C154.353 92.4466 154.42 92.7356 154.423 93.0305C154.421 93.3255 154.354 93.6147 154.227 93.8679C154.055 94.2132 153.808 94.4969 153.512 94.6892ZM151.835 93.4427C152.166 93.4551 152.495 93.3668 152.789 93.1863C152.852 93.1473 152.908 93.0945 152.955 93.0305C152.916 92.9783 152.87 92.9344 152.819 92.9007L152.787 92.878C152.493 92.6977 152.165 92.6095 151.835 92.6215C151.518 92.6116 151.203 92.6917 150.917 92.8552L150.887 92.878C150.824 92.9184 150.767 92.971 150.718 93.0338C150.765 93.0964 150.821 93.1481 150.884 93.1863C151.178 93.3654 151.505 93.4535 151.835 93.4427Z" fill="#414141"/>
<path fill-rule="evenodd" clip-rule="evenodd" d="M151.836 84.8602C153.686 84.8602 155.44 86.3993 155.274 88.3293L154.91 92.5709C154.758 94.3554 153.82 96.0429 151.847 96.0429C149.956 96.0429 148.954 94.4735 148.782 92.5709L148.398 88.3293C148.226 86.4296 149.945 84.8602 151.836 84.8602Z" fill="white"/>
<path fill-rule="evenodd" clip-rule="evenodd" d="M151.811 84C151.922 84 152.054 84 152.203 84.0214H152.227C153.234 84.1226 154.181 84.5598 154.92 85.2655C155.301 85.6196 155.606 86.0497 155.817 86.5293C156.028 87.0088 156.141 87.5275 156.147 88.0532C156.147 88.1602 156.147 88.2672 156.147 88.3773L155.77 92.6567C155.706 93.7812 155.286 94.854 154.573 95.7135C154.221 96.0895 153.797 96.3888 153.329 96.5932C152.86 96.7977 152.356 96.9031 151.846 96.9031C151.336 96.9031 150.832 96.7977 150.363 96.5932C149.894 96.3888 149.471 96.0895 149.118 95.7135C148.406 94.854 147.985 93.7812 147.921 92.6567L147.523 88.3589C147.523 88.2366 147.523 88.1297 147.523 88.0532C147.531 87.5359 147.641 87.0255 147.846 86.5527C148.052 86.0799 148.349 85.6545 148.72 85.3022C149.463 84.5842 150.419 84.1409 151.437 84.0428C151.593 84.0428 151.737 84.0184 151.853 84.0184L151.811 84ZM152.063 85.6262C151.999 85.6262 151.915 85.6262 151.811 85.6262C151.722 85.6208 151.632 85.6208 151.542 85.6262C150.88 85.69 150.258 85.9772 149.774 86.4423C149.555 86.646 149.379 86.893 149.256 87.1684C149.134 87.4438 149.067 87.7417 149.061 88.0441C149.1 89.4624 149.328 91.0703 149.459 92.5069C149.5 93.2769 149.78 94.0135 150.258 94.61C150.674 95.0337 151.236 95.2717 151.823 95.2717C152.41 95.2717 152.973 95.0337 153.388 94.61C153.867 94.0149 154.146 93.2789 154.184 92.51C154.313 91.0458 154.484 89.5113 154.564 88.0502C154.558 87.7436 154.491 87.4416 154.366 87.1629C154.241 86.8842 154.061 86.6348 153.837 86.4301C153.354 85.9708 152.737 85.6862 152.081 85.6201L152.063 85.6262Z" fill="#414141"/>
<path fill-rule="evenodd" clip-rule="evenodd" d="M152.836 93.4603C150.541 93.3791 151.387 89.0551 148.386 87.7956C148.364 84.0839 154.795 83.3497 155.234 88.791C155.433 91.2461 155.133 93.5387 152.836 93.4603Z" fill="white"/>
<path fill-rule="evenodd" clip-rule="evenodd" d="M152.848 94.3198C151.2 94.2636 150.732 92.9802 150.188 91.4957C149.767 90.3483 149.288 89.0294 147.999 88.4971C147.851 88.4362 147.726 88.3278 147.641 88.1876C147.555 88.0473 147.515 87.8824 147.525 87.7164C147.532 87.0069 147.74 86.3156 148.121 85.7291C148.501 85.1425 149.039 84.6869 149.666 84.4192C150.219 84.1584 150.817 84.0166 151.423 84.0022C152.05 83.9825 152.673 84.0961 153.257 84.3364C154.695 84.9278 155.897 86.3413 156.094 88.7189V88.7396C156.204 90.094 156.165 91.4011 155.767 92.4331C155.299 93.616 154.408 94.3731 152.848 94.3198ZM151.581 90.9397C151.934 91.9067 152.238 92.7407 152.896 92.7614C153.708 92.788 154.162 92.4213 154.391 91.8387C154.673 91.0965 154.701 90.0142 154.608 88.8816V88.8638C154.467 87.1723 153.666 86.2023 152.709 85.7972C151.923 85.4775 151.047 85.4977 150.275 85.8534C149.979 85.9807 149.715 86.1783 149.505 86.4309C149.294 86.6834 149.143 86.9838 149.062 87.3083C150.563 88.1541 151.102 89.6327 151.581 90.9397Z" fill="#414141"/>
<path fill-rule="evenodd" clip-rule="evenodd" d="M154.855 89.1613C154.284 89.1627 153.736 89.3653 153.332 89.7248C152.927 90.0843 152.699 90.5714 152.698 91.0798V98.4282C152.7 98.9361 152.928 99.4225 153.333 99.7813C153.737 100.14 154.284 100.342 154.855 100.344C155.426 100.343 155.974 100.141 156.378 99.782C156.782 99.4229 157.009 98.936 157.01 98.4282V91.0798C157.009 90.5717 156.782 90.0845 156.378 89.725C155.974 89.3654 155.427 89.1627 154.855 89.1613Z" fill="white"/>
<path fill-rule="evenodd" clip-rule="evenodd" d="M154.857 89.8013C154.501 89.8021 154.16 89.9292 153.908 90.1548C153.657 90.3804 153.515 90.6862 153.514 91.0053V98.4982C153.514 98.8175 153.655 99.1237 153.907 99.3495C154.159 99.5753 154.501 99.7021 154.857 99.7021C155.213 99.7021 155.555 99.5753 155.807 99.3495C156.058 99.1237 156.2 98.8175 156.2 98.4982V91.0053C156.201 90.847 156.167 90.69 156.1 90.5438C156.032 90.3975 155.933 90.2648 155.807 90.1535C155.682 90.0414 155.534 89.9527 155.371 89.8922C155.208 89.8318 155.033 89.8009 154.857 89.8013ZM152.725 89.0944C153.005 88.8429 153.337 88.6434 153.702 88.5073C154.068 88.3711 154.459 88.301 154.855 88.301C155.251 88.301 155.643 88.3711 156.009 88.5073C156.374 88.6434 156.706 88.8429 156.985 89.0944C157.552 89.6008 157.871 90.2881 157.872 91.0053V98.4982C157.872 99.2159 157.554 99.9041 156.988 100.412C156.422 100.919 155.654 101.204 154.854 101.204C154.053 101.204 153.285 100.919 152.719 100.412C152.153 99.9041 151.835 99.2159 151.835 98.4982V91.0053C151.837 90.6493 151.917 90.2971 152.072 89.9691C152.226 89.6411 152.452 89.3438 152.735 89.0944H152.725Z" fill="#414141"/>
<path fill-rule="evenodd" clip-rule="evenodd" d="M153.95 121.94C154.16 121.843 154.403 121.823 154.628 121.884C154.854 121.945 155.045 122.084 155.163 122.27C155.28 122.457 155.315 122.677 155.259 122.887C155.204 123.096 155.063 123.278 154.866 123.395L151.497 125.171C151.392 125.228 151.277 125.265 151.156 125.281C151.036 125.297 150.913 125.291 150.795 125.263C150.678 125.235 150.567 125.186 150.471 125.118C150.374 125.051 150.293 124.966 150.232 124.87C150.172 124.773 150.133 124.667 150.118 124.556C150.103 124.446 150.112 124.334 150.144 124.227C150.177 124.12 150.233 124.02 150.309 123.933C150.384 123.845 150.478 123.773 150.585 123.719L153.95 121.94Z" fill="#414141"/>
<path fill-rule="evenodd" clip-rule="evenodd" d="M149.248 102.742L141.838 111.768C141.674 111.993 141.449 112.169 141.188 112.275C140.928 112.38 140.643 112.412 140.365 112.367C140.088 112.321 139.829 112.2 139.617 112.017C139.405 111.833 139.25 111.596 139.168 111.33L136.449 103.735C136.371 103.586 136.325 103.424 136.314 103.257C136.304 103.09 136.329 102.923 136.388 102.766C136.447 102.609 136.539 102.467 136.658 102.347C136.776 102.228 136.919 102.134 137.077 102.073C137.234 102.012 137.403 101.984 137.573 101.991C137.742 101.998 137.908 102.04 138.059 102.115C138.211 102.19 138.345 102.295 138.453 102.424C138.561 102.553 138.64 102.703 138.685 102.864L140.866 107.762L146.043 100.181L146.702 99.4838L149.248 102.742Z" fill="white"/>
<path fill-rule="evenodd" clip-rule="evenodd" d="M147.78 103.881C147.846 103.799 147.928 103.729 148.023 103.678C148.118 103.626 148.223 103.593 148.333 103.58C148.442 103.567 148.553 103.575 148.658 103.603C148.764 103.631 148.863 103.679 148.948 103.744C149.034 103.808 149.104 103.889 149.155 103.979C149.206 104.07 149.237 104.169 149.246 104.271C149.254 104.373 149.241 104.476 149.205 104.573C149.17 104.67 149.114 104.759 149.041 104.835L142.492 112.346C142.36 112.513 142.203 112.663 142.026 112.79C141.85 112.917 141.655 113.02 141.447 113.097L141.281 113.151C140.712 113.312 140.099 113.269 139.563 113.03C139.026 112.79 138.607 112.372 138.387 111.858L135.582 104.446C135.416 104.039 135.406 103.591 135.552 103.178C135.699 102.765 135.994 102.411 136.387 102.176C136.781 101.941 137.25 101.838 137.715 101.886C138.18 101.934 138.613 102.129 138.941 102.439L138.96 102.456C139.135 102.628 139.274 102.828 139.37 103.047L140.979 106.452L141.287 106.008C142.982 103.428 145.675 99.3462 147.333 98.6841C147.532 98.6054 147.756 98.6033 147.956 98.6783C148.157 98.7533 148.317 98.8992 148.401 99.084C148.486 99.2687 148.488 99.4771 148.407 99.6634C148.327 99.8496 148.17 99.9985 147.971 100.077C146.791 100.547 144.273 104.377 142.677 106.796C142.196 107.521 141.798 108.129 141.539 108.484C141.451 108.603 141.33 108.696 141.188 108.754C140.991 108.834 140.767 108.837 140.567 108.764C140.366 108.691 140.205 108.547 140.119 108.364L137.881 103.623C137.863 103.579 137.837 103.538 137.804 103.503C137.748 103.449 137.676 103.412 137.598 103.397C137.531 103.381 137.46 103.382 137.394 103.399C137.327 103.417 137.267 103.451 137.219 103.497C137.161 103.549 137.122 103.616 137.105 103.689C137.089 103.765 137.096 103.843 137.126 103.915C138.091 106.366 138.994 108.863 139.931 111.328C139.999 111.487 140.128 111.616 140.294 111.69C140.459 111.764 140.649 111.777 140.824 111.726L140.88 111.706C140.945 111.685 141.005 111.654 141.059 111.615C141.113 111.575 141.161 111.529 141.2 111.477L147.78 103.881Z" fill="#414141"/>
<defs>
<linearGradient id="paint0_linear_637_7615" x1="105.709" y1="73.8125" x2="105.709" y2="136.439" gradientUnits="userSpaceOnUse">
<stop stop-color="#4585E7"/>
<stop offset="1" stop-color="#5898F9"/>
</linearGradient>
<linearGradient id="paint1_linear_637_7615" x1="97.9656" y1="65.6381" x2="97.9656" y2="140.893" gradientUnits="userSpaceOnUse">
<stop stop-color="#4585E7"/>
<stop offset="1" stop-color="#5898F9"/>
</linearGradient>
<linearGradient id="paint2_linear_637_7615" x1="105.112" y1="86.657" x2="105.112" y2="119.775" gradientUnits="userSpaceOnUse">
<stop stop-color="#4585E7"/>
<stop offset="1" stop-color="#5898F9"/>
</linearGradient>
<linearGradient id="paint3_linear_637_7615" x1="50.3601" y1="74.3929" x2="50.3601" y2="90.9141" gradientUnits="userSpaceOnUse">
<stop stop-color="#4585E7"/>
<stop offset="1" stop-color="#5898F9"/>
</linearGradient>
<linearGradient id="paint4_linear_637_7615" x1="152.267" y1="115.828" x2="152.267" y2="152.816" gradientUnits="userSpaceOnUse">
<stop stop-color="#4585E7"/>
<stop offset="1" stop-color="#5898F9"/>
</linearGradient>
</defs>
</svg>
