<svg width="190" height="190" viewBox="0 0 190 190" fill="none" xmlns="http://www.w3.org/2000/svg">
<mask id="mask0_637_7952" style="mask-type:luminance" maskUnits="userSpaceOnUse" x="8" y="86" width="171" height="99">
<path d="M178.176 134.498L93.2994 86.4997C92.6574 86.1712 91.9467 86 91.2257 86C90.5047 86 89.794 86.1712 89.152 86.4997L9.00723 133.27C7.78053 133.972 7.66368 135.083 8.71514 135.667L93.5331 183.607C94.1811 183.95 94.903 184.13 95.6361 184.13C96.3691 184.13 97.091 183.95 97.739 183.607L177.884 136.837C179.11 136.194 179.227 135.083 178.176 134.498Z" fill="white"/>
</mask>
<g mask="url(#mask0_637_7952)">
<path d="M481.463 -106.477L-25.3335 186.131L-24.5453 187.498L482.251 -105.109L481.463 -106.477Z" fill="#EDBE5C"/>
<path d="M488.08 -103.274L-18.7675 189.245L-17.9796 190.612L488.868 -101.907L488.08 -103.274Z" fill="#EDBE5C"/>
<path d="M493.914 -99.224L-12.984 193.206L-12.1963 194.574L494.702 -97.8564L493.914 -99.224Z" fill="#EDBE5C"/>
<path d="M500.571 -96.2052L-6.27652 196.314L-5.48863 197.681L501.359 -94.8377L500.571 -96.2052Z" fill="#EDBE5C"/>
<path d="M506.005 -92.2966L-0.842529 200.222L-0.0546354 201.59L506.793 -90.9291L506.005 -92.2966Z" fill="#EDBE5C"/>
<path d="M512.468 -88.8674L5.62021 203.652L6.40806 205.019L513.256 -87.5L512.468 -88.8674Z" fill="#EDBE5C"/>
<path d="M518.32 -84.9864L11.5236 207.621L12.3117 208.988L519.108 -83.6191L518.32 -84.9864Z" fill="#EDBE5C"/>
<path d="M524.946 -81.5191L18.0472 210.911L18.8348 212.279L525.733 -80.1515L524.946 -81.5191Z" fill="#EDBE5C"/>
<path d="M530.902 -78.1197L24.0038 214.311L24.7915 215.678L531.69 -76.7521L530.902 -78.1197Z" fill="#EDBE5C"/>
<path d="M537.466 -74.3971L30.5671 218.033L31.3547 219.401L538.253 -73.0295L537.466 -74.3971Z" fill="#EDBE5C"/>
<path d="M543.405 -70.9369L36.558 221.582L37.3458 222.949L544.193 -69.5695L543.405 -70.9369Z" fill="#EDBE5C"/>
<path d="M549.969 -67.667L43.1219 224.852L43.9097 226.219L550.757 -66.2996L549.969 -67.667Z" fill="#EDBE5C"/>
<path d="M555.433 -63.7665L48.5855 228.752L49.3734 230.12L556.221 -62.399L555.433 -63.7665Z" fill="#EDBE5C"/>
<path d="M561.896 -60.3365L55.0482 232.182L55.8361 233.55L562.684 -58.9691L561.896 -60.3365Z" fill="#EDBE5C"/>
<path d="M567.748 -56.4076L60.9514 236.2L61.7395 237.567L568.536 -55.0403L567.748 -56.4076Z" fill="#EDBE5C"/>
<path d="M574.387 -53.2093L67.5392 239.31L68.3271 240.677L575.175 -51.8418L574.387 -53.2093Z" fill="#EDBE5C"/>
<path d="M580.284 -49.5779L73.4369 242.941L74.2248 244.309L581.072 -48.2104L580.284 -49.5779Z" fill="#EDBE5C"/>
<path d="M394.811 -156.529L-112.037 135.99L-111.249 137.358L395.598 -155.162L394.811 -156.529Z" fill="#EDBE5C"/>
<path d="M401.436 -152.702L-105.513 139.64L-104.726 141.008L402.223 -151.334L401.436 -152.702Z" fill="#EDBE5C"/>
<path d="M406.897 -149.3L-99.951 143.219L-99.1631 144.586L407.685 -147.933L406.897 -149.3Z" fill="#EDBE5C"/>
<path d="M413.442 -145.505L-93.5074 146.837L-92.7199 148.205L414.23 -144.137L413.442 -145.505Z" fill="#EDBE5C"/>
<path d="M419.211 -141.911L-87.5851 150.696L-86.797 152.063L420 -140.544L419.211 -141.911Z" fill="#EDBE5C"/>
<path d="M425.9 -138.831L-80.9471 153.688L-80.1593 155.055L426.688 -137.464L425.9 -138.831Z" fill="#EDBE5C"/>
<path d="M431.702 -134.845L-75.0946 157.762L-74.3064 159.13L432.49 -133.478L431.702 -134.845Z" fill="#EDBE5C"/>
<path d="M438.311 -131.623L-68.5363 160.896L-67.7485 162.264L439.099 -130.255L438.311 -131.623Z" fill="#EDBE5C"/>
<path d="M444.238 -127.941L-62.6093 164.578L-61.8214 165.945L445.026 -126.574L444.238 -127.941Z" fill="#EDBE5C"/>
<path d="M450.86 -124.554L-55.9873 167.965L-55.1994 169.332L451.648 -123.187L450.86 -124.554Z" fill="#EDBE5C"/>
<path d="M456.375 -120.741L-50.4726 171.778L-49.6847 173.146L457.163 -119.373L456.375 -120.741Z" fill="#EDBE5C"/>
<path d="M462.838 -117.311L-44.0099 175.208L-43.222 176.575L463.626 -115.944L462.838 -117.311Z" fill="#EDBE5C"/>
<path d="M468.69 -113.362L-38.1068 179.245L-37.3187 180.612L469.478 -111.995L468.69 -113.362Z" fill="#EDBE5C"/>
<path d="M475.328 -110.243L-31.5193 182.276L-30.7315 183.644L476.116 -108.875L475.328 -110.243Z" fill="#EDBE5C"/>
<path d="M481.181 -106.296L-25.616 186.312L-24.8279 187.679L481.969 -104.928L481.181 -106.296Z" fill="#EDBE5C"/>
</g>
<path fill-rule="evenodd" clip-rule="evenodd" d="M54.9982 20.7841C49.5378 18.4679 44.9414 19.167 39.5156 21.1913C31.1829 24.7713 25.1734 30.3104 19.5403 37.3053C13.6037 45.1298 9.70229 52.6779 7.00666 62.1273C5.20189 69.3565 4.47613 75.7368 6.13498 83.0582C7.45592 87.66 9.06877 90.7445 12.9356 93.6561L17.0251 96.0261L24.1942 100.159L66.1609 27.2451L54.9982 20.7841Z" fill="url(#paint0_linear_637_7952)"/>
<path fill-rule="evenodd" clip-rule="evenodd" d="M48.1749 20.5925C45.4562 20.5925 42.799 21.2955 39.9536 22.3557C32.8074 25.4402 26.7941 30.2955 20.5235 38.0778C14.5985 45.8909 10.7969 53.4274 8.21648 62.4735C6.18515 70.5861 5.93172 76.4747 7.36018 82.7782C8.53904 86.8806 9.96366 89.8383 13.6999 92.6655L23.7413 98.4504L64.4678 27.7027L54.4493 21.8986C52.2414 20.9767 50.1947 20.5925 48.1749 20.5925ZM24.1983 101.404C23.9794 101.404 23.7606 101.351 23.5724 101.247L12.3175 94.7398C7.9131 91.4325 6.24658 87.9677 4.941 83.4081C3.04407 75.0227 4.23444 68.0893 5.80114 61.8281C8.48526 52.4286 12.4097 44.6386 18.5497 36.549C25.1122 28.3941 31.4212 23.3121 39.0282 20.0394C43.878 18.2302 49.1848 16.9549 55.4899 19.6246C55.536 19.6476 55.586 19.6668 55.6321 19.6975L66.7948 26.1623C67.3938 26.5119 67.5935 27.2686 67.2517 27.8717L25.2696 100.79C25.1083 101.066 24.8357 101.278 24.5132 101.362C24.4095 101.397 24.3058 101.404 24.1983 101.404Z" fill="#414141"/>
<path fill-rule="evenodd" clip-rule="evenodd" d="M46.271 98.7155C62.7136 89.2238 76.042 66.1304 76.042 47.1355C76.042 28.1291 62.7136 20.4198 46.271 29.923C29.8246 39.4147 16.4847 62.5273 16.4847 81.5222C16.4847 100.536 29.8246 108.211 46.271 98.7155Z" fill="white"/>
<path fill-rule="evenodd" clip-rule="evenodd" d="M46.2718 98.7153H46.3064H46.2718ZM59.558 27.0995C55.7027 27.0995 51.3943 28.417 46.8939 31.0099C30.8199 40.2903 17.7373 62.9573 17.7373 81.5258C17.7373 90.2416 20.6095 96.7064 25.8279 99.7141C31.0464 102.733 38.0889 102 45.6459 97.6283C61.7161 88.3479 74.791 65.6923 74.791 47.1315C74.791 38.3927 71.915 31.9279 66.6926 28.9202C64.5807 27.7026 62.173 27.0995 59.558 27.0995ZM32.9587 104.043C29.906 104.043 27.0798 103.332 24.5761 101.884C18.5589 98.408 15.2413 91.1673 15.2413 81.5258C15.2413 62.1584 28.8769 38.5156 45.6498 28.8396C54.0016 24.0111 61.9273 23.2775 67.9406 26.7576C73.9732 30.2339 77.2947 37.4747 77.2947 47.1353C77.2947 66.4951 63.6591 90.1148 46.8939 99.7871C46.8939 99.7871 46.8939 99.787 46.8939 99.7986C41.998 102.618 37.2633 104.043 32.9587 104.043Z" fill="#414141"/>
<path fill-rule="evenodd" clip-rule="evenodd" d="M59.5831 37.1632L58.8036 36.8367C55.7777 35.838 53.5812 35.9724 50.517 36.7407C44.4806 38.6229 40.0609 42.2567 35.86 46.87C30.1155 53.5883 26.2524 60.9673 24.3862 69.6408C23.4839 74.6689 23.2919 79.1248 25.0122 83.9916C26.0835 86.5115 27.0819 87.998 29.286 89.669L32.2313 91.3591L33.3256 91.9967C37.25 94.7279 40.1492 96.1952 49.223 90.9558C58.2967 85.7163 70.6689 64.3053 70.6689 53.8034C70.6689 43.3015 67.9195 41.4923 63.5574 39.4756L59.5831 37.1632Z" fill="white"/>
<path fill-rule="evenodd" clip-rule="evenodd" d="M54.7422 37.3786C53.4865 37.3786 52.2539 37.6014 50.8178 37.951C45.7913 39.5259 41.5751 42.4491 36.7828 47.7116C31.0344 54.4299 27.3674 61.7013 25.6048 69.9062C24.8676 74.0201 24.4183 78.572 26.1885 83.5771C27.2176 86.0009 28.1622 87.2455 30.0399 88.6706L33.949 90.9139C37.3742 93.2954 39.778 94.9741 48.6021 89.8729C57.3572 84.814 69.4222 63.9139 69.4222 53.8038C69.4222 43.5554 66.7458 42.3223 63.0326 40.613L58.3133 37.9856C57.0078 37.5592 55.8711 37.3786 54.7422 37.3786ZM39.5207 95.7308C36.8366 95.7308 34.8629 94.5938 32.6127 93.0189L28.6614 90.7449C26.0003 88.7551 24.9405 87.0112 23.8615 84.4837C21.8686 78.8486 22.3447 73.9164 23.1549 69.4184C25.0134 60.7641 28.8573 53.1315 34.9128 46.0522C40.0507 40.4055 44.5971 37.2826 50.1496 35.5502C53.3329 34.7512 55.7982 34.5285 59.1927 35.6463L60.0682 36.0189C60.1181 36.0381 60.1603 36.0611 60.2064 36.0842L64.1808 38.4004C68.8117 40.5246 71.9182 42.7794 71.9182 53.8038C71.9182 64.7628 59.3309 86.5656 49.8463 92.0432C45.2307 94.709 42.0551 95.7308 39.5207 95.7308Z" fill="#414141"/>
<path fill-rule="evenodd" clip-rule="evenodd" d="M78.4957 150.199L60.0525 135.561L36.433 90.8256C33.7835 88.8282 32.6891 86.7232 31.7828 83.5734C30.3621 77.2814 31.4948 71.412 33.5991 65.4159C35.6957 59.9959 38.1572 55.7321 41.8051 51.2033C56.4122 34.1214 88.9595 39.914 107.464 45.7411C110.598 46.7283 112.925 48.7603 114.303 51.7449L118.638 61.1022C119.721 63.4415 119.975 65.7462 119.418 68.2661L115.797 84.6566L135.599 129.795L114.848 141.361C115.267 142.755 110.279 148.632 104.657 147.038C103.874 148.217 104.388 150.895 98.1023 150.695C98.3711 151.874 96.8275 152.981 94.0167 152.981L80.8957 151.214C79.9818 151.094 79.2214 150.776 78.4957 150.199Z" fill="white"/>
<path fill-rule="evenodd" clip-rule="evenodd" d="M61.039 134.743L79.2787 149.22C79.8202 149.658 80.3731 149.889 81.0643 149.985L94.1891 151.736C95.9555 151.736 96.8118 151.141 96.8963 150.93C96.8041 150.546 96.9001 150.185 97.1459 149.889C97.3916 149.581 97.8601 149.432 98.1481 149.455C102.349 149.57 102.733 148.487 103.129 147.423C103.263 147.073 103.397 146.701 103.632 146.347C103.931 145.902 104.503 145.686 105.006 145.836C107.322 146.485 109.365 145.602 110.678 144.742C112.586 143.497 113.577 141.914 113.638 141.519C113.469 140.954 113.738 140.562 114.253 140.274L134.009 129.25L114.668 85.1641C114.564 84.9221 114.533 84.6532 114.587 84.3881L118.212 67.9976C118.703 65.7428 118.488 63.7147 117.513 61.6212L113.181 52.2755C111.945 49.6058 109.902 47.812 107.099 46.9285C96.0093 43.4291 58.5968 33.4919 42.7571 52.022C39.2128 56.424 36.8167 60.5802 34.77 65.8734C32.37 72.6762 31.821 78.0578 33.0075 83.2972C33.8024 86.0629 34.7124 87.9528 37.1892 89.8235C37.3351 89.9272 37.4541 90.077 37.5424 90.2383L61.039 134.743ZM94.0701 154.229C94.0547 154.229 94.0356 154.229 94.0202 154.229L80.7378 152.455C79.5859 152.305 78.6259 151.902 77.7197 151.179L59.2842 136.54C59.1459 136.433 59.0307 136.295 58.9539 136.149L35.4612 91.6481C32.6235 89.4278 31.4792 87.0348 30.5845 83.9195C29.2751 78.1346 29.8511 72.319 32.4315 65.0053C34.5857 59.424 37.097 55.0642 40.8333 50.4317C57.7059 30.7032 96.3894 40.94 107.848 44.5546C111.304 45.6378 113.93 47.9464 115.443 51.2307L119.779 60.5764C120.977 63.1615 121.261 65.7544 120.646 68.5508L117.117 84.538L136.755 129.304C137.008 129.899 136.785 130.579 136.225 130.898L116.061 142.133C115.766 143.347 114.683 144.58 114.13 145.145C113.143 146.144 109.791 149.132 105.406 148.491C104.753 150.161 103.593 151.859 99.1772 151.955C99.0889 152.17 98.9699 152.359 98.8201 152.551C97.96 153.626 96.2281 154.229 94.0701 154.229Z" fill="#414141"/>
<path fill-rule="evenodd" clip-rule="evenodd" d="M132.237 131.289L120.456 122.039L111.459 108.092L103.579 100.194C99.7663 96.3682 97.7811 91.7933 97.5852 86.3964L97.2281 76.4783L80.1749 74.7882L73.4282 82.8586C71.6003 85.0481 68.8663 86.2619 66.1438 85.4092L59.7926 83.454C59.1859 83.2619 58.7482 82.8471 58.5293 82.2517C58.3104 81.6563 58.3757 81.0494 58.7174 80.5193L71.9767 59.6076C72.9175 58.1288 74.3037 56.961 76.0393 56.696L104.367 52.2939C105.008 52.1864 105.557 52.5167 106.045 52.9431L123.148 68.0084C138.027 81.1147 130.958 80.8804 145.773 84.4335C150.258 85.509 152.681 86.6461 159.354 89.2504C169.749 109.843 154.159 124.928 138.93 129.656C138.93 129.652 133.558 131.853 132.237 131.289Z" fill="white"/>
<path fill-rule="evenodd" clip-rule="evenodd" d="M132.794 130.129C133.554 130.214 136.123 129.449 138.454 128.493C146.199 126.081 155.776 120.234 159.708 110.95C162.438 104.497 162.024 97.5364 158.453 90.2304L155.319 88.9858C151.226 87.3687 148.976 86.4775 145.489 85.6478C136 83.3738 135.09 82.5633 131.865 78.6836C130.21 76.6939 127.706 73.6862 122.326 68.9346L105.223 53.8808C105.02 53.7003 104.747 53.5082 104.559 53.5198L76.2318 57.9218C74.5883 58.1753 73.5209 59.5044 73.0294 60.2726L59.77 81.1843C59.6356 81.3879 59.6164 81.5876 59.7047 81.8104C59.7853 82.0447 59.9236 82.1715 60.1617 82.2483L66.5167 84.215C68.5519 84.845 70.8251 84.0114 72.4686 82.0562L79.2154 73.9781C79.4804 73.6708 79.8951 73.5018 80.2983 73.5441L97.3515 75.2342C97.9697 75.288 98.4536 75.7989 98.4766 76.425L98.8376 86.3546C99.018 91.4557 100.853 95.6887 104.463 99.3149L112.343 107.205L121.393 121.183L132.794 130.129ZM132.825 132.607C132.402 132.607 132.038 132.553 131.746 132.426C131.642 132.384 131.554 132.33 131.466 132.265L119.685 123.015C119.573 122.931 119.481 122.823 119.408 122.708L110.407 108.76L102.693 101.074C98.6801 97.0447 96.5374 92.1241 96.3378 86.4468L96.019 77.6004L80.7092 76.0908L74.381 83.6503C72.0924 86.4045 68.79 87.5415 65.7757 86.5927L59.4244 84.6375C58.4414 84.3379 57.708 83.6388 57.3547 82.6708C57.0014 81.7029 57.109 80.7041 57.6619 79.8437L70.9251 58.9321C72.1539 56.9884 73.9048 55.7553 75.8478 55.4557L104.175 51.0537C105.557 50.8309 106.537 51.7144 106.871 51.9986L123.974 67.0639C129.507 71.9308 132.08 75.0383 133.789 77.078C136.584 80.4468 137.095 81.0537 146.073 83.2124C149.728 84.0844 152.044 84.9986 156.245 86.6695L159.804 88.0716C160.1 88.1868 160.334 88.4019 160.472 88.6785C164.52 96.7028 165.053 104.743 162.012 111.918C157.738 121.997 147.474 128.301 139.291 130.851C137.602 131.554 134.687 132.607 132.825 132.607Z" fill="#414141"/>
<path fill-rule="evenodd" clip-rule="evenodd" d="M104.668 148.298C104.657 148.298 104.642 148.298 104.626 148.298C97.745 148.064 92.2193 146.151 87.7304 142.459C83.422 138.899 75.7382 130.371 74.064 128.397C73.6186 127.878 73.68 127.091 74.206 126.641C74.7283 126.196 75.5232 126.257 75.9686 126.779C77.6159 128.723 85.1384 137.082 89.3239 140.527C93.3712 143.865 98.4016 145.586 104.714 145.797C105.406 145.828 105.939 146.404 105.92 147.092C105.897 147.768 105.34 148.298 104.668 148.298Z" fill="#414141"/>
<path fill-rule="evenodd" clip-rule="evenodd" d="M114.846 142.74C114.838 142.74 114.838 142.74 114.831 142.74L114.285 142.728C109.006 142.655 103.541 142.579 98.5533 138.23C94.3447 134.55 82.871 124.049 80.5209 121.475C80.0525 120.964 80.0832 120.177 80.5939 119.712C81.0969 119.255 81.8955 119.274 82.3563 119.785C84.6603 122.305 96.0189 132.691 100.193 136.348C104.49 140.09 109.267 140.163 114.32 140.228L114.861 140.239C115.553 140.251 116.102 140.812 116.094 141.492C116.083 142.187 115.526 142.74 114.846 142.74Z" fill="#414141"/>
<path fill-rule="evenodd" clip-rule="evenodd" d="M127.566 136.371C127.516 136.371 127.474 136.371 127.428 136.371C120.028 135.564 112.337 134.373 106.688 129.483C102.169 125.573 92.2079 116.684 90.2572 114.164C89.8348 113.623 89.9385 112.835 90.4838 112.421C91.0252 111.994 91.8163 112.09 92.2348 112.632C93.8169 114.683 102.591 122.634 108.32 127.59C113.424 132.011 120.401 133.086 127.697 133.881C128.38 133.954 128.875 134.573 128.806 135.264C128.737 135.902 128.196 136.371 127.566 136.371Z" fill="#414141"/>
<path fill-rule="evenodd" clip-rule="evenodd" d="M98.1029 151.986C98.0606 151.986 98.0185 151.986 97.9724 151.986C92.2855 151.402 85.1893 150.242 80.7772 146.35C77.1369 143.139 71.1696 137.516 69.2266 135.357C68.7658 134.846 68.8081 134.051 69.3226 133.594C69.8372 133.137 70.6206 133.167 71.0852 133.69C72.9245 135.733 78.8611 141.322 82.4245 144.48C86.3067 147.891 92.9075 148.955 98.2296 149.496C98.9093 149.558 99.4124 150.176 99.3433 150.856C99.2818 151.509 98.7326 151.986 98.1029 151.986Z" fill="#414141"/>
<path fill-rule="evenodd" clip-rule="evenodd" d="M175.028 85.598L163.731 79.0718C159.745 77.3932 156.78 77.3509 152.572 78.1345C146.048 79.7632 141.359 82.7824 136.271 87.0769C135.407 87.8413 134.294 88.8861 133.48 89.7005C126.13 97.0449 120.17 106.848 116.872 116.681C115.178 121.721 114.303 126.273 113.973 131.512C113.804 139.356 115.048 146.95 121.668 151.955L132.923 158.462L175.028 85.598Z" fill="url(#paint1_linear_637_7952)"/>
<path fill-rule="evenodd" clip-rule="evenodd" d="M157.165 78.8795C155.782 78.8795 154.381 79.06 152.799 79.3597C146.401 80.9653 141.874 83.9845 137.082 88.0331C136.252 88.7668 135.162 89.7886 134.363 90.5837C127.282 97.6631 121.338 107.328 118.055 117.084C116.423 121.943 115.547 126.407 115.217 131.585C115.083 137.942 115.778 145.936 122.429 150.956L132.474 156.749L173.319 86.0549L163.117 80.1548C160.939 79.2406 159.077 78.8795 157.165 78.8795ZM132.927 159.703C132.716 159.703 132.501 159.649 132.309 159.534L121.05 153.038C113.37 147.246 112.571 138.484 112.721 131.477C113.071 126.023 113.981 121.356 115.686 116.289C119.088 106.179 125.247 96.165 132.593 88.8206C133.43 87.9794 134.563 86.9153 135.45 86.1433C139.843 82.4326 144.911 78.7643 152.265 76.9166C156.493 76.1292 159.78 76.0447 164.223 77.9269L175.658 84.5184C175.946 84.6874 176.145 84.9525 176.241 85.2713C176.318 85.6016 176.272 85.9397 176.115 86.2278L134.01 159.08C133.779 159.48 133.361 159.703 132.927 159.703Z" fill="#414141"/>
<path fill-rule="evenodd" clip-rule="evenodd" d="M154.993 157.006C171.444 147.515 184.772 124.433 184.772 105.426C184.772 86.4276 171.448 78.7221 154.993 88.2176C138.555 97.7208 125.219 120.83 125.219 139.817C125.219 158.823 138.555 166.51 154.993 157.006Z" fill="white"/>
<path fill-rule="evenodd" clip-rule="evenodd" d="M168.294 85.3866C164.434 85.3866 160.122 86.7041 155.626 89.2969C139.548 98.5889 126.469 121.241 126.469 139.813C126.469 148.54 129.345 155.005 134.56 158.013C139.782 161.032 146.828 160.287 154.374 155.931C170.452 146.639 183.523 123.987 183.523 105.426C183.523 96.699 180.654 90.2342 175.424 87.215C173.32 86.0011 170.909 85.3866 168.294 85.3866ZM141.694 162.342C138.645 162.342 135.815 161.62 133.319 160.183C127.291 156.707 123.973 149.466 123.973 139.813C123.973 120.442 137.616 96.8104 154.378 87.1382C162.729 82.3097 170.659 81.5684 176.684 85.0524C182.709 88.5287 186.034 95.7694 186.034 105.422C186.034 124.782 172.391 148.402 155.629 158.086C150.737 160.917 145.999 162.342 141.694 162.342Z" fill="#414141"/>
<path fill-rule="evenodd" clip-rule="evenodd" d="M67.4182 141.146L58.7093 140.888C57.373 140.846 56.2363 140.401 55.2418 139.494L53.8901 138.273C52.719 137.208 52.1199 135.849 52.1199 134.266V130.855L51.375 130.652C50.2499 130.344 49.359 129.76 48.6218 128.854L46.2064 125.877C45.4385 124.932 45.0544 123.899 45.0083 122.677L44.92 120.296L44.0369 119.988C42.7083 119.512 41.7098 118.701 40.9764 117.488L39.4481 114.949C38.4344 113.27 38.012 111.545 38.1311 109.579L38.1925 108.495C34.8748 106.901 32.4441 103.713 32.5555 99.5644L32.617 96.9178L32.9318 91.3596C33.2697 88.2674 34.3602 87.6182 36.8562 87.4069C38.0005 87.3109 39.2907 87.4492 40.3313 87.9294L41.7291 88.5785C42.9195 89.1202 43.5569 89.7155 44.4439 90.8948C45.1888 91.8935 45.5843 92.9345 45.6842 94.179L45.7534 95.0088L45.7687 97.7091L47.4198 98.4543L49.2093 100.018C50.6915 101.316 51.4441 103.037 51.3827 105.004L51.2445 110.032C52.0355 110.427 52.6806 110.765 53.4524 111.372L55.2418 112.786C56.7778 113.988 57.6993 116.401 57.6379 118.302L57.4267 124.532C59.5233 124.628 60.468 125.351 62.3687 126.891C63.6551 127.932 64.4154 129.261 64.6535 130.909L65.4214 136.095L67.4182 141.146Z" fill="white"/>
<path fill-rule="evenodd" clip-rule="evenodd" d="M37.5385 88.6281C37.3504 88.6281 37.1622 88.6396 36.9741 88.6512C35.0733 88.8202 34.4628 88.993 34.1901 91.5014L33.8138 99.591C33.7293 102.941 35.5687 105.841 38.7482 107.373C39.2013 107.596 39.4815 108.076 39.4508 108.576L39.3856 109.659C39.2857 111.372 39.6428 112.839 40.526 114.307L42.0581 116.85C42.6418 117.818 43.406 118.444 44.4658 118.816L45.3451 119.135C45.8213 119.304 46.1515 119.754 46.1707 120.261L46.259 122.631C46.2974 123.587 46.5893 124.363 47.1845 125.097L49.6037 128.074C50.1796 128.777 50.8286 129.199 51.7118 129.457L52.4605 129.66C53.0058 129.81 53.3782 130.309 53.3782 130.862L53.3744 134.273C53.3744 135.495 53.8352 136.54 54.7414 137.358L56.0931 138.579C56.8572 139.282 57.7097 139.62 58.7503 139.655L65.57 139.847L64.276 136.571L63.4351 131.085C63.2392 129.768 62.6364 128.715 61.5957 127.862C59.7257 126.345 59.0537 125.865 57.391 125.788C56.7075 125.757 56.1737 125.181 56.2006 124.49L56.408 118.259C56.4618 116.623 55.6208 114.645 54.4919 113.761L52.7062 112.348C52.0266 111.829 51.4468 111.518 50.7018 111.149C50.2717 110.926 49.9991 110.481 50.0183 109.989L50.1604 104.961C50.2065 103.367 49.6151 102.015 48.4132 100.962L46.7544 99.518L45.2684 98.8496C44.8229 98.6384 44.5387 98.2005 44.531 97.7126L44.4581 94.2901C44.3698 93.2799 44.0588 92.4617 43.4521 91.6435C42.6342 90.5603 42.1542 90.1454 41.2211 89.719L39.8234 89.0699C39.2013 88.7779 38.3718 88.6281 37.5385 88.6281ZM67.4209 142.386C67.4094 142.386 67.4017 142.386 67.3901 142.386L58.6774 142.14C57.0454 142.087 55.6131 141.514 54.4112 140.419L53.0596 139.198C51.6311 137.9 50.8746 136.198 50.8746 134.266L50.8784 131.811C49.5805 131.419 48.5246 130.705 47.6606 129.645L45.2376 126.668C44.3007 125.508 43.813 124.225 43.7554 122.723L43.6133 121.171C42.0082 120.587 40.7987 119.596 39.9155 118.129L38.3834 115.597C37.2468 113.708 36.7552 111.718 36.8896 109.505L36.9088 109.229C33.2878 107.177 31.2142 103.605 31.314 99.5218L31.3793 96.8868L31.7019 91.2939C32.1243 87.3067 33.8829 86.404 36.759 86.1582C38.222 86.0314 39.7043 86.2657 40.8563 86.7843L42.2617 87.4335C43.7516 88.1134 44.5272 88.9008 45.4527 90.1339C46.3474 91.3362 46.8235 92.5884 46.9464 94.0673L47.0117 94.8855L47.0232 96.8944L47.9525 97.3093C48.06 97.3631 48.1637 97.4245 48.2597 97.5129L50.049 99.0763C51.8193 100.617 52.714 102.679 52.6525 105.03L52.5335 109.271C53.0941 109.578 53.6317 109.909 54.2422 110.377L56.0317 111.791C58.0054 113.343 58.9692 116.254 58.9039 118.34L58.735 123.422C60.5206 123.764 61.6264 124.655 63.1662 125.919C64.6983 127.152 65.62 128.769 65.9003 130.713L66.6683 135.91L68.5805 140.681C68.7303 141.072 68.6842 141.51 68.4384 141.848C68.2119 142.194 67.8318 142.386 67.4209 142.386Z" fill="#414141"/>
<path fill-rule="evenodd" clip-rule="evenodd" d="M34.0451 90.8485L37.8197 93.7832L37.4051 100.298C37.3935 100.459 37.1862 100.509 37.0288 100.509C36.8752 100.528 36.5487 100.202 36.4374 100.094L34.8783 98.531C34.3983 98.0624 33.8761 97.5092 33.8953 96.8293L34.0451 90.8485Z" fill="white"/>
<path fill-rule="evenodd" clip-rule="evenodd" d="M35.2303 93.3609L35.1381 96.8679C35.1343 96.9755 35.3417 97.2521 35.7564 97.6554L36.2862 98.1855L36.5321 94.3596L35.2303 93.3609ZM37.0274 101.769C36.4284 101.769 35.9637 101.397 35.549 100.993L33.9861 99.4301C33.4677 98.9115 32.5999 98.0472 32.6345 96.8065L32.792 90.8219C32.8035 90.3532 33.0837 89.9307 33.5061 89.7271C33.9285 89.5235 34.4278 89.5773 34.8041 89.8654L38.5787 92.8001C38.9051 93.0536 39.0894 93.4492 39.0625 93.8641L38.6479 100.39C38.6056 101.028 38.118 101.708 37.108 101.773C37.0812 101.769 37.0543 101.769 37.0274 101.769Z" fill="#414141"/>
<path fill-rule="evenodd" clip-rule="evenodd" d="M39.2954 100.917L43.65 103.817L43.6231 109.441C43.6231 109.579 43.5732 109.698 43.4772 109.79C43.3812 109.886 43.2622 109.928 43.1278 109.928H42.5825C41.707 109.917 40.9582 109.579 40.386 108.918L39.9828 108.461C39.4951 107.896 39.2569 107.251 39.2608 106.506L39.2954 100.917Z" fill="white"/>
<path fill-rule="evenodd" clip-rule="evenodd" d="M40.5257 103.244L40.5103 106.517C40.5065 106.962 40.6409 107.304 40.9251 107.635L41.3283 108.103C41.6125 108.434 41.9619 108.626 42.3728 108.668L42.3997 104.481L40.5257 103.244ZM43.1215 108.687H43.1254C43.1215 108.687 43.1215 108.687 43.1215 108.687ZM43.1254 111.188C43.1215 111.188 43.1138 111.188 43.1023 111.188H42.5725C41.3321 111.176 40.2493 110.665 39.4391 109.743L39.0359 109.286C38.3485 108.487 38.0028 107.554 38.0067 106.513L38.0413 100.92C38.0451 100.451 38.3024 100.037 38.7056 99.8138C39.1088 99.6026 39.6003 99.6218 39.9843 99.8791L44.3388 102.779C44.6882 103.014 44.8995 103.398 44.8995 103.82L44.8726 109.455C44.8726 109.912 44.6844 110.358 44.3465 110.688C44.0278 111.007 43.59 111.188 43.1254 111.188Z" fill="#414141"/>
<path fill-rule="evenodd" clip-rule="evenodd" d="M46.591 113.101L50.9532 116.416L50.9263 121.624C50.9263 121.751 50.8725 121.878 50.7765 121.974C50.6767 122.07 50.5615 122.112 50.4233 122.112H49.8819C49.014 122.101 48.2614 121.751 47.6893 121.09L47.286 120.633C46.7945 120.069 46.5602 119.431 46.5602 118.678L46.591 113.101Z" fill="white"/>
<path fill-rule="evenodd" clip-rule="evenodd" d="M47.83 115.609L47.8146 118.694C47.8108 119.139 47.9375 119.481 48.2294 119.819L48.6287 120.276C48.9206 120.618 49.2623 120.799 49.6809 120.852L49.7001 117.034L47.83 115.609ZM50.4258 120.86H50.4335C50.4297 120.86 50.4297 120.86 50.4258 120.86ZM49.6732 121.613V121.625V121.613ZM50.4335 123.368C50.4258 123.368 50.422 123.368 50.4105 123.368L49.8806 123.357C48.6364 123.345 47.5535 122.846 46.7509 121.913L46.3517 121.456C45.6605 120.668 45.3148 119.735 45.3186 118.678L45.3455 113.089C45.3494 112.621 45.6182 112.187 46.0444 111.971C46.463 111.76 46.9698 111.814 47.3538 112.098L51.7084 115.425C52.0233 115.659 52.2038 116.032 52.2038 116.423L52.173 121.632C52.173 122.078 51.9887 122.527 51.6623 122.854C51.3359 123.176 50.8982 123.368 50.4335 123.368Z" fill="#414141"/>
<path fill-rule="evenodd" clip-rule="evenodd" d="M53.7816 127.194L58.1362 130.34L57.7637 134.846C57.7368 135.099 57.5218 135.303 57.2645 135.291H56.6808C55.8053 135.28 55.0604 134.942 54.4844 134.281L54.4651 134.25C53.9813 133.709 53.8085 132.168 53.8085 131.435L53.7816 127.194Z" fill="white"/>
<path fill-rule="evenodd" clip-rule="evenodd" d="M55.0479 129.653L55.0594 131.427C55.0633 132.246 55.2591 133.225 55.4204 133.448C55.7391 133.82 56.1154 134.009 56.5685 134.043L56.8258 130.951L55.0479 129.653ZM57.2713 136.552C57.2674 136.552 57.2636 136.552 57.2597 136.552L56.6799 136.54C55.4473 136.54 54.3643 136.041 53.5541 135.103C52.5979 134.02 52.5711 131.704 52.5673 131.439L52.5365 127.21C52.5327 126.73 52.7938 126.295 53.2124 126.084C53.6271 125.873 54.1378 125.904 54.5141 126.18L58.8725 129.338C59.2258 129.595 59.4217 130.018 59.3833 130.455L59.0108 134.961C58.9186 135.872 58.1737 136.552 57.2713 136.552Z" fill="#414141"/>
<path fill-rule="evenodd" clip-rule="evenodd" d="M45.7856 97.7052C44.8985 97.7897 44.1766 97.8858 43.5891 98.0125C42.1184 98.3313 40.279 98.8729 39.3574 100.087C38.4627 101.266 38.3475 106.774 38.2054 108.495C38.0326 101.205 36.5888 97.2596 45.7856 97.7052Z" fill="white"/>
<path fill-rule="evenodd" clip-rule="evenodd" d="M38.2042 109.752C38.1889 109.752 38.1774 109.752 38.1659 109.752C37.5016 109.721 36.9716 109.187 36.9563 108.53C36.9371 107.658 36.8987 106.84 36.8564 106.064C36.699 102.649 36.5685 99.9604 38.3348 98.1973C39.721 96.8144 42.0481 96.2843 45.8419 96.4534C46.4985 96.4841 47.013 97.018 47.0322 97.6633C47.0552 98.324 46.5638 98.8733 45.9148 98.9386C45.0816 99.0347 44.4058 99.1192 43.8528 99.2383C43.1809 99.3881 41.1341 99.8221 40.3585 100.855C39.8555 101.601 39.6288 105.684 39.5405 107.213C39.506 107.785 39.4829 108.265 39.4522 108.603C39.3946 109.252 38.8532 109.752 38.2042 109.752Z" fill="#414141"/>
<path fill-rule="evenodd" clip-rule="evenodd" d="M63.7118 72.0533L67.1601 72.4489C67.4711 72.4796 67.7207 72.641 67.8858 72.906C68.9149 74.5539 62.4753 81.0072 61.3348 82.3362L57.1378 81.4873C58.5586 78.2453 60.1598 75.2146 62.7864 72.4912C63.0513 72.2146 63.3394 72.0225 63.7118 72.0533Z" fill="white"/>
<path fill-rule="evenodd" clip-rule="evenodd" d="M58.9256 80.5695L60.8839 80.9613C61.0029 80.8345 61.1374 80.6962 61.2871 80.5349C65.1808 76.3249 66.4173 74.4658 66.6861 73.6476L63.7293 73.3172C61.4906 75.6489 60.0622 78.1457 58.9256 80.5695ZM61.337 83.5887C61.2487 83.5887 61.1719 83.5772 61.0836 83.558L56.8904 82.709C56.5256 82.6361 56.2069 82.3902 56.0302 82.0599C55.8574 81.718 55.8421 81.3262 55.9957 80.9843C57.3512 77.8806 59.0024 74.6156 61.8862 71.6194C62.4852 71.0125 63.1456 70.7359 63.8445 70.8204L67.2928 71.2045C67.9878 71.2775 68.5753 71.6501 68.9401 72.234C70.1036 74.1047 67.8918 77.0701 63.1188 82.2289C62.7386 82.6322 62.4507 82.9511 62.2779 83.1546C62.0436 83.4312 61.6941 83.5887 61.337 83.5887Z" fill="#414141"/>
<path fill-rule="evenodd" clip-rule="evenodd" d="M51.2626 110.028C49.2504 110.239 46.7468 110.869 45.8329 112.643C45.2262 113.846 45.0879 118.682 44.9228 120.299C44.7154 115.013 43.2639 109.643 51.2626 110.028Z" fill="white"/>
<path fill-rule="evenodd" clip-rule="evenodd" d="M44.9266 121.552C44.9112 121.552 44.8959 121.552 44.8806 121.552C44.2239 121.533 43.7016 121.01 43.6709 120.35C43.6441 119.724 43.6096 119.094 43.5673 118.479C43.3677 115.525 43.1641 112.471 45.0649 110.528C46.3551 109.21 48.4209 108.626 51.3201 108.776C51.9767 108.807 52.4912 109.337 52.5104 109.986C52.5257 110.647 52.0419 111.196 51.393 111.273C49.0391 111.519 47.4609 112.21 46.9464 113.216C46.6046 113.866 46.3973 117.054 46.2974 118.598C46.2475 119.343 46.2053 120 46.1554 120.438C46.094 121.072 45.5563 121.552 44.9266 121.552Z" fill="#414141"/>
<path fill-rule="evenodd" clip-rule="evenodd" d="M57.3083 124.547C52.4547 124.866 52.424 126.917 52.1092 131.031C52.0055 125.995 51.56 124.336 57.3083 124.547Z" fill="white"/>
<path fill-rule="evenodd" clip-rule="evenodd" d="M52.1174 132.131C52.1097 132.131 52.1021 132.131 52.0867 132.131C51.4224 132.119 50.8733 131.728 50.8618 131.055L50.8388 130.13C50.7696 127.579 50.7235 125.739 51.96 124.518C52.943 123.542 54.4906 123.188 57.3629 123.296C58.0233 123.327 58.5532 123.872 58.5647 124.529C58.5724 125.197 58.0578 125.751 57.3935 125.793C53.7455 126.027 53.6726 126.953 53.3846 130.833C53.3808 130.875 53.3731 130.929 53.3692 130.982L53.3615 131.002C53.2271 131.597 52.7126 132.131 52.1174 132.131Z" fill="#414141"/>
<path fill-rule="evenodd" clip-rule="evenodd" d="M78.7022 70.6824C79.0747 71.7349 80.4916 74.4352 78.491 76.8475C80.027 75.2534 81.3902 75.0614 83.0606 75.0729C80.4954 74.4276 79.7237 72.215 78.7022 70.6824Z" fill="white"/>
<path fill-rule="evenodd" clip-rule="evenodd" d="M78.4932 78.1034C78.1975 78.1034 77.8979 77.9958 77.6637 77.7846C77.1606 77.339 77.1031 76.5746 77.5332 76.0522C78.7505 74.5848 78.2819 73.0099 77.6944 71.5233L77.5293 71.1085C77.3181 70.5016 77.5792 69.8562 78.1398 69.5681C78.7082 69.28 79.3917 69.4606 79.7489 69.9945C79.9562 70.3018 80.1558 70.6437 80.3594 70.9933C81.1043 72.2685 81.8071 73.4593 83.3738 73.8511C83.9843 74.0125 84.3875 74.5963 84.303 75.2225C84.2224 75.8486 83.6963 76.3172 83.0666 76.3172C81.5037 76.4248 80.5552 76.5208 79.3955 77.7116C79.1498 77.9766 78.8196 78.1034 78.4932 78.1034Z" fill="#414141"/>
<path fill-rule="evenodd" clip-rule="evenodd" d="M101.361 74.3312C99.6142 75.2569 98.9959 75.8715 94.5378 76.2018C98.1396 76.5629 96.9492 77.7729 97.3562 79.9662C97.4676 76.5091 99.522 75.9138 101.361 74.3312Z" fill="white"/>
<path fill-rule="evenodd" clip-rule="evenodd" d="M97.3544 81.2071C96.7553 81.2071 96.2331 80.7807 96.1256 80.1853C96.0104 79.5592 96.0027 78.9945 96.0027 78.5067C95.9989 78.2416 95.9989 77.8806 95.9567 77.7845C95.9413 77.7845 95.6571 77.5733 94.4168 77.4427C93.7679 77.3889 93.2803 76.8358 93.2879 76.1866C93.2956 75.5374 93.8025 75.0073 94.4476 74.9535C98.1109 74.6885 98.8942 74.2544 100.184 73.54L100.78 73.2211C101.34 72.9215 102.039 73.0944 102.396 73.6168C102.757 74.1469 102.665 74.8614 102.185 75.2724C101.77 75.6219 101.344 75.9407 100.922 76.2519C99.5239 77.2737 98.6791 77.8883 98.61 80.0048C98.5908 80.6347 98.0916 81.1533 97.4504 81.2071C97.412 81.2071 97.3851 81.2071 97.3544 81.2071Z" fill="#414141"/>
<defs>
<linearGradient id="paint0_linear_637_7952" x1="35.6828" y1="19.334" x2="35.6828" y2="100.159" gradientUnits="userSpaceOnUse">
<stop stop-color="#4585E7"/>
<stop offset="1" stop-color="#5898F9"/>
</linearGradient>
<linearGradient id="paint1_linear_637_7952" x1="144.493" y1="77.6425" x2="144.493" y2="158.462" gradientUnits="userSpaceOnUse">
<stop stop-color="#4585E7"/>
<stop offset="1" stop-color="#5898F9"/>
</linearGradient>
</defs>
</svg>
