<svg width="26" height="26" viewBox="0 0 26 26" fill="none" xmlns="http://www.w3.org/2000/svg">
<g clip-path="url(#clip0_637_7026)">
<path d="M3 3H23V23H3V3Z" fill="#EDBE5C"/>
<path d="M16.4349 18.6252C16.8378 19.283 17.3619 19.7664 18.2889 19.7664C19.0676 19.7664 19.5651 19.3772 19.5651 18.8394C19.5651 18.195 19.054 17.9667 18.1968 17.5918L17.727 17.3902C16.3708 16.8125 15.4699 16.0886 15.4699 14.5585C15.4699 13.1489 16.5438 12.0759 18.2222 12.0759C19.4172 12.0759 20.2762 12.4918 20.8952 13.5807L19.4318 14.5204C19.1095 13.9426 18.7619 13.715 18.2222 13.715C17.6718 13.715 17.3229 14.0642 17.3229 14.5204C17.3229 15.0842 17.6721 15.3125 18.4784 15.6617L18.9482 15.8629C20.5451 16.5477 21.4466 17.2458 21.4466 18.8153C21.4466 20.5074 20.1174 21.4344 18.3324 21.4344C16.587 21.4344 15.4593 20.6026 14.9076 19.5125L16.4349 18.6252ZM9.79587 18.788C10.0911 19.3119 10.3597 19.7547 11.0054 19.7547C11.6229 19.7547 12.0124 19.5131 12.0124 18.5738V12.1833H13.8918V18.5991C13.8918 20.5451 12.7508 21.4309 11.0854 21.4309C9.58063 21.4309 8.70922 20.6521 8.26602 19.7142L9.79587 18.788Z" fill="#1B1B1B"/>
</g>
<defs>
<clipPath id="clip0_637_7026">
<rect width="20" height="20" fill="white" transform="translate(3 3)"/>
</clipPath>
</defs>
</svg>
