<svg width="21" height="21" viewBox="0 0 21 21" fill="none" xmlns="http://www.w3.org/2000/svg">
<g clip-path="url(#clip0_637_7060)">
<path d="M20.8152 4.17236L14.4463 10.5002L20.8152 16.8281C20.9303 16.5874 21.0001 16.3214 21.0001 16.0373V4.9631C21.0001 4.67899 20.9303 4.413 20.8152 4.17236Z" fill="#EDBE5C"/>
<path d="M19.154 3.11719H1.84543C1.56131 3.11719 1.29533 3.18704 1.05469 3.30217L9.19477 11.4012C9.91451 12.121 11.0849 12.121 11.8047 11.4012L19.9448 3.30217C19.7041 3.18704 19.4381 3.11719 19.154 3.11719Z" fill="#EDBE5C"/>
<path d="M0.18498 4.17236C0.0698496 4.413 0 4.67899 0 4.9631V16.0373C0 16.3214 0.0698496 16.5875 0.18498 16.8281L6.55385 10.5002L0.18498 4.17236Z" fill="#EDBE5C"/>
<path d="M13.5759 11.3701L12.6747 12.2714C11.4754 13.4706 9.524 13.4706 8.32475 12.2714L7.42355 11.3701L1.05469 17.698C1.29533 17.8131 1.56131 17.8829 1.84543 17.8829H19.154C19.4381 17.8829 19.7041 17.8131 19.9448 17.698L13.5759 11.3701Z" fill="#EDBE5C"/>
</g>
<defs>
<clipPath id="clip0_637_7060">
<rect width="21" height="21" fill="white"/>
</clipPath>
</defs>
</svg>
