<svg width="26" height="26" viewBox="0 0 26 26" fill="none" xmlns="http://www.w3.org/2000/svg">
<path d="M17.3334 12.2347C17.3334 12.2347 17.1607 10.7402 15.5736 10.7402C13.9863 10.7402 12.8995 10.9486 12.8995 11.835C12.8995 12.7213 15.9878 12.7213 17.161 13.0688C18.3343 13.4163 19.3693 14.32 18.8517 15.9188C18.3341 17.5176 16.7468 17.6913 14.2969 17.6913C11.847 17.6913 11.2948 15.6406 11.2948 14.8413H12.675C12.675 14.8413 12.5024 16.0925 14.1241 16.301C15.7459 16.5094 17.2966 16.6268 17.5057 15.3627C17.7817 13.6943 12.2608 14.5286 11.7776 12.8951C11.3695 11.5148 11.605 9.69761 14.3655 9.41941C17.1261 9.14122 18.6443 10.3689 18.6443 12.2L17.3334 12.2347Z" fill="#EDBE5C"/>
<path d="M4.00015 18.7501L7.05153 20.5245C8.5847 21.4161 10.5011 20.3016 10.5011 18.5185V15.409V9.68647H9.25741V18.1701C9.25741 19.1438 8.2109 19.7526 7.37348 19.2655L5.2437 18.0271V8.9731L13.0282 4.44657L20.8126 8.9731V18.0271L13.0282 22.5536L10.7857 21.2496L9.32131 21.8443L13.028 24L22.0562 18.7497V8.25004L13.0282 3L4 8.25034V18.7501H4.00015Z" fill="#EDBE5C"/>
</svg>
