<svg width="26" height="26" viewBox="0 0 26 26" fill="none" xmlns="http://www.w3.org/2000/svg">
<g clip-path="url(#clip0_637_7020)">
<path d="M21.4193 7.61404C20.6742 6.44707 19.0719 5.9623 16.9129 6.24054C16.8367 6.24948 16.7558 6.26298 16.6796 6.27192C16.6482 6.20021 16.6168 6.12833 16.5809 6.05662C15.6518 4.08614 14.3816 3 12.9991 3C11.6167 3 10.3421 4.08614 9.41741 6.05662C9.38602 6.12833 9.35008 6.20021 9.3187 6.27192C9.23787 6.2586 9.16161 6.24948 9.08534 6.24054C6.922 5.95774 5.32408 6.44707 4.57895 7.61404C3.83399 8.781 4.06279 10.4371 5.22082 12.2773C5.37353 12.5198 5.53956 12.7621 5.71909 13C5.53956 13.2423 5.37353 13.4803 5.22082 13.7226C4.06279 15.5628 3.83399 17.2234 4.57895 18.386C5.18488 19.3375 6.36096 19.8358 7.9452 19.8358C8.32495 19.8337 8.70418 19.8083 9.08078 19.7594C9.15705 19.7504 9.23787 19.7369 9.31414 19.728C9.3457 19.7999 9.37708 19.8716 9.41302 19.9434C10.3421 21.9138 11.6123 23.0001 12.9946 23.0001C14.377 23.0001 15.6518 21.9138 16.5763 19.9434C16.6077 19.8716 16.6436 19.7999 16.675 19.728C16.7558 19.7415 16.8321 19.7504 16.9085 19.7594C17.2848 19.8104 17.6642 19.8358 18.0439 19.8358C19.6284 19.8358 20.8043 19.3375 21.4102 18.386C22.1553 17.2191 21.9263 15.5628 20.7685 13.7226C20.6158 13.4803 20.4498 13.238 20.2702 13C20.4498 12.7576 20.6158 12.5198 20.7685 12.2773C21.9398 10.4327 22.1688 8.77645 21.4193 7.61404ZM10.2299 6.43813C10.9883 4.82233 11.9982 3.89767 12.9991 3.89767C14.0001 3.89767 15.0099 4.82233 15.7684 6.43813C15.7689 6.44146 15.7705 6.44462 15.773 6.44707C14.8195 6.6764 13.8896 6.99339 12.9946 7.39401C12.1006 6.99146 11.1703 6.67429 10.2164 6.44707C10.2253 6.44707 10.2253 6.44251 10.2299 6.43813ZM17.0432 13C17.0434 13.7182 17.0044 14.436 16.9264 15.1499C16.367 15.6013 15.7826 16.0209 15.176 16.4066C14.4759 16.8561 13.7472 17.2596 12.9946 17.6141C12.2435 17.2568 11.5148 16.8535 10.8133 16.4066C10.2074 16.0198 9.62306 15.6003 9.0629 15.1499C8.90721 13.7208 8.90721 12.2791 9.0629 10.85C10.2726 9.87784 11.5923 9.05083 12.9946 8.386C13.7458 8.74313 14.4743 9.14638 15.176 9.59329C15.7819 9.98006 16.3663 10.3996 16.9264 10.85C17.0044 11.5641 17.0434 12.2817 17.0432 13ZM17.9004 11.6939C18.3399 12.1032 18.7537 12.5395 19.1392 13C18.7537 13.4604 18.3399 13.8967 17.9004 14.306C17.9274 13.8753 17.9409 13.4399 17.9409 13C17.9409 12.5601 17.9274 12.1248 17.9004 11.6939ZM16.7423 16.4247C16.6007 17.2017 16.395 17.9658 16.1275 18.7092C15.4304 18.5517 14.7462 18.3417 14.0809 18.0808C14.6104 17.8025 15.14 17.4973 15.6651 17.1652C16.0333 16.9273 16.3924 16.6805 16.7423 16.4247ZM11.9174 18.0808C11.2532 18.345 10.5688 18.5552 9.8708 18.7092C9.60325 17.9658 9.39759 17.2017 9.25593 16.4247C9.6015 16.6805 9.96057 16.9273 10.3331 17.1607C10.8582 17.4973 11.3879 17.8025 11.9174 18.0808ZM8.09791 14.306C7.65837 13.8967 7.24477 13.4604 6.85906 13C7.24477 12.5395 7.65837 12.1032 8.09791 11.6939C8.07091 12.1248 8.05741 12.5601 8.05741 13C8.05741 13.4399 8.07091 13.8753 8.09791 14.306ZM9.25593 9.5754C9.39759 8.79819 9.60325 8.03412 9.8708 7.29091C10.5679 7.44818 11.2522 7.65822 11.9174 7.91928C11.3879 8.19752 10.8582 8.50276 10.3331 8.83483C9.96495 9.07275 9.60588 9.3196 9.25593 9.5754ZM15.6607 8.83483C15.14 8.50276 14.6104 8.19296 14.0763 7.91928C14.7405 7.65507 15.4249 7.44485 16.1231 7.29091C16.3904 8.03412 16.5961 8.79819 16.7379 9.5754C16.3924 9.3196 16.0333 9.07275 15.6607 8.83483ZM5.97945 11.7971C5.02778 10.289 4.79443 8.9381 5.33303 8.09426C5.76398 7.42101 6.69758 7.05738 7.9587 7.05738C8.29638 7.05878 8.6337 7.0814 8.96857 7.12471H8.97752C8.61442 8.18052 8.36177 9.27104 8.22362 10.3787C7.53196 10.9557 6.88799 11.5878 6.29802 12.2684C6.18581 12.1159 6.07816 11.9588 5.97945 11.7971ZM8.96419 18.8708C8.62932 18.9143 8.29199 18.9367 7.95432 18.9381C6.69303 18.9381 5.75942 18.5791 5.32864 17.9013C4.79004 17.0574 5.0234 15.7065 5.97489 14.1984C6.0736 14.0413 6.18143 13.8796 6.29363 13.7226C6.88343 14.4033 7.5274 15.0352 8.21906 15.6122C8.35739 16.7201 8.61003 17.8106 8.97313 18.8662C8.97313 18.8708 8.96857 18.8708 8.96419 18.8708ZM15.7684 19.5619C15.0099 21.1777 14.0001 22.1024 12.9991 22.1024C11.9982 22.1024 10.9883 21.1777 10.2299 19.5619C10.2293 19.5586 10.2278 19.5555 10.2253 19.553C11.1787 19.3237 12.1087 19.0067 13.0037 18.6059C13.8977 19.0086 14.8279 19.3258 15.7819 19.553C15.773 19.553 15.773 19.5574 15.7684 19.5619ZM20.0188 14.2029C20.9705 15.7109 21.2038 17.062 20.6652 17.9058C20.1266 18.7495 18.8026 19.1042 17.0341 18.8708H17.0251C17.3882 17.815 17.641 16.7245 17.7792 15.6168C18.4709 15.0398 19.1148 14.4077 19.7046 13.7271C19.8125 13.8842 19.9201 14.0413 20.0188 14.2029ZM17.7746 10.3833C17.6365 9.27542 17.3838 8.1849 17.0207 7.12926H17.0297C18.798 6.90029 20.1221 7.25041 20.6607 8.09426C21.1993 8.9381 20.9659 10.289 20.0144 11.7971C19.9157 11.9542 19.8079 12.1159 19.6957 12.273C19.1085 11.5911 18.466 10.9591 17.7746 10.3833Z" fill="#EDBE5C"/>
<path d="M12.9991 11.2227C12.0175 11.2227 11.2217 12.0185 11.2217 13.0001C11.2217 13.9818 12.0175 14.7774 12.9991 14.7774C13.9808 14.7774 14.7766 13.9818 14.7766 13.0001C14.7759 12.0186 13.9804 11.2234 12.9991 11.2227ZM12.9991 13.8797C12.5133 13.8797 12.1193 13.4859 12.1193 13.0001C12.1193 12.5143 12.5133 12.1203 12.9991 12.1203C13.485 12.1203 13.8789 12.5143 13.8789 13.0001C13.878 13.4856 13.4846 13.879 12.9991 13.8797Z" fill="#EDBE5C"/>
</g>
<defs>
<clipPath id="clip0_637_7020">
<rect width="20" height="20" fill="white" transform="translate(3 3)"/>
</clipPath>
</defs>
</svg>
