<svg width="13" height="14" viewBox="0 0 13 14" fill="none" xmlns="http://www.w3.org/2000/svg">
<g clip-path="url(#clip0_637_7087)">
<path d="M11.7922 5.926L9.36514 8.29188L9.9383 11.6334C9.96323 11.7795 9.90323 11.9272 9.78322 12.0145C9.71542 12.064 9.63477 12.0889 9.55411 12.0889C9.49216 12.0889 9.42982 12.0741 9.37293 12.0441L6.37194 10.4665L3.37133 12.0437C3.24041 12.1131 3.08105 12.1018 2.96104 12.0141C2.84103 11.9268 2.78103 11.7792 2.80596 11.633L3.37912 8.29149L0.951674 5.926C0.845692 5.82235 0.807118 5.66728 0.853095 5.52662C0.899073 5.38596 1.02103 5.2827 1.16792 5.26127L4.52232 4.77422L6.02243 1.73426C6.15374 1.46814 6.59013 1.46814 6.72144 1.73426L8.22155 4.77422L11.5759 5.26127C11.7228 5.2827 11.8448 5.38557 11.8908 5.52662C11.9368 5.66767 11.8982 5.82196 11.7922 5.926Z" fill="#EDBE5C"/>
</g>
<defs>
<clipPath id="clip0_637_7087">
<rect width="12.4684" height="12.4684" fill="white" transform="translate(0.137695 0.568359)"/>
</clipPath>
</defs>
</svg>
