<svg width="74" height="58" viewBox="0 0 74 58" fill="none" xmlns="http://www.w3.org/2000/svg">
<path d="M37.3333 36C32.3713 36 28.3333 31.962 28.3333 27C28.3333 22.038 32.3713 18 37.3333 18C42.2953 18 46.3333 22.038 46.3333 27C46.3333 31.962 42.2953 36 37.3333 36ZM37.3333 21C34.0243 21 31.3333 23.691 31.3333 27C31.3333 30.309 34.0243 33 37.3333 33C40.6423 33 43.3333 30.309 43.3333 27C43.3333 23.691 40.6423 21 37.3333 21Z" fill="#F2BD4D"/>
<path d="M37.3333 21C34.0243 21 31.3333 23.691 31.3333 27C31.3333 30.309 34.0243 33 37.3333 33C40.6423 33 43.3333 30.309 43.3333 27C43.3333 23.691 40.6423 21 37.3333 21Z" fill="#F2BD4D"/>
<path d="M51.8636 53.8246C51.0523 53.8246 50.3939 53.1662 50.3939 52.3549V46.4762C50.3939 44.0453 48.4157 42.0671 45.9848 42.0671H28.3485C25.9176 42.0671 23.9394 44.0453 23.9394 46.4762V52.3549C23.9394 53.1662 23.281 53.8246 22.4697 53.8246C21.6584 53.8246 21 53.1662 21 52.3549V46.4762C21 42.4257 24.298 39.1277 28.3485 39.1277H45.9848C50.0353 39.1277 53.3333 42.4257 53.3333 46.4762V52.3549C53.3333 53.1662 52.6749 53.8246 51.8636 53.8246Z" fill="#F2BD4D"/>
<path d="M32.1163 7H11C6.02944 7 2 11.0294 2 16V47C2 51.9706 6.02944 56 11 56H63C67.9706 56 72 51.9706 72 47V16C72 11.0294 67.9706 7 63 7H43.9186" stroke="#F2BD4D" stroke-width="2.5"/>
<circle cx="38" cy="7" r="5.75" stroke="#F2BD4D" stroke-width="2.5"/>
</svg>
