<svg width="56" height="56" viewBox="0 0 56 56" fill="none" xmlns="http://www.w3.org/2000/svg">
<g clip-path="url(#clip0_637_8108)">
<path d="M52.5 2.33333H3.50001C2.85601 2.33333 2.33334 1.81067 2.33334 1.16667C2.33334 0.522667 2.85601 0 3.50001 0H52.5C53.144 0 53.6667 0.522667 53.6667 1.16667C53.6667 1.81067 53.144 2.33333 52.5 2.33333Z" fill="#F2BD4D"/>
<path d="M43.1667 28H38.7333C38.0893 28 37.5667 27.4773 37.5667 26.8333C37.5667 26.1893 38.0893 25.6667 38.7333 25.6667H43.1667C45.0963 25.6667 46.6667 24.0963 46.6667 22.1667V2.33333H9.33333V22.1667C9.33333 24.0963 10.9037 25.6667 12.8333 25.6667H17.2667C17.9107 25.6667 18.4333 26.1893 18.4333 26.8333C18.4333 27.4773 17.9107 28 17.2667 28H12.8333C9.618 28 7 25.382 7 22.1667V1.16667C7 0.522667 7.52267 0 8.16667 0H47.8333C48.4773 0 49 0.522667 49 1.16667V22.1667C49 25.382 46.382 28 43.1667 28Z" fill="#F2BD4D"/>
<path d="M18.6667 21C18.368 21 18.0693 20.8857 17.8407 20.6593C17.3857 20.2043 17.3857 19.4647 17.8407 19.0097L23.674 13.1763C24.0287 12.8193 24.5723 12.7307 25.0203 12.957L28.9357 14.9147L36.5073 7.34299C36.9623 6.88799 37.702 6.88799 38.157 7.34299C38.612 7.79799 38.612 8.53766 38.157 8.99266L29.9903 17.1593C29.6333 17.514 29.092 17.6003 28.644 17.3787L24.7287 15.421L19.4927 20.6593C19.264 20.8857 18.9653 21 18.6667 21Z" fill="#F2BD4D"/>
<path d="M37.3333 16.3333C36.6893 16.3333 36.1667 15.8107 36.1667 15.1667V9.33333H30.3333C29.6893 9.33333 29.1667 8.81067 29.1667 8.16667C29.1667 7.52267 29.6893 7 30.3333 7H37.3333C37.9773 7 38.5 7.52267 38.5 8.16667V15.1667C38.5 15.8107 37.9773 16.3333 37.3333 16.3333Z" fill="#F2BD4D"/>
<path d="M46.6667 39.6667C44.093 39.6667 42 37.5737 42 35C42 32.4263 44.093 30.3333 46.6667 30.3333C49.2403 30.3333 51.3333 32.4263 51.3333 35C51.3333 37.5737 49.2403 39.6667 46.6667 39.6667ZM46.6667 32.6667C45.381 32.6667 44.3333 33.7143 44.3333 35C44.3333 36.2857 45.381 37.3333 46.6667 37.3333C47.9523 37.3333 49 36.2857 49 35C49 33.7143 47.9523 32.6667 46.6667 32.6667Z" fill="#F2BD4D"/>
<path d="M46.6667 32.6667C45.381 32.6667 44.3333 33.7143 44.3333 35C44.3333 36.2857 45.381 37.3333 46.6667 37.3333C47.9523 37.3333 49 36.2857 49 35C49 33.7143 47.9523 32.6667 46.6667 32.6667Z" fill="#F2BD4D"/>
<path d="M54.8333 51.3333C54.1893 51.3333 53.6667 50.8107 53.6667 50.1667V47.8333C53.6667 45.9037 52.0963 44.3333 50.1667 44.3333H43.1667C42.5227 44.3333 42 43.8107 42 43.1667C42 42.5227 42.5227 42 43.1667 42H50.1667C53.382 42 56 44.618 56 47.8333V50.1667C56 50.8107 55.4773 51.3333 54.8333 51.3333Z" fill="#F2BD4D"/>
<path d="M9.33332 39.6667C6.75966 39.6667 4.66666 37.5737 4.66666 35C4.66666 32.4263 6.75966 30.3333 9.33332 30.3333C11.907 30.3333 14 32.4263 14 35C14 37.5737 11.907 39.6667 9.33332 39.6667ZM9.33332 32.6667C8.04766 32.6667 6.99999 33.7143 6.99999 35C6.99999 36.2857 8.04766 37.3333 9.33332 37.3333C10.619 37.3333 11.6667 36.2857 11.6667 35C11.6667 33.7143 10.619 32.6667 9.33332 32.6667Z" fill="#F2BD4D"/>
<path d="M9.33332 32.6667C8.04766 32.6667 6.99999 33.7143 6.99999 35C6.99999 36.2857 8.04766 37.3333 9.33332 37.3333C10.619 37.3333 11.6667 36.2857 11.6667 35C11.6667 33.7143 10.619 32.6667 9.33332 32.6667Z" fill="#F2BD4D"/>
<path d="M1.16667 51.3333C0.522667 51.3333 0 50.8107 0 50.1667V47.8333C0 44.618 2.618 42 5.83333 42H12.8333C13.4773 42 14 42.5227 14 43.1667C14 43.8107 13.4773 44.3333 12.8333 44.3333H5.83333C3.90367 44.3333 2.33333 45.9037 2.33333 47.8333V50.1667C2.33333 50.8107 1.81067 51.3333 1.16667 51.3333Z" fill="#F2BD4D"/>
<path d="M28 40.8333C24.1407 40.8333 21 37.6927 21 33.8333C21 29.974 24.1407 26.8333 28 26.8333C31.8593 26.8333 35 29.974 35 33.8333C35 37.6927 31.8593 40.8333 28 40.8333ZM28 29.1667C25.4263 29.1667 23.3333 31.2597 23.3333 33.8333C23.3333 36.407 25.4263 38.5 28 38.5C30.5737 38.5 32.6667 36.407 32.6667 33.8333C32.6667 31.2597 30.5737 29.1667 28 29.1667Z" fill="#F2BD4D"/>
<path d="M28 29.1667C25.4263 29.1667 23.3333 31.2597 23.3333 33.8333C23.3333 36.407 25.4263 38.5 28 38.5C30.5737 38.5 32.6667 36.407 32.6667 33.8333C32.6667 31.2597 30.5737 29.1667 28 29.1667Z" fill="#F2BD4D"/>
<path d="M39.6667 56C39.0227 56 38.5 55.4773 38.5 54.8333V50.1667C38.5 48.237 36.9297 46.6667 35 46.6667H21C19.0703 46.6667 17.5 48.237 17.5 50.1667V54.8333C17.5 55.4773 16.9773 56 16.3333 56C15.6893 56 15.1667 55.4773 15.1667 54.8333V50.1667C15.1667 46.9513 17.7847 44.3333 21 44.3333H35C38.2153 44.3333 40.8333 46.9513 40.8333 50.1667V54.8333C40.8333 55.4773 40.3107 56 39.6667 56Z" fill="#F2BD4D"/>
</g>
<defs>
<clipPath id="clip0_637_8108">
<rect width="56" height="56" fill="white"/>
</clipPath>
</defs>
</svg>
