<svg width="26" height="26" viewBox="0 0 26 26" fill="none" xmlns="http://www.w3.org/2000/svg">
<path d="M16.6311 17.1002C16.502 17.0995 16.3763 17.0587 16.2712 16.9836C16.1662 16.9085 16.087 16.8027 16.0445 16.6808C16.002 16.5588 15.9984 16.4267 16.034 16.3026C16.0697 16.1785 16.1429 16.0685 16.2436 15.9877L20.0436 13.0002L16.2936 10.0377C16.2292 9.98681 16.1754 9.92373 16.1354 9.85206C16.0953 9.78039 16.0698 9.70153 16.0602 9.61999C16.0506 9.53845 16.0572 9.45582 16.0796 9.37682C16.1019 9.29782 16.1396 9.224 16.1905 9.15957C16.2414 9.09514 16.3045 9.04136 16.3762 9.00131C16.4478 8.96126 16.5267 8.93572 16.6082 8.92614C16.6898 8.91657 16.7724 8.92314 16.8514 8.9455C16.9304 8.96786 17.0042 9.00556 17.0686 9.05645L21.4436 12.5064C21.5189 12.5649 21.5798 12.6397 21.6218 12.7253C21.6637 12.8109 21.6854 12.9049 21.6854 13.0002C21.6854 13.0955 21.6637 13.1895 21.6218 13.2751C21.5798 13.3607 21.5189 13.4355 21.4436 13.4939L17.0124 16.9502C16.9058 17.0416 16.7715 17.0945 16.6311 17.1002Z" fill="#EDBE5C"/>
<path d="M9.45615 18.0316C9.31805 18.0311 9.18399 17.985 9.0749 17.9003L4.4749 14.3066C4.4027 14.2465 4.34498 14.1709 4.30602 14.0854C4.26707 13.9999 4.24789 13.9067 4.2499 13.8128C4.25108 13.7184 4.27362 13.6255 4.31583 13.5411C4.35805 13.4567 4.41884 13.3829 4.49365 13.3253L9.05615 9.73156C9.12099 9.68067 9.19522 9.64305 9.27459 9.62085C9.35397 9.59865 9.43695 9.5923 9.51878 9.60217C9.60061 9.61204 9.6797 9.63792 9.75152 9.67835C9.82335 9.71878 9.88651 9.77297 9.9374 9.83781C9.98828 9.90265 10.0259 9.97688 10.0481 10.0563C10.0703 10.1356 10.0767 10.2186 10.0668 10.3004C10.0569 10.3823 10.031 10.4614 9.9906 10.5332C9.95017 10.605 9.89599 10.6682 9.83115 10.7191L5.8874 13.8441L9.8624 16.9691C9.96312 17.0499 10.0363 17.1599 10.072 17.284C10.1077 17.4081 10.104 17.5402 10.0615 17.6621C10.019 17.7841 9.93984 17.8899 9.8348 17.965C9.72975 18.0401 9.60402 18.0808 9.4749 18.0816L9.45615 18.0316Z" fill="#EDBE5C"/>
<path d="M11.1624 21.7502H11.0249C10.9443 21.7325 10.868 21.699 10.8004 21.6516C10.7328 21.6042 10.6753 21.5439 10.6311 21.4742C10.5869 21.4045 10.557 21.3267 10.5431 21.2453C10.5291 21.164 10.5315 21.0807 10.5499 21.0002L14.2499 4.73773C14.2663 4.65664 14.2985 4.57961 14.3449 4.5111C14.3913 4.44259 14.4507 4.38396 14.5199 4.33861C14.5891 4.29326 14.6666 4.2621 14.7479 4.24693C14.8292 4.23176 14.9128 4.23288 14.9936 4.25023C15.0737 4.26865 15.1493 4.30267 15.2162 4.35034C15.2831 4.39802 15.34 4.45841 15.3835 4.52806C15.427 4.59772 15.4564 4.67527 15.4699 4.75629C15.4835 4.83731 15.4809 4.9202 15.4624 5.00023L11.7499 21.2627C11.7196 21.3975 11.6455 21.5184 11.5392 21.6066C11.4329 21.6948 11.3004 21.7453 11.1624 21.7502Z" fill="#EDBE5C"/>
</svg>
