<svg width="60" height="60" viewBox="0 0 60 60" fill="none" xmlns="http://www.w3.org/2000/svg">
<g clip-path="url(#clip0_637_9248)">
<path d="M30 60C29.8541 59.9999 29.7086 59.9841 29.566 59.953C27.151 59.428 6 53.926 6 22.883V11.639C5.99975 11.1945 6.14059 10.7613 6.40224 10.4019C6.66389 10.0425 7.03286 9.77535 7.456 9.63902C20.076 5.52802 27.061 1.46402 28.9 0.315016C29.2299 0.108913 29.611 -0.000366211 30 -0.000366211C30.389 -0.000366211 30.7701 0.108913 31.1 0.315016C32.939 1.46402 39.924 5.52802 52.545 9.63502C52.968 9.77152 53.3367 10.0387 53.5982 10.3981C53.8596 10.7575 54.0003 11.1906 54 11.635V22.883C54 27.9124 53.4448 32.2714 52.5041 36.0474C52.372 36.5776 51.828 36.8902 51.2988 36.7541C50.7577 36.6149 50.4341 36.0592 50.569 35.517C51.4677 31.9029 51.9992 27.7206 51.999 22.883V11.635C51.9974 11.6139 51.9896 11.5938 51.9766 11.5771C51.9636 11.5603 51.946 11.5478 51.926 11.541C40.0581 7.67534 33.0423 3.81993 30.5585 2.3301C30.237 2.13725 29.8426 2.13367 29.519 2.3231C26.9831 3.80783 19.9605 7.66928 8.074 11.541C8.05371 11.5475 8.03582 11.56 8.02264 11.5767C8.00945 11.5935 8.00157 11.6138 8 11.635V22.883C8 51.6129 26.7514 57.2327 29.7851 57.9535C29.9242 57.9865 30.0592 57.9855 30.1984 57.9526C32.4443 57.4218 43.0997 54.26 48.6378 41.3166C48.8354 40.8548 49.3462 40.5947 49.833 40.7187C50.4151 40.867 50.7444 41.4986 50.5092 42.0513C44.3967 56.4175 32.2316 59.5627 30.438 59.954C30.294 59.9847 30.1472 60.0001 30 60Z" fill="#EDBE5C"/>
<path d="M30.807 54.671C30.2853 54.8437 29.7218 54.8437 29.2 54.671C24.9224 53.2102 21.1441 50.5713 18.3 47.058C15.8608 44.0946 14.0271 40.5609 12.8076 36.4859C12.6465 35.9476 12.9773 35.3903 13.5233 35.2576L13.6382 35.2296C14.1644 35.1017 14.6953 35.4156 14.8507 35.9344C16.8864 42.7298 21.1129 49.9216 29.818 52.77C29.9353 52.8105 30.0627 52.8105 30.18 52.77C45.787 47.664 47 28.6 47 22.882V15.546C46.9985 15.429 46.9608 15.3154 46.892 15.2209C46.8232 15.1263 46.7268 15.0554 46.616 15.018C40.986 13.0828 35.5166 10.7088 30.258 7.91795C30.1787 7.87533 30.09 7.85302 30 7.85302C29.91 7.85302 29.8213 7.87533 29.742 7.91795C24.4831 10.7088 19.0133 13.0827 13.383 15.018C13.2724 15.0559 13.1762 15.1271 13.1077 15.2218C13.0391 15.3165 13.0015 15.4301 13 15.547V22.883C13 24.7638 13.1313 28.0893 13.8632 31.8872C13.9694 32.4383 13.6148 32.9777 13.0637 33.084L12.9669 33.1027C12.4305 33.2061 11.9092 32.8603 11.81 32.3231C11.2708 29.4049 11 26.2554 11 22.883V15.547C11.0017 15.0165 11.1677 14.4996 11.4752 14.0673C11.7826 13.635 12.2165 13.3086 12.717 13.133C18.2472 11.2315 23.62 8.89966 28.786 6.15895C29.1584 5.95519 29.576 5.84839 30.0005 5.84839C30.425 5.84839 30.8426 5.95519 31.215 6.15895C36.3801 8.90006 41.7523 11.2319 47.282 13.133C47.7827 13.3086 48.2166 13.6349 48.5243 14.0672C48.8319 14.4995 48.9981 15.0164 49 15.547V22.883C49 33.035 46.546 41.166 41.707 47.051C38.864 50.567 35.0856 53.2085 30.807 54.671Z" fill="#EDBE5C"/>
<path d="M26.183 40H26.062C25.6676 40.0004 25.2771 39.9214 24.9139 39.7676C24.5507 39.6139 24.2222 39.3885 23.948 39.105L18.825 33.805C18.2916 33.2466 17.9964 32.5026 18.002 31.7304C18.0076 30.9582 18.3135 30.2185 18.855 29.668L20.199 28.317C20.767 27.7587 21.5326 27.4475 22.329 27.451C22.7242 27.4565 23.1142 27.5423 23.4752 27.7032C23.8362 27.8641 24.1607 28.0967 24.429 28.387C25.1089 29.1172 26.2767 29.0802 26.9091 28.3084L35.292 18.077C35.5369 17.7778 35.8385 17.5301 36.1794 17.348C36.5204 17.1659 36.894 17.053 37.2788 17.0158C37.6636 16.9786 38.0519 17.0179 38.4214 17.1314C38.791 17.2448 39.1344 17.4303 39.432 17.677L40.932 18.916C41.532 19.4148 41.9106 20.1305 41.9855 20.9071C42.0605 21.6838 41.8256 22.4586 41.332 23.063L37.1594 28.1549C36.7994 28.5942 36.1464 28.6464 35.7212 28.2698C35.3185 27.9131 35.2697 27.3019 35.6106 26.8858L39.784 21.793C39.9435 21.5982 40.0196 21.3482 39.9956 21.0976C39.9717 20.847 39.8496 20.616 39.656 20.455L38.156 19.216C38.0612 19.1375 37.9518 19.0785 37.834 19.0425C37.7163 19.0065 37.5927 18.9941 37.4701 19.0061C37.3476 19.0181 37.2287 19.0542 37.1202 19.1123C37.0117 19.1705 36.9158 19.2496 36.838 19.345L26.538 31.919C26.4476 32.0291 26.3347 32.1186 26.2069 32.1815C26.0792 32.2445 25.9394 32.2794 25.797 32.284C25.6543 32.2899 25.5119 32.2647 25.38 32.2099C25.248 32.1552 25.1296 32.0722 25.033 31.967L22.968 29.75C22.8828 29.6573 22.7796 29.5829 22.6648 29.5314C22.55 29.4798 22.4259 29.4521 22.3 29.45C22.1736 29.4453 22.0477 29.4675 21.9306 29.5153C21.8136 29.563 21.708 29.6352 21.621 29.727L20.277 31.077C20.1016 31.2548 20.0024 31.4941 20.0005 31.7439C19.9986 31.9938 20.0942 32.2345 20.267 32.415L25.389 37.715C25.478 37.8135 25.5883 37.8903 25.7115 37.9397C25.8347 37.9891 25.9676 38.0097 26.1 38C26.2319 37.995 26.3612 37.9619 26.4792 37.9027C26.5972 37.8435 26.7011 37.7597 26.784 37.657L32.6491 30.4998C32.9997 30.0719 33.6308 30.0095 34.0584 30.3603C34.4857 30.7109 34.5481 31.3414 34.1978 31.7689L28.332 38.927C28.0696 39.2472 27.7426 39.5083 27.3722 39.6932C27.0019 39.8781 26.5966 39.9827 26.183 40Z" fill="#EDBE5C"/>
</g>
<defs>
<clipPath id="clip0_637_9248">
<rect width="60" height="60" fill="white"/>
</clipPath>
</defs>
</svg>
