<svg width="60" height="60" viewBox="0 0 60 60" fill="none" xmlns="http://www.w3.org/2000/svg">
<path d="M31.875 16.9969C29.8151 15.8076 27.502 15.1251 25.1264 15.0059C22.7508 14.8867 20.381 15.3341 18.2124 16.3113C16.0438 17.2884 14.1387 18.7673 12.6542 20.6258C11.1698 22.4843 10.1486 24.6691 9.67499 27L11.55 27.375C11.9673 25.3415 12.861 23.4359 14.1577 21.8147C15.4545 20.1936 17.1172 18.9032 19.0095 18.0495C20.9018 17.1957 22.9696 16.8031 25.0431 16.9037C27.1167 17.0043 29.1367 17.5953 30.9375 18.6282L31.875 16.9969Z" fill="#EDBE5C"/>
<path d="M24.375 45C27.0066 45.0017 29.5926 44.3131 31.875 43.0031L30.9375 41.3719C29.1361 42.4087 27.1143 43.0028 25.0384 43.1054C22.9625 43.2081 20.8919 42.8162 18.9971 41.9622C17.1023 41.1081 15.4373 39.8163 14.1394 38.193C12.8414 36.5697 11.9475 34.6613 11.5312 32.625L9.65625 33C10.3485 36.3913 12.1922 39.4388 14.8748 41.6259C17.5574 43.8129 20.9138 45.005 24.375 45Z" fill="#EDBE5C"/>
<path d="M9.375 30V31.0219L11.25 30.8531C11.2 30.2855 11.2 29.7146 11.25 29.1469L9.375 28.9781V30Z" fill="#EDBE5C"/>
<path d="M2.71874 33.6375C2.58615 33.648 2.45732 33.6866 2.3408 33.7508C2.22428 33.8149 2.12275 33.9031 2.04295 34.0096C1.96314 34.116 1.90689 34.2381 1.87793 34.3679C1.84898 34.4978 1.84797 34.6323 1.87499 34.7625C2.45539 37.5288 3.54929 40.1618 5.09999 42.525C5.17263 42.6355 5.26782 42.7293 5.3793 42.8004C5.49079 42.8715 5.61605 42.9182 5.74687 42.9375C5.87574 42.9573 6.00734 42.9501 6.13326 42.9162C6.25917 42.8823 6.37662 42.8225 6.47812 42.7406C7.18092 42.1815 8.0649 41.9007 8.9615 41.9516C9.85811 42.0025 10.7046 42.3816 11.3396 43.0166C11.9747 43.6516 12.3538 44.4981 12.4047 45.3947C12.4556 46.2913 12.1747 47.1753 11.6156 47.8781C11.5325 47.9807 11.472 48.0998 11.438 48.2274C11.4041 48.355 11.3975 48.4884 11.4187 48.6187C11.4392 48.7479 11.4865 48.8713 11.5576 48.9811C11.6286 49.0909 11.7218 49.1846 11.8312 49.2562C14.1987 50.8157 16.8383 51.9161 19.6125 52.5C19.7413 52.527 19.8743 52.5265 20.0029 52.4987C20.1316 52.4708 20.2529 52.4162 20.359 52.3384C20.4651 52.2606 20.5536 52.1613 20.6189 52.047C20.6841 51.9327 20.7245 51.8059 20.7375 51.675C20.8291 50.774 21.2518 49.939 21.9239 49.3318C22.5959 48.7247 23.4693 48.3885 24.375 48.3885C25.2807 48.3885 26.1541 48.7247 26.8261 49.3318C27.4981 49.939 27.9209 50.774 28.0125 51.675C28.0248 51.806 28.0645 51.9331 28.1291 52.0477C28.1937 52.1624 28.2818 52.2622 28.3875 52.3406C28.5483 52.4571 28.742 52.5194 28.9406 52.5187H29.1375C31.9038 51.9383 34.5368 50.8444 36.9 49.2937C37.0094 49.2221 37.1026 49.1284 37.1737 49.0186C37.2447 48.9088 37.292 48.7854 37.3125 48.6562C37.3337 48.5259 37.3271 48.3925 37.2932 48.2649C37.2593 48.1373 37.1987 48.0182 37.1156 47.9156C36.5497 47.2158 36.2633 46.3311 36.3118 45.4324C36.3602 44.5337 36.7402 43.6848 37.3781 43.05L37.4531 42.9844L36.9 42.1875L36.3562 41.4281C36.2491 41.4999 36.1514 41.5849 36.0656 41.6812C35.2288 42.5197 34.6854 43.6062 34.5164 44.7787C34.3475 45.9512 34.562 47.1469 35.1281 48.1875C33.4364 49.1859 31.6121 49.9402 29.7094 50.4281C29.3673 49.2918 28.6683 48.296 27.716 47.5881C26.7636 46.8802 25.6085 46.4979 24.4219 46.4979C23.2352 46.4979 22.0801 46.8802 21.1278 47.5881C20.1754 48.296 19.4764 49.2918 19.1344 50.4281C17.2339 49.9423 15.4124 49.1878 13.725 48.1875C14.2865 47.139 14.4957 45.9376 14.3216 44.761C14.1475 43.5844 13.5995 42.4951 12.7584 41.654C11.9174 40.813 10.8281 40.2649 9.65148 40.0909C8.47488 39.9168 7.27351 40.126 6.22499 40.6875C5.21979 38.9981 4.46207 37.1733 3.97499 35.2687C5.11127 34.9267 6.10713 34.2277 6.81502 33.2753C7.52292 32.323 7.90519 31.1679 7.90519 29.9812C7.90519 28.7946 7.52292 27.6395 6.81502 26.6872C6.10713 25.7348 5.11127 25.0358 3.97499 24.6937C4.46044 22.7916 5.21828 20.9697 6.22499 19.2844C7.27351 19.8459 8.47488 20.055 9.65148 19.881C10.8281 19.7069 11.9174 19.1589 12.7584 18.3178C13.5995 17.4768 14.1475 16.3874 14.3216 15.2109C14.4957 14.0343 14.2865 12.8329 13.725 11.7844C15.4103 10.7777 17.2323 10.0198 19.1344 9.53437C19.4764 10.6706 20.1754 11.6665 21.1278 12.3744C22.0801 13.0823 23.2352 13.4646 24.4219 13.4646C25.6085 13.4646 26.7636 13.0823 27.716 12.3744C28.6683 11.6665 29.3673 10.6706 29.7094 9.53437C31.6139 10.0214 33.4387 10.7792 35.1281 11.7844C34.5643 12.8239 34.351 14.0177 34.5199 15.1882C34.6888 16.3587 35.2309 17.4435 36.0656 18.2812C36.1568 18.3755 36.2574 18.4603 36.3656 18.5344L37.5 17.0531L37.425 16.9875C36.787 16.3526 36.4071 15.5038 36.3586 14.6051C36.3102 13.7064 36.5966 12.8217 37.1625 12.1219C37.2444 12.0204 37.3041 11.9029 37.338 11.777C37.3719 11.6511 37.3792 11.5195 37.3594 11.3906C37.3389 11.2615 37.2916 11.138 37.2205 11.0282C37.1495 10.9184 37.0563 10.8247 36.9469 10.7531C34.5728 9.18472 31.9229 8.08083 29.1375 7.49999C29.0087 7.47303 28.8757 7.47349 28.747 7.50133C28.6184 7.52917 28.4971 7.58378 28.391 7.6616C28.2849 7.73942 28.1963 7.8387 28.1311 7.953C28.0659 8.0673 28.0255 8.19404 28.0125 8.32499C27.9209 9.22602 27.4981 10.061 26.8261 10.6681C26.1541 11.2753 25.2807 11.6114 24.375 11.6114C23.4693 11.6114 22.5959 11.2753 21.9239 10.6681C21.2518 10.061 20.8291 9.22602 20.7375 8.32499C20.7245 8.19404 20.6841 8.0673 20.6189 7.953C20.5536 7.8387 20.4651 7.73942 20.359 7.6616C20.2529 7.58378 20.1316 7.52917 20.0029 7.50133C19.8743 7.47349 19.7413 7.47303 19.6125 7.49999C16.8447 8.0807 14.2112 9.17799 11.85 10.7344C11.7406 10.806 11.6474 10.8997 11.5763 11.0095C11.5053 11.1193 11.458 11.2427 11.4375 11.3719C11.4176 11.5007 11.4249 11.6323 11.4588 11.7583C11.4927 11.8842 11.5525 12.0016 11.6344 12.1031C12.1934 12.8059 12.4743 13.6899 12.4234 14.5865C12.3725 15.4831 11.9934 16.3296 11.3584 16.9646C10.7234 17.5997 9.87686 17.9788 8.98025 18.0297C8.08365 18.0806 7.19967 17.7997 6.49687 17.2406C6.39537 17.1588 6.27792 17.099 6.15201 17.0651C6.02609 17.0312 5.89449 17.0239 5.76562 17.0437C5.6348 17.063 5.50954 17.1097 5.39805 17.1808C5.28657 17.2519 5.19138 17.3458 5.11874 17.4562C3.55928 19.8237 2.45891 22.4633 1.87499 25.2375C1.84803 25.3663 1.84849 25.4993 1.87633 25.6279C1.90417 25.7566 1.95878 25.8779 2.0366 25.984C2.11442 26.0901 2.2137 26.1786 2.328 26.2439C2.4423 26.3091 2.56904 26.3495 2.69999 26.3625C3.60102 26.4541 4.43598 26.8769 5.04314 27.5489C5.6503 28.2209 5.98643 29.0943 5.98643 30C5.98643 30.9057 5.6503 31.7791 5.04314 32.4511C4.43598 33.1231 3.60102 33.5459 2.69999 33.6375H2.71874Z" fill="#EDBE5C"/>
<path d="M20.625 26.25C20.3764 26.25 20.1379 26.3488 19.9621 26.5246C19.7863 26.7004 19.6875 26.9389 19.6875 27.1875V36.5625C19.6875 36.8111 19.7863 37.0496 19.9621 37.2254C20.1379 37.4012 20.3764 37.5 20.625 37.5H26.25C26.4986 37.5 26.7371 37.4012 26.9129 37.2254C27.0887 37.0496 27.1875 36.8111 27.1875 36.5625V27.1875C27.1875 26.9389 27.0887 26.7004 26.9129 26.5246C26.7371 26.3488 26.4986 26.25 26.25 26.25H20.625ZM25.3125 35.625H21.5625V28.125H25.3125V35.625Z" fill="#EDBE5C"/>
<path d="M36.5625 36.5625V23.4375C36.5625 23.1889 36.4637 22.9504 36.2879 22.7746C36.1121 22.5988 35.8736 22.5 35.625 22.5H30C29.7514 22.5 29.5129 22.5988 29.3371 22.7746C29.1613 22.9504 29.0625 23.1889 29.0625 23.4375V36.5625C29.0625 36.8111 29.1613 37.0496 29.3371 37.2254C29.5129 37.4012 29.7514 37.5 30 37.5H35.625C35.8736 37.5 36.1121 37.4012 36.2879 37.2254C36.4637 37.0496 36.5625 36.8111 36.5625 36.5625ZM34.6875 35.625H30.9375V24.375H34.6875V35.625Z" fill="#EDBE5C"/>
<path d="M39.375 37.5H45C45.2486 37.5 45.4871 37.4012 45.6629 37.2254C45.8387 37.0496 45.9375 36.8111 45.9375 36.5625V19.6875C45.9375 19.4389 45.8387 19.2004 45.6629 19.0246C45.4871 18.8488 45.2486 18.75 45 18.75H39.375C39.1264 18.75 38.8879 18.8488 38.7121 19.0246C38.5363 19.2004 38.4375 19.4389 38.4375 19.6875V36.5625C38.4375 36.8111 38.5363 37.0496 38.7121 37.2254C38.8879 37.4012 39.1264 37.5 39.375 37.5ZM40.3125 20.625H44.0625V35.625H40.3125V20.625Z" fill="#EDBE5C"/>
<path d="M45.9375 16.875H47.8125V36.5625C47.8125 36.8111 47.9113 37.0496 48.0871 37.2254C48.2629 37.4012 48.5014 37.5 48.75 37.5H54.375C54.6237 37.5 54.8621 37.4012 55.0379 37.2254C55.2137 37.0496 55.3125 36.8111 55.3125 36.5625V16.875H57.1875C57.3616 16.875 57.5323 16.8265 57.6804 16.735C57.8285 16.6435 57.9482 16.5125 58.026 16.3568C58.1039 16.201 58.1369 16.0267 58.1212 15.8533C58.1056 15.6799 58.042 15.5143 57.9375 15.375L52.3125 7.875C52.2252 7.75857 52.112 7.66406 51.9818 7.59897C51.8516 7.53389 51.7081 7.5 51.5625 7.5C51.417 7.5 51.2734 7.53389 51.1433 7.59897C51.0131 7.66406 50.8998 7.75857 50.8125 7.875L45.1875 15.375C45.0832 15.515 45.02 15.6813 45.0051 15.8552C44.9902 16.0291 45.0242 16.2037 45.1031 16.3594C45.181 16.514 45.3002 16.644 45.4475 16.735C45.5948 16.826 45.7644 16.8745 45.9375 16.875ZM51.5625 10.0031L55.3125 15H54.375C54.1264 15 53.8879 15.0988 53.7121 15.2746C53.5363 15.4504 53.4375 15.6889 53.4375 15.9375V35.625H49.6875V15.9375C49.6875 15.6889 49.5887 15.4504 49.4129 15.2746C49.2371 15.0988 48.9987 15 48.75 15H47.8125L51.5625 10.0031Z" fill="#EDBE5C"/>
</svg>
