<svg width="60" height="60" viewBox="0 0 60 60" fill="none" xmlns="http://www.w3.org/2000/svg">
<mask id="mask0_637_9333" style="mask-type:luminance" maskUnits="userSpaceOnUse" x="0" y="0" width="60" height="60">
<path d="M-6.10352e-05 3.8147e-06H59.9999V60H-6.10352e-05V3.8147e-06Z" fill="white"/>
</mask>
<g mask="url(#mask0_637_9333)">
<path d="M8.16483 50.5071V56.2928" stroke="#EDBE5C" stroke-width="1.5" stroke-miterlimit="10" stroke-linecap="round" stroke-linejoin="round"/>
<path d="M37.4156 50.5071V56.2928" stroke="#EDBE5C" stroke-width="1.5" stroke-miterlimit="10" stroke-linecap="round" stroke-linejoin="round"/>
<path d="M22.7902 38.1202L20.1053 40.4423C19.4424 41.0157 18.4324 40.907 17.9065 40.2059L13.7939 34.7213L15.278 33.4283C16.0044 32.7954 17.0914 32.8134 17.7965 33.4699L22.7902 38.1202Z" stroke="#EDBE5C" stroke-width="1.5" stroke-miterlimit="10" stroke-linecap="round" stroke-linejoin="round"/>
<path d="M22.7939 38.1202L25.4788 40.4423C26.1417 41.0157 27.1518 40.907 27.6776 40.2059L31.7903 34.7213L30.3062 33.4283C29.5798 32.7954 28.4928 32.8134 27.7878 33.4699L22.7939 38.1202Z" stroke="#EDBE5C" stroke-width="1.5" stroke-miterlimit="10" stroke-linecap="round" stroke-linejoin="round"/>
<path d="M15.5183 51.9842C17.2796 53.6016 19.216 55.1208 20.757 56.2657" stroke="#EDBE5C" stroke-width="1.5" stroke-miterlimit="10" stroke-linecap="round" stroke-linejoin="round"/>
<path d="M23.1825 56.2657C20.4799 51.7776 13.4137 41.3463 13.7939 34.7213L13.1376 34.8433C11.6889 35.1126 10.4261 36.0132 9.73296 37.3134C9.42804 37.8855 9.20433 38.5232 9.20433 39.1626C9.20433 40.1256 10.6944 41.3181 11.5981 41.9528C11.9083 42.1707 11.9565 42.6484 11.6943 42.9319C11.1829 43.4849 10.5466 44.4257 10.7393 45.5471C10.9181 46.5884 11.6408 47.7882 12.66 49.0266" stroke="#EDBE5C" stroke-width="1.5" stroke-miterlimit="10" stroke-linecap="round" stroke-linejoin="round"/>
<path d="M25.6071 56.2657C26.9046 55.3017 28.4823 54.0725 29.9999 52.7427M23.1825 56.2657C25.8851 51.7776 32.1706 41.3463 31.7903 34.7213L33.0504 34.8978C34.6983 35.1286 36.1436 36.1682 36.815 37.6906C37.0219 38.1596 37.1598 38.6606 37.1598 39.1626C37.1598 40.1256 35.6699 41.3181 34.766 41.9528C34.4558 42.1707 34.4077 42.6484 34.6698 42.9319C35.1812 43.4849 35.8175 44.4257 35.625 45.5471C35.4099 46.7994 34.4082 48.2808 33.0504 49.7831" stroke="#EDBE5C" stroke-width="1.5" stroke-miterlimit="10" stroke-linecap="round" stroke-linejoin="round"/>
<path d="M19.8133 40.6395L21.3687 42.4193H24.2192L25.7401 40.6244L22.794 38.1202L19.8133 40.6395Z" stroke="#EDBE5C" stroke-width="1.5" stroke-miterlimit="10" stroke-linecap="round" stroke-linejoin="round"/>
<path d="M26.4096 50.6942L24.2192 42.4194" stroke="#EDBE5C" stroke-width="1.5" stroke-miterlimit="10" stroke-linecap="round" stroke-linejoin="round"/>
<path d="M21.3687 42.4193L19.5975 50.3875" stroke="#EDBE5C" stroke-width="1.5" stroke-miterlimit="10" stroke-linecap="round" stroke-linejoin="round"/>
<path d="M11.5595 35.4288L5.55844 37.3287C2.7723 38.2108 0.878906 40.7963 0.878906 43.7186V53.8046C0.878906 55.1641 1.98105 56.2661 3.34055 56.2661C3.34055 56.2661 7.0088 56.2661 10 56.2661M35.3464 35.8471L40.0259 37.3287C42.8119 38.2108 44.7053 40.7963 44.7053 43.7186V53.8046C44.7053 55.1641 43.6031 56.2661 42.2436 56.2661H13.5" stroke="#EDBE5C" stroke-width="1.5" stroke-miterlimit="10" stroke-linecap="round" stroke-linejoin="round"/>
<path d="M31.3249 7.4389H31.2309C30.7106 7.4389 30.2888 7.01702 30.2888 6.49683C30.2888 4.95616 29.0398 3.70718 27.4992 3.70718H17.8861C14.3404 3.70718 11.466 6.58167 11.466 10.1273V16.3201H13.3935C14.4655 16.3201 15.3346 15.451 15.3346 14.379V13.3162C15.3346 11.9199 16.7006 10.9325 18.0265 11.3705L18.0301 11.3718C21.1225 12.3933 24.4615 12.3931 27.5537 11.3711C28.8796 10.9328 30.2459 11.9201 30.2459 13.3167V14.379C30.2459 15.451 31.1149 16.3201 32.187 16.3201H34.1145V10.2285C34.1145 8.68776 32.8656 7.4389 31.3249 7.4389Z" stroke="#EDBE5C" stroke-width="1.5" stroke-miterlimit="10" stroke-linecap="round" stroke-linejoin="round"/>
<path d="M11.4659 16.3201V17.2553V19.4942C11.4659 20.3054 12.1235 20.9628 12.9345 20.9628C13.1905 20.9628 13.3987 21.1633 13.4148 21.4188C13.7245 26.3285 17.8023 30.2153 22.7902 30.2153C27.7782 30.2153 31.856 26.3285 32.1657 21.4188C32.1818 21.1633 32.39 20.9628 32.6459 20.9628C33.457 20.9628 34.1145 20.3054 34.1145 19.4942V17.2553V16.3201" stroke="#EDBE5C" stroke-width="1.5" stroke-miterlimit="10" stroke-linecap="round" stroke-linejoin="round"/>
<path d="M17.7481 28.7479V33.4291C17.7641 33.4429 17.7809 33.4554 17.7965 33.47" stroke="#EDBE5C" stroke-width="1.5" stroke-miterlimit="10" stroke-linecap="round" stroke-linejoin="round"/>
<path d="M27.7877 33.47C27.8021 33.4566 27.8176 33.4451 27.8324 33.4322V28.7479" stroke="#EDBE5C" stroke-width="1.5" stroke-miterlimit="10" stroke-linecap="round" stroke-linejoin="round"/>
<path d="M51.1001 9.77709V16.2351C51.1001 17.0531 51.7633 17.7164 52.5815 17.7164H59.0395" stroke="#EDBE5C" stroke-width="1.5" stroke-miterlimit="10" stroke-linecap="round" stroke-linejoin="round"/>
<path d="M48.8142 49.8064H56.7317C58.0513 49.8064 59.1211 48.7366 59.1211 47.4169V30.9998M38.2031 9.69558H50.4913C51.125 9.69558 51.7327 9.94718 52.1809 10.3953L58.4212 16.6358C58.8693 17.0839 59.1211 17.6916 59.1211 18.3253V25.9998" stroke="#EDBE5C" stroke-width="1.5" stroke-miterlimit="10" stroke-linecap="round" stroke-linejoin="round"/>
</g>
<path d="M42.869 26.2621L42.9153 26.1734C42.5624 25.9891 42.1245 25.9 41.6065 25.9H39.2734H39.1734V26V32.5455V32.6455H39.2734H40.261H40.361V32.5455V30.1685H41.6033C41.6047 30.1685 41.606 30.1685 41.6074 30.1685L42.9087 32.5928L42.937 32.6455H42.9968H44.1218H44.2906L44.2095 32.4974L42.8148 29.9505C42.8473 29.9362 42.8792 29.9212 42.9105 29.9055C43.2635 29.729 43.5307 29.48 43.7076 29.1581C43.8852 28.8365 43.9725 28.4668 43.9725 28.0518C43.9725 27.6352 43.8865 27.2637 43.7113 26.9402C43.5348 26.6121 43.268 26.3565 42.915 26.1733L42.869 26.2621ZM42.869 26.2621C43.2056 26.4368 43.457 26.6786 43.6232 26.9876C43.7894 27.2944 43.8725 27.6491 43.8725 28.0518C43.8725 28.4524 43.7884 28.805 43.62 29.1097L39.3734 26H41.6065C42.1136 26 42.5344 26.0874 42.869 26.2621ZM33.9 32.5455V32.6455H34H34.9876H35.0876V32.5455V29.7914H37.7681H37.8681V29.6914V28.8445V28.7445H37.7681H35.0876V26.9501H38.0589H38.1589V26.8501V26V25.9H38.0589H34H33.9V26V32.5455ZM41.5138 29.1184H40.361V26.9469H41.5011C41.8183 26.9469 42.0648 26.9948 42.2465 27.0838L42.2465 27.0838L42.2477 27.0843C42.4324 27.1718 42.5632 27.2957 42.6459 27.4554L42.6464 27.4562C42.7332 27.6202 42.7786 27.8177 42.7786 28.0518C42.7786 28.2842 42.7341 28.477 42.6498 28.6342C42.5677 28.7872 42.4374 28.9062 42.2524 28.9899L42.2521 28.99C42.0694 29.0736 41.8251 29.1184 41.5138 29.1184ZM44.9742 32.5455V32.6455H45.0742H49.2163H49.3163V32.5455V31.6953V31.5953H49.2163H46.1618V29.7914H48.9638H49.0638V29.6914V28.8445V28.7445H48.9638H46.1618V26.9501H49.1779H49.2779V26.8501V26V25.9H49.1779H45.0742H44.9742V26V32.5455ZM50.3971 32.5455V32.6455H50.4971H54.6391H54.7391V32.5455V31.6953V31.5953H54.6391H51.5846V29.7914H54.3866H54.4866V29.6914V28.8445V28.7445H54.3866H51.5846V26.9501H54.6008H54.7008V26.8501V26V25.9H54.6008H50.4971H50.3971V26V32.5455Z" fill="#EDBE5C" stroke="#EDBE5C" stroke-width="0.2"/>
</svg>
