<svg width="60" height="60" viewBox="0 0 60 60" fill="none" xmlns="http://www.w3.org/2000/svg">
<mask id="mask0_637_9257" style="mask-type:luminance" maskUnits="userSpaceOnUse" x="0" y="0" width="60" height="60">
<path d="M-6.10352e-05 3.8147e-06H59.9999V60H-6.10352e-05V3.8147e-06Z" fill="white"/>
</mask>
<g mask="url(#mask0_637_9257)">
<path d="M8.16483 50.5071V56.2928" stroke="#EDBE5C" stroke-width="1.5" stroke-miterlimit="10" stroke-linecap="round" stroke-linejoin="round"/>
<path d="M37.4156 50.5071V56.2928" stroke="#EDBE5C" stroke-width="1.5" stroke-miterlimit="10" stroke-linecap="round" stroke-linejoin="round"/>
<path d="M22.7902 38.1202L20.1053 40.4423C19.4424 41.0157 18.4324 40.907 17.9065 40.2059L13.7939 34.7213L15.278 33.4283C16.0044 32.7954 17.0914 32.8134 17.7965 33.4699L22.7902 38.1202Z" stroke="#EDBE5C" stroke-width="1.5" stroke-miterlimit="10" stroke-linecap="round" stroke-linejoin="round"/>
<path d="M22.7939 38.1202L25.4788 40.4423C26.1417 41.0157 27.1518 40.907 27.6776 40.2059L31.7903 34.7213L30.3062 33.4283C29.5798 32.7954 28.4928 32.8134 27.7878 33.4699L22.7939 38.1202Z" stroke="#EDBE5C" stroke-width="1.5" stroke-miterlimit="10" stroke-linecap="round" stroke-linejoin="round"/>
<path d="M15.5183 51.9842C17.2796 53.6016 19.216 55.1208 20.757 56.2657" stroke="#EDBE5C" stroke-width="1.5" stroke-miterlimit="10" stroke-linecap="round" stroke-linejoin="round"/>
<path d="M23.1825 56.2657C20.4799 51.7776 13.4137 41.3463 13.7939 34.7213L13.1376 34.8433C11.6889 35.1126 10.4261 36.0132 9.73296 37.3134C9.42804 37.8855 9.20433 38.5232 9.20433 39.1626C9.20433 40.1256 10.6944 41.3181 11.5981 41.9528C11.9083 42.1707 11.9565 42.6484 11.6943 42.9319C11.1829 43.4849 10.5466 44.4257 10.7393 45.5471C10.9181 46.5884 11.6408 47.7882 12.66 49.0266" stroke="#EDBE5C" stroke-width="1.5" stroke-miterlimit="10" stroke-linecap="round" stroke-linejoin="round"/>
<path d="M25.6071 56.2657C26.9046 55.3017 28.4823 54.0725 29.9999 52.7427M23.1825 56.2657C25.8851 51.7776 32.1706 41.3463 31.7903 34.7213L33.0504 34.8978C34.6983 35.1286 36.1436 36.1682 36.815 37.6906C37.0219 38.1596 37.1598 38.6606 37.1598 39.1626C37.1598 40.1256 35.6699 41.3181 34.766 41.9528C34.4558 42.1707 34.4077 42.6484 34.6698 42.9319C35.1812 43.4849 35.8175 44.4257 35.625 45.5471C35.4099 46.7994 34.4082 48.2808 33.0504 49.7831" stroke="#EDBE5C" stroke-width="1.5" stroke-miterlimit="10" stroke-linecap="round" stroke-linejoin="round"/>
<path d="M19.8133 40.6395L21.3687 42.4193H24.2192L25.7401 40.6244L22.794 38.1202L19.8133 40.6395Z" stroke="#EDBE5C" stroke-width="1.5" stroke-miterlimit="10" stroke-linecap="round" stroke-linejoin="round"/>
<path d="M26.4096 50.6942L24.2192 42.4194" stroke="#EDBE5C" stroke-width="1.5" stroke-miterlimit="10" stroke-linecap="round" stroke-linejoin="round"/>
<path d="M21.3687 42.4193L19.5975 50.3875" stroke="#EDBE5C" stroke-width="1.5" stroke-miterlimit="10" stroke-linecap="round" stroke-linejoin="round"/>
<path d="M11.5595 35.4288L5.55844 37.3287C2.7723 38.2108 0.878906 40.7963 0.878906 43.7186V53.8046C0.878906 55.1641 1.98105 56.2661 3.34055 56.2661C3.34055 56.2661 7.0088 56.2661 10 56.2661M35.3464 35.8471L40.0259 37.3287C42.8119 38.2108 44.7053 40.7963 44.7053 43.7186V53.8046C44.7053 55.1641 43.6031 56.2661 42.2436 56.2661H13.5" stroke="#EDBE5C" stroke-width="1.5" stroke-miterlimit="10" stroke-linecap="round" stroke-linejoin="round"/>
<path d="M31.3249 7.4389H31.2309C30.7106 7.4389 30.2888 7.01702 30.2888 6.49683C30.2888 4.95616 29.0398 3.70718 27.4992 3.70718H17.8861C14.3404 3.70718 11.466 6.58167 11.466 10.1273V16.3201H13.3935C14.4655 16.3201 15.3346 15.451 15.3346 14.379V13.3162C15.3346 11.9199 16.7006 10.9325 18.0265 11.3705L18.0301 11.3718C21.1225 12.3933 24.4615 12.3931 27.5537 11.3711C28.8796 10.9328 30.2459 11.9201 30.2459 13.3167V14.379C30.2459 15.451 31.1149 16.3201 32.187 16.3201H34.1145V10.2285C34.1145 8.68776 32.8656 7.4389 31.3249 7.4389Z" stroke="#EDBE5C" stroke-width="1.5" stroke-miterlimit="10" stroke-linecap="round" stroke-linejoin="round"/>
<path d="M11.4659 16.3201V17.2553V19.4942C11.4659 20.3054 12.1235 20.9628 12.9345 20.9628C13.1905 20.9628 13.3987 21.1633 13.4148 21.4188C13.7245 26.3285 17.8023 30.2153 22.7902 30.2153C27.7782 30.2153 31.856 26.3285 32.1657 21.4188C32.1818 21.1633 32.39 20.9628 32.6459 20.9628C33.457 20.9628 34.1145 20.3054 34.1145 19.4942V17.2553V16.3201" stroke="#EDBE5C" stroke-width="1.5" stroke-miterlimit="10" stroke-linecap="round" stroke-linejoin="round"/>
<path d="M17.7481 28.7479V33.4291C17.7641 33.4429 17.7809 33.4554 17.7965 33.47" stroke="#EDBE5C" stroke-width="1.5" stroke-miterlimit="10" stroke-linecap="round" stroke-linejoin="round"/>
<path d="M27.7877 33.47C27.8021 33.4566 27.8176 33.4451 27.8324 33.4322V28.7479" stroke="#EDBE5C" stroke-width="1.5" stroke-miterlimit="10" stroke-linecap="round" stroke-linejoin="round"/>
<path d="M51.1001 9.77709V16.2351C51.1001 17.0531 51.7633 17.7164 52.5815 17.7164H59.0395" stroke="#EDBE5C" stroke-width="1.5" stroke-miterlimit="10" stroke-linecap="round" stroke-linejoin="round"/>
<path d="M48.8142 49.8064H56.7317C58.0513 49.8064 59.1211 48.7366 59.1211 47.4169V30.9998M38.2031 9.69558H50.4913C51.125 9.69558 51.7327 9.94718 52.1809 10.3953L58.4212 16.6358C58.8693 17.0839 59.1211 17.6916 59.1211 18.3253V25.9998" stroke="#EDBE5C" stroke-width="1.5" stroke-miterlimit="10" stroke-linecap="round" stroke-linejoin="round"/>
</g>
<path d="M39.2159 33.1541C38.4768 33.1541 37.8404 32.9867 37.3068 32.652C36.7765 32.3139 36.3688 31.8482 36.0838 31.255C35.7988 30.6617 35.6562 29.9822 35.6562 29.2166C35.6562 28.4411 35.8021 27.7566 36.0938 27.1634C36.3854 26.5668 36.7964 26.1011 37.3267 25.7663C37.857 25.4316 38.4818 25.2642 39.201 25.2642C39.781 25.2642 40.2981 25.3719 40.7521 25.5874C41.2062 25.7995 41.5724 26.0978 41.8509 26.4822C42.1326 26.8667 42.3 27.3158 42.353 27.8295H40.9062C40.8267 27.4716 40.6444 27.1634 40.3594 26.9048C40.0777 26.6463 39.6998 26.517 39.2259 26.517C38.8116 26.517 38.4486 26.6264 38.1371 26.8452C37.8288 27.0606 37.5885 27.3688 37.4162 27.7699C37.2438 28.1676 37.1577 28.6383 37.1577 29.1818C37.1577 29.7386 37.2422 30.2192 37.4112 30.6236C37.5803 31.0279 37.8189 31.3411 38.1271 31.5632C38.4387 31.7853 38.8049 31.8963 39.2259 31.8963C39.5076 31.8963 39.7628 31.8449 39.9915 31.7422C40.2235 31.6361 40.4174 31.4853 40.5732 31.2898C40.7322 31.0942 40.8433 30.8589 40.9062 30.5838H42.353C42.3 31.0777 42.1392 31.5185 41.8707 31.9062C41.6023 32.294 41.2427 32.599 40.7919 32.821C40.3445 33.0431 39.8191 33.1541 39.2159 33.1541ZM51.4553 25.3636L48.6861 33H47.0952L44.3211 25.3636H45.917L47.8509 31.2401H47.9305L49.8594 25.3636H51.4553Z" fill="#EDBE5C"/>
<path d="M37.3068 32.652L37.1993 32.8206L37.2005 32.8214L37.3068 32.652ZM36.0938 27.1634L36.2732 27.2516L36.2734 27.2512L36.0938 27.1634ZM37.3267 25.7663L37.2199 25.5972H37.2199L37.3267 25.7663ZM40.7521 25.5874L40.6664 25.7681L40.6675 25.7686L40.7521 25.5874ZM41.8509 26.4822L41.6889 26.5995L41.6895 26.6005L41.8509 26.4822ZM42.353 27.8295V28.0295H42.5747L42.5519 27.809L42.353 27.8295ZM40.9062 27.8295L40.711 27.8729L40.7458 28.0295H40.9062V27.8295ZM40.3594 26.9048L40.2241 27.0522L40.225 27.053L40.3594 26.9048ZM38.1371 26.8452L38.2516 27.0091L38.252 27.0089L38.1371 26.8452ZM37.4162 27.7699L37.5997 27.8494L37.5999 27.8489L37.4162 27.7699ZM37.4112 30.6236L37.5957 30.5464L37.4112 30.6236ZM38.1271 31.5632L38.0102 31.7255L38.011 31.7261L38.1271 31.5632ZM39.9915 31.7422L40.0734 31.9246L40.0746 31.9241L39.9915 31.7422ZM40.5732 31.2898L40.418 31.1635L40.4167 31.1652L40.5732 31.2898ZM40.9062 30.5838V30.3838H40.7469L40.7113 30.5392L40.9062 30.5838ZM42.353 30.5838L42.5518 30.6052L42.5756 30.3838H42.353V30.5838ZM41.8707 31.9062L42.0352 32.0201L41.8707 31.9062ZM40.7919 32.821L40.7035 32.6416L40.703 32.6419L40.7919 32.821ZM39.2159 32.9541C38.5078 32.9541 37.9097 32.7941 37.4131 32.4826L37.2005 32.8214C37.7712 33.1794 38.4458 33.3541 39.2159 33.3541V32.9541ZM37.4143 32.4833C36.9169 32.1663 36.5338 31.7297 36.2641 31.1684L35.9035 31.3416C36.2039 31.9668 36.6361 32.4616 37.1993 32.8206L37.4143 32.4833ZM36.2641 31.1684C35.994 30.6062 35.8562 29.9571 35.8562 29.2166H35.4563C35.4563 30.0074 35.6036 30.7172 35.9035 31.3416L36.2641 31.1684ZM35.8562 29.2166C35.8562 28.4664 35.9972 27.813 36.2732 27.2516L35.9143 27.0751C35.607 27.7002 35.4563 28.4157 35.4563 29.2166H35.8562ZM36.2734 27.2512C36.5498 26.6859 36.9364 26.2492 37.4335 25.9355L37.2199 25.5972C36.6564 25.953 36.221 26.4476 35.9141 27.0755L36.2734 27.2512ZM37.4335 25.9355C37.9273 25.6237 38.5139 25.4642 39.201 25.4642V25.0642C38.4497 25.0642 37.7867 25.2395 37.2199 25.5972L37.4335 25.9355ZM39.201 25.4642C39.7559 25.4642 40.243 25.5671 40.6664 25.7681L40.8379 25.4067C40.3532 25.1767 39.8061 25.0642 39.201 25.0642V25.4642ZM40.6675 25.7686C41.0925 25.9671 41.4315 26.2441 41.6889 26.5995L42.0128 26.3649C41.7134 25.9514 41.3199 25.6318 40.8368 25.4062L40.6675 25.7686ZM41.6895 26.6005C41.9485 26.9539 42.1043 27.3686 42.154 27.8501L42.5519 27.809C42.4956 27.263 42.3166 26.7795 42.0122 26.364L41.6895 26.6005ZM42.353 27.6295H40.9062V28.0295H42.353V27.6295ZM41.1015 27.7862C41.0125 27.3858 40.8078 27.0415 40.4937 26.7567L40.225 27.053C40.481 27.2852 40.6409 27.5574 40.711 27.8729L41.1015 27.7862ZM40.4946 26.7575C40.1677 26.4575 39.7373 26.317 39.2259 26.317V26.717C39.6623 26.717 39.9876 26.8351 40.2242 27.0522L40.4946 26.7575ZM39.2259 26.317C38.7742 26.317 38.3704 26.437 38.0221 26.6815L38.252 27.0089C38.5269 26.8158 38.8489 26.717 39.2259 26.717V26.317ZM38.0225 26.6812C37.6791 26.9212 37.4171 27.2613 37.2324 27.6909L37.5999 27.8489C37.76 27.4764 37.9786 27.2 38.2516 27.0091L38.0225 26.6812ZM37.2327 27.6904C37.0471 28.1187 36.9577 28.6176 36.9577 29.1818H37.3577C37.3577 28.6589 37.4406 28.2165 37.5997 27.8494L37.2327 27.6904ZM36.9577 29.1818C36.9577 29.7582 37.0451 30.2663 37.2267 30.7007L37.5957 30.5464C37.4393 30.1722 37.3577 29.719 37.3577 29.1818H36.9577ZM37.2267 30.7007C37.4077 31.1338 37.6676 31.4787 38.0102 31.7255L38.244 31.4009C37.9701 31.2036 37.7528 30.9221 37.5957 30.5464L37.2267 30.7007ZM38.011 31.7261C38.3599 31.9747 38.7677 32.0963 39.2259 32.0963V31.6963C38.8422 31.6963 38.5175 31.5958 38.2432 31.4003L38.011 31.7261ZM39.2259 32.0963C39.5323 32.0963 39.816 32.0403 40.0734 31.9246L39.9095 31.5598C39.7096 31.6496 39.4828 31.6963 39.2259 31.6963V32.0963ZM40.0746 31.9241C40.3346 31.8052 40.5538 31.635 40.7296 31.4144L40.4167 31.1652C40.2809 31.3356 40.1123 31.467 39.9083 31.5603L40.0746 31.9241ZM40.7283 31.416C40.9089 31.1939 41.0322 30.9298 41.1012 30.6284L40.7113 30.5392C40.6543 30.788 40.5555 30.9945 40.418 31.1636L40.7283 31.416ZM40.9062 30.7838H42.353V30.3838H40.9062V30.7838ZM42.1541 30.5625C42.1045 31.0249 41.9547 31.4336 41.7063 31.7924L42.0352 32.0201C42.3237 31.6034 42.4954 31.1304 42.5518 30.6052L42.1541 30.5625ZM41.7063 31.7924C41.4585 32.1504 41.1258 32.4336 40.7035 32.6416L40.8803 33.0004C41.3595 32.7644 41.7461 32.4377 42.0352 32.0201L41.7063 31.7924ZM40.703 32.6419C40.2883 32.8477 39.7946 32.9541 39.2159 32.9541V33.3541C39.8437 33.3541 40.4006 33.2385 40.8808 33.0002L40.703 32.6419ZM51.4553 25.3636L51.6433 25.4318L51.7406 25.1636H51.4553V25.3636ZM48.6861 33V33.2H48.8264L48.8742 33.0682L48.6861 33ZM47.0952 33L46.9073 33.0683L46.9551 33.2H47.0952V33ZM44.3211 25.3636V25.1636H44.0356L44.1331 25.4319L44.3211 25.3636ZM45.917 25.3636L46.1069 25.3011L46.0617 25.1636H45.917V25.3636ZM47.8509 31.2401L47.6609 31.3026L47.7062 31.4401H47.8509V31.2401ZM47.9305 31.2401V31.4401H48.0753L48.1205 31.3024L47.9305 31.2401ZM49.8594 25.3636V25.1636H49.7146L49.6694 25.3013L49.8594 25.3636ZM51.2673 25.2955L48.4981 32.9318L48.8742 33.0682L51.6433 25.4318L51.2673 25.2955ZM48.6861 32.8H47.0952V33.2H48.6861V32.8ZM47.2832 32.9317L44.5091 25.2953L44.1331 25.4319L46.9073 33.0683L47.2832 32.9317ZM44.3211 25.5636H45.917V25.1636H44.3211V25.5636ZM45.727 25.4262L47.6609 31.3026L48.0409 31.1775L46.1069 25.3011L45.727 25.4262ZM47.8509 31.4401H47.9305V31.0401H47.8509V31.4401ZM48.1205 31.3024L50.0495 25.426L49.6694 25.3013L47.7404 31.1777L48.1205 31.3024ZM49.8594 25.5636H51.4553V25.1636H49.8594V25.5636Z" fill="#EDBE5C"/>
</svg>
