<svg width="60" height="60" viewBox="0 0 60 60" fill="none" xmlns="http://www.w3.org/2000/svg">
<g clip-path="url(#clip0_637_9318)">
<path d="M20.2853 31.8197C20.6678 31.8197 21.0198 31.5679 21.1301 31.1819L25.8657 14.6067C25.9992 14.1399 25.7289 13.6534 25.2621 13.5199C24.7955 13.3865 24.3087 13.6568 24.1753 14.1236L19.4396 30.6989C19.3062 31.1656 19.5765 31.6522 20.0433 31.7856C20.124 31.8086 20.2052 31.8197 20.2853 31.8197Z" fill="#EDBE5C"/>
<path d="M28.5478 29.2066C28.7182 29.3703 28.9376 29.4515 29.1565 29.4515C29.3874 29.4515 29.6181 29.3609 29.7907 29.1813L35.4737 23.2615C35.8003 22.9213 35.8003 22.384 35.4737 22.0438L29.7907 16.1242C29.4545 15.774 28.8978 15.7628 28.5477 16.0989C28.1975 16.4351 28.186 16.9917 28.5224 17.3418L33.6208 22.6526L28.5224 27.9636C28.1862 28.3138 28.1976 28.8704 28.5478 29.2066Z" fill="#EDBE5C"/>
<path d="M16.7578 16.0989C16.4075 15.7626 15.851 15.7742 15.5149 16.1242L9.8319 22.0438C9.50529 22.384 9.50529 22.9213 9.8319 23.2615L15.5149 29.1813C15.6875 29.361 15.9181 29.4515 16.1491 29.4515C16.3681 29.4515 16.5874 29.3703 16.7578 29.2066C17.1079 28.8704 17.1194 28.3138 16.7831 27.9637L11.6846 22.6528L16.7831 17.3419C17.1193 16.9915 17.1079 16.4351 16.7578 16.0989Z" fill="#EDBE5C"/>
<path d="M59.7429 50.7977L51.2581 42.3129C50.9147 41.9698 50.3582 41.9698 50.0148 42.3129L49.0962 43.2315L45.7187 39.854L46.6375 38.9353C46.9807 38.5919 46.9807 38.0354 46.6375 37.6921L42.5152 33.5696C43.3597 32.0357 44.0278 30.4063 44.4959 28.7139C45.5016 25.0774 45.5841 21.2108 44.7347 17.5321C44.6254 17.0591 44.1532 16.764 43.6804 16.8733C43.2073 16.9826 42.9124 17.4546 43.0217 17.9277C44.6569 25.0103 42.5687 32.3032 37.436 37.4359C33.3597 41.5117 28.007 43.5493 22.6528 43.5489C17.2999 43.5484 11.9454 41.5107 7.87068 37.436C-0.279944 29.2842 -0.279944 16.0213 7.87068 7.87065C16.0213 -0.279975 29.2844 -0.279975 37.4359 7.87065C39.2762 9.71085 40.737 11.8386 41.7778 14.1948C41.974 14.6389 42.4933 14.8399 42.9372 14.6437C43.3813 14.4476 43.5823 13.9285 43.3861 13.4845C42.2572 10.9289 40.6737 8.62194 38.6792 6.62741C29.842 -2.20853 15.4638 -2.20876 6.62744 6.62741C-2.20862 15.4636 -2.20862 29.8419 6.62744 38.6791C11.046 43.0976 16.8485 45.3068 22.6528 45.3062C26.4176 45.3058 30.1828 44.3748 33.57 42.5154L37.6921 46.6374C37.8638 46.809 38.0888 46.8949 38.3138 46.8949C38.5388 46.8949 38.7638 46.809 38.9354 46.6374L39.8542 45.7187L43.2317 49.0962L42.313 50.0148C41.9698 50.3581 41.9698 50.9147 42.313 51.258L44.8471 53.7921C45.0188 53.9637 45.2438 54.0496 45.4688 54.0496C45.6938 54.0496 45.9188 53.9637 46.0904 53.7921C46.4337 53.4487 46.4337 52.8922 46.0904 52.5489L44.1779 50.6365L50.6366 44.1778L58.4998 52.0411C58.8431 52.3842 59.3997 52.3842 59.743 52.0411C60.0861 51.6976 60.0861 51.1411 59.7429 50.7977ZM38.3138 44.7725L35.1224 41.5812C36.3803 40.7522 37.5733 39.7848 38.6792 38.6791C39.7678 37.5905 40.7373 36.3956 41.5787 35.1199L44.7726 38.3137L38.3138 44.7725ZM41.0974 44.4753L44.4754 41.0974L47.8528 44.4749L44.4749 47.8528L41.0974 44.4753Z" fill="#EDBE5C"/>
<path d="M48.9896 55.4484C48.6465 55.1053 48.0899 55.1052 47.7465 55.4485C47.4033 55.7918 47.4033 56.3484 47.7466 56.6917L50.7976 59.7425C50.9692 59.9141 51.1942 60 51.4192 60C51.6442 60 51.8692 59.9141 52.0409 59.7424C52.3841 59.3992 52.3841 58.8425 52.0407 58.4993L48.9896 55.4484Z" fill="#F2BD4D"/>
<path d="M7.03688 19.1666C6.55782 19.0874 6.10535 19.4114 6.02614 19.8905C5.13985 25.2478 6.90024 30.7357 10.7351 34.5706C13.918 37.7541 18.1504 39.5074 22.6523 39.5074C27.1542 39.5074 31.3869 37.7542 34.5706 34.5707C37.7541 31.3872 39.5073 27.1545 39.5073 22.6525C39.5073 18.1505 37.7539 13.9181 34.5706 10.7352C31.387 7.55158 27.1545 5.79834 22.6525 5.79834C18.1505 5.79834 13.9181 7.5517 10.7355 10.7349C9.2727 12.1965 8.10715 13.8857 7.27137 15.7555C7.07321 16.1987 7.27196 16.7186 7.71516 16.9167C8.15789 17.1147 8.67832 16.9162 8.87637 16.473C9.62426 14.8 10.6678 13.2878 11.9786 11.9782C14.8295 9.1267 18.6202 7.55639 22.6526 7.55639C26.685 7.55639 30.476 9.12682 33.3275 11.9783C36.1791 14.8293 37.7494 18.6201 37.7494 22.6522C37.7494 26.6847 36.1789 30.4757 33.3274 33.3271C30.4759 36.1785 26.6849 37.749 22.6526 37.749C18.6203 37.749 14.8295 36.1787 11.9786 33.3271C8.54367 29.8923 6.96692 24.9764 7.76086 20.1771C7.83996 19.6984 7.51594 19.2458 7.03688 19.1666Z" fill="#EDBE5C"/>
</g>
<defs>
<clipPath id="clip0_637_9318">
<rect width="60" height="60" fill="white"/>
</clipPath>
</defs>
</svg>
